<svg width="21" height="23" viewBox="0 0 21 23" fill="none" xmlns="http://www.w3.org/2000/svg">
<path d="M20.8008 11.5L16.8008 15.5L15.3908 14.09L16.9708 12.5H11.7408C11.4008 15.6 9.48078 18.22 6.80078 19.55C6.76078 21.19 5.44078 22.5 3.80078 22.5C2.14078 22.5 0.800781 21.16 0.800781 19.5C0.800781 17.84 2.14078 16.5 3.80078 16.5C4.75078 16.5 5.58078 16.95 6.13078 17.64C8.03078 16.61 9.39078 14.73 9.71078 12.5H6.61078C6.20078 13.66 5.10078 14.5 3.80078 14.5C2.14078 14.5 0.800781 13.16 0.800781 11.5C0.800781 9.84 2.14078 8.5 3.80078 8.5C5.10078 8.5 6.20078 9.34 6.62078 10.5H9.72078C9.40078 8.27 8.03078 6.4 6.13078 5.36C5.58078 6.05 4.75078 6.5 3.80078 6.5C2.14078 6.5 0.800781 5.16 0.800781 3.5C0.800781 1.84 2.14078 0.5 3.80078 0.5C5.44078 0.5 6.76078 1.81 6.79078 3.45C9.47078 4.78 11.3908 7.4 11.7308 10.5H16.9608L15.3808 8.91L16.8008 7.5L20.8008 11.5Z" fill="#4B2F9B"/>
</svg>
