<svg width="415" height="74" viewBox="0 0 415 74" fill="none" xmlns="http://www.w3.org/2000/svg">
<g clip-path="url(#clip0_6941_297)">
<path d="M335.568 2.75382C335.707 2.59705 335.904 2.50055 336.115 2.48535C336.185 2.48965 336.253 2.50782 336.316 2.53875C336.378 2.56968 336.434 2.61274 336.479 2.66534C336.525 2.71794 336.559 2.779 336.579 2.84483C336.6 2.91067 336.607 2.97992 336.6 3.04843C336.585 3.26563 336.487 3.46938 336.326 3.61904C329.091 12.4543 323.829 22.7867 323.829 37.117C323.829 51.4473 329.117 61.563 336.326 70.3983C336.487 70.5481 336.585 70.752 336.6 70.9694C336.607 71.0379 336.6 71.1071 336.579 71.1729C336.558 71.2386 336.524 71.2996 336.479 71.3522C336.434 71.4047 336.378 71.4477 336.316 71.4786C336.253 71.5095 336.185 71.5277 336.115 71.532C336.01 71.5249 335.908 71.4975 335.814 71.4514C335.72 71.4054 335.637 71.3415 335.568 71.2635L304.723 41.9715C303.94 41.3943 303.305 40.6462 302.867 39.7864C302.43 38.9266 302.202 37.9786 302.202 37.0175C302.202 36.0563 302.43 35.1084 302.867 34.2486C303.305 33.3887 303.94 32.6406 304.723 32.0634L335.568 2.76236" fill="white"/>
<path d="M359.267 0.270508C347.193 0.270508 342.478 17.0758 342.478 37.1087C342.478 57.1411 347.193 73.7303 359.267 73.7303C366.511 73.7303 372.689 69.559 372.715 66.1323C372.712 65.7393 372.628 65.351 372.467 64.9911C372.307 64.6311 372.073 64.307 371.781 64.0383C368.344 60.7845 367.004 57.5222 366.987 54.649C366.987 49.1631 371.817 45.0783 376.285 45.0783C382.454 45.0783 386.049 49.8207 386.049 55.9557C386.049 61.7709 383.52 66.6255 380.761 70.5026C380.659 70.6472 380.603 70.8191 380.603 70.9953C380.594 71.0615 380.599 71.1288 380.618 71.193C380.637 71.2572 380.668 71.317 380.711 71.3688C380.754 71.4206 380.807 71.4633 380.867 71.4944C380.928 71.5254 380.994 71.5441 381.061 71.5494C381.283 71.526 381.488 71.4209 381.634 71.2552L412.48 41.9632C413.262 41.386 413.898 40.6379 414.335 39.778C414.773 38.9182 415 37.9701 415 37.0089C415 36.0477 414.773 35.0997 414.335 34.2398C413.898 33.38 413.262 32.6318 412.48 32.0546L381.634 2.75407C381.488 2.58841 381.283 2.48331 381.061 2.45997C380.779 2.45997 380.603 2.71084 380.603 3.02254C380.604 3.19881 380.659 3.37071 380.762 3.51523C383.503 7.39241 386.049 12.2379 386.049 18.0536C386.049 24.1887 382.427 28.9396 376.285 28.9396C371.817 28.9396 366.969 24.8462 366.987 19.3603C366.987 16.4956 368.344 13.2333 371.781 9.97099C372.073 9.70204 372.306 9.37782 372.467 9.01793C372.627 8.65804 372.712 8.26993 372.715 7.87706C372.715 4.41565 366.546 0.279054 359.267 0.279054M43.8666 49.509C43.8389 48.1064 44.159 46.7182 44.7991 45.464C45.4393 44.2098 46.3804 43.1273 47.5414 42.3096C50.2741 40.5025 53.5204 39.5934 56.8129 39.7135C59.0018 39.6865 61.1759 40.0682 63.2197 40.8381V37.3767C63.167 33.9153 61.8362 31.9596 57.8794 31.9169C56.6066 31.9586 55.3459 32.174 54.1335 32.5569C54.2659 33.0456 54.3369 33.5484 54.345 34.054C54.3711 35.1515 53.9853 36.2201 53.2611 37.0564C52.8778 37.4684 52.4087 37.7944 51.8857 38.0125C51.3627 38.2305 50.7979 38.3353 50.2299 38.3198C49.6979 38.3143 49.1722 38.2057 48.683 38.0003C48.1938 37.7949 47.7507 37.4968 47.379 37.123C47.0073 36.7492 46.7143 36.3071 46.5169 35.822C46.3195 35.3368 46.2215 34.8182 46.2286 34.2959C46.2813 30.0989 51.4634 27.278 58.3904 27.2695C63.8894 27.2695 67.3353 28.55 69.1862 30.8782C70.8605 32.9721 70.9491 36.0183 70.9491 40.3278V51.5773C70.9491 53.7491 72.2357 54.3373 74.9853 54.7617H75.3027V55.0734C75.144 58.0325 72.9229 59.2612 70.5435 59.4432H69.9266C68.7392 59.4756 67.5684 59.1647 66.5594 58.5494C65.5504 57.934 64.7476 57.0412 64.2509 55.9818C61.7129 58.1251 58.5021 59.3471 55.156 59.4432C48.7661 59.4432 43.9107 55.2031 43.902 49.4049M240.08 57.9807C239.509 57.0907 239.12 56.1004 238.934 55.0648C238.616 55.4192 238.246 55.7913 237.674 56.3277C235.532 58.3189 232.691 59.4224 229.742 59.4085C228.232 59.4572 226.73 59.1803 225.341 58.5971C223.953 58.014 222.711 57.139 221.704 56.0336C218.911 52.7542 218.928 48.6005 218.928 42.6988V37.0132C218.867 34.7116 218.135 33.9238 215.958 33.872C215.664 33.8741 215.37 33.8914 215.077 33.9238H214.821L214.724 33.6815C214.56 33.2916 214.474 32.8746 214.469 32.4528C214.539 29.7013 218.082 28.2297 220.162 27.8059C220.849 27.681 221.544 27.6059 222.242 27.5812C222.94 27.53 223.641 27.6385 224.289 27.8982C224.938 28.1579 225.516 28.5617 225.979 29.0779C226.779 30.1925 227.167 31.5418 227.08 32.9028L227.027 42.6123C227.027 46.1949 227.283 48.8775 228.094 50.608C228.905 52.3389 230.147 53.1262 232.421 53.1433C233.407 53.206 234.391 52.9961 235.262 52.5373C236.133 52.0785 236.855 51.3892 237.348 50.5476C238.281 48.794 238.731 46.8308 238.652 44.8535V36.9956C238.59 34.694 237.85 33.9067 235.682 33.855C235.387 33.8567 235.093 33.874 234.8 33.9067H234.536L234.439 33.6644C234.269 33.3189 234.162 32.947 234.121 32.5654C234.193 29.8134 237.735 28.3423 239.824 27.9185C240.511 27.7931 241.206 27.7179 241.904 27.6933C242.604 27.643 243.305 27.7519 243.955 28.0116C244.605 28.2712 245.185 28.6747 245.649 29.1905C246.456 30.3021 246.849 31.6529 246.76 33.0154C246.76 34.1315 246.654 36.1047 246.654 44.3774C246.654 47.8388 246.592 49.7342 246.592 50.2963C246.645 52.6763 247.473 53.7577 249.712 53.7577H250.735L250.831 54C250.993 54.3786 251.08 54.784 251.087 55.1945C250.999 57.8772 247.447 58.9586 245.385 59.3568C244.742 59.4746 244.091 59.5468 243.437 59.5729C242.799 59.6214 242.16 59.5122 241.576 59.2552C240.993 58.9982 240.484 58.6017 240.097 58.1019M127.687 43.9189C127.544 39.5286 129.121 35.2515 132.094 31.9686C133.596 30.4332 135.408 29.2222 137.415 28.4131C139.421 27.604 141.576 27.2145 143.744 27.2695C145.547 27.1993 147.344 27.5073 149.016 28.1728C150.687 28.8384 152.195 29.8462 153.439 31.1291C155.443 33.301 156.557 36.1245 156.567 39.0554C156.593 40.5624 156.229 42.0511 155.51 43.3825L155.413 43.5554H135.989C136.315 49.1193 139.92 53.0136 146.204 53.0744C147.674 53.0842 149.13 52.793 150.478 52.2193C151.827 51.6457 153.04 50.8022 154.038 49.7427L154.249 49.4828L154.523 49.6819C154.916 49.9677 155.229 50.3475 155.431 50.7852C155.633 51.2229 155.718 51.7041 155.677 52.1831C155.677 55.3936 151.826 59.5036 143.339 59.5036C141.266 59.5037 139.213 59.0994 137.3 58.3142C135.387 57.5289 133.652 56.3783 132.196 54.9291C130.74 53.48 129.591 51.7612 128.817 49.8725C128.043 47.9839 127.659 45.9631 127.687 43.9275M196.719 59.4603C194.631 59.4859 192.557 59.1061 190.619 58.3428C188.68 57.5795 186.914 56.4478 185.421 55.0125C183.884 53.47 182.676 51.641 181.869 49.6332C181.063 47.6254 180.673 45.4795 180.724 43.3217C180.694 41.213 181.094 39.1198 181.901 37.1652C182.707 35.2106 183.903 33.434 185.419 31.94C186.935 30.446 188.74 29.2647 190.727 28.4655C192.715 27.6664 194.845 27.2655 196.993 27.2866C199.115 27.2306 201.228 27.5923 203.206 28.3503C205.184 29.1083 206.988 30.2473 208.511 31.7002C210.848 33.9672 212.441 36.8682 213.087 40.0307C213.732 43.1932 213.4 46.473 212.134 49.4491C210.868 52.4252 208.724 54.9618 205.979 56.7333C203.234 58.5049 200.013 59.4305 196.728 59.3914L196.719 59.4603ZM256.41 58.5257C255.053 58.1627 254.181 57.4358 254.189 56.3368C254.21 55.8516 254.336 55.3764 254.559 54.9431L254.63 54.7873H254.797C255.57 54.6385 256.297 54.3159 256.921 53.8446C257.732 53.1956 258.041 52.2866 258.041 49.7342V36.8317C257.979 34.6684 257.476 33.9158 255.643 33.8635C255.155 33.8714 254.668 33.9235 254.189 34.0193L253.907 34.0711L253.801 33.8117C253.621 33.3742 253.526 32.9076 253.52 32.4357C253.564 29.8395 256.428 28.5414 258.349 27.9532C259.05 27.7333 259.781 27.6166 260.517 27.6068C263.161 27.6068 264.553 29.4504 265.152 31.8213C266.863 29.0608 269.559 27.2348 272.282 27.2262C274.812 27.2262 277.35 28.8531 277.358 31.9335C277.404 33.0741 276.989 34.1862 276.203 35.0275C275.417 35.8688 274.325 36.3711 273.163 36.425C272.227 36.4462 271.312 36.147 270.576 35.5786C269.839 35.0102 269.327 34.208 269.127 33.3095C267.647 33.7856 265.549 35.6201 265.531 41.9632V49.7508C265.531 52.2947 265.902 53.2122 266.633 53.8527C267.513 54.3396 268.479 54.6595 269.48 54.7958H269.647L269.718 54.9517C269.961 55.4194 270.099 55.9328 270.123 56.4574C270.123 57.4956 269.339 58.1879 268.07 58.5514C266.198 58.9691 264.277 59.1408 262.359 59.0621C260.361 59.1359 258.361 58.9559 256.41 58.5257ZM162.111 58.5252C160.754 58.1622 159.872 57.4262 159.872 56.3272C159.889 55.8454 160.012 55.373 160.233 54.9426L160.304 54.7868H160.48C161.259 54.6379 161.994 54.3186 162.631 53.8527C163.415 53.1951 163.732 52.2861 163.75 49.7422V32.7992L159.131 32.6433L159.053 32.4442C158.828 31.9418 158.709 31.4005 158.7 30.8521C158.697 30.4807 158.771 30.1126 158.919 29.7705C159.066 29.4284 159.283 29.1194 159.556 28.8626C159.829 28.6057 160.153 28.4064 160.507 28.2768C160.862 28.1472 161.24 28.0902 161.617 28.1091H163.618V26.2399C163.618 21.7227 164.499 19.1526 165.645 17.4302C167.407 14.6873 170.571 12.801 175.339 12.801C181.323 12.801 186.347 15.5354 186.373 19.9314C186.392 20.4821 186.298 21.031 186.098 21.5456C185.897 22.0603 185.594 22.5303 185.205 22.9279C184.817 23.3255 184.351 23.6427 183.836 23.8608C183.32 24.0789 182.766 24.1935 182.204 24.1977C181.143 24.1825 180.129 23.7653 179.373 23.0332C178.618 22.301 178.18 21.3106 178.15 20.2687C178.161 19.476 178.399 18.7023 178.838 18.0366C177.971 17.4307 176.922 17.1261 175.859 17.1708C173.999 17.1708 172.986 17.8113 172.334 18.858C171.664 20.2014 171.361 21.6923 171.453 23.1852V28.0397H179.384L179.472 28.2473C179.697 28.7615 179.814 29.3147 179.816 29.8742C179.842 30.6392 179.571 31.3853 179.057 31.9607C178.543 32.5362 177.825 32.8978 177.049 32.9721C176.463 33.0212 175.874 33.0414 175.286 33.0325C173.964 33.0325 172.642 32.9374 171.691 32.9203V49.6734C171.691 52.2087 172.122 53.1348 172.907 53.7753C173.691 54.4158 175.551 54.6405 176.141 54.7184H176.309L176.379 54.8828C176.581 55.2815 176.692 55.7184 176.705 56.1633C176.705 57.3231 175.744 58.0501 174.29 58.4392C172.249 58.8873 170.158 59.0765 168.068 59.0023C166.061 59.0771 164.053 58.8966 162.093 58.4654M106.747 58.4654C105.399 58.1019 104.526 57.3749 104.536 56.2759C104.559 55.7942 104.685 55.3225 104.905 54.8914L104.976 54.7355H105.152C105.931 54.5864 106.666 54.267 107.302 53.8009C108.087 53.1433 108.413 52.2348 108.422 49.691V36.8317C108.36 34.6684 107.84 33.9158 106.016 33.8635C105.527 33.8714 105.04 33.9235 104.562 34.0193L104.28 34.0711L104.174 33.8117C103.985 33.3673 103.887 32.891 103.883 32.4096C103.927 29.8134 106.791 28.5414 108.73 27.9532C109.42 27.7344 110.139 27.6177 110.863 27.6068C113.507 27.6068 114.917 29.4243 115.534 31.7605C117.296 29.0346 119.994 27.2348 122.681 27.2177C125.175 27.2177 127.74 28.8355 127.749 31.9164C127.794 33.0627 127.374 34.1797 126.581 35.0219C125.787 35.864 124.686 36.3624 123.518 36.4074C122.586 36.4289 121.675 36.1291 120.945 35.5601C120.214 34.991 119.709 34.1887 119.518 33.2924C118.019 33.777 115.895 35.603 115.869 41.9456V49.7342C115.869 52.2781 116.257 53.1956 117.032 53.8356C117.906 54.3301 118.87 54.6506 119.87 54.7787H120.037L120.117 54.9346C120.352 55.398 120.484 55.9053 120.505 56.4227C120.505 57.4614 119.72 58.1537 118.442 58.5257C116.565 58.9464 114.638 59.121 112.714 59.045C110.716 59.1194 108.716 58.939 106.765 58.5086M80.6082 58.5086C79.2595 58.1451 78.3963 57.4182 78.3963 56.3192C78.4156 55.8378 78.5387 55.3659 78.7573 54.9346L78.8279 54.7787H79.004C79.7832 54.6298 80.5182 54.3106 81.1545 53.8446C81.9389 53.1865 82.2651 52.2781 82.2738 49.7342V36.8317C82.2031 34.6684 81.6921 33.9158 79.8591 33.8635C79.3705 33.8714 78.8838 33.9235 78.405 34.0193L78.1229 34.0711L78.0169 33.8117C77.8282 33.3673 77.7295 32.891 77.7261 32.4096C77.7701 29.8134 80.6343 28.5414 82.5733 27.9532C83.2598 27.7349 83.9756 27.6182 84.6971 27.6068C87.3411 27.6068 88.7512 29.4243 89.3682 31.752C91.1306 29.0346 93.8278 27.2348 96.5159 27.2172C99.0094 27.2172 101.583 28.836 101.592 31.9249C101.637 33.0713 101.217 34.1884 100.424 35.0307C99.6307 35.873 98.5292 36.3715 97.3618 36.4164C96.4296 36.4363 95.5196 36.1359 94.789 35.5671C94.0584 34.9982 93.5531 34.1967 93.3604 33.3009C91.8622 33.7856 89.7384 35.6115 89.7205 41.9547V49.7422C89.7205 52.2866 90.0994 53.2041 90.8838 53.8446C91.757 54.3401 92.7216 54.6606 93.7218 54.7878H93.898L93.9686 54.9436C94.2073 55.4062 94.3425 55.9137 94.3649 56.4318C94.3649 57.4704 93.5718 58.1627 92.2938 58.5348C90.4161 58.9555 88.4899 59.1299 86.5655 59.0536C84.5673 59.1276 82.5679 58.9473 80.6169 58.5172M189.687 42.4479C189.687 50.885 193.441 54.5193 197.107 54.5626C201.293 54.5626 204.325 50.9277 204.352 43.8239C204.352 40.1111 203.514 37.1429 202.148 35.1701C201.594 34.2468 200.809 33.4786 199.866 32.9392C198.923 32.3997 197.855 32.1071 196.763 32.0893C192.41 32.0893 189.713 35.9574 189.713 42.5258M58.2496 44.3081C54.7945 44.3081 52.4767 45.9349 52.4587 49.0851C52.4587 52.0614 54.5216 54.0608 57.7468 54.0779C58.8217 54.0395 59.8754 53.7729 60.8354 53.2964C61.7954 52.8199 62.6388 52.1449 63.3078 51.3178V46.9907C63.2641 46.6222 63.1265 46.2705 62.9078 45.9681C62.6891 45.6656 62.3963 45.4222 62.0564 45.2603C60.8914 44.6368 59.5751 44.3375 58.2496 44.3945M147.631 39.2891C148.248 39.2891 148.415 39.1418 148.512 38.9432C148.646 38.5836 148.697 38.1994 148.662 37.8181C148.652 37.0625 148.489 36.3163 148.183 35.6228C147.878 34.9292 147.435 34.302 146.881 33.7773C146.327 33.2527 145.673 32.841 144.956 32.5662C144.239 32.2913 143.474 32.1586 142.705 32.1758C138.201 32.1758 136.377 35.7151 136.094 39.2896H147.596L147.631 39.2891ZM8.94941 53.914C5.15027 50.0881 2.7008 44.4981 2.7008 37.5406C2.58148 31.5587 4.78749 25.7569 8.87005 21.3155C10.6685 19.3732 12.8566 17.8171 15.2969 16.745C17.7372 15.6728 20.3769 15.1078 23.0502 15.0854C32.6653 15.0854 39.451 21.7051 39.4864 27.4168C39.4864 30.4715 37.5126 32.8339 34.8506 32.8424C33.5777 32.862 32.3453 32.4038 31.4048 31.5614C30.9232 31.1023 30.5444 30.5497 30.2926 29.9388C30.0407 29.328 29.9213 28.6723 29.9419 28.0135C29.9564 27.3309 30.1078 26.6578 30.3875 26.0327C30.6673 25.4076 31.0698 24.8428 31.5722 24.3706C30.2681 22.1812 27.7654 20.4507 23.8434 20.4507C20.5122 20.4507 17.6741 22.1812 15.6824 25.1409C13.6906 28.1 12.4659 32.4181 12.4659 37.4984C12.4659 42.5786 13.7086 46.8349 15.7884 49.8116C17.8682 52.7889 20.7324 54.4761 24.0635 54.4846C27.9855 54.4846 30.4883 52.7542 31.7488 50.5562C30.7415 49.6055 30.1583 48.3019 30.1268 46.9304C30.1071 46.2704 30.2269 45.6135 30.4788 45.0013C30.7307 44.3891 31.1091 43.8348 31.5901 43.3734C32.5303 42.5296 33.7623 42.0688 35.036 42.0844C37.68 42.0844 39.6625 44.4383 39.6717 47.4839C39.6717 53.2212 32.8502 59.7982 23.2351 59.8238C20.5708 59.8284 17.9328 59.3076 15.4773 58.2924C13.0219 57.2771 10.7991 55.7881 8.94071 53.9135M8.94071 53.9135C5.14208 50.0886 2.6921 44.4986 2.6921 37.5411C2.57278 31.5592 4.77878 25.7574 8.86134 21.316C10.6597 19.3736 12.8478 17.8174 15.2881 16.7452C17.7284 15.673 20.3682 15.1079 23.0415 15.0854C32.6561 15.0854 39.4423 21.7051 39.4772 27.4168C39.4772 30.4715 37.5033 32.8339 34.8419 32.8424C33.569 32.862 32.3366 32.4038 31.3961 31.5614C30.9145 31.1023 30.5357 30.5497 30.2839 29.9388C30.032 29.328 29.9126 28.6723 29.9332 28.0135C29.9477 27.3309 30.0991 26.6578 30.3788 26.0327C30.6586 25.4076 31.0611 24.8428 31.5635 24.3706C30.2681 22.1812 27.7654 20.4507 23.8434 20.4507C20.5122 20.4507 17.6741 22.1812 15.6824 25.1409C13.6906 28.1 12.4659 32.4181 12.4659 37.4984C12.4659 42.5786 13.7086 46.8349 15.7884 49.8116C17.8682 52.7889 20.7324 54.4761 24.0635 54.4846C27.9855 54.4846 30.4883 52.7542 31.7488 50.5562C30.7415 49.6055 30.1583 48.3019 30.1268 46.9304C30.1071 46.2704 30.2269 45.6135 30.4788 45.0013C30.7307 44.3891 31.1091 43.8348 31.5901 43.3734C32.5303 42.5296 33.7623 42.0688 35.036 42.0844C37.68 42.0844 39.6625 44.4383 39.6717 47.4839C39.6717 53.2212 32.8502 59.7982 23.2351 59.8238C20.5708 59.8284 17.9328 59.3076 15.4773 58.2924C13.0219 57.2771 10.7991 55.7881 8.94071 53.9135ZM8.94071 53.9135C5.14208 50.0886 2.6921 44.4986 2.6921 37.5411C2.57278 31.5592 4.77878 25.7574 8.86134 21.316C10.6597 19.3736 12.8478 17.8174 15.2881 16.7452C17.7284 15.673 20.3682 15.1079 23.0415 15.0854C32.6561 15.0854 39.4423 21.7051 39.4772 27.4168C39.4772 30.4715 37.5033 32.8339 34.8419 32.8424C33.569 32.862 32.3366 32.4038 31.3961 31.5614C30.9145 31.1023 30.5357 30.5497 30.2839 29.9388C30.032 29.328 29.9126 28.6723 29.9332 28.0135C29.9477 27.3309 30.0991 26.6578 30.3788 26.0327C30.6586 25.4076 31.0611 24.8428 31.5635 24.3706C30.2681 22.1812 27.7654 20.4507 23.8434 20.4507C20.5122 20.4507 17.6741 22.1812 15.6824 25.1409C13.6906 28.1 12.4659 32.4181 12.4659 37.4984C12.4659 42.5786 13.7086 46.8349 15.7884 49.8116C17.8682 52.7889 20.7324 54.4761 24.0635 54.4846C27.9855 54.4846 30.4883 52.7542 31.7488 50.5562C30.7415 49.6055 30.1583 48.3019 30.1268 46.9304C30.1071 46.2704 30.2269 45.6135 30.4788 45.0013C30.7307 44.3891 31.1091 43.8348 31.5901 43.3734C32.5303 42.5296 33.7623 42.0688 35.036 42.0844C37.68 42.0844 39.6625 44.4383 39.6717 47.4839C39.6717 53.2212 32.8502 59.7982 23.2351 59.8238C20.5708 59.8284 17.9328 59.3076 15.4773 58.2924C13.0219 57.2771 10.7991 55.7881 8.94071 53.9135Z" fill="white"/>
</g>
<defs>
<clipPath id="clip0_6941_297">
<rect width="415" height="74" fill="white"/>
</clipPath>
</defs>
</svg>
