<svg width="259" height="69" viewBox="0 0 259 69" fill="none" xmlns="http://www.w3.org/2000/svg">
<mask id="mask0_6941_331" style="mask-type:luminance" maskUnits="userSpaceOnUse" x="0" y="1" width="259" height="68">
<path d="M259 1.04492H0V68.1801H259V1.04492Z" fill="white"/>
</mask>
<g mask="url(#mask0_6941_331)">
<path d="M55.8439 16.3634H45.8618V6.35973C45.8618 3.4235 43.4883 1.04492 40.5585 1.04492H5.30333C2.37345 1.04492 0 3.4235 0 6.35973V57.0098C0 59.946 2.37345 62.3246 5.30333 62.3246H50.9552L55.895 67.2753C56.4741 67.8557 57.252 68.1801 58.0697 68.1801C59.7675 68.1801 61.1473 66.8029 61.1473 65.0958V21.6782C61.1473 18.742 58.7738 16.3634 55.8439 16.3634ZM56.0539 57.2147H5.09324V6.14919H40.7629V16.3634H20.5886C17.6588 16.3634 15.2854 18.742 15.2854 21.6782V41.6914C15.2854 44.6276 17.6588 47.0061 20.5886 47.0061H40.5585C43.4883 47.0061 45.8618 44.6276 45.8618 41.6914V21.4735H56.0539V57.2203V57.2147ZM40.7686 21.4677V41.8962H20.3842V21.4677H40.7686Z" fill="black"/>
<path d="M138.477 17.9565C136.422 16.6534 133.997 15.9933 131.277 15.9933C128.557 15.9933 126.133 16.6534 124.077 17.9565C122.022 19.2596 120.404 21.109 119.257 23.4591C118.115 25.8034 117.536 28.5746 117.536 31.7044C117.536 34.8341 118.115 37.5655 119.257 39.8929C120.404 42.2316 122.027 44.0754 124.077 45.3784C126.133 46.6815 128.557 47.3415 131.277 47.3415C133.997 47.3415 136.422 46.6815 138.477 45.3784C140.532 44.0754 142.151 42.2316 143.298 39.8929C144.439 37.5655 145.018 34.8113 145.018 31.7044C145.018 28.5974 144.439 25.7978 143.298 23.4591C142.151 21.109 140.527 19.2596 138.477 17.9565ZM138.971 37.1558C138.358 38.806 137.404 40.1547 136.138 41.1675C134.877 42.1691 133.242 42.6812 131.277 42.6812C129.312 42.6812 127.677 42.1747 126.417 41.1675C125.145 40.1547 124.191 38.806 123.583 37.1558C122.964 35.4884 122.652 33.6562 122.652 31.7044C122.652 29.7527 122.964 27.9147 123.583 26.2359C124.197 24.5743 125.15 23.2087 126.422 22.1845C127.683 21.1715 129.318 20.6536 131.283 20.6536C133.247 20.6536 134.883 21.1659 136.143 22.1845C137.415 23.2087 138.369 24.5687 138.982 26.2359C139.601 27.9147 139.913 29.7583 139.913 31.7044C139.913 33.6506 139.601 35.4884 138.982 37.1558H138.971Z" fill="black"/>
<path d="M162.973 20.6654L162.938 16.227C162.938 16.062 162.802 15.9311 162.643 15.9254C162.268 15.9197 161.945 15.9141 161.672 15.9141C159.844 15.9141 158.18 16.392 156.721 17.3367C155.432 18.1675 154.484 19.2373 153.893 20.5176V16.6823C153.893 16.5172 153.757 16.3807 153.592 16.3807H149.232C149.067 16.3807 148.931 16.5172 148.931 16.6823V46.6024C148.931 46.7674 149.067 46.9039 149.232 46.9039H153.746C153.91 46.9039 154.047 46.7674 154.047 46.6024V27.5908C154.047 26.3046 154.359 25.1439 154.983 24.1367C155.608 23.1295 156.471 22.327 157.55 21.7525C158.634 21.1777 159.889 20.8818 161.28 20.8818C161.746 20.8818 162.2 20.9103 162.632 20.9614C162.814 20.9841 162.967 20.8476 162.967 20.6654H162.973Z" fill="black"/>
<path d="M198.131 16.3859H202.646C202.81 16.3859 202.946 16.5224 202.946 16.6875V46.727C202.946 46.892 202.81 47.0285 202.646 47.0285H198.131C197.967 47.0285 197.829 46.892 197.829 46.727V16.6875C197.829 16.5224 197.967 16.3859 198.131 16.3859Z" fill="black"/>
<path d="M200.425 5.20996C199.465 5.20996 198.63 5.54 197.943 6.20009C197.252 6.86018 196.899 7.66252 196.899 8.59005C196.899 9.51758 197.252 10.3199 197.943 10.98C198.63 11.6344 199.465 11.9701 200.425 11.9701C201.384 11.9701 202.219 11.6401 202.907 10.98C203.598 10.3199 203.95 9.51758 203.95 8.59005C203.95 7.66252 203.598 6.86018 202.907 6.20009C202.219 5.54569 201.384 5.20996 200.425 5.20996Z" fill="black"/>
<path d="M227.299 17.7573C226.107 17.046 224.864 16.568 223.586 16.3347C222.332 16.1071 221.206 15.9933 220.235 15.9933C218.726 15.9933 217.165 16.2038 215.609 16.6135C214.034 17.0289 212.57 17.763 211.252 18.7986C209.998 19.7831 208.97 21.1431 208.198 22.8445C208.124 23.0039 208.204 23.1973 208.368 23.2542L212.65 24.8248C212.791 24.876 212.944 24.8134 213.019 24.6769C213.518 23.7208 214.325 22.8047 215.432 21.9512C216.613 21.035 218.283 20.574 220.394 20.574C222.507 20.574 223.932 21.0805 224.908 22.0819C225.89 23.0835 226.384 24.5174 226.384 26.3499V26.5033C226.384 27.1407 226.176 27.5676 225.738 27.8179C225.249 28.0967 224.454 28.2958 223.369 28.4154C222.246 28.5349 220.763 28.7169 218.963 28.9502C217.584 29.1324 216.192 29.3771 214.83 29.6844C213.451 29.9916 212.173 30.4639 211.031 31.0784C209.873 31.7044 208.931 32.5807 208.237 33.6847C207.539 34.7886 207.187 36.2396 207.187 37.9924C207.187 39.9783 207.658 41.6968 208.59 43.1023C209.516 44.5021 210.786 45.5889 212.359 46.3229C213.928 47.0571 215.687 47.4269 217.606 47.4269C219.367 47.4269 220.876 47.1595 222.11 46.6303C223.336 46.101 224.335 45.4466 225.078 44.6899C225.63 44.1265 226.067 43.5859 226.39 43.0682V46.6416C226.39 46.7953 226.515 46.9148 226.664 46.9148H231.234C231.387 46.9148 231.506 46.7897 231.506 46.6416V26.8278C231.506 24.4264 231.104 22.4747 230.314 21.0292C229.518 19.5839 228.503 18.4857 227.299 17.763V17.7573ZM226.39 35.6593C226.39 36.8485 226.079 37.9924 225.471 39.0735C224.858 40.1489 223.943 41.0424 222.745 41.7251C221.547 42.408 220.055 42.7551 218.305 42.7551C216.555 42.7551 215.091 42.3625 213.962 41.5886C212.849 40.8261 212.309 39.7278 212.309 38.2199C212.309 37.1331 212.598 36.2681 213.171 35.6421C213.762 34.9991 214.558 34.5098 215.534 34.1855C216.538 33.8498 217.634 33.6049 218.804 33.4514C219.292 33.3888 219.935 33.3034 220.729 33.2068C221.525 33.11 222.354 32.9904 223.2 32.8539C224.051 32.7172 224.817 32.5522 225.477 32.3588C225.851 32.2507 226.151 32.1369 226.39 32.0118V35.6593Z" fill="black"/>
<path d="M256.967 32.8424C255.632 31.488 253.588 30.4638 250.898 29.8094L246.485 28.7226C244.777 28.2957 243.51 27.7551 242.72 27.1235C241.959 26.5146 241.585 25.7009 241.585 24.6426C241.585 23.4476 242.136 22.4859 243.277 21.7006C244.43 20.904 245.906 20.5 247.661 20.5C248.938 20.5 250 20.7048 250.806 21.1089C251.619 21.5128 252.265 22.0307 252.731 22.651C253.145 23.1972 253.48 23.7661 253.724 24.3409C253.788 24.4832 253.935 24.5572 254.082 24.5173L258.137 23.3337C258.301 23.2826 258.398 23.1004 258.342 22.9353C257.602 20.9097 256.404 19.2481 254.764 17.9905C253.037 16.6646 250.646 15.9932 247.661 15.9932C245.543 15.9932 243.618 16.3744 241.948 17.1255C240.268 17.8767 238.922 18.935 237.951 20.2609C236.975 21.5982 236.474 23.1517 236.474 24.8873C236.474 27.0041 237.139 28.7964 238.456 30.202C239.757 31.6019 241.818 32.6433 244.583 33.2977L249.539 34.4641C250.982 34.7998 252.055 35.3063 252.737 35.9721C253.413 36.6264 253.736 37.4175 253.736 38.3848C253.736 39.5798 253.156 40.5813 251.964 41.4462C250.76 42.3169 249.109 42.7607 247.046 42.7607C245.241 42.7607 243.771 42.3738 242.664 41.6056C241.635 40.8942 240.909 39.8301 240.5 38.4361C240.456 38.2824 240.295 38.1857 240.143 38.2256L235.844 39.2952C235.686 39.3352 235.583 39.5002 235.617 39.6595C236.196 42.1119 237.48 44.0182 239.444 45.3158C241.466 46.6587 244.05 47.3414 247.126 47.3414C249.467 47.3414 251.544 46.9431 253.316 46.1522C255.094 45.3613 256.501 44.2573 257.501 42.8803C258.506 41.4917 259.016 39.8985 259.016 38.1402C259.016 35.9948 258.329 34.2081 256.983 32.8367L256.967 32.8424Z" fill="black"/>
<path d="M96.3171 40.5982C93.7677 40.5982 92.7627 39.9438 92.7627 38.3277C92.7627 36.3646 95.3178 35.3971 95.3178 35.3971C97.0099 36.0401 99.0029 36.3588 101.155 36.3588C108.406 36.3588 113.573 32.5235 113.573 26.4006C113.573 25.0805 113.136 22.8327 111.347 20.6533H116.843C117.008 20.6533 117.144 20.5168 117.144 20.3517V16.6815C117.144 16.5164 117.008 16.3799 116.843 16.3799H101.155C93.9721 16.3799 88.8732 20.2152 88.8732 26.4006C88.8732 29.627 90.2813 32.2503 92.7002 34.0029C90.0827 35.1468 88.2713 36.9621 88.2713 39.5169C88.2713 41.5314 89.2649 43.3239 91.4625 44.297C90.5084 44.5416 86.125 46.0382 86.125 50.7556C86.125 56.2069 92.7002 58.6935 100.621 58.6935C109.348 58.6935 117.536 55.8655 117.536 48.5362C117.536 43.9611 114.18 40.5982 107.804 40.5982H96.3171ZM101.178 20.6591C105.652 20.6591 108.4 22.7018 108.4 26.4347C108.4 30.1676 105.658 32.0853 101.178 32.0853C96.6976 32.0853 94.0288 30.0425 94.0288 26.4347C94.0288 22.8272 96.7714 20.6591 101.178 20.6591ZM100.627 54.3631C95.1021 54.3631 91.2806 52.8438 91.2806 49.3614C91.2806 46.3852 93.9436 45.4349 97.0099 45.4349H106.628C110.109 45.4349 112.358 46.3226 112.358 48.8549C112.358 52.8438 107.446 54.3631 100.627 54.3631Z" fill="black"/>
<path d="M172.608 40.5982C170.059 40.5982 169.054 39.9438 169.054 38.3277C169.054 36.3646 171.609 35.3971 171.609 35.3971C173.301 36.0401 175.294 36.3588 177.446 36.3588C184.697 36.3588 189.864 32.5235 189.864 26.4006C189.864 25.0805 189.426 22.8327 187.637 20.6533H193.134C193.3 20.6533 193.436 20.5168 193.436 20.3517V16.6815C193.436 16.5164 193.3 16.3799 193.134 16.3799H177.446C170.263 16.3799 165.164 20.2152 165.164 26.4006C165.164 29.627 166.573 32.2503 168.991 34.0029C166.374 35.1468 164.562 36.9621 164.562 39.5169C164.562 41.5314 165.556 43.3239 167.753 44.297C166.8 44.5416 162.416 46.0382 162.416 50.7556C162.416 56.2069 168.991 58.6935 176.912 58.6935C185.639 58.6935 193.827 55.8655 193.827 48.5362C193.827 43.9611 190.471 40.5982 184.095 40.5982H172.608ZM177.469 20.6591C181.943 20.6591 184.691 22.7018 184.691 26.4347C184.691 30.1676 181.949 32.0853 177.469 32.0853C172.989 32.0853 170.32 30.0425 170.32 26.4347C170.32 22.8272 173.062 20.6591 177.469 20.6591ZM176.918 54.3631C171.393 54.3631 167.572 52.8438 167.572 49.3614C167.572 46.3852 170.235 45.4349 173.301 45.4349H182.92C186.4 45.4349 188.649 46.3226 188.649 48.8549C188.649 52.8438 183.737 54.3631 176.918 54.3631Z" fill="black"/>
</g>
</svg>
