<?xml version="1.0" encoding="UTF-8" standalone="no"?>
<svg
   viewBox="0 0 644.37487 323.32562"
   fill="currentColor"
   version="1.1"
   id="svg883"
   sodipodi:docname="VRT 2022.svg"
   width="644.37488"
   height="323.32562"
   inkscape:version="1.1.2 (b8e25be833, 2022-02-05)"
   xmlns:inkscape="http://www.inkscape.org/namespaces/inkscape"
   xmlns:sodipodi="http://sodipodi.sourceforge.net/DTD/sodipodi-0.dtd"
   xmlns="http://www.w3.org/2000/svg"
   xmlns:svg="http://www.w3.org/2000/svg">
  <defs
     id="defs887">
    <clipPath
       id="vrtnws-id">
      <rect
         width="101.798"
         height="24"
         fill="#ffffff"
         id="rect981"
         x="0"
         y="0" />
    </clipPath>
  </defs>
  <sodipodi:namedview
     id="namedview885"
     pagecolor="#ffffff"
     bordercolor="#666666"
     borderopacity="1.0"
     inkscape:pageshadow="2"
     inkscape:pageopacity="0.0"
     inkscape:pagecheckerboard="0"
     showgrid="false"
     fit-margin-top="0"
     fit-margin-left="0"
     fit-margin-right="0"
     fit-margin-bottom="0"
     inkscape:zoom="0.81722727"
     inkscape:cx="866.9559"
     inkscape:cy="300.40603"
     inkscape:window-width="1920"
     inkscape:window-height="989"
     inkscape:window-x="-9"
     inkscape:window-y="-9"
     inkscape:window-maximized="1"
     inkscape:current-layer="svg883" />
  <path
     d="M 565.16178,42.553442 C 554.2525,32.791473 547.93599,18.133537 546.7262,0 h -65.76337 c 0.46395,13.095969 2.69993,26.068702 6.64835,38.563952 6.32776,20.338108 17.97163,38.617596 33.72822,52.949962 15.4022,13.693306 34.18413,23.021446 54.40143,27.018996 9.0599,1.85258 18.28415,2.77403 27.53256,2.75035 h 20.9744 V 55.518926 H 603.3942 c -15.35388,0 -28.50073,-4.412525 -38.1116,-13.026054"
     fill="currentColor"
     id="path867"
     style="fill:#031037;stroke-width:16.1094;fill-opacity:1" />
  <path
     d="m 438.01518,69.783954 c -79.72699,0 -181.5158,17.559236 -155.40408,250.364436 h 70.72184 c -2.72087,-30.22282 -4.71523,-55.00552 -4.92627,-79.27431 0,-69.18018 18.13275,-109.37569 88.58234,-106.50451 l 14.44529,0.54401 V 70.539485 c -4.74421,-0.544014 -11.90807,-0.725245 -13.41912,-0.755531 z"
     fill="currentColor"
     id="path869"
     style="fill:#031037;stroke-width:16.1094;fill-opacity:1" />
  <path
     d="m 205.51315,70.539485 c -9.88311,36.267075 -22.42427,76.644455 -34.90744,114.090255 -9.06636,27.20071 -28.01552,78.5784 -28.01552,78.5784 h -3.02228 C 129.50373,236.85478 120.70896,211.83045 111.55158,184.62974 98.797615,147.21423 85.681023,106.83684 75.858645,70.539485 H 0 c 13.267695,41.676925 27.804811,83.293455 43.883112,125.635865 16.078461,42.34192 31.582625,83.65607 50.078944,123.91183 h 91.483624 c 18.31477,-40.31698 33.78945,-81.60052 49.95845,-123.91183 16.169,-42.31213 30.73511,-83.95894 44.00442,-125.635865 z"
     fill="currentColor"
     id="path871"
     style="fill:#031037;stroke-width:16.1094;fill-opacity:1" />
  <path
     d="m 624.12698,247.03914 c -12.84562,6.43731 -28.74238,10.88028 -39.68226,10.88028 -20.61196,0 -32.18819,-7.31366 -36.26707,-32.27838 -3.02213,-18.52581 -4.26254,-56.45537 -0.72654,-90.66705 h -67.63689 c -3.32497,40.80042 -3.536,65.94557 1.78332,101.60854 8.37044,56.27495 42.3113,87.13087 99.15975,86.73942 20.67157,0 38.50306,-4.29316 63.61758,-17.46902 z"
     fill="currentColor"
     id="path873"
     style="fill:#031037;stroke-width:16.1094;fill-opacity:1" />
  <path
     d="M 565.16178,42.553442 C 554.2525,32.791473 547.93599,18.133537 546.7262,0 h -65.76337 c 0.46395,13.095969 2.69993,26.068702 6.64835,38.563952 6.32776,20.338108 17.97163,38.617596 33.72822,52.949962 15.4022,13.693306 34.18413,23.021446 54.40143,27.018996 9.0599,1.85258 18.28415,2.77403 27.53256,2.75035 h 20.9744 V 55.518926 H 603.3942 c -15.35388,0 -28.50073,-4.412525 -38.1116,-13.026054"
     fill="currentColor"
     id="path875"
     style="fill:#031037;fill-opacity:1;stroke-width:16.1094" />
  <path
     d="m 438.01518,69.783954 c -79.72699,0 -181.5158,17.559236 -155.40408,250.364436 h 70.72184 c -2.72087,-30.22282 -4.71523,-55.00552 -4.92627,-79.27431 0,-69.18018 18.13275,-109.37569 88.58234,-106.50451 l 14.44529,0.54401 V 70.539485 c -4.74421,-0.544014 -11.90807,-0.725245 -13.41912,-0.755531 z"
     fill="currentColor"
     id="path877"
     style="fill:#031037;fill-opacity:1;stroke-width:16.1094" />
  <path
     d="m 205.51315,70.539485 c -9.88311,36.267075 -22.42427,76.644455 -34.90744,114.090255 -9.06636,27.20071 -28.01552,78.5784 -28.01552,78.5784 h -3.02228 C 129.50373,236.85478 120.70896,211.83045 111.55158,184.62974 98.797615,147.21423 85.681023,106.83684 75.858645,70.539485 H 0 c 13.267695,41.676925 27.804811,83.293455 43.883112,125.635865 16.078461,42.34192 31.582625,83.65607 50.078944,123.91183 h 91.483624 c 18.31477,-40.31698 33.78945,-81.60052 49.95845,-123.91183 16.169,-42.31213 30.73511,-83.95894 44.00442,-125.635865 z"
     fill="currentColor"
     id="path879"
     style="fill:#031037;fill-opacity:1;stroke-width:16.1094" />
  <path
     d="m 624.12698,247.03914 c -12.84562,6.43731 -28.74238,10.88028 -39.68226,10.88028 -20.61196,0 -32.18819,-7.31366 -36.26707,-32.27838 -3.02213,-18.52581 -4.26254,-56.45537 -0.72654,-90.66705 h -67.63689 c -3.32497,40.80042 -3.536,65.94557 1.78332,101.60854 8.37044,56.27495 42.3113,87.13087 99.15975,86.73942 20.67157,0 38.50306,-4.29316 63.61758,-17.46902 z"
     fill="currentColor"
     id="path881"
     style="fill:#031037;fill-opacity:1;stroke-width:16.1094" />
</svg>
