<svg width="789px" height="188px" xmlns="http://www.w3.org/2000/svg" viewBox="0 0 789 188">
    <defs>
        <linearGradient x1="50.196%" y1="99.088%" x2="50.196%" y2="2.138%" id="a">
            <stop stop-color="#00AFFF" offset="0%"/>
            <stop stop-color="#0093FF" offset="24.94%"/>
            <stop stop-color="#007FFF" offset="50.46%"/>
            <stop stop-color="#0072FF" offset="75.67%"/>
            <stop stop-color="#006EFF" offset="100%"/>
        </linearGradient>
        <linearGradient x1="50.223%" y1="99.325%" x2="50.223%" y2="2.375%" id="b">
            <stop stop-color="#00AFFF" offset="0%"/>
            <stop stop-color="#0093FF" offset="24.94%"/>
            <stop stop-color="#007FFF" offset="50.46%"/>
            <stop stop-color="#0072FF" offset="75.67%"/>
            <stop stop-color="#006EFF" offset="100%"/>
        </linearGradient>
        <linearGradient x1="50.036%" y1="98.853%" x2="50.036%" y2="2.132%" id="c">
            <stop stop-color="#00AFFF" offset="0%"/>
            <stop stop-color="#0093FF" offset="24.94%"/>
            <stop stop-color="#007FFF" offset="50.46%"/>
            <stop stop-color="#0072FF" offset="75.67%"/>
            <stop stop-color="#006EFF" offset="100%"/>
        </linearGradient>
        <linearGradient x1="49.531%" y1="100.375%" x2="49.531%" y2="29.391%" id="d">
            <stop stop-color="#00AFFF" offset="0%"/>
            <stop stop-color="#0093FF" offset="24.94%"/>
            <stop stop-color="#007FFF" offset="50.46%"/>
            <stop stop-color="#0072FF" offset="75.67%"/>
            <stop stop-color="#006EFF" offset="100%"/>
        </linearGradient>
        <linearGradient x1="49.769%" y1="100.375%" x2="49.769%" y2="29.391%" id="e">
            <stop stop-color="#00AFFF" offset="0%"/>
            <stop stop-color="#0093FF" offset="24.94%"/>
            <stop stop-color="#007FFF" offset="50.46%"/>
            <stop stop-color="#0072FF" offset="75.67%"/>
            <stop stop-color="#006EFF" offset="100%"/>
        </linearGradient>
        <linearGradient x1="49.97%" y1="99.088%" x2="49.97%" y2="2.138%" id="f">
            <stop stop-color="#00AFFF" offset="0%"/>
            <stop stop-color="#0093FF" offset="24.94%"/>
            <stop stop-color="#007FFF" offset="50.46%"/>
            <stop stop-color="#0072FF" offset="75.67%"/>
            <stop stop-color="#006EFF" offset="100%"/>
        </linearGradient>
        <linearGradient x1="49.889%" y1="99.088%" x2="49.889%" y2="2.138%" id="g">
            <stop stop-color="#00AFFF" offset="0%"/>
            <stop stop-color="#0093FF" offset="24.94%"/>
            <stop stop-color="#007FFF" offset="50.46%"/>
            <stop stop-color="#0072FF" offset="75.67%"/>
            <stop stop-color="#006EFF" offset="100%"/>
        </linearGradient>
    </defs>
    <g fill-rule="nonzero" fill="none">
        <path d="M392.662 50C354.408 50 324 80.043 324 118.162 324 156.28 354.08 186 392.662 186c38.255 0 68.335-29.72 68.335-67.838.327-39.088-29.1-68.162-68.335-68.162zm0 110.803c-23.214 0-41.851-19.06-41.851-42.641 0-23.582 18.637-42.965 41.851-42.965s41.851 19.383 41.851 42.965c0 23.258-18.637 42.64-41.85 42.64z" fill="url(#a)"/>
        <path d="M544.67 161.126c-24.961 0-43.44-18.413-43.44-42.641 0-24.552 18.803-42.965 43.44-42.965 11.022 0 21.72 4.846 29.176 13.568L592 71.32C585.516 63.245 568.66 50 544.346 50 504.148 50 474 79.397 474 118.162 474 156.28 504.797 186 544.346 186c12.967 0 27.555-4.523 37.929-12.276 3.566-2.907 6.807-5.814 9.725-9.045l-18.478-17.444-.324.323c-7.132 8.722-17.506 13.568-28.528 13.568z" fill="url(#b)"/>
        <path d="M710.204 50v13.408l-8.83-4.579c-9.81-5.232-20.929-7.848-32.374-7.848-38.26 0-69 30.74-69 68.673 0 36.953 30.412 67.692 67.692 68.346H669c11.118 0 22.564-3.597 32.374-10.464l9.484-6.214v14.716H738L737.673 50h-27.47zm-35.318 112.166l-.98.327h-5.56c-22.891-.327-41.53-19.621-41.53-43.166 0-23.872 18.966-43.166 41.857-43.166 21.583 0 39.896 17.332 41.858 39.569v5.232c.327 21.256-14.716 38.26-35.645 41.204z" fill="url(#c)"/>
        <path fill="url(#d)" d="M279 0h28v186h-28z"/>
        <path fill="url(#e)" d="M761 0h28v186h-28z"/>
        <path d="M191.5 50c-38.164 0-68.5 30.043-68.5 68.162C123 156.28 153.01 186 191.5 186c38.49 0 68.5-29.72 68.5-67.838C259.674 79.074 230.317 50 191.5 50zm0 110.803c-23.16 0-41.752-19.06-41.752-42.641 0-23.582 18.592-42.965 41.752-42.965 23.16 0 41.752 19.383 41.752 42.965 0 23.258-18.919 42.64-41.752 42.64z" fill="url(#f)"/>
        <path d="M53.553 186c-10.386 0-20.448-1.292-30.185-4.2-9.736-2.907-17.526-6.137-23.368-10.337l11.035-22.936c5.842 3.877 12.658 7.107 20.447 9.368 8.114 2.262 16.229 3.554 24.018 3.554 18.175 0 27.263-5.169 27.263-15.183 0-4.846-2.272-8.399-7.14-10.337-4.544-1.939-12.009-3.554-22.07-5.169-10.386-1.615-19.15-3.553-25.64-5.815-6.492-2.26-12.334-5.814-16.878-11.306-4.868-5.169-7.14-12.922-7.14-22.29 0-12.275 5.193-22.613 14.93-30.043C28.886 53.876 42.518 50 59.719 50c8.763 0 17.527.97 26.29 3.23 8.438 1.939 15.579 4.846 21.096 8.076L96.07 84.242c-10.71-6.46-23.044-9.69-36.35-9.69-8.764 0-15.58 1.291-20.124 4.199-4.543 2.907-7.14 6.783-7.14 11.306 0 5.169 2.597 9.045 7.465 10.983 4.868 1.939 12.658 4.2 22.72 5.815 10.06 1.615 18.5 3.554 24.99 5.815 6.492 2.261 12.01 5.815 16.553 10.983 4.544 5.169 6.816 12.276 6.816 21.644 0 12.275-5.193 22.29-15.254 29.72C85.36 182.447 71.079 186 53.553 186z" fill="url(#g)"/>
    </g>
</svg>
