<svg width="104" height="104" viewBox="0 0 104 104" fill="none" xmlns="http://www.w3.org/2000/svg">
<g clip-path="url(#clip0_352_1788)">
<path d="M39.0006 65C27.4306 65 4.33398 70.8067 4.33398 82.3333V91H73.6673V82.3333C73.6673 70.8067 50.5706 65 39.0006 65Z" fill="#D0C2F7"/>
<path d="M95.7683 29.64C95.8116 29.1633 95.8549 28.6867 95.8549 28.1667C95.8549 27.6467 95.8116 27.17 95.7249 26.6933L98.9316 24.18C99.2349 23.9633 99.2783 23.53 99.1049 23.2267L96.0716 17.9833C95.8983 17.6367 95.4649 17.55 95.1616 17.6367L91.4349 19.1533C90.6549 18.5467 89.7883 18.07 88.8783 17.68L88.3149 13.65C88.2283 13.26 87.9249 13 87.5349 13H81.4683C81.0783 13 80.7749 13.26 80.7316 13.65L80.1683 17.68C79.2583 18.07 78.3916 18.59 77.6116 19.1533L73.8416 17.6367C73.4949 17.5067 73.1049 17.6367 72.9316 17.9833L69.8983 23.2267C69.7249 23.5733 69.7683 23.9633 70.0716 24.18L73.2783 26.6933C73.1916 27.17 73.1483 27.69 73.1483 28.1667C73.1483 28.6433 73.1916 29.1633 73.2783 29.64L70.0716 32.1533C69.7683 32.37 69.7249 32.8033 69.8983 33.1067L72.9316 38.35C73.1049 38.6967 73.5383 38.7833 73.8416 38.6967L77.6116 37.18C78.3916 37.7867 79.2583 38.2633 80.1683 38.6533L80.7316 42.6833C80.7749 43.0733 81.0783 43.3333 81.4683 43.3333H87.5349C87.9249 43.3333 88.2283 43.0733 88.2716 42.6833L88.8349 38.6533C89.7449 38.2633 90.6116 37.7433 91.3916 37.18L95.1616 38.6967C95.5083 38.8267 95.8983 38.6967 96.0716 38.35L99.1049 33.1067C99.2783 32.76 99.2349 32.37 98.9316 32.1533L95.7683 29.64ZM84.5016 33.5833C81.5116 33.5833 79.0849 31.1567 79.0849 28.1667C79.0849 25.1767 81.5116 22.75 84.5016 22.75C87.4916 22.75 89.9183 25.1767 89.9183 28.1667C89.9183 31.1567 87.4916 33.5833 84.5016 33.5833Z" fill="#D0C2F7"/>
<path d="M86.3211 50.6133L84.1544 46.8433C84.0244 46.5833 83.7211 46.4966 83.5044 46.5833L80.8178 47.6666C80.2544 47.2333 79.6478 46.8866 78.9978 46.6266L78.6078 43.7666C78.5211 43.5066 78.2611 43.3333 78.0011 43.3333H73.6678C73.4078 43.3333 73.1911 43.5066 73.1478 43.8099L72.7578 46.6699C72.1078 46.9299 71.5011 47.3199 70.9378 47.7099L68.2511 46.6266C67.9911 46.5399 67.7311 46.6266 67.6011 46.8866L65.4345 50.6566C65.3045 50.9166 65.3478 51.1766 65.5645 51.3499L67.8611 53.1266C67.8178 53.4733 67.7745 53.8199 67.7745 54.1666C67.7745 54.5133 67.8178 54.9032 67.8611 55.2066L65.5645 56.9832C65.3478 57.1566 65.3045 57.4599 65.4345 57.6766L67.6011 61.4466C67.7311 61.7066 68.0345 61.7932 68.2511 61.7066L70.9378 60.6232C71.5011 61.0566 72.1078 61.4032 72.7578 61.6632L73.1478 64.5233C73.1911 64.8266 73.4078 64.9999 73.6678 64.9999H78.0011C78.2611 64.9999 78.5211 64.8266 78.5211 64.5233L78.9111 61.6632C79.5611 61.4032 80.1678 61.0133 80.7311 60.6232L83.4178 61.7066C83.6778 61.7932 83.9378 61.7066 84.0678 61.4466L86.2344 57.6766C86.3644 57.4166 86.3211 57.1566 86.1045 56.9832L83.8511 55.2066C83.8944 54.8599 83.9378 54.5133 83.9378 54.1666C83.9378 53.8199 83.8944 53.4299 83.8511 53.1266L86.1478 51.3499C86.3644 51.1766 86.4078 50.8733 86.3211 50.6133ZM75.8344 57.7633C73.8411 57.7633 72.2378 56.1166 72.2378 54.1666C72.2378 52.1733 73.8844 50.5699 75.8344 50.5699C77.7844 50.5699 79.4311 52.2166 79.4311 54.1666C79.4311 56.1599 77.8278 57.7633 75.8344 57.7633Z" fill="#D0C2F7"/>
<path d="M20.5413 38.9999H57.5046C58.6746 38.9999 59.628 38.0466 59.628 36.8766V36.7899C59.628 35.6199 58.6746 34.6666 57.5046 34.6666H56.3346C56.3346 28.2533 52.8246 22.7499 47.668 19.7166V23.8333C47.668 25.0466 46.7146 25.9999 45.5013 25.9999C44.288 25.9999 43.3346 25.0466 43.3346 23.8333V17.9399C41.948 17.5933 40.518 17.3333 39.0013 17.3333C37.4846 17.3333 36.0546 17.5933 34.668 17.9399V23.8333C34.668 25.0466 33.7146 25.9999 32.5013 25.9999C31.288 25.9999 30.3346 25.0466 30.3346 23.8333V19.7166C25.178 22.7499 21.668 28.2533 21.668 34.6666H20.5413C19.3713 34.6666 18.418 35.6199 18.418 36.7899V36.9199C18.418 38.0466 19.3713 38.9999 20.5413 38.9999Z" fill="#D0C2F7"/>
<path d="M39.0001 56.3333C47.0601 56.3333 53.7768 50.7866 55.7268 43.3333H22.2734C24.2234 50.7866 30.9401 56.3333 39.0001 56.3333Z" fill="#D0C2F7"/>
</g>
<defs>
<clipPath id="clip0_352_1788">
<rect width="104" height="104" fill="white"/>
</clipPath>
</defs>
</svg>
