<svg width="88" height="78" viewBox="0 0 88 78" fill="none" xmlns="http://www.w3.org/2000/svg">
<path d="M34.6667 52C23.0967 52 0 57.8067 0 69.3333V78H69.3333V69.3333C69.3333 57.8067 46.2367 52 34.6667 52Z" fill="#D0C2F7"/>
<path d="M84.4323 16.64C84.4757 16.1633 84.519 15.6867 84.519 15.1667C84.519 14.6467 84.4757 14.17 84.389 13.6933L87.5957 11.18C87.899 10.9633 87.9423 10.53 87.769 10.2267L84.7357 4.98333C84.5623 4.63667 84.129 4.55 83.8257 4.63667L80.099 6.15333C79.319 5.54667 78.4523 5.07 77.5423 4.68L76.979 0.65C76.8923 0.26 76.589 0 76.199 0H70.1323C69.7423 0 69.439 0.26 69.3957 0.65L68.8323 4.68C67.9223 5.07 67.0557 5.59 66.2757 6.15333L62.5057 4.63667C62.159 4.50667 61.769 4.63667 61.5957 4.98333L58.5623 10.2267C58.389 10.5733 58.4323 10.9633 58.7357 11.18L61.9423 13.6933C61.8557 14.17 61.8123 14.69 61.8123 15.1667C61.8123 15.6433 61.8557 16.1633 61.9423 16.64L58.7357 19.1533C58.4323 19.37 58.389 19.8033 58.5623 20.1067L61.5957 25.35C61.769 25.6967 62.2023 25.7833 62.5057 25.6967L66.2757 24.18C67.0557 24.7867 67.9223 25.2633 68.8323 25.6533L69.3957 29.6833C69.439 30.0733 69.7423 30.3333 70.1323 30.3333H76.199C76.589 30.3333 76.8923 30.0733 76.9357 29.6833L77.499 25.6533C78.409 25.2633 79.2757 24.7433 80.0557 24.18L83.8257 25.6967C84.1723 25.8267 84.5623 25.6967 84.7357 25.35L87.769 20.1067C87.9423 19.76 87.899 19.37 87.5957 19.1533L84.4323 16.64ZM73.1657 20.5833C70.1757 20.5833 67.749 18.1567 67.749 15.1667C67.749 12.1767 70.1757 9.75 73.1657 9.75C76.1557 9.75 78.5823 12.1767 78.5823 15.1667C78.5823 18.1567 76.1557 20.5833 73.1657 20.5833Z" fill="#D0C2F7"/>
<path d="M74.9871 37.6133L72.8205 33.8433C72.6905 33.5833 72.3871 33.4966 72.1705 33.5833L69.4838 34.6666C68.9205 34.2333 68.3138 33.8866 67.6638 33.6266L67.2738 30.7666C67.1871 30.5066 66.9271 30.3333 66.6671 30.3333H62.3338C62.0738 30.3333 61.8571 30.5066 61.8138 30.8099L61.4238 33.6699C60.7738 33.9299 60.1671 34.3199 59.6038 34.7099L56.9171 33.6266C56.6571 33.5399 56.3971 33.6266 56.2671 33.8866L54.1005 37.6566C53.9705 37.9166 54.0138 38.1766 54.2305 38.3499L56.5271 40.1266C56.4838 40.4733 56.4405 40.8199 56.4405 41.1666C56.4405 41.5133 56.4838 41.9032 56.5271 42.2066L54.2305 43.9832C54.0138 44.1566 53.9705 44.4599 54.1005 44.6766L56.2671 48.4466C56.3971 48.7066 56.7005 48.7932 56.9171 48.7066L59.6038 47.6232C60.1671 48.0566 60.7738 48.4032 61.4238 48.6632L61.8138 51.5233C61.8571 51.8266 62.0738 51.9999 62.3338 51.9999H66.6671C66.9271 51.9999 67.1871 51.8266 67.1871 51.5233L67.5771 48.6632C68.2271 48.4032 68.8338 48.0132 69.3971 47.6232L72.0838 48.7066C72.3438 48.7932 72.6038 48.7066 72.7338 48.4466L74.9005 44.6766C75.0305 44.4166 74.9871 44.1566 74.7705 43.9832L72.5171 42.2066C72.5605 41.8599 72.6038 41.5133 72.6038 41.1666C72.6038 40.8199 72.5605 40.4299 72.5171 40.1266L74.8138 38.3499C75.0305 38.1766 75.0738 37.8733 74.9871 37.6133ZM64.5005 44.7633C62.5071 44.7633 60.9038 43.1166 60.9038 41.1666C60.9038 39.1733 62.5505 37.5699 64.5005 37.5699C66.4505 37.5699 68.0971 39.2166 68.0971 41.1666C68.0971 43.1599 66.4938 44.7633 64.5005 44.7633Z" fill="#D0C2F7"/>
<path d="M16.2054 26H53.1687C54.3387 26 55.292 25.0467 55.292 23.8767V23.79C55.292 22.62 54.3387 21.6667 53.1687 21.6667H51.9987C51.9987 15.2534 48.4887 9.75004 43.332 6.71671V10.8334C43.332 12.0467 42.3787 13 41.1654 13C39.952 13 38.9987 12.0467 38.9987 10.8334V4.94004C37.612 4.59337 36.182 4.33337 34.6654 4.33337C33.1487 4.33337 31.7187 4.59337 30.332 4.94004V10.8334C30.332 12.0467 29.3787 13 28.1654 13C26.952 13 25.9987 12.0467 25.9987 10.8334V6.71671C20.842 9.75004 17.332 15.2534 17.332 21.6667H16.2054C15.0354 21.6667 14.082 22.62 14.082 23.79V23.92C14.082 25.0467 15.0354 26 16.2054 26Z" fill="#D0C2F7"/>
<path d="M34.6681 43.3333C42.7281 43.3333 49.4447 37.7866 51.3947 30.3333H17.9414C19.8914 37.7866 26.6081 43.3333 34.6681 43.3333Z" fill="#D0C2F7"/>
</svg>
