<svg width="105" height="104" viewBox="0 0 105 104" fill="none" xmlns="http://www.w3.org/2000/svg">
<g clip-path="url(#clip0_352_1799)">
<path d="M56.9994 13H48.3327V56.3333H56.9994V13ZM77.9294 22.4033L71.776 28.5567C78.6227 34.06 82.9994 42.51 82.9994 52C82.9994 68.77 69.436 82.3333 52.666 82.3333C35.896 82.3333 22.3327 68.77 22.3327 52C22.3327 42.51 26.7093 34.06 33.5127 28.5133L27.4027 22.4033C18.996 29.5533 13.666 40.1267 13.666 52C13.666 73.5367 31.1294 91 52.666 91C74.2027 91 91.666 73.5367 91.666 52C91.666 40.1267 86.336 29.5533 77.9294 22.4033Z" fill="#D0C2F7"/>
</g>
<defs>
<clipPath id="clip0_352_1799">
<rect width="104" height="104" fill="white" transform="translate(0.666016)"/>
</clipPath>
</defs>
</svg>
