<svg width="79" height="78" viewBox="0 0 79 78" fill="none" xmlns="http://www.w3.org/2000/svg">
<path d="M44.2044 0H35.5378V43.3333H44.2044V0ZM65.1344 9.40333L58.9811 15.5567C65.8278 21.06 70.2044 29.51 70.2044 39C70.2044 55.77 56.6411 69.3333 39.8711 69.3333C23.1011 69.3333 9.53776 55.77 9.53776 39C9.53776 29.51 13.9144 21.06 20.7178 15.5133L14.6078 9.40333C6.20109 16.5533 0.871094 27.1267 0.871094 39C0.871094 60.5367 18.3344 78 39.8711 78C61.4078 78 78.8711 60.5367 78.8711 39C78.8711 27.1267 73.5411 16.5533 65.1344 9.40333Z" fill="#D0C2F7"/>
</svg>
