<svg width="104" height="78" viewBox="0 0 104 78" fill="none" xmlns="http://www.w3.org/2000/svg">
<path d="M52 9.75C63.31 9.75 73.19 18.8175 75.4 31.3463L76.7 38.6588L83.2867 39.195C90.0467 39.7312 95.3333 46.0688 95.3333 53.625C95.3333 61.6687 89.4833 68.25 82.3333 68.25H26C16.4233 68.25 8.66667 59.5238 8.66667 48.75C8.66667 38.7563 15.2967 30.42 24.0933 29.3962L28.73 28.86L30.8967 24.2288C34.97 15.3075 43.0733 9.75 52 9.75ZM52 0C39.4767 0 28.5567 7.995 23.14 19.695C10.14 21.255 0 33.6863 0 48.75C0 64.8862 11.6567 78 26 78H82.3333C94.2933 78 104 67.08 104 53.625C104 40.755 95.1167 30.3225 83.8933 29.445C80.9033 12.6262 67.7733 0 52 0Z" fill="#D0C2F7"/>
</svg>
