<svg width="105" height="104" viewBox="0 0 105 104" fill="none" xmlns="http://www.w3.org/2000/svg">
<g clip-path="url(#clip0_352_1812)">
<path d="M52.377 25.9999C63.687 25.9999 73.567 34.0599 75.777 45.1966L77.077 51.6966L83.6636 52.1733C90.4236 52.6499 95.7103 58.2833 95.7103 64.9999C95.7103 72.1499 89.8603 77.9999 82.7103 77.9999H26.377C16.8003 77.9999 9.04362 70.2433 9.04362 60.6666C9.04362 51.7833 15.6736 44.3733 24.4703 43.4633L29.107 42.9866L31.2736 38.8699C35.347 30.9399 43.4503 25.9999 52.377 25.9999ZM52.377 17.3333C39.8536 17.3333 28.9336 24.4399 23.517 34.8399C10.517 36.2266 0.376953 47.2766 0.376953 60.6666C0.376953 75.0099 12.0336 86.6666 26.377 86.6666H82.7103C94.6703 86.6666 104.377 76.9599 104.377 64.9999C104.377 53.5599 95.4936 44.2866 84.2703 43.5066C81.2803 28.5566 68.1503 17.3333 52.377 17.3333Z" fill="#D0C2F7"/>
</g>
<defs>
<clipPath id="clip0_352_1812">
<rect width="104" height="104" fill="white" transform="translate(0.333984)"/>
</clipPath>
</defs>
</svg>
