<svg width="452" height="71" viewBox="0 0 452 71" fill="none" xmlns="http://www.w3.org/2000/svg">
<path d="M5.98496 70.613C4.61831 70.613 3.27707 70.0567 2.30378 69.0141C0.843555 67.4505 0.53164 65.1342 1.52572 63.2396L31.6007 5.91597C32.2783 4.62383 33.4832 3.68982 34.9035 3.3548C36.3233 3.01978 37.8188 3.31783 39.0023 4.17098L74.6531 29.867L138.511 1.77096C140.464 0.912041 142.745 1.37645 144.206 2.93025C145.667 4.48405 145.99 6.78991 145.013 8.68566L116.005 64.9586C115.334 66.2612 114.128 67.2061 112.703 67.5475C111.278 67.8889 109.775 67.5926 108.587 66.736L73.4366 41.4015L8.01067 70.1867C7.35796 70.4737 6.66828 70.613 5.98496 70.613ZM37.8211 15.7309L17.1261 55.1766L63.9602 34.5712L37.8211 15.7309ZM84.1295 36.6968L109.733 55.1512L129.547 16.7152L84.1295 36.6974V36.6968Z" fill="url(#paint0_linear_8041_2297)"/>
<path d="M139.173 68.5186L175.702 4.48286H189.411L203.563 68.5186H189.058L186.316 55.0746H161.462L153.944 68.5186H139.173ZM171.81 36.4123L167.565 44.0187H184.016L182.424 36.3238C181.54 32.0194 180.655 27.2432 179.771 21.9954H179.594C177.943 25.2384 175.348 30.0441 171.81 36.4123ZM209.522 68.5186L221.462 0.944973H234.906L222.966 68.5186H209.522ZM282.694 29.1596L275.795 68.5186H262.617L263.147 65.5998L262.97 65.5114C259.963 68.1648 256.396 69.4915 252.268 69.4915C247.374 69.4915 243.335 67.752 240.151 64.2731C237.026 60.7942 235.463 56.2834 235.463 50.7407C235.463 47.1438 236.141 43.6354 237.498 40.2155C238.913 36.7366 240.918 33.7294 243.512 31.1939C248.406 26.4177 254.686 24.0297 262.351 24.0297C268.719 24.0297 275.5 25.7396 282.694 29.1596ZM264.651 55.4284L267.923 36.6776C265.801 35.6752 263.531 35.174 261.113 35.174C257.575 35.174 254.656 36.5302 252.357 39.2426C250.116 41.9549 248.996 45.2865 248.996 49.2371C248.996 52.1264 249.703 54.426 251.118 56.136C252.593 57.787 254.568 58.6125 257.044 58.6125C259.698 58.6125 262.233 57.5511 264.651 55.4284ZM293.014 56.3129C293.014 55.0156 293.22 53.1288 293.633 50.6522L296.198 36.1469H289.122L291.068 25.0026H298.144L300.267 12.9738L313.888 12.1778L311.588 25.0026H322.998L321.052 36.1469H309.642L307.166 50.3869C306.93 51.6841 306.812 52.716 306.812 53.4825C306.812 56.6077 308.433 58.1702 311.676 58.1702C313.622 58.1702 315.539 57.6985 317.425 56.7551L315.391 68.3417C313.268 69.1082 310.851 69.4915 308.139 69.4915C303.893 69.4915 300.296 68.4006 297.348 66.2189C294.459 64.0372 293.014 60.7352 293.014 56.3129ZM332.646 11.5586C332.646 9.259 333.442 7.34265 335.034 5.80956C336.626 4.27648 338.572 3.50994 340.872 3.50994C342.935 3.50994 344.675 4.247 346.09 5.72112C347.505 7.13627 348.213 8.84625 348.213 10.8511C348.213 13.1507 347.417 15.067 345.825 16.6001C344.233 18.1332 342.287 18.8997 339.987 18.8997C337.923 18.8997 336.184 18.1922 334.769 16.777C333.354 15.3029 332.646 13.5634 332.646 11.5586ZM323.536 68.5186L331.231 25.0026H344.675L336.98 68.5186H323.536ZM349.302 49.3255C349.302 42.2498 351.72 36.2354 356.555 31.2823C361.272 26.4472 367.287 24.0297 374.598 24.0297C380.848 24.0297 386.008 25.8576 390.076 29.5134C394.204 33.1692 396.268 38.0633 396.268 44.1956C396.268 51.2714 393.85 57.2858 389.015 62.2388C384.298 67.0739 378.283 69.4915 370.972 69.4915C364.722 69.4915 359.533 67.6636 355.405 64.0078C351.337 60.3519 349.302 55.4579 349.302 49.3255ZM362.746 48.4411C362.746 51.2714 363.513 53.571 365.046 55.3399C366.638 57.1089 368.849 57.9934 371.679 57.9934C374.923 57.9934 377.517 56.873 379.463 54.6324C381.703 52.0379 382.824 48.8538 382.824 45.0801C382.824 42.2498 382.028 39.9501 380.436 38.1812C378.903 36.4123 376.721 35.5278 373.891 35.5278C370.648 35.5278 368.053 36.6481 366.107 38.8888C363.867 41.4832 362.746 44.6673 362.746 48.4411ZM401.013 68.5186L408.708 25.0026H421.887L421.179 28.9827L421.356 29.0712C425.425 25.7102 429.877 24.0297 434.712 24.0297C438.839 24.0297 442.112 25.2679 444.529 27.7444C446.947 30.221 448.156 33.4935 448.156 37.5621C448.156 38.9772 447.979 40.7462 447.625 42.8689L443.114 68.5186H429.67L434.004 43.9303C434.24 42.633 434.358 41.5717 434.358 40.7462C434.358 39.2131 433.916 37.9748 433.031 37.0314C432.147 36.088 430.791 35.6162 428.963 35.6162C425.72 35.6162 422.595 36.825 419.587 39.2426L414.457 68.5186H401.013Z" fill="#35444D"/>
<defs>
<linearGradient id="paint0_linear_8041_2297" x1="0.949222" y1="70.7208" x2="71.6596" y2="-54.798" gradientUnits="userSpaceOnUse">
<stop stop-color="#F47C20"/>
<stop offset="1" stop-color="#FDA600"/>
</linearGradient>
</defs>
</svg>
