<svg viewBox="0 0 40 40" fill="none" xmlns="http://www.w3.org/2000/svg">
<path d="M31.5697 8.4302C30.6161 7.47679 29.4682 7 28.125 7H11.875C10.5322 7 9.38386 7.47679 8.43021 8.4302C7.4768 9.38379 7 10.5322 7 11.875V28.1251C7 29.468 7.4768 30.6162 8.43021 31.5696C9.38381 32.5232 10.5322 33 11.875 33H15.6666C15.9147 33 16.1011 32.9915 16.2251 32.9748C16.3492 32.9578 16.4732 32.8844 16.5974 32.7545C16.7217 32.6248 16.7836 32.4357 16.7836 32.1876C16.7836 32.1539 16.7806 31.7698 16.775 31.0364C16.7693 30.3027 16.7665 29.7216 16.7665 29.2927L16.3772 29.3605C16.1289 29.4055 15.8157 29.4254 15.4377 29.4197C15.0598 29.414 14.6675 29.3747 14.2613 29.3012C13.8549 29.2278 13.477 29.0586 13.1271 28.7936C12.7775 28.5282 12.5292 28.1813 12.3825 27.7526L12.2132 27.363C12.1003 27.1037 11.9227 26.8158 11.68 26.5001C11.4374 26.184 11.192 25.9696 10.9438 25.8567L10.8252 25.7721C10.7463 25.7157 10.673 25.6477 10.6052 25.5688C10.5376 25.4896 10.4868 25.4105 10.4529 25.3318C10.4191 25.2526 10.4472 25.1877 10.5376 25.1368C10.6279 25.0861 10.7914 25.061 11.0284 25.061L11.3669 25.1117C11.5927 25.1567 11.8718 25.292 12.2049 25.5178C12.5377 25.7435 12.8113 26.0369 13.0258 26.3979C13.2855 26.8607 13.5983 27.2131 13.9653 27.4557C14.3319 27.6986 14.7015 27.8199 15.0739 27.8199C15.4462 27.8199 15.7678 27.7917 16.0387 27.7355C16.3094 27.679 16.5633 27.5941 16.8004 27.4813C16.902 26.7253 17.1785 26.1438 17.6297 25.7376C16.9866 25.6699 16.4083 25.5684 15.8947 25.4329C15.3813 25.2974 14.8509 25.0775 14.3037 24.7726C13.7562 24.4679 13.3021 24.0901 12.9409 23.6385C12.5799 23.1868 12.2835 22.5944 12.0524 21.8611C11.8211 21.1275 11.7054 20.281 11.7054 19.3219C11.7054 17.9565 12.1513 16.794 13.0428 15.8349C12.6251 14.808 12.6646 13.6572 13.1612 12.3819C13.4884 12.2803 13.9738 12.3565 14.6169 12.6104C15.2602 12.8645 15.7312 13.0818 16.0304 13.2621C16.3295 13.4425 16.5693 13.5949 16.7499 13.7192C17.7995 13.4258 18.8828 13.2791 19.9999 13.2791C21.117 13.2791 22.2004 13.4258 23.2502 13.7192L23.8934 13.313C24.3337 13.042 24.8527 12.7938 25.4508 12.5682C26.0489 12.3426 26.5059 12.2804 26.822 12.3821C27.3296 13.6573 27.375 14.8082 26.9571 15.835C27.8486 16.7943 28.2946 17.9567 28.2946 19.3221C28.2946 20.2814 28.1789 21.1306 27.9476 21.8696C27.7165 22.6088 27.4177 23.2014 27.0506 23.6471C26.684 24.0929 26.2269 24.4679 25.6796 24.7728C25.1322 25.0773 24.6019 25.2976 24.0883 25.4328C23.5748 25.5683 22.9966 25.6702 22.3534 25.7379C22.9398 26.2455 23.2331 27.0465 23.2331 28.1413V32.187C23.2331 32.379 23.2611 32.534 23.3176 32.6525C23.3744 32.771 23.4645 32.8525 23.5886 32.898C23.7132 32.9431 23.8227 32.9712 23.9189 32.9824C24.015 32.9938 24.153 32.9994 24.3336 32.9994H28.1252C29.468 32.9994 30.6164 32.5227 31.5696 31.5691C32.5232 30.6155 33 29.4671 33 28.1243V11.875C32.9999 10.5322 32.5231 9.38362 31.5697 8.4302Z" fill="white"/>
</svg>
