<svg viewBox="0 0 40 40" fill="none" xmlns="http://www.w3.org/2000/svg">
<path d="M12.0691 28.0392C12.1254 28.3286 11.9514 28.6028 11.6597 28.6638C11.3834 28.7196 11.102 28.547 11.0457 28.2575C10.9894 27.9833 11.1634 27.6938 11.4397 27.6329C11.716 27.572 12.0077 27.7497 12.0691 28.0392ZM19.3914 31.6649C19.069 31.8985 18.982 32.3454 19.2021 32.6805C19.4374 33.0157 19.8877 33.102 20.2254 32.8684C20.5478 32.6348 20.6348 32.1879 20.3994 31.8528C20.1845 31.5227 19.7291 31.4313 19.3914 31.6649ZM14.9908 8.18901C15.3132 8.11792 15.5179 7.798 15.4463 7.47808C15.39 7.14293 15.0676 6.9398 14.7452 7.01598C14.4229 7.08707 14.2182 7.40699 14.2796 7.7269C14.3512 8.06206 14.6685 8.26518 14.9908 8.18901ZM8.76358 18.4924C8.25189 18.142 7.55088 18.274 7.19781 18.7971C6.84475 19.3049 6.97779 20.0158 7.48947 20.3662C8.00116 20.7267 8.70218 20.5998 9.05525 20.0768C9.40831 19.5486 9.27527 18.8529 8.76358 18.4924ZM22.6815 9.81399C23.2239 9.49407 23.3826 8.79838 23.0755 8.27534C22.7532 7.73706 22.0675 7.56441 21.5405 7.88432C21.0134 8.20424 20.8395 8.89994 21.1618 9.43821C21.4688 9.96125 22.1545 10.1339 22.6815 9.81399ZM12.9032 12.7593C13.2972 12.485 13.3841 11.9468 13.1232 11.5558C12.8622 11.1648 12.3198 11.0784 11.9412 11.3374C11.5472 11.6116 11.4602 12.1499 11.7211 12.5409C11.9821 12.937 12.5194 13.0233 12.9032 12.7593ZM31.9534 20.681C31.5747 20.7674 31.324 21.1431 31.411 21.5392C31.4826 21.915 31.8664 22.1638 32.245 22.0775C32.6237 22.0064 32.8744 21.6256 32.7874 21.2346C32.7107 20.8588 32.332 20.6099 31.9534 20.681ZM33.9848 17.7967C33.9285 17.5073 33.6471 17.3346 33.3707 17.3905C33.0791 17.4463 32.9051 17.7408 32.9614 18.0303C33.0177 18.3045 33.2991 18.4924 33.5908 18.4365C33.8671 18.3604 34.0564 18.0862 33.9848 17.7967ZM29.8759 14.0542C29.4358 14.3589 29.3335 14.953 29.6252 15.3897C29.9168 15.8264 30.5155 15.928 30.9556 15.6385C31.3803 15.3338 31.4826 14.7397 31.1909 14.303C30.8993 13.8612 30.3006 13.7495 29.8759 14.0542ZM29.5535 21.133C30.8993 23.3216 30.3262 26.2111 28.2078 27.6888C27.3175 28.3134 26.3094 28.5876 25.2963 28.5571C24.6823 30.9489 21.7452 31.8375 19.9184 30.2126C19.8621 30.2583 19.7854 30.2989 19.7291 30.3598C17.7284 31.736 15.0062 31.2434 13.6195 29.2274C13.1232 28.5013 12.8725 27.6735 12.8469 26.8458C9.50042 26.2923 8.24166 22.0724 10.7438 19.7518C9.29574 17.3701 10.7745 14.2979 13.4762 13.9171C14.7606 10.5554 18.982 8.96087 21.8475 11.1648C25.2963 10.0323 28.8218 12.6577 28.5455 16.2987C30.6486 16.9385 31.2472 19.6959 29.5535 21.133ZM25.9717 24.906C25.8131 23.8599 23.8789 24.6724 23.7663 23.5298C23.6077 21.9049 26.0024 18.3959 25.8131 17.0299C25.6391 15.8112 24.8204 15.5522 24.104 15.537C23.4184 15.5217 23.2393 15.6385 23.009 15.7706C22.8606 15.8569 22.6713 16.0194 22.4103 15.7553C22.088 15.4506 21.8424 15.1612 21.4177 15.1003C20.7883 14.9987 20.512 15.2018 20.0566 15.5928C19.8826 15.7401 19.4425 16.2479 19.0332 16.0549C18.8592 15.9686 18.2452 15.6639 17.8051 15.476C16.9711 15.1155 15.7584 15.7096 15.3183 16.4916C14.6582 17.6545 13.3739 22.2349 13.1846 22.8443C12.7445 24.1951 13.7423 25.3122 15.0727 25.2361C15.6407 25.2056 16.0091 25.0025 16.3724 24.3525C16.5771 23.9767 18.5062 18.8834 18.6545 18.6346C18.7569 18.4619 19.1099 18.2283 19.4016 18.3756C19.6933 18.533 19.7547 18.8529 19.7086 19.1424C19.6523 19.635 18.2759 22.7427 18.2298 23.088C18.0559 24.2509 19.6063 24.4388 20.205 23.2912C20.3943 22.9306 22.5434 18.5889 22.7327 18.2994C22.9527 17.9795 23.1114 17.878 23.3314 17.8932C23.49 17.8932 23.7561 17.9389 23.6947 18.4467C23.6231 18.924 21.8987 22.1181 21.7042 22.9002C21.4688 23.9462 22.0419 25.0025 22.9783 25.4697C23.5617 25.7591 26.1764 26.2669 25.9717 24.906ZM26.2634 29.593C25.7363 29.9688 25.6033 30.7102 25.9717 31.2485C26.335 31.7868 27.0667 31.9137 27.6091 31.5532C28.1515 31.1774 28.2794 30.436 27.9161 29.8977C27.5375 29.3595 26.8058 29.2122 26.2634 29.593Z" fill="white"/>
</svg>
