<svg viewBox="0 0 40 40" fill="none" xmlns="http://www.w3.org/2000/svg">
<path d="M26.1533 30.5251C26.1533 29.0003 24.9302 27.7637 23.4222 27.7637H20.6912V30.5273C20.6922 32.0509 21.9142 33.2865 23.4222 33.2865C24.9302 33.2865 26.1533 32.0498 26.1533 30.5251Z" fill="white"/>
<path d="M30.2667 20.8574H23.4222C21.9131 20.8574 20.689 22.0952 20.689 23.621C20.689 25.1469 21.9131 26.3846 23.4222 26.3846H30.2667C31.7757 26.3846 32.9999 25.1469 32.9999 23.621C32.9999 22.0952 31.7757 20.8574 30.2667 20.8574Z" fill="white"/>
<path d="M16.5778 20.8594C15.0698 20.8594 13.8467 22.096 13.8467 23.6208V30.5281C13.8467 32.0529 15.0698 33.2895 16.5778 33.2895C18.0858 33.2895 19.3088 32.0529 19.3088 30.5281V23.6208C19.3078 22.096 18.0847 20.8594 16.5778 20.8594Z" fill="white"/>
<path d="M7.01855 23.621C7.01855 25.1469 8.24271 26.3846 9.75179 26.3846C11.2609 26.3846 12.485 25.1469 12.485 23.621V20.8574H9.75396C9.75287 20.8574 9.75287 20.8574 9.75179 20.8574C8.24271 20.8574 7.01855 22.0952 7.01855 23.621Z" fill="white"/>
<path d="M16.581 7C16.5799 7 16.5788 7 16.5777 7C15.0687 7 13.8445 8.23776 13.8445 9.7636C13.8445 11.2894 15.0687 12.5272 16.5777 12.5272H19.3088V9.7636C19.3088 9.76251 19.3088 9.76032 19.3088 9.75813C19.3077 8.23447 18.0868 7 16.581 7Z" fill="white"/>
<path d="M9.73323 19.4549H16.5777C18.0868 19.4549 19.3109 18.2172 19.3109 16.6913C19.3109 15.1655 18.0868 13.9277 16.5777 13.9277H9.73323C8.22416 13.9277 7 15.1655 7 16.6913C7 18.2172 8.22416 19.4549 9.73323 19.4549Z" fill="white"/>
<path d="M30.2429 13.9258C28.736 13.9258 27.5151 15.1602 27.5151 16.6839V16.6894V19.453H30.2462C31.7553 19.453 32.9794 18.2152 32.9794 16.6894C32.9794 15.1635 31.7553 13.9258 30.2462 13.9258C30.2451 13.9258 30.244 13.9258 30.2429 13.9258Z" fill="white"/>
<path d="M20.6924 9.76336V16.6915C20.6924 18.2163 21.9154 19.4529 23.4234 19.4529C24.9314 19.4529 26.1545 18.2163 26.1545 16.6915V9.76336C26.1545 8.23862 24.9314 7.00195 23.4234 7.00195C21.9154 7.00195 20.6924 8.23862 20.6924 9.76336Z" fill="white"/>
</svg>
