<svg viewBox="0 0 40 40" fill="none" xmlns="http://www.w3.org/2000/svg">
<path d="M32.4573 13.8172C32.1575 12.7062 31.2768 11.8344 30.1582 11.5391C28.1304 11 20 11 20 11C20 11 11.8696 11 9.84182 11.5391C8.72318 11.8344 7.84255 12.7062 7.54266 13.8172C7 15.8281 7 20.0187 7 20.0187C7 20.0187 7 24.2094 7.54266 26.2203C7.84255 27.3313 8.72318 28.1656 9.84182 28.4609C11.8696 29 20 29 20 29C20 29 28.1304 29 30.1582 28.4609C31.2768 28.1656 32.1575 27.3266 32.4573 26.2203C33 24.2094 33 20.0187 33 20.0187C33 20.0187 33 15.8281 32.4573 13.8172ZM17.3438 23.825V16.2125L24.1366 20.0187L17.3438 23.825Z" fill="white"/>
</svg>
