<svg preserveAspectRatio="xMidYMid meet" data-bbox="-22.532 -10 172.233 134.012" xmlns="http://www.w3.org/2000/svg" viewBox="0 0 126 115" height="115" width="126" data-type="ugc" role="presentation" aria-hidden="true">
    <g>
        <mask fill="#ffffff" id="d53c8459-29ae-4b63-8906-323f02b9e5bb_comp-lgldf9pl">
            <path d="M111.645 38.489C98.042 28.142 81.065 22 62.655 22c-18.057 0-34.735 5.909-48.204 15.899C19.861 16.13 39.535 0 62.977 0c23.652 0 43.469 16.424 48.668 38.489Z" clip-rule="evenodd" fill-rule="evenodd"></path>
        </mask>
        <path fill="#000000" d="M111.645 38.489C98.042 28.142 81.065 22 62.655 22c-18.057 0-34.735 5.909-48.204 15.899C19.861 16.13 39.535 0 62.977 0c23.652 0 43.469 16.424 48.668 38.489Z" clip-rule="evenodd" fill-rule="evenodd"></path>
        <path mask="url(#d53c8459-29ae-4b63-8906-323f02b9e5bb_comp-lgldf9pl)" fill="#000000" d="m111.645 38.489-6.053 7.96 22.177 16.867-6.39-27.12-9.734 2.293Zm-97.194-.59-9.704-2.413-6.723 27.047L20.408 45.93l-5.957-8.032ZM62.656 32c16.148 0 31.012 5.38 42.936 14.448l12.107-15.919C102.415 18.905 83.328 12 62.656 12v20ZM20.408 45.93C32.213 37.176 46.815 32 62.656 32V12C42.38 12 23.628 18.643 8.494 29.867L20.408 45.93Zm3.748-5.619C28.485 22.896 44.237 10 62.976 10v-20C34.835-10 11.24 9.367 4.747 35.486l19.41 4.825ZM62.976 10c18.91 0 34.777 13.13 38.936 30.782l19.467-4.587C115.14 9.716 91.373-10 62.977-10v20Z"></path>
        <mask fill="#ffffff" id="a322f990-5e66-436f-8e23-3b80b62da918_comp-lgldf9pl">
            <path d="M125.928 76.167c-17.849 9.605-38.366 15.07-60.193 15.07C41.612 91.238 19.089 84.562 0 73c11.022 24.193 35.414 41.011 63.734 41.011 27.068 0 50.547-15.363 62.194-37.844Z" clip-rule="evenodd" fill-rule="evenodd"></path>
        </mask>
        <path fill="#000000" d="M125.928 76.167c-17.849 9.605-38.366 15.07-60.193 15.07C41.612 91.238 19.089 84.562 0 73c11.022 24.193 35.414 41.011 63.734 41.011 27.068 0 50.547-15.363 62.194-37.844Z" clip-rule="evenodd" fill-rule="evenodd"></path>
        <path mask="url(#a322f990-5e66-436f-8e23-3b80b62da918_comp-lgldf9pl)" fill="#000000" d="m125.928 76.167 8.879 4.6 14.894-28.75-28.512 15.344 4.739 8.806ZM0 73l5.18-8.553-27.712-16.785L-9.1 77.146 0 73Zm121.189-5.64c-16.42 8.837-35.313 13.878-55.454 13.878v20c23.512 0 45.655-5.892 64.932-16.266l-9.478-17.611ZM65.735 81.239c-22.257 0-42.994-6.156-60.554-16.791L-5.181 81.553c20.618 12.488 44.928 19.685 70.916 19.685v-20Zm-2 22.773c-24.26 0-45.178-14.397-54.635-35.157l-18.2 8.292c12.586 27.627 40.453 46.865 72.834 46.865v-20Zm53.314-32.444c-9.996 19.295-30.128 32.444-53.315 32.444v20c30.949 0 57.775-17.576 71.073-43.244l-17.758-9.2Z"></path>
        <path stroke-width="10" stroke="#000000" fill="#000000" d="m63.406 72.954-7.794-13.5H71.2l-7.794 13.5Z"></path>
    </g>
</svg>