<svg width="169" height="39" viewBox="0 0 169 39" fill="none" xmlns="http://www.w3.org/2000/svg">
<mask id="mask0_7546_17329" style="mask-type:luminance" maskUnits="userSpaceOnUse" x="0" y="5" width="164" height="29">
<path d="M163.955 5.98071H0.996704V33.0873H163.955V5.98071Z" fill="white"/>
</mask>
<g mask="url(#mask0_7546_17329)">
<path fill-rule="evenodd" clip-rule="evenodd" d="M0.996704 13.4582L14.5739 5.98071L16.8608 7.24014L6.03002 13.249L14.5733 17.9541L25.404 11.9458L28.1504 13.4582L14.5739 20.9357L0.996704 13.4582Z" fill="#00D2FF"/>
<path fill-rule="evenodd" clip-rule="evenodd" d="M0.996704 25.3849L4.93418 23.2546L7.22108 24.5147L6.03002 25.1757L14.5733 29.8808L25.404 23.8725L28.1504 25.3849L14.5739 32.8624L0.996704 25.3849Z" fill="#016AFB"/>
<path fill-rule="evenodd" clip-rule="evenodd" d="M0.996704 19.4214L4.93418 17.2917L7.22108 18.5512L6.03002 19.2122L14.5733 23.9173L25.404 17.909L28.1504 19.4214L14.5739 26.8989L0.996704 19.4214Z" fill="#03A0FF"/>
<path fill-rule="evenodd" clip-rule="evenodd" d="M151.563 28.2272C151.563 28.4925 151.778 28.7326 152.074 28.7326H163.186C163.481 28.7326 163.696 28.4938 163.696 28.2272V25.33C163.696 25.0647 163.482 24.8246 163.186 24.8246H155.751V21.2376H161.87C162.138 21.2376 162.38 21.0254 162.38 20.7322V17.835C162.38 17.5697 162.139 17.3296 161.87 17.3296H155.751V14.0345H163.186C163.481 14.0345 163.696 13.7957 163.696 13.5291V10.6319C163.696 10.3666 163.482 10.1265 163.186 10.1265H152.074C151.779 10.1265 151.563 10.3653 151.563 10.6319V28.2232V28.2272Z" fill="#162044"/>
<path d="M139.126 28.7246C138.856 28.7246 138.615 28.4844 138.615 28.2191V14.0291H134.778C134.482 14.0291 134.267 13.789 134.267 13.5237V10.6265C134.267 10.3599 134.483 10.1211 134.778 10.1211H146.695C146.991 10.1211 147.206 10.3612 147.206 10.6265V13.5237C147.206 13.7903 146.99 14.0291 146.695 14.0291H142.858V28.2191C142.858 28.4858 142.615 28.7246 142.347 28.7246H139.126Z" fill="#162044"/>
<path fill-rule="evenodd" clip-rule="evenodd" d="M114.6 28.7246H117.55C118.087 28.7246 118.382 28.4062 118.516 28.0865L119.482 25.9601H126.784L127.75 28.06C127.991 28.5654 128.205 28.7246 128.689 28.7246H131.669C132.072 28.7246 132.287 28.3797 132.126 28.0335L123.725 10.149C123.644 9.98981 123.457 9.85718 123.268 9.85718H123C122.812 9.85718 122.624 9.98981 122.544 10.149L114.143 28.0335C113.982 28.3784 114.196 28.7246 114.6 28.7246ZM121.092 22.3463L123.104 17.9623H123.131L125.17 22.3463H121.092Z" fill="#162044"/>
<path d="M99.2253 28.7246C98.9291 28.7246 98.7148 28.4844 98.7148 28.2191L98.7135 28.2178V10.6265C98.7135 10.3599 98.9291 10.1211 99.2237 10.1211H102.418C102.688 10.1211 102.929 10.3612 102.929 10.6265V24.8165H109.318C109.614 24.8165 109.828 25.0566 109.828 25.322V28.2191C109.828 28.4858 109.613 28.7246 109.318 28.7246H99.2253Z" fill="#162044"/>
<path d="M82.8912 28.7246C82.5953 28.7246 82.3807 28.4844 82.3807 28.2191L82.3794 28.2178V10.6265C82.3794 10.3599 82.5953 10.1211 82.89 10.1211H86.0844C86.3539 10.1211 86.5949 10.3612 86.5949 10.6265V24.8165H92.9838C93.2801 24.8165 93.4944 25.0566 93.4944 25.322V28.2191C93.4944 28.4858 93.2785 28.7246 92.9838 28.7246H82.8912Z" fill="#162044"/>
<path d="M47.0879 28.9886C41.7201 28.9886 37.3987 24.7635 37.3987 19.4494V19.4481H37.4C37.4 14.1326 41.7214 9.85449 47.0891 9.85449C49.773 9.85449 51.7601 10.6783 53.5852 12.3258C53.8262 12.5381 53.8262 12.8578 53.6119 13.07L51.5177 15.223C51.3302 15.4087 51.0339 15.4087 50.8464 15.223C49.8534 14.3462 48.5376 13.8673 47.2231 13.8673C44.191 13.8673 41.9625 16.3917 41.9625 19.3419C41.9625 22.2922 44.2162 24.737 47.2499 24.737C48.5108 24.737 49.8802 24.2846 50.8464 23.4609C51.0339 23.3017 51.3838 23.3017 51.5445 23.4874L53.6375 25.6934C53.825 25.8792 53.7982 26.2254 53.6107 26.4111C51.7856 28.1648 49.4771 28.9886 47.0879 28.9886Z" fill="#162044"/>
<path fill-rule="evenodd" clip-rule="evenodd" d="M57.875 19.4493C57.875 24.7634 62.1429 28.9885 67.5119 28.9885C72.8812 28.9885 77.1743 24.7634 77.1743 19.4493C77.1743 14.1351 72.8799 9.85571 67.5119 9.85571C62.1441 9.85571 57.875 14.1338 57.875 19.4493ZM62.1712 19.4493C62.1712 16.5256 64.5869 14.1086 67.5122 14.1086C70.4372 14.1086 72.8799 16.5269 72.8799 19.4493C72.8799 22.3717 70.4639 24.7369 67.5122 24.7369C64.5601 24.7369 62.1712 22.3452 62.1712 19.4493Z" fill="#162044"/>
</g>
<path d="M166.969 27.653C166.969 27.1935 166.597 26.8208 166.138 26.8207C165.678 26.8207 165.305 27.1935 165.305 27.653C165.305 28.1125 165.678 28.4848 166.138 28.4848C166.597 28.4847 166.969 28.1124 166.969 27.653ZM167.219 27.653C167.219 28.2501 166.735 28.7339 166.138 28.734C165.541 28.734 165.056 28.2501 165.056 27.653C165.056 27.0558 165.54 26.5715 166.138 26.5715C166.735 26.5716 167.219 27.0559 167.219 27.653Z" fill="#162044"/>
<path d="M166.15 27.1665C166.224 27.1665 166.287 27.1795 166.337 27.2054C166.388 27.2314 166.427 27.2676 166.453 27.3144C166.479 27.3609 166.492 27.4153 166.492 27.4773C166.492 27.5397 166.479 27.594 166.452 27.6399C166.426 27.6854 166.388 27.7208 166.336 27.7458C166.33 27.7487 166.323 27.7504 166.317 27.7529L166.528 28.1391H166.331L166.14 27.7828H165.961V28.1391H165.785V27.1665H166.15ZM165.961 27.6365H166.123C166.167 27.6364 166.203 27.6304 166.231 27.6184C166.258 27.606 166.279 27.5883 166.292 27.5648C166.306 27.5411 166.313 27.5118 166.313 27.4773C166.313 27.4429 166.306 27.4135 166.292 27.3892C166.279 27.3645 166.258 27.3458 166.23 27.3331C166.203 27.3202 166.167 27.3135 166.123 27.3135H165.961V27.6365Z" fill="#162044"/>
</svg>
