<svg width="598" height="415" viewBox="0 0 598 415" fill="none" xmlns="http://www.w3.org/2000/svg">
<path d="M0.5 9.99999C0.5 4.75329 4.75329 0.5 10 0.5H588C593.247 0.5 597.5 4.75329 597.5 10V405C597.5 410.247 593.247 414.5 588 414.5H9.99998C4.75328 414.5 0.5 410.247 0.5 405V9.99999Z" fill="url(#paint0_linear_8646_94057)" fill-opacity="0.15"/>
<path d="M0.5 9.99999C0.5 4.75329 4.75329 0.5 10 0.5H588C593.247 0.5 597.5 4.75329 597.5 10V405C597.5 410.247 593.247 414.5 588 414.5H9.99998C4.75328 414.5 0.5 410.247 0.5 405V9.99999Z" stroke="url(#paint1_linear_8646_94057)"/>
<path d="M280 209L337 209" stroke="black" stroke-width="2"/>
<path d="M255.5 138.5L288.071 105.929C289.946 104.054 292.49 103 295.142 103H322" stroke="black" stroke-width="2"/>
<path d="M255.5 276L288.071 308.571C289.946 310.446 292.49 311.5 295.142 311.5H322" stroke="black" stroke-width="2"/>
<circle cx="169.508" cy="207.508" r="109.508" fill="#5032AD" fill-opacity="0.05" stroke="#2C1E73" stroke-width="2" stroke-dasharray="7 7"/>
<path d="M257.607 142.465C271.874 161.79 279.392 185.271 279.001 209.289C278.61 233.307 270.333 256.53 255.445 275.381" stroke="#2C1E73" stroke-width="2"/>
<circle cx="169.5" cy="207.5" r="76" fill="#5032AD" fill-opacity="0.1" stroke="white"/>
<circle cx="169.5" cy="207.5" r="50" fill="#5032AD" stroke="white" stroke-width="3"/>
<path fill-rule="evenodd" clip-rule="evenodd" d="M169.524 203.349C183.896 203.349 195.548 197.451 195.548 190.175C195.548 182.899 183.896 177 169.524 177C155.152 177 143.5 182.899 143.5 190.175C143.5 197.451 155.152 203.349 169.524 203.349ZM169.628 196.92C176.814 196.92 182.64 193.971 182.64 190.333C182.64 186.694 176.814 183.745 169.628 183.745C162.442 183.745 156.616 186.694 156.616 190.333C156.616 193.971 162.442 196.92 169.628 196.92Z" fill="#F0F0F0"/>
<path fill-rule="evenodd" clip-rule="evenodd" d="M143.5 190.275H143.501C143.612 197.502 155.221 203.344 169.524 203.344C183.827 203.344 195.437 197.502 195.548 190.275L195.548 227.164C195.436 234.392 183.827 240.234 169.524 240.234C155.221 240.234 143.612 234.392 143.501 227.164H143.5V190.275ZM161.209 231.22V221.652C161.209 221.528 161.241 221.406 161.303 221.299C161.364 221.191 161.453 221.102 161.559 221.041C161.666 220.98 161.787 220.948 161.909 220.949C162.032 220.95 162.152 220.984 162.257 221.048L169.086 225.162C169.191 225.225 169.311 225.259 169.433 225.26C169.556 225.261 169.676 225.23 169.783 225.169L177.036 221.01C177.141 220.949 177.261 220.918 177.382 220.918C177.504 220.919 177.623 220.952 177.727 221.014C177.832 221.076 177.919 221.164 177.98 221.271C178.04 221.377 178.072 221.498 178.072 221.621V231.27C178.072 231.391 178.103 231.509 178.161 231.615C178.22 231.72 178.304 231.808 178.407 231.871C178.509 231.933 178.625 231.968 178.744 231.972C178.864 231.976 178.982 231.948 179.088 231.892L186.444 227.991C186.556 227.932 186.65 227.842 186.716 227.732C186.781 227.623 186.816 227.497 186.816 227.369V206.261C186.816 206.137 186.783 206.016 186.722 205.908C186.66 205.801 186.572 205.712 186.465 205.651C186.359 205.59 186.238 205.558 186.116 205.559C185.993 205.56 185.873 205.594 185.768 205.657L169.791 215.247C169.683 215.312 169.559 215.346 169.433 215.346C169.307 215.345 169.184 215.31 169.076 215.243L153.52 205.677C153.414 205.612 153.294 205.577 153.171 205.575C153.048 205.572 152.926 205.603 152.819 205.665C152.711 205.726 152.622 205.815 152.56 205.922C152.498 206.03 152.465 206.152 152.465 206.277V226.965C152.465 227.088 152.497 227.21 152.559 227.317C152.62 227.424 152.708 227.513 152.815 227.574L160.171 231.83C160.276 231.891 160.396 231.923 160.517 231.923C160.639 231.922 160.758 231.89 160.863 231.828C160.968 231.766 161.055 231.678 161.116 231.571C161.177 231.464 161.209 231.343 161.209 231.22Z" fill="url(#paint2_linear_8646_94057)"/>
<circle cx="254" cy="139" r="8" fill="#2FCDD2"/>
<circle cx="254" cy="276" r="8" fill="#8884D8"/>
<circle cx="280" cy="208" r="8" fill="#67ADE0"/>
<rect x="322.5" y="71.5" width="200" height="64" rx="32" stroke="#2FCDD2"/>
<rect x="329" y="77" width="53" height="53" rx="26.5" fill="#2FCDD2" fill-opacity="0.5" stroke="#2FCDD2" stroke-width="2"/>
<path d="M366.427 99.2883C366.627 99.9264 367.225 100.391 367.929 100.391C368.796 100.391 369.501 99.6862 369.501 98.8196C369.501 97.9524 368.796 97.2469 367.929 97.2469C367.225 97.2469 366.627 97.7122 366.427 98.3514H362.87V95.6889H364.886C365.145 95.6889 365.354 95.4792 365.354 95.2208V94.0981H366.427C366.627 94.7362 367.225 95.2008 367.929 95.2008C368.796 95.2008 369.501 94.4959 369.501 93.6293C369.501 92.7622 368.796 92.0561 367.929 92.0561C367.225 92.0561 366.627 92.5213 366.427 93.1606H364.886C364.627 93.1606 364.418 93.3704 364.418 93.6288V94.7514H362.87V93.2766C362.87 90.8977 359.194 89.0344 354.501 89.0344C349.808 89.0344 346.133 90.8977 346.133 93.2766V94.7514H344.582V93.6288C344.582 93.3698 344.373 93.1606 344.114 93.1606H342.573C342.373 92.5213 341.776 92.0561 341.073 92.0561C340.206 92.0567 339.5 92.7622 339.5 93.6293C339.5 94.4959 340.205 95.2008 341.073 95.2008C341.776 95.2008 342.373 94.7362 342.573 94.0981H343.646V95.2208C343.646 95.4797 343.855 95.6889 344.114 95.6889H346.132V98.3514H342.573C342.373 97.7122 341.776 97.2469 341.073 97.2469C340.206 97.2469 339.5 97.9524 339.5 98.8196C339.5 99.6862 340.205 100.391 341.073 100.391C341.776 100.391 342.373 99.9264 342.573 99.2883H346.132V101.949H344.114C343.855 101.949 343.646 102.159 343.646 102.417V103.542H342.573C342.373 102.902 341.776 102.437 341.073 102.437C340.206 102.437 339.5 103.143 339.5 104.01C339.5 104.876 340.206 105.581 341.073 105.581C341.776 105.581 342.373 105.117 342.573 104.479H344.114C344.373 104.479 344.582 104.269 344.582 104.01V102.886H346.132V104.361C346.132 105.986 347.849 107.371 350.434 108.085V109.897H349.31C349.051 109.897 348.842 110.106 348.842 110.365V111.906C348.204 112.106 347.739 112.704 347.739 113.408C347.739 114.275 348.444 114.98 349.31 114.98C350.178 114.98 350.883 114.275 350.883 113.408C350.883 112.704 350.418 112.106 349.779 111.906V110.834H350.903C351.162 110.834 351.371 110.624 351.371 110.365V108.307C352.197 108.471 353.091 108.572 354.032 108.597V111.907C353.394 112.107 352.929 112.705 352.929 113.409C352.929 114.275 353.634 114.98 354.501 114.98C355.368 114.98 356.073 114.275 356.073 113.409C356.073 112.705 355.608 112.107 354.969 111.907V108.597C355.91 108.572 356.804 108.472 357.631 108.307V110.365C357.631 110.624 357.841 110.834 358.099 110.834H359.222V111.906C358.584 112.106 358.119 112.704 358.119 113.408C358.119 114.275 358.824 114.98 359.691 114.98C360.558 114.98 361.263 114.275 361.263 113.408C361.263 112.704 360.798 112.106 360.159 111.906V110.365C360.159 110.106 359.949 109.897 359.691 109.897H358.568V108.086C361.153 107.371 362.87 105.987 362.87 104.361V102.886H364.418V104.01C364.418 104.269 364.628 104.479 364.886 104.479H366.427C366.627 105.117 367.225 105.581 367.929 105.581C368.796 105.581 369.501 104.876 369.501 104.01C369.501 103.143 368.796 102.437 367.929 102.437C367.225 102.437 366.627 102.902 366.427 103.542H365.354V102.417C365.354 102.158 365.145 101.949 364.886 101.949H362.87V99.2883H366.427ZM367.929 92.993C368.278 92.993 368.563 93.2784 368.563 93.6293C368.563 93.9792 368.278 94.2639 367.929 94.2639C367.578 94.2639 367.292 93.9792 367.292 93.6293C367.293 93.2784 367.578 92.993 367.929 92.993ZM341.073 94.2639C340.722 94.2639 340.437 93.9792 340.437 93.6293C340.437 93.2784 340.722 92.993 341.073 92.993C341.423 92.993 341.708 93.2784 341.708 93.6293C341.708 93.9792 341.423 94.2639 341.073 94.2639ZM341.073 104.644C340.722 104.644 340.437 104.36 340.437 104.01C340.437 103.659 340.722 103.373 341.073 103.373C341.423 103.373 341.708 103.659 341.708 104.01C341.708 104.36 341.423 104.644 341.073 104.644ZM349.31 114.042C348.96 114.042 348.675 113.757 348.675 113.408C348.675 113.057 348.96 112.771 349.31 112.771C349.661 112.771 349.946 113.057 349.946 113.408C349.946 113.757 349.66 114.042 349.31 114.042ZM359.69 114.042C359.34 114.042 359.056 113.757 359.056 113.408C359.056 113.057 359.34 112.771 359.69 112.771C360.041 112.771 360.327 113.057 360.327 113.408C360.327 113.757 360.041 114.042 359.69 114.042ZM367.929 103.374C368.278 103.374 368.563 103.659 368.563 104.01C368.563 104.36 368.278 104.645 367.929 104.645C367.578 104.645 367.292 104.36 367.292 104.01C367.293 103.659 367.578 103.374 367.929 103.374ZM367.929 98.1838C368.278 98.1838 368.563 98.4692 368.563 98.8202C368.563 99.17 368.278 99.4547 367.929 99.4547C367.578 99.4547 367.292 99.17 367.292 98.8202C367.293 98.4692 367.578 98.1838 367.929 98.1838ZM347.069 95.2577C348.451 96.6129 351.228 97.5188 354.5 97.5188C357.773 97.5188 360.551 96.6124 361.933 95.2571V98.819C361.933 100.415 358.946 102.123 354.5 102.123C350.055 102.123 347.069 100.415 347.069 98.819V95.2577ZM349.121 91.0336C350.554 90.3493 352.464 89.9719 354.5 89.9719C356.536 89.9719 358.447 90.3493 359.881 91.0336C361.185 91.6565 361.933 92.4745 361.933 93.2772C361.933 94.0799 361.184 94.8973 359.881 95.5208C358.447 96.2057 356.536 96.5825 354.5 96.5825C352.464 96.5825 350.554 96.2051 349.121 95.5208C347.817 94.8979 347.069 94.0805 347.069 93.2772C347.069 92.4739 347.817 91.6565 349.121 91.0336ZM341.073 99.4542C340.722 99.4542 340.437 99.1694 340.437 98.8196C340.437 98.4686 340.722 98.1833 341.073 98.1833C341.423 98.1833 341.708 98.4686 341.708 98.8196C341.708 99.1694 341.423 99.4542 341.073 99.4542ZM354.5 114.042C354.15 114.042 353.865 113.757 353.865 113.408C353.865 113.057 354.15 112.771 354.5 112.771C354.851 112.771 355.136 113.057 355.136 113.408C355.136 113.757 354.851 114.042 354.5 114.042ZM361.933 104.361C361.933 105.957 358.946 107.666 354.5 107.666C350.055 107.666 347.069 105.957 347.069 104.361V100.8C348.451 102.155 351.228 103.061 354.5 103.061C357.773 103.061 360.551 102.155 361.933 100.8V104.361Z" fill="#292929"/>
<path d="M401.382 98.228C402.409 98.228 403.309 98.4287 404.084 98.83C404.868 99.2313 405.47 99.8053 405.89 100.552C406.319 101.289 406.534 102.148 406.534 103.128C406.534 104.108 406.319 104.967 405.89 105.704C405.47 106.432 404.868 106.997 404.084 107.398C403.309 107.799 402.409 108 401.382 108H397.966V98.228H401.382ZM401.312 106.334C402.339 106.334 403.132 106.054 403.692 105.494C404.252 104.934 404.532 104.145 404.532 103.128C404.532 102.111 404.252 101.317 403.692 100.748C403.132 100.169 402.339 99.88 401.312 99.88H399.926V106.334H401.312ZM407.497 104.094C407.497 103.31 407.651 102.615 407.959 102.008C408.276 101.401 408.701 100.935 409.233 100.608C409.774 100.281 410.376 100.118 411.039 100.118C411.618 100.118 412.122 100.235 412.551 100.468C412.99 100.701 413.34 100.995 413.601 101.35V100.244H415.575V108H413.601V106.866C413.349 107.23 412.999 107.533 412.551 107.776C412.112 108.009 411.604 108.126 411.025 108.126C410.372 108.126 409.774 107.958 409.233 107.622C408.701 107.286 408.276 106.815 407.959 106.208C407.651 105.592 407.497 104.887 407.497 104.094ZM413.601 104.122C413.601 103.646 413.508 103.24 413.321 102.904C413.134 102.559 412.882 102.297 412.565 102.12C412.248 101.933 411.907 101.84 411.543 101.84C411.179 101.84 410.843 101.929 410.535 102.106C410.227 102.283 409.975 102.545 409.779 102.89C409.592 103.226 409.499 103.627 409.499 104.094C409.499 104.561 409.592 104.971 409.779 105.326C409.975 105.671 410.227 105.937 410.535 106.124C410.852 106.311 411.188 106.404 411.543 106.404C411.907 106.404 412.248 106.315 412.565 106.138C412.882 105.951 413.134 105.69 413.321 105.354C413.508 105.009 413.601 104.598 413.601 104.122ZM419.771 101.854V105.606C419.771 105.867 419.832 106.059 419.953 106.18C420.084 106.292 420.299 106.348 420.597 106.348H421.507V108H420.275C418.623 108 417.797 107.197 417.797 105.592V101.854H416.873V100.244H417.797V98.326H419.771V100.244H421.507V101.854H419.771ZM422.413 104.094C422.413 103.31 422.567 102.615 422.875 102.008C423.193 101.401 423.617 100.935 424.149 100.608C424.691 100.281 425.293 100.118 425.955 100.118C426.534 100.118 427.038 100.235 427.467 100.468C427.906 100.701 428.256 100.995 428.517 101.35V100.244H430.491V108H428.517V106.866C428.265 107.23 427.915 107.533 427.467 107.776C427.029 108.009 426.52 108.126 425.941 108.126C425.288 108.126 424.691 107.958 424.149 107.622C423.617 107.286 423.193 106.815 422.875 106.208C422.567 105.592 422.413 104.887 422.413 104.094ZM428.517 104.122C428.517 103.646 428.424 103.24 428.237 102.904C428.051 102.559 427.799 102.297 427.481 102.12C427.164 101.933 426.823 101.84 426.459 101.84C426.095 101.84 425.759 101.929 425.451 102.106C425.143 102.283 424.891 102.545 424.695 102.89C424.509 103.226 424.415 103.627 424.415 104.094C424.415 104.561 424.509 104.971 424.695 105.326C424.891 105.671 425.143 105.937 425.451 106.124C425.769 106.311 426.105 106.404 426.459 106.404C426.823 106.404 427.164 106.315 427.481 106.138C427.799 105.951 428.051 105.69 428.237 105.354C428.424 105.009 428.517 104.598 428.517 104.122ZM434.365 101.378C434.617 101.005 434.963 100.701 435.401 100.468C435.849 100.235 436.358 100.118 436.927 100.118C437.59 100.118 438.187 100.281 438.719 100.608C439.261 100.935 439.685 101.401 439.993 102.008C440.311 102.605 440.469 103.301 440.469 104.094C440.469 104.887 440.311 105.592 439.993 106.208C439.685 106.815 439.261 107.286 438.719 107.622C438.187 107.958 437.59 108.126 436.927 108.126C436.349 108.126 435.84 108.014 435.401 107.79C434.972 107.557 434.627 107.258 434.365 106.894V108H432.405V97.64H434.365V101.378ZM438.467 104.094C438.467 103.627 438.369 103.226 438.173 102.89C437.987 102.545 437.735 102.283 437.417 102.106C437.109 101.929 436.773 101.84 436.409 101.84C436.055 101.84 435.719 101.933 435.401 102.12C435.093 102.297 434.841 102.559 434.645 102.904C434.459 103.249 434.365 103.655 434.365 104.122C434.365 104.589 434.459 104.995 434.645 105.34C434.841 105.685 435.093 105.951 435.401 106.138C435.719 106.315 436.055 106.404 436.409 106.404C436.773 106.404 437.109 106.311 437.417 106.124C437.735 105.937 437.987 105.671 438.173 105.326C438.369 104.981 438.467 104.57 438.467 104.094ZM441.39 104.094C441.39 103.31 441.544 102.615 441.852 102.008C442.169 101.401 442.594 100.935 443.126 100.608C443.667 100.281 444.269 100.118 444.932 100.118C445.51 100.118 446.014 100.235 446.444 100.468C446.882 100.701 447.232 100.995 447.494 101.35V100.244H449.468V108H447.494V106.866C447.242 107.23 446.892 107.533 446.444 107.776C446.005 108.009 445.496 108.126 444.918 108.126C444.264 108.126 443.667 107.958 443.126 107.622C442.594 107.286 442.169 106.815 441.852 106.208C441.544 105.592 441.39 104.887 441.39 104.094ZM447.494 104.122C447.494 103.646 447.4 103.24 447.214 102.904C447.027 102.559 446.775 102.297 446.458 102.12C446.14 101.933 445.8 101.84 445.436 101.84C445.072 101.84 444.736 101.929 444.428 102.106C444.12 102.283 443.868 102.545 443.672 102.89C443.485 103.226 443.392 103.627 443.392 104.094C443.392 104.561 443.485 104.971 443.672 105.326C443.868 105.671 444.12 105.937 444.428 106.124C444.745 106.311 445.081 106.404 445.436 106.404C445.8 106.404 446.14 106.315 446.458 106.138C446.775 105.951 447.027 105.69 447.214 105.354C447.4 105.009 447.494 104.598 447.494 104.122ZM454.35 108.126C453.715 108.126 453.146 108.014 452.642 107.79C452.138 107.557 451.737 107.244 451.438 106.852C451.149 106.46 450.99 106.026 450.962 105.55H452.936C452.973 105.849 453.118 106.096 453.37 106.292C453.631 106.488 453.953 106.586 454.336 106.586C454.709 106.586 454.999 106.511 455.204 106.362C455.419 106.213 455.526 106.021 455.526 105.788C455.526 105.536 455.395 105.349 455.134 105.228C454.882 105.097 454.476 104.957 453.916 104.808C453.337 104.668 452.861 104.523 452.488 104.374C452.124 104.225 451.807 103.996 451.536 103.688C451.275 103.38 451.144 102.965 451.144 102.442C451.144 102.013 451.265 101.621 451.508 101.266C451.76 100.911 452.115 100.631 452.572 100.426C453.039 100.221 453.585 100.118 454.21 100.118C455.134 100.118 455.871 100.351 456.422 100.818C456.973 101.275 457.276 101.896 457.332 102.68H455.456C455.428 102.372 455.297 102.129 455.064 101.952C454.84 101.765 454.537 101.672 454.154 101.672C453.799 101.672 453.524 101.737 453.328 101.868C453.141 101.999 453.048 102.181 453.048 102.414C453.048 102.675 453.179 102.876 453.44 103.016C453.701 103.147 454.107 103.282 454.658 103.422C455.218 103.562 455.68 103.707 456.044 103.856C456.408 104.005 456.721 104.239 456.982 104.556C457.253 104.864 457.393 105.275 457.402 105.788C457.402 106.236 457.276 106.637 457.024 106.992C456.781 107.347 456.427 107.627 455.96 107.832C455.503 108.028 454.966 108.126 454.35 108.126ZM466.221 103.954C466.221 104.234 466.202 104.486 466.165 104.71H460.495C460.542 105.27 460.738 105.709 461.083 106.026C461.428 106.343 461.853 106.502 462.357 106.502C463.085 106.502 463.603 106.189 463.911 105.564H466.025C465.801 106.311 465.372 106.927 464.737 107.412C464.102 107.888 463.323 108.126 462.399 108.126C461.652 108.126 460.98 107.963 460.383 107.636C459.795 107.3 459.333 106.829 458.997 106.222C458.67 105.615 458.507 104.915 458.507 104.122C458.507 103.319 458.67 102.615 458.997 102.008C459.324 101.401 459.781 100.935 460.369 100.608C460.957 100.281 461.634 100.118 462.399 100.118C463.136 100.118 463.794 100.277 464.373 100.594C464.961 100.911 465.414 101.364 465.731 101.952C466.058 102.531 466.221 103.198 466.221 103.954ZM464.191 103.394C464.182 102.89 464 102.489 463.645 102.19C463.29 101.882 462.856 101.728 462.343 101.728C461.858 101.728 461.447 101.877 461.111 102.176C460.784 102.465 460.584 102.871 460.509 103.394H464.191Z" fill="black"/>
<rect x="337.5" y="175.5" width="201" height="64" rx="32" stroke="#67ADE0"/>
<rect x="344" y="181" width="53" height="53" rx="26.5" fill="#67ADE0" fill-opacity="0.5" stroke="#67ADE0" stroke-width="2"/>
<path d="M370.987 198.764C371.231 199.008 371.231 199.403 370.987 199.648C370.864 199.77 370.705 199.831 370.545 199.831C370.385 199.831 370.225 199.77 370.103 199.648C367.909 197.454 364.341 197.454 362.148 199.648C361.903 199.892 361.508 199.892 361.264 199.648C361.02 199.403 361.02 199.008 361.264 198.764C363.944 196.083 368.306 196.083 370.987 198.764ZM383.625 218.625C383.625 219.293 383.365 219.921 382.893 220.393C382.421 220.865 381.793 221.125 381.125 221.125C380.457 221.125 379.829 220.865 379.358 220.393L372.795 213.83C372.551 213.586 372.551 213.19 372.795 212.946L373.679 212.063L372.293 210.677C370.643 212.121 368.485 213 366.125 213C360.956 213 356.75 208.794 356.75 203.625C356.75 198.456 360.956 194.25 366.125 194.25C371.294 194.25 375.5 198.456 375.5 203.625C375.5 205.985 374.621 208.143 373.177 209.793L374.563 211.179L375.446 210.295C375.69 210.051 376.086 210.051 376.33 210.295L382.893 216.858C383.365 217.329 383.625 217.957 383.625 218.625ZM374.25 203.625C374.25 199.145 370.605 195.5 366.125 195.5C361.645 195.5 358 199.145 358 203.625C358 208.105 361.645 211.75 366.125 211.75C370.605 211.75 374.25 208.105 374.25 203.625ZM382.375 218.625C382.375 218.291 382.245 217.978 382.009 217.741L375.888 211.621L374.121 213.388L380.241 219.509C380.714 219.981 381.537 219.981 382.009 219.509C382.245 219.273 382.375 218.959 382.375 218.625Z" fill="#292929"/>
<path d="M416.34 212.098C415.659 212.098 415.043 211.981 414.492 211.748C413.951 211.515 413.521 211.179 413.204 210.74C412.887 210.301 412.723 209.783 412.714 209.186H414.814C414.842 209.587 414.982 209.905 415.234 210.138C415.495 210.371 415.85 210.488 416.298 210.488C416.755 210.488 417.115 210.381 417.376 210.166C417.637 209.942 417.768 209.653 417.768 209.298C417.768 209.009 417.679 208.771 417.502 208.584C417.325 208.397 417.101 208.253 416.83 208.15C416.569 208.038 416.205 207.917 415.738 207.786C415.103 207.599 414.585 207.417 414.184 207.24C413.792 207.053 413.451 206.778 413.162 206.414C412.882 206.041 412.742 205.546 412.742 204.93C412.742 204.351 412.887 203.847 413.176 203.418C413.465 202.989 413.871 202.662 414.394 202.438C414.917 202.205 415.514 202.088 416.186 202.088C417.194 202.088 418.011 202.335 418.636 202.83C419.271 203.315 419.621 203.997 419.686 204.874H417.53C417.511 204.538 417.367 204.263 417.096 204.048C416.835 203.824 416.485 203.712 416.046 203.712C415.663 203.712 415.355 203.81 415.122 204.006C414.898 204.202 414.786 204.487 414.786 204.86C414.786 205.121 414.87 205.341 415.038 205.518C415.215 205.686 415.43 205.826 415.682 205.938C415.943 206.041 416.307 206.162 416.774 206.302C417.409 206.489 417.927 206.675 418.328 206.862C418.729 207.049 419.075 207.329 419.364 207.702C419.653 208.075 419.798 208.565 419.798 209.172C419.798 209.695 419.663 210.18 419.392 210.628C419.121 211.076 418.725 211.435 418.202 211.706C417.679 211.967 417.059 212.098 416.34 212.098ZM428.707 207.954C428.707 208.234 428.689 208.486 428.651 208.71H422.981C423.028 209.27 423.224 209.709 423.569 210.026C423.915 210.343 424.339 210.502 424.843 210.502C425.571 210.502 426.089 210.189 426.397 209.564H428.511C428.287 210.311 427.858 210.927 427.223 211.412C426.589 211.888 425.809 212.126 424.885 212.126C424.139 212.126 423.467 211.963 422.869 211.636C422.281 211.3 421.819 210.829 421.483 210.222C421.157 209.615 420.993 208.915 420.993 208.122C420.993 207.319 421.157 206.615 421.483 206.008C421.81 205.401 422.267 204.935 422.855 204.608C423.443 204.281 424.12 204.118 424.885 204.118C425.623 204.118 426.281 204.277 426.859 204.594C427.447 204.911 427.9 205.364 428.217 205.952C428.544 206.531 428.707 207.198 428.707 207.954ZM426.677 207.394C426.668 206.89 426.486 206.489 426.131 206.19C425.777 205.882 425.343 205.728 424.829 205.728C424.344 205.728 423.933 205.877 423.597 206.176C423.271 206.465 423.07 206.871 422.995 207.394H426.677ZM429.634 208.094C429.634 207.31 429.788 206.615 430.096 206.008C430.413 205.401 430.838 204.935 431.37 204.608C431.911 204.281 432.513 204.118 433.176 204.118C433.755 204.118 434.259 204.235 434.688 204.468C435.127 204.701 435.477 204.995 435.738 205.35V204.244H437.712V212H435.738V210.866C435.486 211.23 435.136 211.533 434.688 211.776C434.249 212.009 433.741 212.126 433.162 212.126C432.509 212.126 431.911 211.958 431.37 211.622C430.838 211.286 430.413 210.815 430.096 210.208C429.788 209.592 429.634 208.887 429.634 208.094ZM435.738 208.122C435.738 207.646 435.645 207.24 435.458 206.904C435.271 206.559 435.019 206.297 434.702 206.12C434.385 205.933 434.044 205.84 433.68 205.84C433.316 205.84 432.98 205.929 432.672 206.106C432.364 206.283 432.112 206.545 431.916 206.89C431.729 207.226 431.636 207.627 431.636 208.094C431.636 208.561 431.729 208.971 431.916 209.326C432.112 209.671 432.364 209.937 432.672 210.124C432.989 210.311 433.325 210.404 433.68 210.404C434.044 210.404 434.385 210.315 434.702 210.138C435.019 209.951 435.271 209.69 435.458 209.354C435.645 209.009 435.738 208.598 435.738 208.122ZM441.586 205.448C441.838 205.037 442.165 204.715 442.566 204.482C442.977 204.249 443.443 204.132 443.966 204.132V206.19H443.448C442.832 206.19 442.365 206.335 442.048 206.624C441.74 206.913 441.586 207.417 441.586 208.136V212H439.626V204.244H441.586V205.448ZM444.782 208.122C444.782 207.319 444.946 206.619 445.272 206.022C445.599 205.415 446.052 204.949 446.63 204.622C447.209 204.286 447.872 204.118 448.618 204.118C449.58 204.118 450.373 204.361 450.998 204.846C451.633 205.322 452.058 205.994 452.272 206.862H450.158C450.046 206.526 449.855 206.265 449.584 206.078C449.323 205.882 448.996 205.784 448.604 205.784C448.044 205.784 447.601 205.989 447.274 206.4C446.948 206.801 446.784 207.375 446.784 208.122C446.784 208.859 446.948 209.433 447.274 209.844C447.601 210.245 448.044 210.446 448.604 210.446C449.398 210.446 449.916 210.091 450.158 209.382H452.272C452.058 210.222 451.633 210.889 450.998 211.384C450.364 211.879 449.57 212.126 448.618 212.126C447.872 212.126 447.209 211.963 446.63 211.636C446.052 211.3 445.599 210.833 445.272 210.236C444.946 209.629 444.782 208.925 444.782 208.122ZM458.076 204.132C458.664 204.132 459.187 204.263 459.644 204.524C460.102 204.776 460.456 205.154 460.708 205.658C460.97 206.153 461.1 206.75 461.1 207.45V212H459.14V207.716C459.14 207.1 458.986 206.629 458.678 206.302C458.37 205.966 457.95 205.798 457.418 205.798C456.877 205.798 456.448 205.966 456.13 206.302C455.822 206.629 455.668 207.1 455.668 207.716V212H453.708V201.64H455.668V205.21C455.92 204.874 456.256 204.613 456.676 204.426C457.096 204.23 457.563 204.132 458.076 204.132Z" fill="black"/>
<rect x="322.5" y="279.5" width="200" height="64" rx="32" stroke="#8884D8"/>
<rect x="330" y="285" width="53" height="53" rx="26.5" fill="#8884D8" fill-opacity="0.5" stroke="#8884D8" stroke-width="2"/>
<g clip-path="url(#clip0_8646_94057)">
<path d="M366.582 309.718V302.152C366.582 300.354 365.109 298.868 363.311 298.868H362.903V298.355C362.903 297.072 361.863 296.032 360.58 296.032C359.297 296.032 358.257 297.072 358.257 298.355V298.868H349.739V298.355C349.739 297.055 348.684 296 347.383 296C346.082 296 345.028 297.055 345.028 298.355V298.868H344.676C342.878 298.868 341.414 300.354 341.414 302.152V319.526C341.414 321.324 342.878 322.81 344.676 322.81H354.91C356.598 324.828 359.092 325.996 361.722 326C366.608 326 370.587 322.02 370.587 317.135C370.587 314.038 368.969 311.303 366.582 309.718ZM359.548 298.355C359.538 297.793 359.985 297.33 360.547 297.32C360.556 297.32 360.565 297.319 360.574 297.32C361.142 297.314 361.607 297.769 361.613 298.336C361.613 298.343 361.613 298.349 361.613 298.355V300.869H359.548V298.355ZM346.319 298.355C346.325 297.777 346.798 297.313 347.377 297.319C347.378 297.319 347.379 297.319 347.38 297.32C347.96 297.32 348.448 297.775 348.448 298.355V300.869H346.319V298.355ZM342.705 302.152C342.705 301.065 343.589 300.159 344.676 300.159H345.028V301.541C345.028 301.897 345.325 302.159 345.682 302.159H349.078C349.434 302.159 349.739 301.897 349.739 301.541V300.159H358.257V301.541C358.247 301.873 358.509 302.15 358.841 302.159C358.853 302.16 358.865 302.16 358.877 302.159H362.272C362.609 302.171 362.892 301.906 362.903 301.569C362.903 301.56 362.903 301.55 362.903 301.541V300.159H363.311C364.405 300.17 365.287 301.058 365.291 302.152V304.225H342.705V302.152ZM344.676 321.519C343.589 321.519 342.705 320.612 342.705 319.526V305.515H365.291V309.016C364.168 308.523 362.954 308.269 361.727 308.269C356.842 308.269 352.865 312.255 352.865 317.14C352.863 318.675 353.259 320.184 354.016 321.519H344.676ZM361.722 324.698C357.542 324.698 354.153 321.309 354.153 317.129C354.153 312.949 357.542 309.56 361.722 309.56C365.903 309.56 369.291 312.949 369.291 317.129V317.129C369.287 321.307 365.901 324.693 361.722 324.698Z" fill="#292929"/>
<path d="M364.762 317.131H361.935V313.248C361.935 312.892 361.646 312.603 361.29 312.603C360.933 312.603 360.645 312.892 360.645 313.248V317.776C360.65 318.135 360.943 318.422 361.302 318.422H364.762C365.119 318.422 365.408 318.133 365.408 317.776C365.408 317.42 365.119 317.131 364.762 317.131Z" fill="#292929"/>
</g>
<path d="M402.444 316.098C401.763 316.098 401.147 315.981 400.596 315.748C400.055 315.515 399.626 315.179 399.308 314.74C398.991 314.301 398.828 313.783 398.818 313.186H400.918C400.946 313.587 401.086 313.905 401.338 314.138C401.6 314.371 401.954 314.488 402.402 314.488C402.86 314.488 403.219 314.381 403.48 314.166C403.742 313.942 403.872 313.653 403.872 313.298C403.872 313.009 403.784 312.771 403.606 312.584C403.429 312.397 403.205 312.253 402.934 312.15C402.673 312.038 402.309 311.917 401.842 311.786C401.208 311.599 400.69 311.417 400.288 311.24C399.896 311.053 399.556 310.778 399.266 310.414C398.986 310.041 398.846 309.546 398.846 308.93C398.846 308.351 398.991 307.847 399.28 307.418C399.57 306.989 399.976 306.662 400.498 306.438C401.021 306.205 401.618 306.088 402.29 306.088C403.298 306.088 404.115 306.335 404.74 306.83C405.375 307.315 405.725 307.997 405.79 308.874H403.634C403.616 308.538 403.471 308.263 403.2 308.048C402.939 307.824 402.589 307.712 402.15 307.712C401.768 307.712 401.46 307.81 401.226 308.006C401.002 308.202 400.89 308.487 400.89 308.86C400.89 309.121 400.974 309.341 401.142 309.518C401.32 309.686 401.534 309.826 401.786 309.938C402.048 310.041 402.412 310.162 402.878 310.302C403.513 310.489 404.031 310.675 404.432 310.862C404.834 311.049 405.179 311.329 405.468 311.702C405.758 312.075 405.902 312.565 405.902 313.172C405.902 313.695 405.767 314.18 405.496 314.628C405.226 315.076 404.829 315.435 404.306 315.706C403.784 315.967 403.163 316.098 402.444 316.098ZM407.098 312.122C407.098 311.319 407.261 310.619 407.588 310.022C407.914 309.415 408.367 308.949 408.946 308.622C409.524 308.286 410.187 308.118 410.934 308.118C411.895 308.118 412.688 308.361 413.314 308.846C413.948 309.322 414.373 309.994 414.588 310.862H412.474C412.362 310.526 412.17 310.265 411.9 310.078C411.638 309.882 411.312 309.784 410.92 309.784C410.36 309.784 409.916 309.989 409.59 310.4C409.263 310.801 409.1 311.375 409.1 312.122C409.1 312.859 409.263 313.433 409.59 313.844C409.916 314.245 410.36 314.446 410.92 314.446C411.713 314.446 412.231 314.091 412.474 313.382H414.588C414.373 314.222 413.948 314.889 413.314 315.384C412.679 315.879 411.886 316.126 410.934 316.126C410.187 316.126 409.524 315.963 408.946 315.636C408.367 315.3 407.914 314.833 407.588 314.236C407.261 313.629 407.098 312.925 407.098 312.122ZM420.392 308.132C420.98 308.132 421.502 308.263 421.96 308.524C422.417 308.776 422.772 309.154 423.024 309.658C423.285 310.153 423.416 310.75 423.416 311.45V316H421.456V311.716C421.456 311.1 421.302 310.629 420.994 310.302C420.686 309.966 420.266 309.798 419.734 309.798C419.192 309.798 418.763 309.966 418.446 310.302C418.138 310.629 417.984 311.1 417.984 311.716V316H416.024V305.64H417.984V309.21C418.236 308.874 418.572 308.613 418.992 308.426C419.412 308.23 419.878 308.132 420.392 308.132ZM432.489 311.954C432.489 312.234 432.471 312.486 432.433 312.71H426.763C426.81 313.27 427.006 313.709 427.351 314.026C427.697 314.343 428.121 314.502 428.625 314.502C429.353 314.502 429.871 314.189 430.179 313.564H432.293C432.069 314.311 431.64 314.927 431.005 315.412C430.371 315.888 429.591 316.126 428.667 316.126C427.921 316.126 427.249 315.963 426.651 315.636C426.063 315.3 425.601 314.829 425.265 314.222C424.939 313.615 424.775 312.915 424.775 312.122C424.775 311.319 424.939 310.615 425.265 310.008C425.592 309.401 426.049 308.935 426.637 308.608C427.225 308.281 427.902 308.118 428.667 308.118C429.405 308.118 430.063 308.277 430.641 308.594C431.229 308.911 431.682 309.364 431.999 309.952C432.326 310.531 432.489 311.198 432.489 311.954ZM430.459 311.394C430.45 310.89 430.268 310.489 429.913 310.19C429.559 309.882 429.125 309.728 428.611 309.728C428.126 309.728 427.715 309.877 427.379 310.176C427.053 310.465 426.852 310.871 426.777 311.394H430.459ZM433.416 312.094C433.416 311.31 433.57 310.615 433.878 310.008C434.195 309.401 434.625 308.935 435.166 308.608C435.707 308.281 436.309 308.118 436.972 308.118C437.476 308.118 437.957 308.23 438.414 308.454C438.871 308.669 439.235 308.958 439.506 309.322V305.64H441.494V316H439.506V314.852C439.263 315.235 438.923 315.543 438.484 315.776C438.045 316.009 437.537 316.126 436.958 316.126C436.305 316.126 435.707 315.958 435.166 315.622C434.625 315.286 434.195 314.815 433.878 314.208C433.57 313.592 433.416 312.887 433.416 312.094ZM439.52 312.122C439.52 311.646 439.427 311.24 439.24 310.904C439.053 310.559 438.801 310.297 438.484 310.12C438.167 309.933 437.826 309.84 437.462 309.84C437.098 309.84 436.762 309.929 436.454 310.106C436.146 310.283 435.894 310.545 435.698 310.89C435.511 311.226 435.418 311.627 435.418 312.094C435.418 312.561 435.511 312.971 435.698 313.326C435.894 313.671 436.146 313.937 436.454 314.124C436.771 314.311 437.107 314.404 437.462 314.404C437.826 314.404 438.167 314.315 438.484 314.138C438.801 313.951 439.053 313.69 439.24 313.354C439.427 313.009 439.52 312.598 439.52 312.122ZM450.73 308.244V316H448.756V315.02C448.504 315.356 448.173 315.622 447.762 315.818C447.361 316.005 446.922 316.098 446.446 316.098C445.84 316.098 445.303 315.972 444.836 315.72C444.37 315.459 444.001 315.081 443.73 314.586C443.469 314.082 443.338 313.485 443.338 312.794V308.244H445.298V312.514C445.298 313.13 445.452 313.606 445.76 313.942C446.068 314.269 446.488 314.432 447.02 314.432C447.562 314.432 447.986 314.269 448.294 313.942C448.602 313.606 448.756 313.13 448.756 312.514V308.244H450.73ZM454.624 305.64V316H452.664V305.64H454.624ZM463.771 311.954C463.771 312.234 463.752 312.486 463.715 312.71H458.045C458.091 313.27 458.287 313.709 458.633 314.026C458.978 314.343 459.403 314.502 459.907 314.502C460.635 314.502 461.153 314.189 461.461 313.564H463.575C463.351 314.311 462.921 314.927 462.287 315.412C461.652 315.888 460.873 316.126 459.949 316.126C459.202 316.126 458.53 315.963 457.933 315.636C457.345 315.3 456.883 314.829 456.547 314.222C456.22 313.615 456.057 312.915 456.057 312.122C456.057 311.319 456.22 310.615 456.547 310.008C456.873 309.401 457.331 308.935 457.919 308.608C458.507 308.281 459.183 308.118 459.949 308.118C460.686 308.118 461.344 308.277 461.923 308.594C462.511 308.911 462.963 309.364 463.281 309.952C463.607 310.531 463.771 311.198 463.771 311.954ZM461.741 311.394C461.731 310.89 461.549 310.489 461.195 310.19C460.84 309.882 460.406 309.728 459.893 309.728C459.407 309.728 458.997 309.877 458.661 310.176C458.334 310.465 458.133 310.871 458.059 311.394H461.741ZM467.161 309.448C467.413 309.037 467.74 308.715 468.141 308.482C468.552 308.249 469.019 308.132 469.541 308.132V310.19H469.023C468.407 310.19 467.941 310.335 467.623 310.624C467.315 310.913 467.161 311.417 467.161 312.136V316H465.201V308.244H467.161V309.448Z" fill="black"/>
<defs>
<linearGradient id="paint0_linear_8646_94057" x1="0" y1="207.5" x2="598" y2="207.5" gradientUnits="userSpaceOnUse">
<stop stop-color="#E6E5F7"/>
<stop offset="0.5" stop-color="#BCCBEE"/>
<stop offset="1" stop-color="#DAD9F3"/>
</linearGradient>
<linearGradient id="paint1_linear_8646_94057" x1="0" y1="207.5" x2="598" y2="207.5" gradientUnits="userSpaceOnUse">
<stop stop-color="#6863CE"/>
<stop offset="0.5" stop-color="#26A087"/>
<stop offset="1" stop-color="#6863CE"/>
</linearGradient>
<linearGradient id="paint2_linear_8646_94057" x1="169.524" y1="195.966" x2="169.524" y2="240.234" gradientUnits="userSpaceOnUse">
<stop stop-color="#8D8D8D"/>
<stop offset="1" stop-color="#EDEDED"/>
</linearGradient>
<clipPath id="clip0_8646_94057">
<rect width="30" height="30" fill="white" transform="translate(341 296)"/>
</clipPath>
</defs>
</svg>
