<svg width="600" height="355" viewBox="0 0 600 355" fill="none" xmlns="http://www.w3.org/2000/svg">
<rect x="0.5" y="0.5" width="599" height="169" rx="9.5" fill="url(#paint0_linear_7412_61108)" fill-opacity="0.15"/>
<rect x="0.5" y="0.5" width="599" height="169" rx="9.5" stroke="url(#paint1_linear_7412_61108)"/>
<path d="M234.199 34.3636H236.659V41.9205C236.659 42.7689 236.456 43.5114 236.051 44.1477C235.65 44.7841 235.087 45.2803 234.364 45.6364C233.64 45.9886 232.797 46.1648 231.835 46.1648C230.869 46.1648 230.025 45.9886 229.301 45.6364C228.578 45.2803 228.015 44.7841 227.614 44.1477C227.212 43.5114 227.011 42.7689 227.011 41.9205V34.3636H229.472V41.7102C229.472 42.1534 229.568 42.5473 229.761 42.892C229.958 43.2367 230.235 43.5076 230.591 43.7045C230.947 43.9015 231.362 44 231.835 44C232.313 44 232.727 43.9015 233.08 43.7045C233.436 43.5076 233.71 43.2367 233.903 42.892C234.1 42.5473 234.199 42.1534 234.199 41.7102V34.3636ZM241.058 40.9545V46H238.638V37.2727H240.945V38.8125H241.047C241.24 38.3049 241.564 37.9034 242.018 37.608C242.473 37.3087 243.024 37.1591 243.672 37.1591C244.278 37.1591 244.806 37.2917 245.257 37.5568C245.708 37.822 246.058 38.2008 246.308 38.6932C246.558 39.1818 246.683 39.7652 246.683 40.4432V46H244.263V40.875C244.267 40.3409 244.13 39.9242 243.854 39.625C243.577 39.322 243.196 39.1705 242.712 39.1705C242.386 39.1705 242.098 39.2405 241.848 39.3807C241.602 39.5208 241.409 39.7254 241.268 39.9943C241.132 40.2595 241.062 40.5795 241.058 40.9545ZM248.591 46V37.2727H251.011V46H248.591ZM249.807 36.1477C249.447 36.1477 249.138 36.0284 248.881 35.7898C248.627 35.5473 248.5 35.2576 248.5 34.9205C248.5 34.5871 248.627 34.3011 248.881 34.0625C249.138 33.8201 249.447 33.6989 249.807 33.6989C250.167 33.6989 250.473 33.8201 250.727 34.0625C250.985 34.3011 251.114 34.5871 251.114 34.9205C251.114 35.2576 250.985 35.5473 250.727 35.7898C250.473 36.0284 250.167 36.1477 249.807 36.1477ZM257.643 37.2727V39.0909H252.257V37.2727H257.643ZM253.49 46V36.642C253.49 36.0095 253.613 35.4848 253.859 35.0682C254.109 34.6515 254.45 34.339 254.882 34.1307C255.314 33.9223 255.804 33.8182 256.354 33.8182C256.725 33.8182 257.064 33.8466 257.371 33.9034C257.681 33.9602 257.912 34.0114 258.064 34.0568L257.632 35.875C257.537 35.8447 257.42 35.8163 257.28 35.7898C257.143 35.7633 257.003 35.75 256.859 35.75C256.503 35.75 256.255 35.8333 256.115 36C255.975 36.1629 255.905 36.392 255.905 36.6875V46H253.49ZM259.122 46V37.2727H261.543V46H259.122ZM260.338 36.1477C259.978 36.1477 259.67 36.0284 259.412 35.7898C259.158 35.5473 259.031 35.2576 259.031 34.9205C259.031 34.5871 259.158 34.3011 259.412 34.0625C259.67 33.8201 259.978 33.6989 260.338 33.6989C260.698 33.6989 261.005 33.8201 261.259 34.0625C261.516 34.3011 261.645 34.5871 261.645 34.9205C261.645 35.2576 261.516 35.5473 261.259 35.7898C261.005 36.0284 260.698 36.1477 260.338 36.1477ZM267.459 46.1705C266.561 46.1705 265.788 45.9886 265.141 45.625C264.497 45.2576 264 44.7386 263.652 44.0682C263.304 43.3939 263.129 42.5966 263.129 41.6761C263.129 40.7784 263.304 39.9905 263.652 39.3125C264 38.6345 264.491 38.1061 265.124 37.7273C265.76 37.3485 266.506 37.1591 267.362 37.1591C267.938 37.1591 268.474 37.2519 268.97 37.4375C269.47 37.6193 269.906 37.8939 270.277 38.2614C270.652 38.6288 270.944 39.0909 271.152 39.6477C271.36 40.2008 271.464 40.8485 271.464 41.5909V42.2557H264.095V40.7557H269.186C269.186 40.4072 269.11 40.0985 268.959 39.8295C268.807 39.5606 268.597 39.3504 268.328 39.1989C268.063 39.0436 267.754 38.9659 267.402 38.9659C267.035 38.9659 266.709 39.0511 266.425 39.2216C266.144 39.3883 265.925 39.6136 265.766 39.8977C265.607 40.178 265.525 40.4905 265.521 40.8352V42.2614C265.521 42.6932 265.601 43.0663 265.76 43.3807C265.923 43.6951 266.152 43.9375 266.447 44.108C266.743 44.2784 267.093 44.3636 267.499 44.3636C267.768 44.3636 268.014 44.3258 268.237 44.25C268.461 44.1742 268.652 44.0606 268.811 43.9091C268.97 43.7576 269.091 43.572 269.175 43.3523L271.413 43.5C271.3 44.0379 271.067 44.5076 270.714 44.9091C270.366 45.3068 269.915 45.6174 269.362 45.8409C268.813 46.0606 268.179 46.1705 267.459 46.1705ZM276.26 46.142C275.597 46.142 274.997 45.9716 274.459 45.6307C273.925 45.286 273.5 44.7803 273.186 44.1136C272.875 43.4432 272.72 42.6212 272.72 41.6477C272.72 40.6477 272.881 39.8163 273.203 39.1534C273.525 38.4867 273.953 37.9886 274.487 37.6591C275.025 37.3258 275.614 37.1591 276.254 37.1591C276.743 37.1591 277.15 37.2424 277.476 37.4091C277.805 37.572 278.071 37.7765 278.271 38.0227C278.476 38.2652 278.631 38.5038 278.737 38.7386H278.811V34.3636H281.226V46H278.839V44.6023H278.737C278.624 44.8447 278.463 45.0852 278.254 45.3239C278.05 45.5587 277.783 45.7538 277.453 45.9091C277.127 46.0644 276.73 46.142 276.26 46.142ZM277.027 44.2159C277.417 44.2159 277.747 44.1098 278.016 43.8977C278.288 43.6818 278.497 43.3807 278.641 42.9943C278.788 42.608 278.862 42.1553 278.862 41.6364C278.862 41.1174 278.79 40.6667 278.646 40.2841C278.502 39.9015 278.294 39.6061 278.021 39.3977C277.749 39.1894 277.417 39.0852 277.027 39.0852C276.629 39.0852 276.294 39.1932 276.021 39.4091C275.749 39.625 275.542 39.9242 275.402 40.3068C275.262 40.6894 275.192 41.1326 275.192 41.6364C275.192 42.1439 275.262 42.5928 275.402 42.983C275.546 43.3693 275.752 43.6723 276.021 43.892C276.294 44.108 276.629 44.2159 277.027 44.2159ZM286.964 46V34.3636H294.805V36.392H289.425V39.1648H294.402V41.1932H289.425V43.9716H294.828V46H286.964ZM298.739 37.2727L300.341 40.3239L301.983 37.2727H304.466L301.938 41.6364L304.534 46H302.062L300.341 42.983L298.648 46H296.148L298.739 41.6364L296.239 37.2727H298.739ZM305.903 49.2727V37.2727H308.29V38.7386H308.398C308.504 38.5038 308.657 38.2652 308.858 38.0227C309.063 37.7765 309.328 37.572 309.653 37.4091C309.983 37.2424 310.392 37.1591 310.881 37.1591C311.517 37.1591 312.104 37.3258 312.642 37.6591C313.18 37.9886 313.61 38.4867 313.932 39.1534C314.254 39.8163 314.415 40.6477 314.415 41.6477C314.415 42.6212 314.258 43.4432 313.943 44.1136C313.633 44.7803 313.208 45.286 312.67 45.6307C312.136 45.9716 311.538 46.142 310.875 46.142C310.405 46.142 310.006 46.0644 309.676 45.9091C309.35 45.7538 309.083 45.5587 308.875 45.3239C308.667 45.0852 308.508 44.8447 308.398 44.6023H308.324V49.2727H305.903ZM308.273 41.6364C308.273 42.1553 308.345 42.608 308.489 42.9943C308.633 43.3807 308.841 43.6818 309.114 43.8977C309.386 44.1098 309.718 44.2159 310.108 44.2159C310.502 44.2159 310.835 44.108 311.108 43.892C311.381 43.6723 311.587 43.3693 311.727 42.983C311.871 42.5928 311.943 42.1439 311.943 41.6364C311.943 41.1326 311.873 40.6894 311.733 40.3068C311.593 39.9242 311.386 39.625 311.114 39.4091C310.841 39.1932 310.506 39.0852 310.108 39.0852C309.714 39.0852 309.381 39.1894 309.108 39.3977C308.839 39.6061 308.633 39.9015 308.489 40.2841C308.345 40.6667 308.273 41.1174 308.273 41.6364ZM320.006 46.1705C319.108 46.1705 318.335 45.9886 317.688 45.625C317.044 45.2576 316.547 44.7386 316.199 44.0682C315.85 43.3939 315.676 42.5966 315.676 41.6761C315.676 40.7784 315.85 39.9905 316.199 39.3125C316.547 38.6345 317.038 38.1061 317.67 37.7273C318.307 37.3485 319.053 37.1591 319.909 37.1591C320.485 37.1591 321.021 37.2519 321.517 37.4375C322.017 37.6193 322.453 37.8939 322.824 38.2614C323.199 38.6288 323.491 39.0909 323.699 39.6477C323.907 40.2008 324.011 40.8485 324.011 41.5909V42.2557H316.642V40.7557H321.733C321.733 40.4072 321.657 40.0985 321.506 39.8295C321.354 39.5606 321.144 39.3504 320.875 39.1989C320.61 39.0436 320.301 38.9659 319.949 38.9659C319.581 38.9659 319.256 39.0511 318.972 39.2216C318.691 39.3883 318.472 39.6136 318.312 39.8977C318.153 40.178 318.072 40.4905 318.068 40.8352V42.2614C318.068 42.6932 318.148 43.0663 318.307 43.3807C318.47 43.6951 318.699 43.9375 318.994 44.108C319.29 44.2784 319.64 44.3636 320.045 44.3636C320.314 44.3636 320.561 44.3258 320.784 44.25C321.008 44.1742 321.199 44.0606 321.358 43.9091C321.517 43.7576 321.638 43.572 321.722 43.3523L323.96 43.5C323.847 44.0379 323.614 44.5076 323.261 44.9091C322.913 45.3068 322.462 45.6174 321.909 45.8409C321.36 46.0606 320.725 46.1705 320.006 46.1705ZM325.591 46V37.2727H327.938V38.7955H328.028C328.188 38.2538 328.455 37.8447 328.83 37.5682C329.205 37.2879 329.636 37.1477 330.125 37.1477C330.246 37.1477 330.377 37.1553 330.517 37.1705C330.657 37.1856 330.78 37.2064 330.886 37.233V39.3807C330.773 39.3466 330.616 39.3163 330.415 39.2898C330.214 39.2633 330.03 39.25 329.864 39.25C329.508 39.25 329.189 39.3277 328.909 39.483C328.633 39.6345 328.413 39.8466 328.25 40.1193C328.091 40.392 328.011 40.7064 328.011 41.0625V46H325.591ZM332.138 46V37.2727H334.558V46H332.138ZM333.354 36.1477C332.994 36.1477 332.685 36.0284 332.428 35.7898C332.174 35.5473 332.047 35.2576 332.047 34.9205C332.047 34.5871 332.174 34.3011 332.428 34.0625C332.685 33.8201 332.994 33.6989 333.354 33.6989C333.714 33.6989 334.02 33.8201 334.274 34.0625C334.532 34.3011 334.661 34.5871 334.661 34.9205C334.661 35.2576 334.532 35.5473 334.274 35.7898C334.02 36.0284 333.714 36.1477 333.354 36.1477ZM340.474 46.1705C339.577 46.1705 338.804 45.9886 338.156 45.625C337.512 45.2576 337.016 44.7386 336.668 44.0682C336.319 43.3939 336.145 42.5966 336.145 41.6761C336.145 40.7784 336.319 39.9905 336.668 39.3125C337.016 38.6345 337.507 38.1061 338.139 37.7273C338.776 37.3485 339.522 37.1591 340.378 37.1591C340.954 37.1591 341.49 37.2519 341.986 37.4375C342.486 37.6193 342.921 37.8939 343.293 38.2614C343.668 38.6288 343.959 39.0909 344.168 39.6477C344.376 40.2008 344.48 40.8485 344.48 41.5909V42.2557H337.111V40.7557H342.202C342.202 40.4072 342.126 40.0985 341.974 39.8295C341.823 39.5606 341.613 39.3504 341.344 39.1989C341.079 39.0436 340.77 38.9659 340.418 38.9659C340.05 38.9659 339.724 39.0511 339.44 39.2216C339.16 39.3883 338.94 39.6136 338.781 39.8977C338.622 40.178 338.541 40.4905 338.537 40.8352V42.2614C338.537 42.6932 338.616 43.0663 338.776 43.3807C338.938 43.6951 339.168 43.9375 339.463 44.108C339.759 44.2784 340.109 44.3636 340.514 44.3636C340.783 44.3636 341.029 44.3258 341.253 44.25C341.476 44.1742 341.668 44.0606 341.827 43.9091C341.986 43.7576 342.107 43.572 342.19 43.3523L344.429 43.5C344.315 44.0379 344.082 44.5076 343.73 44.9091C343.382 45.3068 342.931 45.6174 342.378 45.8409C341.829 46.0606 341.194 46.1705 340.474 46.1705ZM348.48 40.9545V46H346.06V37.2727H348.366V38.8125H348.469C348.662 38.3049 348.986 37.9034 349.44 37.608C349.895 37.3087 350.446 37.1591 351.094 37.1591C351.7 37.1591 352.228 37.2917 352.679 37.5568C353.13 37.822 353.48 38.2008 353.73 38.6932C353.98 39.1818 354.105 39.7652 354.105 40.4432V46H351.685V40.875C351.688 40.3409 351.552 39.9242 351.276 39.625C350.999 39.322 350.618 39.1705 350.134 39.1705C349.808 39.1705 349.52 39.2405 349.27 39.3807C349.024 39.5208 348.83 39.7254 348.69 39.9943C348.554 40.2595 348.484 40.5795 348.48 40.9545ZM359.956 46.1705C359.062 46.1705 358.293 45.9811 357.649 45.6023C357.009 45.2197 356.517 44.6894 356.172 44.0114C355.831 43.3333 355.661 42.553 355.661 41.6705C355.661 40.7765 355.833 39.9924 356.178 39.3182C356.526 38.6402 357.02 38.1117 357.661 37.733C358.301 37.3504 359.062 37.1591 359.945 37.1591C360.706 37.1591 361.373 37.2973 361.945 37.5739C362.517 37.8504 362.969 38.2386 363.303 38.7386C363.636 39.2386 363.82 39.8258 363.854 40.5H361.57C361.505 40.0644 361.335 39.714 361.058 39.4489C360.786 39.1799 360.428 39.0455 359.984 39.0455C359.609 39.0455 359.282 39.1477 359.001 39.3523C358.725 39.553 358.509 39.8466 358.354 40.233C358.198 40.6193 358.121 41.0871 358.121 41.6364C358.121 42.1932 358.196 42.6667 358.348 43.0568C358.503 43.447 358.721 43.7443 359.001 43.9489C359.282 44.1534 359.609 44.2557 359.984 44.2557C360.261 44.2557 360.509 44.1989 360.729 44.0852C360.952 43.9716 361.136 43.8068 361.28 43.5909C361.428 43.3712 361.524 43.108 361.57 42.8011H363.854C363.816 43.4678 363.634 44.0549 363.308 44.5625C362.986 45.0663 362.541 45.4602 361.973 45.7443C361.405 46.0284 360.732 46.1705 359.956 46.1705ZM369.381 46.1705C368.483 46.1705 367.71 45.9886 367.062 45.625C366.419 45.2576 365.922 44.7386 365.574 44.0682C365.225 43.3939 365.051 42.5966 365.051 41.6761C365.051 40.7784 365.225 39.9905 365.574 39.3125C365.922 38.6345 366.413 38.1061 367.045 37.7273C367.682 37.3485 368.428 37.1591 369.284 37.1591C369.86 37.1591 370.396 37.2519 370.892 37.4375C371.392 37.6193 371.828 37.8939 372.199 38.2614C372.574 38.6288 372.866 39.0909 373.074 39.6477C373.282 40.2008 373.386 40.8485 373.386 41.5909V42.2557H366.017V40.7557H371.108C371.108 40.4072 371.032 40.0985 370.881 39.8295C370.729 39.5606 370.519 39.3504 370.25 39.1989C369.985 39.0436 369.676 38.9659 369.324 38.9659C368.956 38.9659 368.631 39.0511 368.347 39.2216C368.066 39.3883 367.847 39.6136 367.688 39.8977C367.528 40.178 367.447 40.4905 367.443 40.8352V42.2614C367.443 42.6932 367.523 43.0663 367.682 43.3807C367.845 43.6951 368.074 43.9375 368.369 44.108C368.665 44.2784 369.015 44.3636 369.42 44.3636C369.689 44.3636 369.936 44.3258 370.159 44.25C370.383 44.1742 370.574 44.0606 370.733 43.9091C370.892 43.7576 371.013 43.572 371.097 43.3523L373.335 43.5C373.222 44.0379 372.989 44.5076 372.636 44.9091C372.288 45.3068 371.837 45.6174 371.284 45.8409C370.735 46.0606 370.1 46.1705 369.381 46.1705Z" fill="black"/>
<rect x="116" y="67" width="48" height="48" rx="24" fill="#2FCDD2" fill-opacity="0.5" stroke="#2FCDD2" stroke-width="2"/>
<path d="M138.933 100.867C132.933 100.867 128 95.9333 128 89.9333C128 83.9333 132.933 79 138.933 79C144.933 79 149.867 83.9333 149.867 89.9333C149.867 95.9333 144.933 100.867 138.933 100.867ZM138.933 81.2667C134.267 81.2667 130.267 85.1333 130.267 89.9333C130.267 94.7333 134.133 98.6 138.933 98.6C143.733 98.6 147.6 94.7333 147.6 89.9333C147.6 85.1333 143.733 81.2667 138.933 81.2667Z" fill="#292929"/>
<path d="M142.132 87.1333C141.732 87.1333 141.599 87 141.332 86.7333C139.999 85.4 137.732 85.4 136.532 86.7333C136.132 87.1333 135.332 87.1333 134.932 86.7333C134.399 86.3333 134.399 85.6667 134.932 85.2667C135.999 84.2 137.466 83.5333 138.932 83.5333C140.399 83.5333 141.866 84.0667 142.932 85.2667C143.332 85.6667 143.332 86.4667 142.932 86.8667C142.799 87.1333 142.532 87.1333 142.132 87.1333Z" fill="#292929"/>
<path d="M150.8 103C150.4 103 150.267 102.867 150 102.6L145.2 97.8C144.8 97.4 144.8 96.6 145.2 96.2C145.6 95.8 146.4 95.8 146.8 96.2L151.6 101C152 101.4 152 102.2 151.6 102.6C151.467 102.867 151.2 103 150.8 103Z" fill="#292929"/>
<path d="M111.375 136H108.233V125.818H111.514C112.502 125.818 113.347 126.022 114.05 126.43C114.752 126.834 115.291 127.416 115.665 128.175C116.04 128.93 116.227 129.835 116.227 130.889C116.227 131.95 116.038 132.863 115.661 133.629C115.283 134.391 114.732 134.978 114.01 135.388C113.287 135.796 112.409 136 111.375 136ZM109.466 134.906H111.295C112.137 134.906 112.835 134.744 113.388 134.419C113.942 134.094 114.355 133.632 114.626 133.032C114.898 132.432 115.034 131.718 115.034 130.889C115.034 130.067 114.9 129.36 114.631 128.766C114.363 128.17 113.962 127.712 113.428 127.394C112.895 127.073 112.23 126.912 111.435 126.912H109.466V134.906ZM118.136 136V128.364H119.31V136H118.136ZM118.733 127.091C118.504 127.091 118.307 127.013 118.141 126.857C117.979 126.701 117.898 126.514 117.898 126.295C117.898 126.077 117.979 125.889 118.141 125.734C118.307 125.578 118.504 125.5 118.733 125.5C118.962 125.5 119.157 125.578 119.32 125.734C119.485 125.889 119.568 126.077 119.568 126.295C119.568 126.514 119.485 126.701 119.32 126.857C119.157 127.013 118.962 127.091 118.733 127.091ZM126.868 130.074L125.814 130.372C125.747 130.196 125.65 130.026 125.52 129.86C125.394 129.691 125.222 129.552 125.003 129.442C124.785 129.333 124.505 129.278 124.163 129.278C123.696 129.278 123.306 129.386 122.995 129.602C122.687 129.814 122.532 130.084 122.532 130.412C122.532 130.704 122.639 130.934 122.851 131.103C123.063 131.272 123.394 131.413 123.845 131.526L124.979 131.804C125.661 131.97 126.17 132.223 126.505 132.565C126.84 132.903 127.007 133.339 127.007 133.872C127.007 134.31 126.881 134.701 126.629 135.045C126.381 135.39 126.032 135.662 125.585 135.861C125.138 136.06 124.617 136.159 124.024 136.159C123.245 136.159 122.6 135.99 122.09 135.652C121.58 135.314 121.256 134.82 121.121 134.17L122.234 133.892C122.34 134.303 122.541 134.611 122.836 134.817C123.134 135.022 123.523 135.125 124.004 135.125C124.551 135.125 124.985 135.009 125.307 134.777C125.631 134.542 125.794 134.26 125.794 133.932C125.794 133.667 125.701 133.445 125.515 133.266C125.33 133.083 125.045 132.947 124.66 132.858L123.388 132.56C122.688 132.394 122.175 132.137 121.846 131.789C121.522 131.438 121.359 130.999 121.359 130.472C121.359 130.041 121.48 129.66 121.722 129.328C121.967 128.997 122.3 128.737 122.721 128.548C123.146 128.359 123.626 128.264 124.163 128.264C124.919 128.264 125.512 128.43 125.943 128.761C126.377 129.093 126.685 129.53 126.868 130.074ZM131.875 136.159C131.159 136.159 130.543 135.99 130.026 135.652C129.509 135.314 129.111 134.848 128.833 134.255C128.554 133.662 128.415 132.984 128.415 132.222C128.415 131.446 128.558 130.762 128.843 130.168C129.131 129.572 129.532 129.106 130.046 128.771C130.563 128.433 131.166 128.264 131.855 128.264C132.392 128.264 132.876 128.364 133.307 128.562C133.738 128.761 134.091 129.04 134.366 129.398C134.641 129.756 134.812 130.173 134.878 130.651H133.705C133.615 130.303 133.417 129.994 133.108 129.726C132.803 129.454 132.392 129.318 131.875 129.318C131.418 129.318 131.017 129.437 130.672 129.676C130.331 129.911 130.064 130.245 129.872 130.675C129.683 131.103 129.588 131.605 129.588 132.182C129.588 132.772 129.681 133.286 129.867 133.723C130.056 134.161 130.321 134.5 130.662 134.742C131.007 134.984 131.411 135.105 131.875 135.105C132.18 135.105 132.457 135.052 132.706 134.946C132.954 134.84 133.165 134.688 133.337 134.489C133.509 134.29 133.632 134.051 133.705 133.773H134.878C134.812 134.223 134.648 134.629 134.386 134.991C134.127 135.349 133.784 135.634 133.357 135.846C132.933 136.055 132.439 136.159 131.875 136.159ZM139.696 136.159C139.006 136.159 138.401 135.995 137.881 135.667C137.364 135.339 136.96 134.88 136.668 134.29C136.38 133.7 136.235 133.01 136.235 132.222C136.235 131.426 136.38 130.732 136.668 130.138C136.96 129.545 137.364 129.085 137.881 128.756C138.401 128.428 139.006 128.264 139.696 128.264C140.385 128.264 140.988 128.428 141.505 128.756C142.026 129.085 142.43 129.545 142.718 130.138C143.01 130.732 143.156 131.426 143.156 132.222C143.156 133.01 143.01 133.7 142.718 134.29C142.43 134.88 142.026 135.339 141.505 135.667C140.988 135.995 140.385 136.159 139.696 136.159ZM139.696 135.105C140.219 135.105 140.65 134.971 140.988 134.702C141.326 134.434 141.577 134.081 141.739 133.643C141.901 133.206 141.983 132.732 141.983 132.222C141.983 131.711 141.901 131.236 141.739 130.795C141.577 130.354 141.326 129.998 140.988 129.726C140.65 129.454 140.219 129.318 139.696 129.318C139.172 129.318 138.741 129.454 138.403 129.726C138.065 129.998 137.815 130.354 137.652 130.795C137.49 131.236 137.409 131.711 137.409 132.222C137.409 132.732 137.49 133.206 137.652 133.643C137.815 134.081 138.065 134.434 138.403 134.702C138.741 134.971 139.172 135.105 139.696 135.105ZM150.918 128.364L148.094 136H146.901L144.077 128.364H145.35L147.458 134.449H147.537L149.645 128.364H150.918ZM155.395 136.159C154.659 136.159 154.024 135.997 153.491 135.672C152.96 135.344 152.551 134.886 152.263 134.3C151.978 133.71 151.835 133.024 151.835 132.241C151.835 131.459 151.978 130.77 152.263 130.173C152.551 129.573 152.952 129.106 153.466 128.771C153.983 128.433 154.586 128.264 155.275 128.264C155.673 128.264 156.066 128.33 156.454 128.463C156.841 128.596 157.194 128.811 157.513 129.109C157.831 129.404 158.084 129.795 158.273 130.283C158.462 130.77 158.557 131.37 158.557 132.082V132.58H152.67V131.565H157.363C157.363 131.134 157.277 130.75 157.105 130.412C156.936 130.074 156.694 129.807 156.379 129.612C156.068 129.416 155.7 129.318 155.275 129.318C154.808 129.318 154.404 129.434 154.062 129.666C153.724 129.895 153.464 130.193 153.282 130.561C153.099 130.929 153.008 131.323 153.008 131.744V132.42C153.008 132.997 153.108 133.486 153.307 133.887C153.509 134.285 153.789 134.588 154.147 134.797C154.505 135.002 154.921 135.105 155.395 135.105C155.703 135.105 155.981 135.062 156.23 134.976C156.482 134.886 156.699 134.754 156.881 134.578C157.064 134.399 157.204 134.177 157.304 133.912L158.437 134.23C158.318 134.615 158.117 134.953 157.836 135.244C157.554 135.533 157.206 135.758 156.792 135.92C156.377 136.08 155.912 136.159 155.395 136.159ZM160.341 136V128.364H161.475V129.517H161.555C161.694 129.139 161.946 128.833 162.31 128.597C162.675 128.362 163.086 128.244 163.543 128.244C163.629 128.244 163.737 128.246 163.866 128.249C163.996 128.253 164.093 128.258 164.16 128.264V129.457C164.12 129.447 164.029 129.433 163.886 129.413C163.747 129.389 163.599 129.378 163.444 129.378C163.073 129.378 162.741 129.456 162.449 129.612C162.161 129.764 161.932 129.976 161.763 130.248C161.598 130.516 161.515 130.823 161.515 131.168V136H160.341ZM166.539 138.864C166.34 138.864 166.162 138.847 166.007 138.814C165.851 138.784 165.743 138.754 165.683 138.724L165.982 137.69C166.267 137.763 166.519 137.79 166.737 137.77C166.956 137.75 167.15 137.652 167.319 137.477C167.491 137.304 167.649 137.024 167.791 136.636L168.01 136.04L165.186 128.364H166.459L168.567 134.449H168.646L170.754 128.364H172.027L168.786 137.114C168.64 137.508 168.459 137.835 168.244 138.093C168.028 138.355 167.778 138.549 167.493 138.675C167.211 138.801 166.893 138.864 166.539 138.864Z" fill="black"/>
<rect x="269" y="67" width="48" height="48" rx="24" fill="#8884D8" fill-opacity="0.5" stroke="#8884D8" stroke-width="2"/>
<path d="M293 85.7949C290.384 85.7949 288.256 87.9225 288.256 90.5384C288.256 93.1544 290.384 95.282 293 95.282C295.616 95.282 297.744 93.1544 297.744 90.5384C297.744 87.9225 295.616 85.7949 293 85.7949ZM293 93.3846C291.43 93.3846 290.154 92.1083 290.154 90.5384C290.154 88.9686 291.43 87.6923 293 87.6923C294.57 87.6923 295.846 88.9686 295.846 90.5384C295.846 92.1083 294.57 93.3846 293 93.3846ZM304.497 88.7283C301.967 84.5147 297.669 82 293 82C288.331 82 284.033 84.5147 281.503 88.7283C280.832 89.8452 280.832 91.2316 281.503 92.3486C284.033 96.5622 288.331 99.0769 293 99.0769C297.669 99.0769 301.967 96.5622 304.497 92.3486C305.168 91.2316 305.168 89.8452 304.497 88.7283ZM302.87 91.372C300.686 95.0088 296.996 97.1795 293 97.1795C289.004 97.1795 285.313 95.0088 283.13 91.372C282.821 90.8585 282.821 90.2197 283.13 89.7061C285.314 86.0694 289.004 83.8987 293 83.8987C296.996 83.8987 300.687 86.0694 302.87 89.7061C303.179 90.2197 303.179 90.8585 302.87 91.372Z" fill="#292929"/>
<path d="M259.197 130.909C259.197 131.983 259.003 132.911 258.615 133.693C258.227 134.475 257.695 135.079 257.019 135.503C256.343 135.927 255.571 136.139 254.703 136.139C253.834 136.139 253.062 135.927 252.386 135.503C251.71 135.079 251.178 134.475 250.79 133.693C250.402 132.911 250.208 131.983 250.208 130.909C250.208 129.835 250.402 128.907 250.79 128.125C251.178 127.343 251.71 126.74 252.386 126.315C253.062 125.891 253.834 125.679 254.703 125.679C255.571 125.679 256.343 125.891 257.019 126.315C257.695 126.74 258.227 127.343 258.615 128.125C259.003 128.907 259.197 129.835 259.197 130.909ZM258.004 130.909C258.004 130.027 257.856 129.283 257.561 128.677C257.27 128.07 256.874 127.611 256.373 127.3C255.876 126.988 255.319 126.832 254.703 126.832C254.086 126.832 253.528 126.988 253.027 127.3C252.53 127.611 252.134 128.07 251.839 128.677C251.547 129.283 251.401 130.027 251.401 130.909C251.401 131.791 251.547 132.535 251.839 133.141C252.134 133.748 252.53 134.207 253.027 134.518C253.528 134.83 254.086 134.986 254.703 134.986C255.319 134.986 255.876 134.83 256.373 134.518C256.874 134.207 257.27 133.748 257.561 133.141C257.856 132.535 258.004 131.791 258.004 130.909ZM261.27 136V125.818H262.443V129.577H262.543C262.629 129.444 262.748 129.275 262.901 129.07C263.057 128.861 263.279 128.675 263.567 128.513C263.859 128.347 264.253 128.264 264.75 128.264C265.393 128.264 265.96 128.425 266.45 128.746C266.941 129.068 267.324 129.524 267.599 130.114C267.874 130.704 268.012 131.4 268.012 132.202C268.012 133.01 267.874 133.711 267.599 134.305C267.324 134.895 266.943 135.352 266.455 135.677C265.968 135.998 265.406 136.159 264.77 136.159C264.28 136.159 263.887 136.078 263.592 135.915C263.297 135.75 263.07 135.562 262.911 135.354C262.752 135.142 262.629 134.966 262.543 134.827H262.404V136H261.27ZM262.423 132.182C262.423 132.759 262.508 133.267 262.677 133.708C262.846 134.146 263.093 134.489 263.418 134.737C263.743 134.982 264.14 135.105 264.611 135.105C265.102 135.105 265.511 134.976 265.839 134.717C266.17 134.455 266.419 134.104 266.585 133.663C266.754 133.219 266.838 132.725 266.838 132.182C266.838 131.645 266.755 131.161 266.59 130.73C266.427 130.296 266.18 129.953 265.849 129.701C265.521 129.446 265.108 129.318 264.611 129.318C264.134 129.318 263.733 129.439 263.408 129.681C263.083 129.92 262.838 130.254 262.672 130.685C262.506 131.113 262.423 131.612 262.423 132.182ZM275.215 130.074L274.161 130.372C274.095 130.196 273.997 130.026 273.868 129.86C273.742 129.691 273.57 129.552 273.351 129.442C273.132 129.333 272.852 129.278 272.511 129.278C272.044 129.278 271.654 129.386 271.343 129.602C271.034 129.814 270.88 130.084 270.88 130.412C270.88 130.704 270.986 130.934 271.198 131.103C271.41 131.272 271.742 131.413 272.193 131.526L273.326 131.804C274.009 131.97 274.518 132.223 274.852 132.565C275.187 132.903 275.355 133.339 275.355 133.872C275.355 134.31 275.229 134.701 274.977 135.045C274.728 135.39 274.38 135.662 273.933 135.861C273.485 136.06 272.965 136.159 272.372 136.159C271.593 136.159 270.948 135.99 270.438 135.652C269.927 135.314 269.604 134.82 269.468 134.17L270.582 133.892C270.688 134.303 270.888 134.611 271.183 134.817C271.482 135.022 271.871 135.125 272.352 135.125C272.899 135.125 273.333 135.009 273.654 134.777C273.979 134.542 274.142 134.26 274.142 133.932C274.142 133.667 274.049 133.445 273.863 133.266C273.677 133.083 273.392 132.947 273.008 132.858L271.735 132.56C271.036 132.394 270.522 132.137 270.194 131.789C269.869 131.438 269.707 130.999 269.707 130.472C269.707 130.041 269.828 129.66 270.07 129.328C270.315 128.997 270.648 128.737 271.069 128.548C271.493 128.359 271.974 128.264 272.511 128.264C273.267 128.264 273.86 128.43 274.291 128.761C274.725 129.093 275.033 129.53 275.215 130.074ZM280.322 136.159C279.587 136.159 278.952 135.997 278.418 135.672C277.888 135.344 277.479 134.886 277.19 134.3C276.905 133.71 276.763 133.024 276.763 132.241C276.763 131.459 276.905 130.77 277.19 130.173C277.479 129.573 277.88 129.106 278.393 128.771C278.911 128.433 279.514 128.264 280.203 128.264C280.601 128.264 280.994 128.33 281.381 128.463C281.769 128.596 282.122 128.811 282.44 129.109C282.759 129.404 283.012 129.795 283.201 130.283C283.39 130.77 283.484 131.37 283.484 132.082V132.58H277.598V131.565H282.291C282.291 131.134 282.205 130.75 282.033 130.412C281.864 130.074 281.622 129.807 281.307 129.612C280.995 129.416 280.627 129.318 280.203 129.318C279.736 129.318 279.331 129.434 278.99 129.666C278.652 129.895 278.392 130.193 278.21 130.561C278.027 130.929 277.936 131.323 277.936 131.744V132.42C277.936 132.997 278.036 133.486 278.234 133.887C278.437 134.285 278.717 134.588 279.075 134.797C279.433 135.002 279.848 135.105 280.322 135.105C280.631 135.105 280.909 135.062 281.158 134.976C281.41 134.886 281.627 134.754 281.809 134.578C281.991 134.399 282.132 134.177 282.232 133.912L283.365 134.23C283.246 134.615 283.045 134.953 282.763 135.244C282.482 135.533 282.134 135.758 281.719 135.92C281.305 136.08 280.839 136.159 280.322 136.159ZM285.269 136V128.364H286.403V129.517H286.482C286.621 129.139 286.873 128.833 287.238 128.597C287.603 128.362 288.013 128.244 288.471 128.244C288.557 128.244 288.665 128.246 288.794 128.249C288.923 128.253 289.021 128.258 289.087 128.264V129.457C289.048 129.447 288.956 129.433 288.814 129.413C288.675 129.389 288.527 129.378 288.371 129.378C288 129.378 287.669 129.456 287.377 129.612C287.089 129.764 286.86 129.976 286.691 130.248C286.525 130.516 286.442 130.823 286.442 131.168V136H285.269ZM296.955 128.364L294.131 136H292.938L290.114 128.364H291.387L293.495 134.449H293.574L295.682 128.364H296.955ZM300.518 136.179C300.034 136.179 299.595 136.088 299.201 135.906C298.806 135.72 298.493 135.453 298.261 135.105C298.029 134.754 297.913 134.33 297.913 133.832C297.913 133.395 297.999 133.04 298.172 132.768C298.344 132.493 298.574 132.278 298.863 132.122C299.151 131.966 299.469 131.85 299.817 131.774C300.169 131.695 300.522 131.632 300.876 131.585C301.34 131.526 301.716 131.481 302.005 131.451C302.296 131.418 302.509 131.363 302.641 131.287C302.777 131.211 302.845 131.078 302.845 130.889V130.849C302.845 130.359 302.711 129.978 302.442 129.706C302.177 129.434 301.774 129.298 301.234 129.298C300.674 129.298 300.235 129.421 299.917 129.666C299.599 129.911 299.375 130.173 299.246 130.452L298.132 130.054C298.331 129.59 298.596 129.229 298.927 128.97C299.262 128.708 299.627 128.526 300.021 128.423C300.419 128.317 300.81 128.264 301.194 128.264C301.44 128.264 301.721 128.294 302.04 128.354C302.361 128.41 302.671 128.528 302.969 128.707C303.271 128.886 303.521 129.156 303.72 129.517C303.919 129.878 304.018 130.362 304.018 130.969V136H302.845V134.966H302.785C302.706 135.132 302.573 135.309 302.388 135.498C302.202 135.687 301.955 135.848 301.647 135.98C301.339 136.113 300.962 136.179 300.518 136.179ZM300.697 135.125C301.161 135.125 301.552 135.034 301.871 134.852C302.192 134.669 302.434 134.434 302.596 134.146C302.762 133.857 302.845 133.554 302.845 133.236V132.162C302.795 132.222 302.686 132.276 302.517 132.326C302.351 132.372 302.159 132.414 301.94 132.45C301.725 132.483 301.514 132.513 301.309 132.54C301.107 132.563 300.943 132.583 300.817 132.599C300.512 132.639 300.227 132.704 299.961 132.793C299.7 132.879 299.488 133.01 299.325 133.186C299.166 133.358 299.086 133.594 299.086 133.892C299.086 134.3 299.237 134.608 299.539 134.817C299.844 135.022 300.23 135.125 300.697 135.125ZM306.319 136V125.818H307.492V129.577H307.592C307.678 129.444 307.797 129.275 307.95 129.07C308.105 128.861 308.327 128.675 308.616 128.513C308.907 128.347 309.302 128.264 309.799 128.264C310.442 128.264 311.009 128.425 311.499 128.746C311.99 129.068 312.373 129.524 312.648 130.114C312.923 130.704 313.06 131.4 313.06 132.202C313.06 133.01 312.923 133.711 312.648 134.305C312.373 134.895 311.991 135.352 311.504 135.677C311.017 135.998 310.455 136.159 309.819 136.159C309.328 136.159 308.936 136.078 308.641 135.915C308.346 135.75 308.119 135.562 307.96 135.354C307.8 135.142 307.678 134.966 307.592 134.827H307.452V136H306.319ZM307.472 132.182C307.472 132.759 307.557 133.267 307.726 133.708C307.895 134.146 308.142 134.489 308.467 134.737C308.791 134.982 309.189 135.105 309.66 135.105C310.15 135.105 310.56 134.976 310.888 134.717C311.219 134.455 311.468 134.104 311.634 133.663C311.803 133.219 311.887 132.725 311.887 132.182C311.887 131.645 311.804 131.161 311.638 130.73C311.476 130.296 311.229 129.953 310.898 129.701C310.57 129.446 310.157 129.318 309.66 129.318C309.183 129.318 308.781 129.439 308.457 129.681C308.132 129.92 307.887 130.254 307.721 130.685C307.555 131.113 307.472 131.612 307.472 132.182ZM314.855 136V128.364H316.028V136H314.855ZM315.452 127.091C315.223 127.091 315.026 127.013 314.86 126.857C314.698 126.701 314.616 126.514 314.616 126.295C314.616 126.077 314.698 125.889 314.86 125.734C315.026 125.578 315.223 125.5 315.452 125.5C315.68 125.5 315.876 125.578 316.038 125.734C316.204 125.889 316.287 126.077 316.287 126.295C316.287 126.514 316.204 126.701 316.038 126.857C315.876 127.013 315.68 127.091 315.452 127.091ZM319.351 125.818V136H318.177V125.818H319.351ZM321.5 136V128.364H322.673V136H321.5ZM322.096 127.091C321.868 127.091 321.67 127.013 321.505 126.857C321.342 126.701 321.261 126.514 321.261 126.295C321.261 126.077 321.342 125.889 321.505 125.734C321.67 125.578 321.868 125.5 322.096 125.5C322.325 125.5 322.52 125.578 322.683 125.734C322.849 125.889 322.931 126.077 322.931 126.295C322.931 126.514 322.849 126.701 322.683 126.857C322.52 127.013 322.325 127.091 322.096 127.091ZM328.143 128.364V129.358H324.186V128.364H328.143ZM325.339 126.534H326.512V133.812C326.512 134.144 326.56 134.393 326.656 134.558C326.756 134.721 326.882 134.83 327.034 134.886C327.19 134.939 327.354 134.966 327.526 134.966C327.656 134.966 327.762 134.959 327.845 134.946C327.927 134.929 327.994 134.916 328.044 134.906L328.282 135.96C328.203 135.99 328.092 136.02 327.949 136.05C327.807 136.083 327.626 136.099 327.407 136.099C327.076 136.099 326.751 136.028 326.433 135.886C326.118 135.743 325.856 135.526 325.647 135.234C325.442 134.943 325.339 134.575 325.339 134.131V126.534ZM330.664 138.864C330.465 138.864 330.287 138.847 330.132 138.814C329.976 138.784 329.868 138.754 329.808 138.724L330.107 137.69C330.392 137.763 330.644 137.79 330.862 137.77C331.081 137.75 331.275 137.652 331.444 137.477C331.616 137.304 331.774 137.024 331.916 136.636L332.135 136.04L329.311 128.364H330.584L332.692 134.449H332.771L334.879 128.364H336.152L332.911 137.114C332.765 137.508 332.584 137.835 332.369 138.093C332.153 138.355 331.903 138.549 331.618 138.675C331.336 138.801 331.018 138.864 330.664 138.864Z" fill="black"/>
<rect x="429" y="67" width="48" height="48" rx="24" fill="#67ADE0" fill-opacity="0.5" stroke="#67ADE0" stroke-width="2"/>
<path d="M443.3 97.1518C442.984 97.1518 442.729 97.4076 442.729 97.7233C442.729 98.0389 442.984 98.2947 443.3 98.2947H445.392H449.982H456.014H460.604H462.696C463.012 98.2947 463.268 98.0389 463.268 97.7233C463.268 97.4076 463.012 97.1518 462.696 97.1518H461.175V89.3215H461.741C462.583 89.3215 463.268 88.6367 463.268 87.7947V86.4424C463.268 85.8469 462.918 85.3018 462.376 85.054L453.993 81.217C453.361 80.9277 452.635 80.9277 452.003 81.217L443.62 85.054C443.078 85.302 442.729 85.8469 442.729 86.4424V87.7947C442.729 88.6367 443.413 89.3215 444.255 89.3215H444.821V97.1518H443.3ZM450.553 97.1518V89.3215H455.443V97.1518H450.553ZM460.033 97.1518H456.586V89.3215H460.033V97.1518ZM443.871 87.7947V86.4424C443.871 86.2927 443.959 86.1556 444.096 86.0933L452.478 82.2563C452.643 82.1806 452.821 82.1429 452.998 82.1429C453.176 82.1429 453.353 82.1806 453.518 82.2563L461.901 86.0933C462.037 86.1556 462.125 86.2927 462.125 86.4424V87.7947C462.125 88.0063 461.953 88.1786 461.741 88.1786H460.604H456.014H449.982H445.392H444.255C444.044 88.1786 443.871 88.0063 443.871 87.7947ZM445.964 89.3215H449.411V97.1518H445.964V89.3215Z" fill="#292929" stroke="#292929" stroke-width="0.5"/>
<path d="M464.429 99.8657H441.571C441.256 99.8657 441 100.122 441 100.437C441 100.753 441.256 101.009 441.571 101.009H464.429C464.744 101.009 465 100.753 465 100.437C465 100.122 464.744 99.8657 464.429 99.8657Z" fill="#292929" stroke="#292929" stroke-width="0.5"/>
<path d="M421.193 129C421.084 128.665 420.94 128.365 420.761 128.1C420.585 127.832 420.375 127.603 420.129 127.414C419.887 127.225 419.612 127.081 419.304 126.982C418.996 126.882 418.658 126.832 418.29 126.832C417.687 126.832 417.138 126.988 416.644 127.3C416.15 127.611 415.758 128.07 415.466 128.677C415.174 129.283 415.028 130.027 415.028 130.909C415.028 131.791 415.176 132.535 415.471 133.141C415.766 133.748 416.165 134.207 416.669 134.518C417.173 134.83 417.74 134.986 418.369 134.986C418.953 134.986 419.466 134.862 419.911 134.613C420.358 134.361 420.706 134.006 420.955 133.549C421.206 133.088 421.332 132.546 421.332 131.923L421.71 132.003H418.648V130.909H422.526V132.003C422.526 132.841 422.347 133.571 421.989 134.19C421.634 134.81 421.143 135.291 420.517 135.632C419.894 135.97 419.178 136.139 418.369 136.139C417.468 136.139 416.676 135.927 415.993 135.503C415.313 135.079 414.783 134.475 414.402 133.693C414.024 132.911 413.835 131.983 413.835 130.909C413.835 130.104 413.943 129.379 414.158 128.737C414.377 128.09 414.685 127.54 415.083 127.086C415.481 126.632 415.951 126.284 416.495 126.042C417.039 125.8 417.637 125.679 418.29 125.679C418.827 125.679 419.327 125.76 419.791 125.923C420.259 126.082 420.674 126.309 421.039 126.604C421.407 126.895 421.714 127.245 421.959 127.653C422.204 128.057 422.373 128.506 422.466 129H421.193ZM427.58 136.159C426.891 136.159 426.286 135.995 425.766 135.667C425.249 135.339 424.844 134.88 424.553 134.29C424.264 133.7 424.12 133.01 424.12 132.222C424.12 131.426 424.264 130.732 424.553 130.138C424.844 129.545 425.249 129.085 425.766 128.756C426.286 128.428 426.891 128.264 427.58 128.264C428.27 128.264 428.873 128.428 429.39 128.756C429.91 129.085 430.315 129.545 430.603 130.138C430.895 130.732 431.041 131.426 431.041 132.222C431.041 133.01 430.895 133.7 430.603 134.29C430.315 134.88 429.91 135.339 429.39 135.667C428.873 135.995 428.27 136.159 427.58 136.159ZM427.58 135.105C428.104 135.105 428.535 134.971 428.873 134.702C429.211 134.434 429.461 134.081 429.624 133.643C429.786 133.206 429.867 132.732 429.867 132.222C429.867 131.711 429.786 131.236 429.624 130.795C429.461 130.354 429.211 129.998 428.873 129.726C428.535 129.454 428.104 129.318 427.58 129.318C427.057 129.318 426.626 129.454 426.288 129.726C425.95 129.998 425.7 130.354 425.537 130.795C425.375 131.236 425.294 131.711 425.294 132.222C425.294 132.732 425.375 133.206 425.537 133.643C425.7 134.081 425.95 134.434 426.288 134.702C426.626 134.971 427.057 135.105 427.58 135.105ZM438.803 128.364L435.979 136H434.786L431.962 128.364H433.234L435.342 134.449H435.422L437.53 128.364H438.803ZM443.279 136.159C442.544 136.159 441.909 135.997 441.375 135.672C440.845 135.344 440.436 134.886 440.147 134.3C439.862 133.71 439.72 133.024 439.72 132.241C439.72 131.459 439.862 130.77 440.147 130.173C440.436 129.573 440.837 129.106 441.35 128.771C441.868 128.433 442.471 128.264 443.16 128.264C443.558 128.264 443.951 128.33 444.338 128.463C444.726 128.596 445.079 128.811 445.397 129.109C445.716 129.404 445.969 129.795 446.158 130.283C446.347 130.77 446.441 131.37 446.441 132.082V132.58H440.555V131.565H445.248C445.248 131.134 445.162 130.75 444.99 130.412C444.821 130.074 444.579 129.807 444.264 129.612C443.952 129.416 443.584 129.318 443.16 129.318C442.693 129.318 442.288 129.434 441.947 129.666C441.609 129.895 441.349 130.193 441.167 130.561C440.984 130.929 440.893 131.323 440.893 131.744V132.42C440.893 132.997 440.993 133.486 441.191 133.887C441.394 134.285 441.674 134.588 442.032 134.797C442.39 135.002 442.806 135.105 443.279 135.105C443.588 135.105 443.866 135.062 444.115 134.976C444.367 134.886 444.584 134.754 444.766 134.578C444.948 134.399 445.089 134.177 445.189 133.912L446.322 134.23C446.203 134.615 446.002 134.953 445.721 135.244C445.439 135.533 445.091 135.758 444.676 135.92C444.262 136.08 443.797 136.159 443.279 136.159ZM448.226 136V128.364H449.36V129.517H449.439C449.578 129.139 449.83 128.833 450.195 128.597C450.56 128.362 450.971 128.244 451.428 128.244C451.514 128.244 451.622 128.246 451.751 128.249C451.88 128.253 451.978 128.258 452.044 128.264V129.457C452.005 129.447 451.913 129.433 451.771 129.413C451.632 129.389 451.484 129.378 451.328 129.378C450.957 129.378 450.626 129.456 450.334 129.612C450.046 129.764 449.817 129.976 449.648 130.248C449.482 130.516 449.4 130.823 449.4 131.168V136H448.226ZM454.608 131.406V136H453.435V128.364H454.569V129.557H454.668C454.847 129.169 455.119 128.857 455.483 128.622C455.848 128.384 456.319 128.264 456.895 128.264C457.412 128.264 457.865 128.37 458.253 128.582C458.64 128.791 458.942 129.109 459.157 129.537C459.373 129.961 459.481 130.498 459.481 131.148V136H458.307V131.227C458.307 130.627 458.152 130.16 457.84 129.825C457.528 129.487 457.101 129.318 456.557 129.318C456.183 129.318 455.848 129.399 455.553 129.562C455.261 129.724 455.031 129.961 454.862 130.273C454.693 130.584 454.608 130.962 454.608 131.406ZM463.872 136.179C463.388 136.179 462.949 136.088 462.554 135.906C462.16 135.72 461.847 135.453 461.615 135.105C461.383 134.754 461.267 134.33 461.267 133.832C461.267 133.395 461.353 133.04 461.525 132.768C461.698 132.493 461.928 132.278 462.216 132.122C462.505 131.966 462.823 131.85 463.171 131.774C463.522 131.695 463.875 131.632 464.23 131.585C464.694 131.526 465.07 131.481 465.358 131.451C465.65 131.418 465.862 131.363 465.995 131.287C466.131 131.211 466.199 131.078 466.199 130.889V130.849C466.199 130.359 466.064 129.978 465.796 129.706C465.531 129.434 465.128 129.298 464.588 129.298C464.028 129.298 463.588 129.421 463.27 129.666C462.952 129.911 462.728 130.173 462.599 130.452L461.485 130.054C461.684 129.59 461.949 129.229 462.281 128.97C462.616 128.708 462.98 128.526 463.375 128.423C463.772 128.317 464.163 128.264 464.548 128.264C464.793 128.264 465.075 128.294 465.393 128.354C465.715 128.41 466.025 128.528 466.323 128.707C466.624 128.886 466.875 129.156 467.074 129.517C467.272 129.878 467.372 130.362 467.372 130.969V136H466.199V134.966H466.139C466.059 135.132 465.927 135.309 465.741 135.498C465.556 135.687 465.309 135.848 465 135.98C464.692 136.113 464.316 136.179 463.872 136.179ZM464.051 135.125C464.515 135.125 464.906 135.034 465.224 134.852C465.546 134.669 465.788 134.434 465.95 134.146C466.116 133.857 466.199 133.554 466.199 133.236V132.162C466.149 132.222 466.039 132.276 465.87 132.326C465.705 132.372 465.512 132.414 465.294 132.45C465.078 132.483 464.868 132.513 464.662 132.54C464.46 132.563 464.296 132.583 464.17 132.599C463.865 132.639 463.58 132.704 463.315 132.793C463.053 132.879 462.841 133.01 462.679 133.186C462.52 133.358 462.44 133.594 462.44 133.892C462.44 134.3 462.591 134.608 462.892 134.817C463.197 135.022 463.583 135.125 464.051 135.125ZM470.687 131.406V136H469.513V128.364H470.647V129.557H470.746C470.925 129.169 471.197 128.857 471.562 128.622C471.926 128.384 472.397 128.264 472.974 128.264C473.491 128.264 473.943 128.37 474.331 128.582C474.719 128.791 475.02 129.109 475.236 129.537C475.451 129.961 475.559 130.498 475.559 131.148V136H474.385V131.227C474.385 130.627 474.23 130.16 473.918 129.825C473.607 129.487 473.179 129.318 472.635 129.318C472.261 129.318 471.926 129.399 471.631 129.562C471.34 129.724 471.109 129.961 470.94 130.273C470.771 130.584 470.687 130.962 470.687 131.406ZM480.805 136.159C480.089 136.159 479.473 135.99 478.956 135.652C478.439 135.314 478.041 134.848 477.762 134.255C477.484 133.662 477.345 132.984 477.345 132.222C477.345 131.446 477.487 130.762 477.772 130.168C478.061 129.572 478.462 129.106 478.975 128.771C479.493 128.433 480.096 128.264 480.785 128.264C481.322 128.264 481.806 128.364 482.237 128.562C482.668 128.761 483.021 129.04 483.296 129.398C483.571 129.756 483.742 130.173 483.808 130.651H482.635C482.545 130.303 482.346 129.994 482.038 129.726C481.733 129.454 481.322 129.318 480.805 129.318C480.348 129.318 479.947 129.437 479.602 129.676C479.261 129.911 478.994 130.245 478.801 130.675C478.613 131.103 478.518 131.605 478.518 132.182C478.518 132.772 478.611 133.286 478.797 133.723C478.985 134.161 479.251 134.5 479.592 134.742C479.937 134.984 480.341 135.105 480.805 135.105C481.11 135.105 481.387 135.052 481.635 134.946C481.884 134.84 482.094 134.688 482.267 134.489C482.439 134.29 482.562 134.051 482.635 133.773H483.808C483.742 134.223 483.578 134.629 483.316 134.991C483.057 135.349 482.714 135.634 482.287 135.846C481.862 136.055 481.368 136.159 480.805 136.159ZM488.725 136.159C487.989 136.159 487.354 135.997 486.821 135.672C486.29 135.344 485.881 134.886 485.593 134.3C485.308 133.71 485.165 133.024 485.165 132.241C485.165 131.459 485.308 130.77 485.593 130.173C485.881 129.573 486.282 129.106 486.796 128.771C487.313 128.433 487.916 128.264 488.605 128.264C489.003 128.264 489.396 128.33 489.784 128.463C490.172 128.596 490.525 128.811 490.843 129.109C491.161 129.404 491.414 129.795 491.603 130.283C491.792 130.77 491.887 131.37 491.887 132.082V132.58H486V131.565H490.694C490.694 131.134 490.607 130.75 490.435 130.412C490.266 130.074 490.024 129.807 489.709 129.612C489.398 129.416 489.03 129.318 488.605 129.318C488.138 129.318 487.734 129.434 487.392 129.666C487.054 129.895 486.794 130.193 486.612 130.561C486.43 130.929 486.338 131.323 486.338 131.744V132.42C486.338 132.997 486.438 133.486 486.637 133.887C486.839 134.285 487.119 134.588 487.477 134.797C487.835 135.002 488.251 135.105 488.725 135.105C489.033 135.105 489.311 135.062 489.56 134.976C489.812 134.886 490.029 134.754 490.211 134.578C490.394 134.399 490.534 134.177 490.634 133.912L491.767 134.23C491.648 134.615 491.448 134.953 491.166 135.244C490.884 135.533 490.536 135.758 490.122 135.92C489.708 136.08 489.242 136.159 488.725 136.159Z" fill="black"/>
<path d="M0.5 195C0.5 189.753 4.7533 185.5 10 185.5H590C595.247 185.5 599.5 189.753 599.5 195V345C599.5 350.247 595.247 354.5 590 354.5H9.99999C4.75329 354.5 0.5 350.247 0.5 345V195Z" fill="url(#paint2_linear_7412_61108)" fill-opacity="0.15"/>
<path d="M0.5 195C0.5 189.753 4.7533 185.5 10 185.5H590C595.247 185.5 599.5 189.753 599.5 195V345C599.5 350.247 595.247 354.5 590 354.5H9.99999C4.75329 354.5 0.5 350.247 0.5 345V195Z" stroke="url(#paint3_linear_7412_61108)"/>
<path d="M208.199 222.364H210.659V229.92C210.659 230.769 210.456 231.511 210.051 232.148C209.65 232.784 209.087 233.28 208.364 233.636C207.64 233.989 206.797 234.165 205.835 234.165C204.869 234.165 204.025 233.989 203.301 233.636C202.578 233.28 202.015 232.784 201.614 232.148C201.212 231.511 201.011 230.769 201.011 229.92V222.364H203.472V229.71C203.472 230.153 203.568 230.547 203.761 230.892C203.958 231.237 204.235 231.508 204.591 231.705C204.947 231.902 205.362 232 205.835 232C206.313 232 206.727 231.902 207.08 231.705C207.436 231.508 207.71 231.237 207.903 230.892C208.1 230.547 208.199 230.153 208.199 229.71V222.364ZM215.058 228.955V234H212.638V225.273H214.945V226.812H215.047C215.24 226.305 215.564 225.903 216.018 225.608C216.473 225.309 217.024 225.159 217.672 225.159C218.278 225.159 218.806 225.292 219.257 225.557C219.708 225.822 220.058 226.201 220.308 226.693C220.558 227.182 220.683 227.765 220.683 228.443V234H218.263V228.875C218.267 228.341 218.13 227.924 217.854 227.625C217.577 227.322 217.196 227.17 216.712 227.17C216.386 227.17 216.098 227.241 215.848 227.381C215.602 227.521 215.409 227.725 215.268 227.994C215.132 228.259 215.062 228.58 215.058 228.955ZM222.591 234V225.273H225.011V234H222.591ZM223.807 224.148C223.447 224.148 223.138 224.028 222.881 223.79C222.627 223.547 222.5 223.258 222.5 222.92C222.5 222.587 222.627 222.301 222.881 222.062C223.138 221.82 223.447 221.699 223.807 221.699C224.167 221.699 224.473 221.82 224.727 222.062C224.985 222.301 225.114 222.587 225.114 222.92C225.114 223.258 224.985 223.547 224.727 223.79C224.473 224.028 224.167 224.148 223.807 224.148ZM231.643 225.273V227.091H226.257V225.273H231.643ZM227.49 234V224.642C227.49 224.009 227.613 223.485 227.859 223.068C228.109 222.652 228.45 222.339 228.882 222.131C229.314 221.922 229.804 221.818 230.354 221.818C230.725 221.818 231.064 221.847 231.371 221.903C231.681 221.96 231.912 222.011 232.064 222.057L231.632 223.875C231.537 223.845 231.42 223.816 231.28 223.79C231.143 223.763 231.003 223.75 230.859 223.75C230.503 223.75 230.255 223.833 230.115 224C229.975 224.163 229.905 224.392 229.905 224.688V234H227.49ZM233.122 234V225.273H235.543V234H233.122ZM234.338 224.148C233.978 224.148 233.67 224.028 233.412 223.79C233.158 223.547 233.031 223.258 233.031 222.92C233.031 222.587 233.158 222.301 233.412 222.062C233.67 221.82 233.978 221.699 234.338 221.699C234.698 221.699 235.005 221.82 235.259 222.062C235.516 222.301 235.645 222.587 235.645 222.92C235.645 223.258 235.516 223.547 235.259 223.79C235.005 224.028 234.698 224.148 234.338 224.148ZM241.459 234.17C240.561 234.17 239.788 233.989 239.141 233.625C238.497 233.258 238 232.739 237.652 232.068C237.304 231.394 237.129 230.597 237.129 229.676C237.129 228.778 237.304 227.991 237.652 227.312C238 226.634 238.491 226.106 239.124 225.727C239.76 225.348 240.506 225.159 241.362 225.159C241.938 225.159 242.474 225.252 242.97 225.438C243.47 225.619 243.906 225.894 244.277 226.261C244.652 226.629 244.944 227.091 245.152 227.648C245.36 228.201 245.464 228.848 245.464 229.591V230.256H238.095V228.756H243.186C243.186 228.407 243.11 228.098 242.959 227.83C242.807 227.561 242.597 227.35 242.328 227.199C242.063 227.044 241.754 226.966 241.402 226.966C241.035 226.966 240.709 227.051 240.425 227.222C240.144 227.388 239.925 227.614 239.766 227.898C239.607 228.178 239.525 228.491 239.521 228.835V230.261C239.521 230.693 239.601 231.066 239.76 231.381C239.923 231.695 240.152 231.938 240.447 232.108C240.743 232.278 241.093 232.364 241.499 232.364C241.768 232.364 242.014 232.326 242.237 232.25C242.461 232.174 242.652 232.061 242.811 231.909C242.97 231.758 243.091 231.572 243.175 231.352L245.413 231.5C245.3 232.038 245.067 232.508 244.714 232.909C244.366 233.307 243.915 233.617 243.362 233.841C242.813 234.061 242.179 234.17 241.459 234.17ZM250.26 234.142C249.597 234.142 248.997 233.972 248.459 233.631C247.925 233.286 247.5 232.78 247.186 232.114C246.875 231.443 246.72 230.621 246.72 229.648C246.72 228.648 246.881 227.816 247.203 227.153C247.525 226.487 247.953 225.989 248.487 225.659C249.025 225.326 249.614 225.159 250.254 225.159C250.743 225.159 251.15 225.242 251.476 225.409C251.805 225.572 252.071 225.777 252.271 226.023C252.476 226.265 252.631 226.504 252.737 226.739H252.811V222.364H255.226V234H252.839V232.602H252.737C252.624 232.845 252.463 233.085 252.254 233.324C252.05 233.559 251.783 233.754 251.453 233.909C251.127 234.064 250.73 234.142 250.26 234.142ZM251.027 232.216C251.417 232.216 251.747 232.11 252.016 231.898C252.288 231.682 252.497 231.381 252.641 230.994C252.788 230.608 252.862 230.155 252.862 229.636C252.862 229.117 252.79 228.667 252.646 228.284C252.502 227.902 252.294 227.606 252.021 227.398C251.749 227.189 251.417 227.085 251.027 227.085C250.629 227.085 250.294 227.193 250.021 227.409C249.749 227.625 249.542 227.924 249.402 228.307C249.262 228.689 249.192 229.133 249.192 229.636C249.192 230.144 249.262 230.593 249.402 230.983C249.546 231.369 249.752 231.672 250.021 231.892C250.294 232.108 250.629 232.216 251.027 232.216ZM260.964 222.364H263.999L267.203 230.182H267.339L270.544 222.364H273.578V234H271.192V226.426H271.095L268.084 233.943H266.459L263.447 226.398H263.351V234H260.964V222.364ZM279.537 234.17C278.639 234.17 277.866 233.989 277.219 233.625C276.575 233.258 276.079 232.739 275.73 232.068C275.382 231.394 275.207 230.597 275.207 229.676C275.207 228.778 275.382 227.991 275.73 227.312C276.079 226.634 276.569 226.106 277.202 225.727C277.838 225.348 278.584 225.159 279.44 225.159C280.016 225.159 280.552 225.252 281.048 225.438C281.548 225.619 281.984 225.894 282.355 226.261C282.73 226.629 283.022 227.091 283.23 227.648C283.438 228.201 283.543 228.848 283.543 229.591V230.256H276.173V228.756H281.264C281.264 228.407 281.188 228.098 281.037 227.83C280.885 227.561 280.675 227.35 280.406 227.199C280.141 227.044 279.832 226.966 279.48 226.966C279.113 226.966 278.787 227.051 278.503 227.222C278.223 227.388 278.003 227.614 277.844 227.898C277.685 228.178 277.603 228.491 277.599 228.835V230.261C277.599 230.693 277.679 231.066 277.838 231.381C278.001 231.695 278.23 231.938 278.526 232.108C278.821 232.278 279.171 232.364 279.577 232.364C279.846 232.364 280.092 232.326 280.315 232.25C280.539 232.174 280.73 232.061 280.889 231.909C281.048 231.758 281.17 231.572 281.253 231.352L283.491 231.5C283.378 232.038 283.145 232.508 282.793 232.909C282.444 233.307 281.993 233.617 281.44 233.841C280.891 234.061 280.257 234.17 279.537 234.17ZM289.764 225.273V227.091H284.509V225.273H289.764ZM285.702 223.182H288.122V231.318C288.122 231.542 288.156 231.716 288.224 231.841C288.293 231.962 288.387 232.047 288.509 232.097C288.634 232.146 288.777 232.17 288.94 232.17C289.054 232.17 289.168 232.161 289.281 232.142C289.395 232.119 289.482 232.102 289.543 232.091L289.923 233.892C289.802 233.93 289.632 233.973 289.412 234.023C289.192 234.076 288.925 234.108 288.611 234.119C288.027 234.142 287.516 234.064 287.077 233.886C286.641 233.708 286.302 233.432 286.06 233.057C285.817 232.682 285.698 232.208 285.702 231.636V223.182ZM293.83 234.165C293.273 234.165 292.777 234.068 292.341 233.875C291.905 233.678 291.561 233.388 291.307 233.006C291.057 232.619 290.932 232.138 290.932 231.562C290.932 231.078 291.021 230.67 291.199 230.341C291.377 230.011 291.619 229.746 291.926 229.545C292.233 229.345 292.581 229.193 292.972 229.091C293.366 228.989 293.778 228.917 294.21 228.875C294.718 228.822 295.127 228.773 295.438 228.727C295.748 228.678 295.973 228.606 296.114 228.511C296.254 228.417 296.324 228.277 296.324 228.091V228.057C296.324 227.697 296.21 227.419 295.983 227.222C295.759 227.025 295.441 226.926 295.028 226.926C294.593 226.926 294.246 227.023 293.989 227.216C293.731 227.405 293.561 227.644 293.477 227.932L291.239 227.75C291.352 227.22 291.576 226.761 291.909 226.375C292.242 225.985 292.672 225.686 293.199 225.477C293.729 225.265 294.343 225.159 295.04 225.159C295.525 225.159 295.989 225.216 296.432 225.33C296.879 225.443 297.275 225.619 297.619 225.858C297.968 226.097 298.242 226.403 298.443 226.778C298.644 227.15 298.744 227.595 298.744 228.114V234H296.449V232.79H296.381C296.241 233.062 296.053 233.303 295.818 233.511C295.583 233.716 295.301 233.877 294.972 233.994C294.642 234.108 294.261 234.165 293.83 234.165ZM294.523 232.494C294.879 232.494 295.193 232.424 295.466 232.284C295.739 232.14 295.953 231.947 296.108 231.705C296.263 231.462 296.341 231.187 296.341 230.881V229.955C296.265 230.004 296.161 230.049 296.028 230.091C295.9 230.129 295.754 230.165 295.591 230.199C295.428 230.229 295.265 230.258 295.102 230.284C294.939 230.307 294.792 230.328 294.659 230.347C294.375 230.388 294.127 230.455 293.915 230.545C293.703 230.636 293.538 230.759 293.42 230.915C293.303 231.066 293.244 231.256 293.244 231.483C293.244 231.812 293.364 232.064 293.602 232.239C293.845 232.409 294.152 232.494 294.523 232.494ZM303.838 234.142C303.175 234.142 302.575 233.972 302.037 233.631C301.503 233.286 301.079 232.78 300.764 232.114C300.454 231.443 300.298 230.621 300.298 229.648C300.298 228.648 300.459 227.816 300.781 227.153C301.103 226.487 301.531 225.989 302.065 225.659C302.603 225.326 303.192 225.159 303.832 225.159C304.321 225.159 304.728 225.242 305.054 225.409C305.384 225.572 305.649 225.777 305.849 226.023C306.054 226.265 306.209 226.504 306.315 226.739H306.389V222.364H308.804V234H306.418V232.602H306.315C306.202 232.845 306.041 233.085 305.832 233.324C305.628 233.559 305.361 233.754 305.031 233.909C304.705 234.064 304.308 234.142 303.838 234.142ZM304.605 232.216C304.995 232.216 305.325 232.11 305.594 231.898C305.866 231.682 306.075 231.381 306.219 230.994C306.366 230.608 306.44 230.155 306.44 229.636C306.44 229.117 306.368 228.667 306.224 228.284C306.08 227.902 305.872 227.606 305.599 227.398C305.327 227.189 304.995 227.085 304.605 227.085C304.207 227.085 303.872 227.193 303.599 227.409C303.327 227.625 303.12 227.924 302.98 228.307C302.84 228.689 302.77 229.133 302.77 229.636C302.77 230.144 302.84 230.593 302.98 230.983C303.124 231.369 303.33 231.672 303.599 231.892C303.872 232.108 304.207 232.216 304.605 232.216ZM313.283 234.165C312.726 234.165 312.23 234.068 311.794 233.875C311.358 233.678 311.014 233.388 310.76 233.006C310.51 232.619 310.385 232.138 310.385 231.562C310.385 231.078 310.474 230.67 310.652 230.341C310.83 230.011 311.072 229.746 311.379 229.545C311.686 229.345 312.035 229.193 312.425 229.091C312.819 228.989 313.232 228.917 313.663 228.875C314.171 228.822 314.58 228.773 314.891 228.727C315.201 228.678 315.427 228.606 315.567 228.511C315.707 228.417 315.777 228.277 315.777 228.091V228.057C315.777 227.697 315.663 227.419 315.436 227.222C315.213 227.025 314.894 226.926 314.482 226.926C314.046 226.926 313.699 227.023 313.442 227.216C313.184 227.405 313.014 227.644 312.93 227.932L310.692 227.75C310.805 227.22 311.029 226.761 311.362 226.375C311.696 225.985 312.125 225.686 312.652 225.477C313.182 225.265 313.796 225.159 314.493 225.159C314.978 225.159 315.442 225.216 315.885 225.33C316.332 225.443 316.728 225.619 317.072 225.858C317.421 226.097 317.696 226.403 317.896 226.778C318.097 227.15 318.197 227.595 318.197 228.114V234H315.902V232.79H315.834C315.694 233.062 315.506 233.303 315.271 233.511C315.036 233.716 314.754 233.877 314.425 233.994C314.095 234.108 313.714 234.165 313.283 234.165ZM313.976 232.494C314.332 232.494 314.646 232.424 314.919 232.284C315.192 232.14 315.406 231.947 315.561 231.705C315.716 231.462 315.794 231.187 315.794 230.881V229.955C315.718 230.004 315.614 230.049 315.482 230.091C315.353 230.129 315.207 230.165 315.044 230.199C314.881 230.229 314.718 230.258 314.555 230.284C314.393 230.307 314.245 230.328 314.112 230.347C313.828 230.388 313.58 230.455 313.368 230.545C313.156 230.636 312.991 230.759 312.874 230.915C312.756 231.066 312.697 231.256 312.697 231.483C312.697 231.812 312.817 232.064 313.055 232.239C313.298 232.409 313.605 232.494 313.976 232.494ZM324.717 225.273V227.091H319.462V225.273H324.717ZM320.655 223.182H323.075V231.318C323.075 231.542 323.109 231.716 323.178 231.841C323.246 231.962 323.34 232.047 323.462 232.097C323.587 232.146 323.731 232.17 323.893 232.17C324.007 232.17 324.121 232.161 324.234 232.142C324.348 232.119 324.435 232.102 324.496 232.091L324.876 233.892C324.755 233.93 324.585 233.973 324.365 234.023C324.145 234.076 323.878 234.108 323.564 234.119C322.981 234.142 322.469 234.064 322.03 233.886C321.594 233.708 321.255 233.432 321.013 233.057C320.77 232.682 320.651 232.208 320.655 231.636V223.182ZM328.783 234.165C328.226 234.165 327.73 234.068 327.294 233.875C326.858 233.678 326.514 233.388 326.26 233.006C326.01 232.619 325.885 232.138 325.885 231.562C325.885 231.078 325.974 230.67 326.152 230.341C326.33 230.011 326.572 229.746 326.879 229.545C327.186 229.345 327.535 229.193 327.925 229.091C328.319 228.989 328.732 228.917 329.163 228.875C329.671 228.822 330.08 228.773 330.391 228.727C330.701 228.678 330.927 228.606 331.067 228.511C331.207 228.417 331.277 228.277 331.277 228.091V228.057C331.277 227.697 331.163 227.419 330.936 227.222C330.713 227.025 330.394 226.926 329.982 226.926C329.546 226.926 329.199 227.023 328.942 227.216C328.684 227.405 328.514 227.644 328.43 227.932L326.192 227.75C326.305 227.22 326.529 226.761 326.862 226.375C327.196 225.985 327.625 225.686 328.152 225.477C328.682 225.265 329.296 225.159 329.993 225.159C330.478 225.159 330.942 225.216 331.385 225.33C331.832 225.443 332.228 225.619 332.572 225.858C332.921 226.097 333.196 226.403 333.396 226.778C333.597 227.15 333.697 227.595 333.697 228.114V234H331.402V232.79H331.334C331.194 233.062 331.006 233.303 330.771 233.511C330.536 233.716 330.254 233.877 329.925 233.994C329.595 234.108 329.214 234.165 328.783 234.165ZM329.476 232.494C329.832 232.494 330.146 232.424 330.419 232.284C330.692 232.14 330.906 231.947 331.061 231.705C331.216 231.462 331.294 231.187 331.294 230.881V229.955C331.218 230.004 331.114 230.049 330.982 230.091C330.853 230.129 330.707 230.165 330.544 230.199C330.381 230.229 330.218 230.258 330.055 230.284C329.893 230.307 329.745 230.328 329.612 230.347C329.328 230.388 329.08 230.455 328.868 230.545C328.656 230.636 328.491 230.759 328.374 230.915C328.256 231.066 328.197 231.256 328.197 231.483C328.197 231.812 328.317 232.064 328.555 232.239C328.798 232.409 329.105 232.494 329.476 232.494ZM347.04 226.125C346.96 225.848 346.848 225.604 346.705 225.392C346.561 225.176 346.384 224.994 346.176 224.847C345.972 224.695 345.737 224.58 345.472 224.5C345.21 224.42 344.92 224.381 344.602 224.381C344.008 224.381 343.485 224.528 343.034 224.824C342.587 225.119 342.239 225.549 341.989 226.114C341.739 226.674 341.614 227.36 341.614 228.17C341.614 228.981 341.737 229.67 341.983 230.239C342.229 230.807 342.578 231.241 343.028 231.54C343.479 231.835 344.011 231.983 344.625 231.983C345.182 231.983 345.657 231.884 346.051 231.688C346.449 231.487 346.752 231.205 346.96 230.841C347.172 230.477 347.278 230.047 347.278 229.551L347.778 229.625H344.778V227.773H349.648V229.239C349.648 230.261 349.432 231.14 349 231.875C348.568 232.606 347.973 233.17 347.216 233.568C346.458 233.962 345.591 234.159 344.614 234.159C343.523 234.159 342.564 233.919 341.739 233.438C340.913 232.953 340.269 232.265 339.807 231.375C339.348 230.481 339.119 229.42 339.119 228.193C339.119 227.25 339.256 226.409 339.528 225.67C339.805 224.928 340.191 224.299 340.688 223.784C341.184 223.269 341.761 222.877 342.42 222.608C343.08 222.339 343.794 222.205 344.562 222.205C345.222 222.205 345.835 222.301 346.403 222.494C346.972 222.684 347.475 222.953 347.915 223.301C348.358 223.65 348.72 224.064 349 224.545C349.28 225.023 349.46 225.549 349.54 226.125H347.04ZM351.45 234V225.273H353.797V226.795H353.888C354.047 226.254 354.314 225.845 354.689 225.568C355.064 225.288 355.496 225.148 355.984 225.148C356.106 225.148 356.236 225.155 356.376 225.17C356.517 225.186 356.64 225.206 356.746 225.233V227.381C356.632 227.347 356.475 227.316 356.274 227.29C356.073 227.263 355.89 227.25 355.723 227.25C355.367 227.25 355.049 227.328 354.768 227.483C354.492 227.634 354.272 227.847 354.109 228.119C353.95 228.392 353.871 228.706 353.871 229.062V234H351.45ZM360.236 234.165C359.679 234.165 359.183 234.068 358.747 233.875C358.312 233.678 357.967 233.388 357.713 233.006C357.463 232.619 357.338 232.138 357.338 231.562C357.338 231.078 357.427 230.67 357.605 230.341C357.783 230.011 358.026 229.746 358.332 229.545C358.639 229.345 358.988 229.193 359.378 229.091C359.772 228.989 360.185 228.917 360.616 228.875C361.124 228.822 361.533 228.773 361.844 228.727C362.154 228.678 362.38 228.606 362.52 228.511C362.66 228.417 362.73 228.277 362.73 228.091V228.057C362.73 227.697 362.616 227.419 362.389 227.222C362.166 227.025 361.848 226.926 361.435 226.926C360.999 226.926 360.652 227.023 360.395 227.216C360.137 227.405 359.967 227.644 359.884 227.932L357.645 227.75C357.759 227.22 357.982 226.761 358.315 226.375C358.649 225.985 359.079 225.686 359.605 225.477C360.135 225.265 360.749 225.159 361.446 225.159C361.931 225.159 362.395 225.216 362.838 225.33C363.285 225.443 363.681 225.619 364.026 225.858C364.374 226.097 364.649 226.403 364.849 226.778C365.05 227.15 365.151 227.595 365.151 228.114V234H362.855V232.79H362.787C362.647 233.062 362.459 233.303 362.224 233.511C361.99 233.716 361.707 233.877 361.378 233.994C361.048 234.108 360.668 234.165 360.236 234.165ZM360.929 232.494C361.285 232.494 361.599 232.424 361.872 232.284C362.145 232.14 362.359 231.947 362.514 231.705C362.67 231.462 362.747 231.187 362.747 230.881V229.955C362.671 230.004 362.567 230.049 362.435 230.091C362.306 230.129 362.16 230.165 361.997 230.199C361.834 230.229 361.671 230.258 361.509 230.284C361.346 230.307 361.198 230.328 361.065 230.347C360.781 230.388 360.533 230.455 360.321 230.545C360.109 230.636 359.944 230.759 359.827 230.915C359.709 231.066 359.651 231.256 359.651 231.483C359.651 231.812 359.77 232.064 360.009 232.239C360.251 232.409 360.558 232.494 360.929 232.494ZM367.028 237.273V225.273H369.415V226.739H369.523C369.629 226.504 369.782 226.265 369.983 226.023C370.188 225.777 370.453 225.572 370.778 225.409C371.108 225.242 371.517 225.159 372.006 225.159C372.642 225.159 373.229 225.326 373.767 225.659C374.305 225.989 374.735 226.487 375.057 227.153C375.379 227.816 375.54 228.648 375.54 229.648C375.54 230.621 375.383 231.443 375.068 232.114C374.758 232.78 374.333 233.286 373.795 233.631C373.261 233.972 372.663 234.142 372 234.142C371.53 234.142 371.131 234.064 370.801 233.909C370.475 233.754 370.208 233.559 370 233.324C369.792 233.085 369.633 232.845 369.523 232.602H369.449V237.273H367.028ZM369.398 229.636C369.398 230.155 369.47 230.608 369.614 230.994C369.758 231.381 369.966 231.682 370.239 231.898C370.511 232.11 370.843 232.216 371.233 232.216C371.627 232.216 371.96 232.108 372.233 231.892C372.506 231.672 372.712 231.369 372.852 230.983C372.996 230.593 373.068 230.144 373.068 229.636C373.068 229.133 372.998 228.689 372.858 228.307C372.718 227.924 372.511 227.625 372.239 227.409C371.966 227.193 371.631 227.085 371.233 227.085C370.839 227.085 370.506 227.189 370.233 227.398C369.964 227.606 369.758 227.902 369.614 228.284C369.47 228.667 369.398 229.117 369.398 229.636ZM379.574 228.955V234H377.153V222.364H379.506V226.812H379.608C379.805 226.297 380.123 225.894 380.562 225.602C381.002 225.307 381.553 225.159 382.216 225.159C382.822 225.159 383.35 225.292 383.801 225.557C384.256 225.818 384.608 226.195 384.858 226.688C385.112 227.176 385.237 227.761 385.233 228.443V234H382.812V228.875C382.816 228.337 382.68 227.919 382.403 227.619C382.131 227.32 381.748 227.17 381.256 227.17C380.926 227.17 380.634 227.241 380.381 227.381C380.131 227.521 379.934 227.725 379.79 227.994C379.65 228.259 379.578 228.58 379.574 228.955Z" fill="black"/>
<path d="M68 304C112.5 304 91.5 262 140.5 262C189.5 262 175.5 304 215.5 304C264.5 304 238 262 287 262C336 262 313.5 304 362.5 304C408.5 304 385 262 433 262C483.5 262 460 304 509 304" stroke="url(#paint4_linear_7412_61108)" stroke-linecap="round" stroke-dasharray="2 2"/>
<path d="M91 262C140 262 117.5 304.5 166.5 304.5" stroke="#2FCDD2" stroke-linecap="round" stroke-dasharray="2 2"/>
<path d="M189 262C238 262 215 304.5 264.5 304.5" stroke="url(#paint5_linear_7412_61108)" stroke-linecap="round" stroke-dasharray="2 2"/>
<path d="M384 262C433 262 414.5 305 460 305" stroke="url(#paint6_linear_7412_61108)" stroke-linecap="round" stroke-dasharray="2 2"/>
<path d="M530 262C480.647 262 509 304 460 305" stroke="url(#paint7_linear_7412_61108)" stroke-linecap="round" stroke-dasharray="2 2"/>
<path d="M386.5 262C337.5 262 368.5 304.5 313.5 304.5" stroke="url(#paint8_linear_7412_61108)" stroke-linecap="round" stroke-dasharray="2 2"/>
<path d="M336.5 262C287.5 262 319 304 264 304" stroke="url(#paint9_linear_7412_61108)" stroke-linecap="round" stroke-dasharray="2 2"/>
<path d="M140 262L238 262" stroke="url(#paint10_linear_7412_61108)" stroke-dasharray="2 2"/>
<path d="M336 263L385 263" stroke="#2FCDD2" stroke-linecap="round" stroke-dasharray="2 2"/>
<path d="M264 304L313 304" stroke="url(#paint11_linear_7412_61108)"/>
<path d="M483 262L532 262" stroke="#67ADE0" stroke-linecap="round" stroke-dasharray="2 2"/>
<rect x="62.5" y="298.5" width="11" height="11" rx="5.5" fill="#2FCDD2" stroke="black"/>
<rect x="160.5" y="298.5" width="11" height="11" rx="5.5" fill="#2FCDD2" stroke="black"/>
<rect x="209.5" y="298.5" width="11" height="11" rx="5.5" fill="#8884D8" stroke="black"/>
<rect x="258.5" y="298.5" width="11" height="11" rx="5.5" fill="#67ADE0" stroke="black"/>
<rect x="307.5" y="298.5" width="11" height="11" rx="5.5" fill="#8884D8" stroke="black"/>
<rect x="356.5" y="298.5" width="11" height="11" rx="5.5" fill="#8884D8" stroke="black"/>
<rect x="454.5" y="298.5" width="11" height="11" rx="5.5" fill="#8884D8" stroke="black"/>
<rect x="503.5" y="298.5" width="11" height="11" rx="5.5" fill="#67ADE0" stroke="black"/>
<rect x="85.5" y="256.5" width="11" height="11" rx="5.5" fill="#2FCDD2" stroke="black"/>
<rect x="134.5" y="256.5" width="11" height="11" rx="5.5" fill="#2FCDD2" stroke="black"/>
<rect x="183.5" y="256.5" width="11" height="11" rx="5.5" fill="#8884D8" stroke="black"/>
<rect x="232.5" y="256.5" width="11" height="11" rx="5.5" fill="#67ADE0" stroke="black"/>
<rect x="281.5" y="256.5" width="11" height="11" rx="5.5" fill="#67ADE0" stroke="black"/>
<rect x="330.5" y="256.5" width="11" height="11" rx="5.5" fill="#2FCDD2" stroke="black"/>
<rect x="379.5" y="256.5" width="11" height="11" rx="5.5" fill="#2FCDD2" stroke="black"/>
<rect x="428.5" y="256.5" width="11" height="11" rx="5.5" fill="#8884D8" stroke="black"/>
<rect x="477.5" y="256.5" width="11" height="11" rx="5.5" fill="#67ADE0" stroke="black"/>
<rect x="526.5" y="256.5" width="11" height="11" rx="5.5" fill="#67ADE0" stroke="black"/>
<defs>
<linearGradient id="paint0_linear_7412_61108" x1="0" y1="85" x2="600" y2="85" gradientUnits="userSpaceOnUse">
<stop stop-color="#E6E5F7"/>
<stop offset="0.5" stop-color="#BCCBEE"/>
<stop offset="1" stop-color="#DAD9F3"/>
</linearGradient>
<linearGradient id="paint1_linear_7412_61108" x1="0" y1="85" x2="600" y2="85" gradientUnits="userSpaceOnUse">
<stop stop-color="#6863CE"/>
<stop offset="0.5" stop-color="#26A087"/>
<stop offset="1" stop-color="#6863CE"/>
</linearGradient>
<linearGradient id="paint2_linear_7412_61108" x1="0" y1="270" x2="600" y2="270" gradientUnits="userSpaceOnUse">
<stop stop-color="#E6E5F7"/>
<stop offset="0.5" stop-color="#BCCBEE"/>
<stop offset="1" stop-color="#DAD9F3"/>
</linearGradient>
<linearGradient id="paint3_linear_7412_61108" x1="0" y1="270" x2="600" y2="270" gradientUnits="userSpaceOnUse">
<stop stop-color="#6863CE"/>
<stop offset="0.5" stop-color="#26A087"/>
<stop offset="1" stop-color="#6863CE"/>
</linearGradient>
<linearGradient id="paint4_linear_7412_61108" x1="68" y1="283" x2="509" y2="283" gradientUnits="userSpaceOnUse">
<stop stop-color="#2FCDD2"/>
<stop offset="0.335" stop-color="#8884D8"/>
<stop offset="0.495" stop-color="#67ADE0"/>
<stop offset="0.665" stop-color="#8884D8"/>
<stop offset="1" stop-color="#67ADE0"/>
</linearGradient>
<linearGradient id="paint5_linear_7412_61108" x1="226.75" y1="262" x2="226.75" y2="304.5" gradientUnits="userSpaceOnUse">
<stop stop-color="#8884D8"/>
<stop offset="1" stop-color="#67ADE0"/>
</linearGradient>
<linearGradient id="paint6_linear_7412_61108" x1="422" y1="262" x2="422" y2="305" gradientUnits="userSpaceOnUse">
<stop stop-color="#2FCDD2"/>
<stop offset="1" stop-color="#8884D8"/>
</linearGradient>
<linearGradient id="paint7_linear_7412_61108" x1="495" y1="262" x2="495" y2="305" gradientUnits="userSpaceOnUse">
<stop stop-color="#67ADE0"/>
<stop offset="1" stop-color="#8884D8"/>
</linearGradient>
<linearGradient id="paint8_linear_7412_61108" x1="350" y1="262" x2="350" y2="304.5" gradientUnits="userSpaceOnUse">
<stop stop-color="#2FCDD2"/>
<stop offset="1" stop-color="#8884D8"/>
</linearGradient>
<linearGradient id="paint9_linear_7412_61108" x1="300.25" y1="262" x2="300.25" y2="304" gradientUnits="userSpaceOnUse">
<stop stop-color="#67ADE0"/>
<stop offset="1" stop-color="#2FCDD2"/>
</linearGradient>
<linearGradient id="paint10_linear_7412_61108" x1="140" y1="262.5" x2="238" y2="262.5" gradientUnits="userSpaceOnUse">
<stop stop-color="#2FCDD2"/>
<stop offset="0.495" stop-color="#8884D8"/>
<stop offset="1" stop-color="#67ADE0"/>
</linearGradient>
<linearGradient id="paint11_linear_7412_61108" x1="264" y1="304.5" x2="313" y2="304.5" gradientUnits="userSpaceOnUse">
<stop stop-color="#67ADE0"/>
<stop offset="1" stop-color="#8884D8"/>
</linearGradient>
</defs>
</svg>
