<svg width="18" height="19" viewBox="0 0 18 19" fill="none" xmlns="http://www.w3.org/2000/svg">
<path d="M8.12298 1.00776C9.93755 1.09342 11.6109 1.88007 12.832 3.22456C15.2853 5.92009 15.161 10.0681 12.6054 12.6162L16.8554 16.9433C17.061 17.1523 17.046 17.4764 16.8183 17.6669C16.7122 17.7571 16.5789 17.7998 16.4462 17.7998C16.296 17.7997 16.1453 17.7423 16.037 17.6318L11.7919 13.3085C10.6022 14.1716 9.20286 14.5995 7.80658 14.5996H7.80463C5.95407 14.5996 4.11106 13.853 2.77045 12.3789C1.54744 11.0343 0.92218 9.29512 1.00775 7.48042C1.09341 5.6656 1.87995 3.99163 3.22455 2.77046C4.56911 1.54732 6.30832 0.922131 8.12298 1.00776ZM7.79486 1.99604C6.34878 1.99604 4.9721 2.52777 3.89447 3.50776C2.74708 4.55163 2.0756 5.98039 2.00189 7.52827C1.92829 9.07794 2.46417 10.5616 3.5058 11.7089C4.54956 12.8563 5.97762 13.5278 7.52533 13.6015C9.07311 13.6752 10.5596 13.1395 11.707 12.0957C12.8541 11.0519 13.5258 9.62375 13.5995 8.07612C13.6733 6.52625 13.1365 5.04194 12.0947 3.89448C11.0509 2.7471 9.62285 2.07561 8.07513 2.0019C7.9817 1.99793 7.88827 1.99605 7.79681 1.99604H7.79486Z" fill="#7147E8"/>
<path d="M8.12298 1.00776L8.14656 0.508318L8.14655 0.508317L8.12298 1.00776ZM12.832 3.22456L12.4618 3.56071L12.4622 3.56111L12.832 3.22456ZM12.6054 12.6162L12.2524 12.2621L11.901 12.6125L12.2487 12.9665L12.6054 12.6162ZM16.8554 16.9433L16.4987 17.2937L16.499 17.294L16.8554 16.9433ZM16.8183 17.6669L16.4974 17.2835L16.4946 17.2858L16.8183 17.6669ZM16.4462 17.7998L16.446 18.2998H16.4462V17.7998ZM16.037 17.6318L16.3943 17.2819L16.3938 17.2815L16.037 17.6318ZM11.7919 13.3085L12.1487 12.9582L11.847 12.6509L11.4983 12.9038L11.7919 13.3085ZM7.80658 14.5996V15.0996H7.80659L7.80658 14.5996ZM2.77045 12.3789L3.14036 12.0425L3.14033 12.0424L2.77045 12.3789ZM1.00775 7.48042L0.508307 7.45685L0.508306 7.45687L1.00775 7.48042ZM3.22455 2.77046L3.5607 3.14059L3.561 3.14032L3.22455 2.77046ZM3.89447 3.50776L3.55807 3.13785L3.55799 3.13792L3.89447 3.50776ZM2.00189 7.52827L1.50246 7.50449L1.50245 7.50455L2.00189 7.52827ZM3.5058 11.7089L3.1356 12.045L3.13593 12.0454L3.5058 11.7089ZM7.52533 13.6015L7.50153 14.1009L7.50154 14.1009L7.52533 13.6015ZM11.707 12.0957L12.0434 12.4655L12.0435 12.4655L11.707 12.0957ZM13.5995 8.07612L14.099 8.09993L14.099 8.09987L13.5995 8.07612ZM12.0947 3.89448L12.4648 3.55838L12.4645 3.55802L12.0947 3.89448ZM8.07513 2.0019L8.09892 1.50246L8.09638 1.50235L8.07513 2.0019ZM7.79681 1.99604L7.79684 1.49604H7.79681V1.99604ZM8.12298 1.00776L8.09941 1.50721C9.7817 1.58662 11.3303 2.31476 12.4618 3.56071L12.832 3.22456L13.2021 2.8884C11.8915 1.44537 10.0934 0.600216 8.14656 0.508318L8.12298 1.00776ZM12.832 3.22456L12.4622 3.56111C14.7346 6.05783 14.6198 9.90168 12.2524 12.2621L12.6054 12.6162L12.9584 12.9702C15.7023 10.2346 15.836 5.78235 13.2017 2.88801L12.832 3.22456ZM12.6054 12.6162L12.2487 12.9665L16.4987 17.2937L16.8554 16.9433L17.2121 16.5929L12.9621 12.2658L12.6054 12.6162ZM16.8554 16.9433L16.499 17.294C16.5025 17.2976 16.5022 17.2985 16.5012 17.296C16.5004 17.2938 16.4998 17.2907 16.5 17.2872C16.5001 17.2836 16.501 17.2809 16.5018 17.2793C16.5027 17.2775 16.5024 17.2793 16.4974 17.2835L16.8183 17.6669L17.1392 18.0504C17.5897 17.6733 17.6232 17.0107 17.2118 16.5926L16.8554 16.9433ZM16.8183 17.6669L16.4946 17.2858C16.4883 17.2912 16.4733 17.2998 16.4462 17.2998V17.7998V18.2998C16.6845 18.2998 16.936 18.2229 17.142 18.048L16.8183 17.6669ZM16.4462 17.7998L16.4465 17.2998C16.4343 17.2997 16.4224 17.2973 16.4126 17.2934C16.403 17.2895 16.3973 17.2851 16.3943 17.2819L16.037 17.6318L15.6798 17.9816C15.8898 18.1961 16.1728 18.2996 16.446 18.2998L16.4462 17.7998ZM16.037 17.6318L16.3938 17.2815L12.1487 12.9582L11.7919 13.3085L11.4352 13.6589L15.6803 17.9821L16.037 17.6318ZM11.7919 13.3085L11.4983 12.9038C10.3967 13.7029 9.10077 14.0995 7.80656 14.0996L7.80658 14.5996L7.80659 15.0996C9.30495 15.0995 10.8077 14.6402 12.0855 13.7133L11.7919 13.3085ZM7.80658 14.5996V14.0996H7.80463V14.5996V15.0996H7.80658V14.5996ZM7.80463 14.5996V14.0996C6.08822 14.0996 4.38181 13.4076 3.14036 12.0425L2.77045 12.3789L2.40053 12.7153C3.84031 14.2985 5.81991 15.0996 7.80463 15.0996V14.5996ZM2.77045 12.3789L3.14033 12.0424C2.00659 10.796 1.42786 9.18634 1.5072 7.50397L1.00775 7.48042L0.508306 7.45687C0.416495 9.4039 1.08829 11.2725 2.40056 12.7153L2.77045 12.3789ZM1.00775 7.48042L1.50719 7.50399C1.58661 5.82137 2.3147 4.27222 3.5607 3.14059L3.22455 2.77046L2.88839 2.40032C1.4452 3.71104 0.600202 5.50983 0.508307 7.45685L1.00775 7.48042ZM3.22455 2.77046L3.561 3.14032C4.80741 2.00648 6.41708 1.42782 8.09942 1.50721L8.12298 1.00776L8.14655 0.508317C6.19956 0.416442 4.33082 1.08817 2.88809 2.4006L3.22455 2.77046ZM7.79486 1.99604V1.49604C6.22404 1.49604 4.7275 2.07438 3.55807 3.13785L3.89447 3.50776L4.23087 3.87768C5.2167 2.98117 6.47352 2.49604 7.79486 2.49604V1.99604ZM3.89447 3.50776L3.55799 3.13792C2.31241 4.27113 1.58245 5.82443 1.50246 7.50449L2.00189 7.52827L2.50133 7.55205C2.56874 6.13635 3.18176 4.83214 4.23095 3.8776L3.89447 3.50776ZM2.00189 7.52827L1.50245 7.50455C1.42254 9.18712 2.00532 10.8 3.1356 12.045L3.5058 11.7089L3.876 11.3728C2.92301 10.3231 2.43404 8.96875 2.50133 7.55199L2.00189 7.52827ZM3.5058 11.7089L3.13593 12.0454C4.269 13.291 5.8216 14.0209 7.50153 14.1009L7.52533 13.6015L7.54913 13.1021C6.13365 13.0346 4.83012 12.4217 3.87566 11.3725L3.5058 11.7089ZM7.52533 13.6015L7.50154 14.1009C9.18215 14.181 10.7981 13.5984 12.0434 12.4655L11.707 12.0957L11.3705 11.7258C10.321 12.6806 8.96407 13.1695 7.54911 13.1021L7.52533 13.6015ZM11.707 12.0957L12.0435 12.4655C13.2887 11.3324 14.0189 9.77982 14.099 8.09993L13.5995 8.07612L13.1001 8.05231C13.0326 9.46768 12.4195 10.7713 11.3705 11.7258L11.707 12.0957ZM13.5995 8.07612L14.099 8.09987C14.179 6.41693 13.5952 4.80338 12.4648 3.55838L12.0947 3.89448L11.7245 4.23058C12.6777 5.2805 13.1675 6.63558 13.1001 8.05237L13.5995 8.07612ZM12.0947 3.89448L12.4645 3.55802C11.3314 2.31248 9.7789 1.58247 8.09892 1.50247L8.07513 2.0019L8.05135 2.50134C9.46681 2.56874 10.7703 3.18171 11.7248 4.23094L12.0947 3.89448ZM8.07513 2.0019L8.09638 1.50235C7.99557 1.49807 7.89506 1.49605 7.79684 1.49604L7.79681 1.99604L7.79678 2.49604C7.88148 2.49605 7.96783 2.49779 8.05389 2.50145L8.07513 2.0019ZM7.79681 1.99604V1.49604H7.79486V1.99604V2.49604H7.79681V1.99604Z" fill="#7147E8"/>
</svg>
