<svg width="20" height="20" viewBox="0 0 20 20" fill="none" xmlns="http://www.w3.org/2000/svg">
<path d="M9.64266 5.18281C9.2891 4.75854 8.65853 4.70121 8.23425 5.05478C7.80998 5.40834 7.75265 6.03891 8.10622 6.46318L9.64266 5.18281ZM12.189 9.8005L12.9572 10.4407C13.2663 10.0698 13.2663 9.53116 12.9572 9.16032L12.189 9.8005ZM8.10622 13.1378C7.75265 13.5621 7.80998 14.1927 8.23425 14.5462C8.65853 14.8998 9.2891 14.8425 9.64266 14.4182L8.10622 13.1378ZM8.10622 6.46318L11.4208 10.4407L12.9572 9.16032L9.64266 5.18281L8.10622 6.46318ZM11.4208 9.16032L8.10622 13.1378L9.64266 14.4182L12.9572 10.4407L11.4208 9.16032ZM10 2C14.4183 2 18 5.58172 18 10H20C20 4.47715 15.5228 -2.38419e-07 10 0V2ZM18 10C18 14.4183 14.4183 18 10 18V20C15.5228 20 20 15.5228 20 10H18ZM10 18C5.58172 18 2 14.4183 2 10H0C2.38419e-07 15.5228 4.47715 20 10 20V18ZM2 10C2 5.58172 5.58172 2 10 2V0C4.47715 2.38419e-07 -2.38419e-07 4.47715 0 10H2Z" fill="black"/>
</svg>
