<svg width="20" height="20" viewBox="0 0 20 20" fill="none" xmlns="http://www.w3.org/2000/svg">
<path d="M10.2958 14.4173C10.6494 14.8416 11.2799 14.8989 11.7042 14.5453C12.1285 14.1918 12.1858 13.5612 11.8323 13.1369L10.2958 14.4173ZM7.74945 9.7996L6.98123 9.15941C6.67219 9.53026 6.67219 10.0689 6.98123 10.4398L7.74945 9.7996ZM11.8323 6.46228C12.1858 6.038 12.1285 5.40744 11.7042 5.05387C11.2799 4.70031 10.6494 4.75763 10.2958 5.18191L11.8323 6.46228ZM11.8323 13.1369L8.51767 9.15941L6.98123 10.4398L10.2958 14.4173L11.8323 13.1369ZM8.51767 10.4398L11.8323 6.46228L10.2958 5.18191L6.98123 9.15941L8.51767 10.4398ZM10 2C14.4183 2 18 5.58172 18 10H20C20 4.47715 15.5228 -2.38419e-07 10 0V2ZM18 10C18 14.4183 14.4183 18 10 18V20C15.5228 20 20 15.5228 20 10H18ZM10 18C5.58172 18 2 14.4183 2 10H0C2.38419e-07 15.5228 4.47715 20 10 20V18ZM2 10C2 5.58172 5.58172 2 10 2V0C4.47715 2.38419e-07 -2.38419e-07 4.47715 0 10H2Z" fill="black"/>
</svg>
