<svg width="81" height="81" viewBox="0 0 81 81" fill="none" xmlns="http://www.w3.org/2000/svg">
<path d="M58.9759 72.5685C58.9759 67.9285 55.2125 64.1652 50.5725 64.1652H42.1692V72.5752C42.1725 77.2118 45.9325 80.9718 50.5725 80.9718C55.2125 80.9718 58.9759 77.2085 58.9759 72.5685Z" fill="#FF9800"/>
<path d="M71.6325 43.1451H50.5725C45.9291 43.1451 42.1625 46.9118 42.1625 51.5551C42.1625 56.1985 45.9291 59.9651 50.5725 59.9651H71.6325C76.2758 59.9651 80.0425 56.1985 80.0425 51.5551C80.0425 46.9118 76.2758 43.1451 71.6325 43.1451V43.1451Z" fill="#FF9800"/>
<path d="M29.5125 43.1519C24.8725 43.1519 21.1091 46.9152 21.1091 51.5552V72.5752C21.1091 77.2152 24.8725 80.9785 29.5125 80.9785C34.1525 80.9785 37.9158 77.2152 37.9158 72.5752V51.5552C37.9125 46.9152 34.1491 43.1519 29.5125 43.1519Z" fill="#E91E63"/>
<path d="M0.0991211 51.5551C0.0991211 56.1985 3.86579 59.9651 8.50912 59.9651C13.1525 59.9651 16.9191 56.1985 16.9191 51.5551V43.1451H8.51579C8.51245 43.1451 8.51245 43.1451 8.50912 43.1451C3.86579 43.1451 0.0991211 46.9118 0.0991211 51.5551V51.5551Z" fill="#E91E63"/>
<path d="M29.5225 0.978516C29.5192 0.978516 29.5159 0.978516 29.5125 0.978516C24.8692 0.978516 21.1025 4.74518 21.1025 9.38852C21.1025 14.0318 24.8692 17.7985 29.5125 17.7985H37.9159V9.38852C37.9159 9.38518 37.9159 9.37852 37.9159 9.37185C37.9125 4.73518 34.1559 0.978516 29.5225 0.978516V0.978516Z" fill="#00BCD4"/>
<path d="M8.45248 38.8819H29.5125C34.1558 38.8819 37.9225 35.1152 37.9225 30.4719C37.9225 25.8286 34.1558 22.0619 29.5125 22.0619H8.45248C3.80915 22.0619 0.0424805 25.8286 0.0424805 30.4719C0.0424805 35.1152 3.80915 38.8819 8.45248 38.8819V38.8819Z" fill="#00BCD4"/>
<path d="M71.5591 22.0585C66.9224 22.0585 63.1658 25.8151 63.1658 30.4518V30.4685V38.8785H71.5691C76.2124 38.8785 79.9791 35.1118 79.9791 30.4685C79.9791 25.8251 76.2124 22.0585 71.5691 22.0585C71.5658 22.0585 71.5624 22.0585 71.5591 22.0585V22.0585Z" fill="#4CAF50"/>
<path d="M42.1725 9.38856V30.4719C42.1725 35.1119 45.9358 38.8752 50.5758 38.8752C55.2158 38.8752 58.9792 35.1119 58.9792 30.4719V9.38856C58.9792 4.74856 55.2158 0.985229 50.5758 0.985229C45.9358 0.985229 42.1725 4.74856 42.1725 9.38856V9.38856Z" fill="#4CAF50"/>
</svg>
