<svg width="80" height="80" viewBox="0 0 80 80" fill="none" xmlns="http://www.w3.org/2000/svg">
<path d="M28.8547 64.3229C28.2985 64.4266 28.0555 64.6876 28.1252 65.1039C28.1945 65.5204 28.507 65.6596 29.0625 65.5204C29.6187 65.3817 29.8615 65.1382 29.7916 64.7912C29.7227 64.4096 29.4102 64.2531 28.8547 64.3229Z" fill="black"/>
<path d="M25.8858 64.74C25.3301 64.74 25.0525 64.9299 25.0525 65.3126C25.0525 65.7639 25.3478 65.9543 25.9378 65.885C26.4935 65.885 26.7715 65.694 26.7715 65.3126C26.7715 64.8618 26.4761 64.6701 25.8858 64.74Z" fill="black"/>
<path d="M21.8234 64.5825C21.6847 64.9647 21.9106 65.2245 22.5003 65.364C23.0212 65.5715 23.3512 65.4677 23.4898 65.0514C23.5942 64.6699 23.3683 64.3928 22.8128 64.218C22.2918 64.0796 21.9622 64.1994 21.8234 64.5825Z" fill="black"/>
<path d="M75.5988 4.40064C72.6647 1.46706 69.1326 0 64.9997 0H14.9999C10.8683 0 7.33495 1.46706 4.40064 4.40064C1.46706 7.33477 0 10.8682 0 14.9999V65.0005C0 69.1324 1.46706 72.6654 4.40064 75.599C7.33477 78.5331 10.8683 80.0002 14.9999 80.0002H26.6665C27.4298 80.0002 28.0032 79.9739 28.385 79.9228C28.7666 79.8703 29.1483 79.6445 29.5304 79.2448C29.9128 78.8458 30.1033 78.264 30.1033 77.5004C30.1033 77.3968 30.0941 76.215 30.077 73.9583C30.0593 71.7008 30.0507 69.9128 30.0507 68.5931L28.8527 68.8017C28.0889 68.9403 27.1253 69.0014 25.962 68.9839C24.7992 68.9664 23.5923 68.8453 22.3425 68.6194C21.092 68.3934 19.9292 67.8727 18.8527 67.0575C17.7768 66.2408 17.013 65.1734 16.5615 63.8543L16.0405 62.6556C15.6933 61.8578 15.1468 60.972 14.4001 60.0006C13.6534 59.0279 12.8984 58.368 12.1346 58.0209L11.7699 57.7604C11.5271 57.5869 11.3014 57.3776 11.0929 57.1348C10.8848 56.8913 10.7286 56.6479 10.6244 56.4057C10.5203 56.1621 10.6067 55.9624 10.8848 55.8057C11.1628 55.6497 11.6657 55.5724 12.3952 55.5724L13.4365 55.7283C14.1312 55.867 14.9901 56.2833 16.0149 56.9781C17.0391 57.6724 17.8809 58.5751 18.5408 59.6859C19.3398 61.1099 20.3025 62.1942 21.4315 62.9409C22.5596 63.6883 23.697 64.0615 24.8427 64.0615C25.9883 64.0615 26.9778 63.9747 27.8114 63.8017C28.6442 63.6277 29.4255 63.3667 30.1551 63.0195C30.4676 60.6934 31.3184 58.9042 32.7068 57.6544C30.7279 57.4459 28.9485 57.1337 27.3682 56.7167C25.7887 56.2997 24.1566 55.6231 22.4728 54.6852C20.7883 53.7476 19.3909 52.5852 18.2797 51.1954C17.1688 49.8057 16.257 47.9829 15.5457 45.7267C14.8341 43.4692 14.4782 40.8647 14.4782 37.9136C14.4782 33.7125 15.8502 30.1355 18.5931 27.1845C17.3081 24.0248 17.4294 20.4836 18.9574 16.5596C19.9644 16.247 21.4578 16.4816 23.4367 17.2629C25.416 18.0448 26.8652 18.7134 27.7857 19.2681C28.7062 19.823 29.4438 20.2922 29.9995 20.6746C33.2293 19.7718 36.5624 19.3205 39.9996 19.3205C43.4367 19.3205 46.7703 19.7718 50.0004 20.6746L51.9795 19.4246C53.3342 18.5909 54.9311 17.8271 56.7716 17.133C58.6119 16.4387 60.0179 16.2475 60.9906 16.5602C62.5525 20.4842 62.6922 24.0254 61.4063 27.1848C64.1493 30.1363 65.5216 33.7131 65.5216 37.9142C65.5216 40.8658 65.1657 43.479 64.4541 45.7528C63.743 48.0271 62.8234 49.8506 61.694 51.2221C60.5659 52.5937 59.1594 53.7474 57.4756 54.6856C55.7914 55.6227 54.1595 56.3006 52.5793 56.7164C50.9993 57.1334 49.2201 57.4468 47.241 57.6553C49.0454 59.2172 49.948 61.6818 49.948 65.0504V77.4988C49.948 78.0893 50.0341 78.5663 50.2078 78.931C50.3825 79.2955 50.6598 79.5465 51.0416 79.6864C51.4251 79.8251 51.762 79.9117 52.0579 79.9462C52.3538 79.981 52.7783 79.9985 53.334 79.9985H65.0006C69.1322 79.9985 72.6658 78.5315 75.5986 75.5974C78.5328 72.6632 79.9998 69.1297 79.9998 64.9981V14.9999C79.9995 10.8682 78.5324 7.33422 75.5988 4.40064Z" fill="black"/>
<path d="M15.8333 58.2291C15.5905 58.4021 15.6251 58.6799 15.9376 59.0619C16.2853 59.4089 16.5628 59.4612 16.7713 59.2179C17.0141 59.045 16.9795 58.7671 16.6664 58.3844C16.3194 58.0724 16.0418 58.0201 15.8333 58.2291Z" fill="black"/>
<path d="M14.1149 56.927C14.011 57.1706 14.1325 57.3791 14.4796 57.552C14.7571 57.7263 14.9835 57.692 15.1566 57.4484C15.2606 57.2049 15.1391 56.9964 14.7919 56.8222C14.4448 56.7178 14.2191 56.7528 14.1149 56.927Z" fill="black"/>
<path d="M17.4483 60.2607C17.1354 60.4337 17.1354 60.7471 17.4483 61.1978C17.7608 61.6499 18.0554 61.771 18.3336 61.5623C18.6463 61.319 18.6463 60.9892 18.3336 60.5723C18.0561 60.1221 17.7608 60.0166 17.4483 60.2607Z" fill="black"/>
<path d="M19.2716 62.6035C18.9589 62.8819 19.0279 63.2105 19.48 63.5937C19.8961 64.0095 20.2434 64.0618 20.5212 63.7486C20.7993 63.4715 20.7298 63.1419 20.3129 62.7599C19.8968 62.344 19.5495 62.2914 19.2716 62.6035Z" fill="black"/>
</svg>
