<svg width="69" height="80" viewBox="0 0 69 80" fill="none" xmlns="http://www.w3.org/2000/svg">
<path d="M68.8626 17.2152C68.8626 13.8735 66.1285 11.1393 62.7867 11.1393H17.2151C13.8733 11.1393 11.1392 13.8735 11.1392 17.2152V73.9241C11.1392 77.2658 13.8733 80 17.2151 80H51.6425L68.8577 63.7975L68.8626 17.2152Z" fill="#DADEE0"/>
<path d="M11.1392 17.2152C11.1392 13.8734 13.8734 11.1392 17.2152 11.1392H57.7235V6.07595C57.7235 2.73418 54.9893 0 51.6475 0H6.07595C2.73418 0 0 2.73418 0 6.07595V62.7848C0 66.1266 2.73418 68.8607 6.07595 68.8607H11.1392V17.2152Z" fill="#7147E8"/>
<path d="M57.7195 63.7975H68.8587L51.6436 80V69.8734C51.6436 66.5317 54.3777 63.7975 57.7195 63.7975Z" fill="#F2F2F2"/>
<path d="M26.329 37.9746H53.6708C54.5104 37.9746 55.1898 37.294 55.1898 36.4556C55.1898 35.6162 54.5102 34.9366 53.6708 34.9366H26.329C25.4896 34.9366 24.8101 35.6162 24.8101 36.4556C24.8101 37.294 25.4894 37.9746 26.329 37.9746Z" fill="#1F4254"/>
<path d="M26.329 27.848H53.6708C54.5104 27.848 55.1898 27.1675 55.1898 26.329C55.1898 25.4896 54.5102 24.8101 53.6708 24.8101H26.329C25.4896 24.8101 24.8101 25.4896 24.8101 26.329C24.8101 27.1675 25.4894 27.848 26.329 27.848Z" fill="#1F4254"/>
<path d="M26.329 48.1012H53.6708C54.5104 48.1012 55.1898 47.4206 55.1898 46.5822C55.1898 45.7428 54.5102 45.0632 53.6708 45.0632H26.329C25.4896 45.0632 24.8101 45.7428 24.8101 46.5822C24.8101 47.4206 25.4894 48.1012 26.329 48.1012Z" fill="#1F4254"/>
<path d="M26.329 58.2279H41.5189C42.3583 58.2279 43.0379 57.5473 43.0379 56.7089C43.0379 55.8693 42.3583 55.1899 41.5189 55.1899H26.329C25.4896 55.1899 24.8101 55.8693 24.8101 56.7089C24.8101 57.5473 25.4894 58.2279 26.329 58.2279Z" fill="#1F4254"/>
</svg>
