<svg width="88" height="80" viewBox="0 0 88 80" fill="none" xmlns="http://www.w3.org/2000/svg">
<path fill-rule="evenodd" clip-rule="evenodd" d="M36.7684 20.4385H80.3515C84.2177 20.4385 87.3808 23.6016 87.3808 27.4678V61.4652C87.3808 65.3314 84.2177 68.4946 80.3515 68.4946H69.6225V79.1135C69.6225 79.4894 69.4006 79.8097 69.0486 79.9416C68.6967 80.0735 68.3189 79.978 68.0718 79.6949L58.3023 68.4946H36.7684C32.9022 68.4946 29.739 65.3314 29.739 61.4652V27.4677C29.739 23.6015 32.9022 20.4385 36.7684 20.4385V20.4385Z" fill="#FCDD2E"/>
<path fill-rule="evenodd" clip-rule="evenodd" d="M76.8139 20.4385H80.3513C84.2175 20.4385 87.3807 23.6016 87.3807 27.4678V61.4652C87.3807 65.3314 84.2175 68.4946 80.3513 68.4946H76.8139C80.6801 68.4946 83.8433 65.3314 83.8433 61.4652V27.4677C83.8433 23.6015 80.6801 20.4385 76.8139 20.4385ZM69.6224 68.4944V79.1134C69.6224 79.4892 69.4004 79.8095 69.0485 79.9414C68.6965 80.0734 68.3187 79.9778 68.0716 79.6947L66.085 77.4171V68.4946H69.6224V68.4944Z" fill="#FBD307"/>
<path fill-rule="evenodd" clip-rule="evenodd" d="M7.70338 0H63.549C67.7859 0 71.2524 3.46649 71.2524 7.70338V44.9614C71.2524 49.1983 67.7859 52.6648 63.549 52.6648H26.6923L16.9301 64.1441C16.6853 64.4319 16.3057 64.5316 15.9513 64.4013C15.5967 64.2709 15.3723 63.9491 15.3723 63.5713V52.6649H7.70338C3.46649 52.6649 0 49.1985 0 44.9616V7.70338C0 3.46649 3.46649 0 7.70338 0V0Z" fill="#7147E8"/>
<path fill-rule="evenodd" clip-rule="evenodd" d="M60.0116 0H63.549C67.7859 0 71.2524 3.46649 71.2524 7.70338V44.9614C71.2524 49.1983 67.7859 52.6648 63.549 52.6648H60.0116C64.2485 52.6648 67.715 49.1983 67.715 44.9614V7.70338C67.7152 3.46649 64.2487 0 60.0116 0V0ZM26.6923 52.6649L16.9301 64.1443C16.6853 64.4321 16.3058 64.5318 15.9514 64.4015C15.5968 64.2711 15.3723 63.9492 15.3723 63.5715V61.8166L23.1549 52.6649H26.6923Z" fill="#E3DAFA"/>
<path fill-rule="evenodd" clip-rule="evenodd" d="M16.987 22.8639C18.9026 22.8639 20.4556 24.4167 20.4556 26.3323C20.4556 28.2479 18.9026 29.8009 16.987 29.8009C15.0714 29.8009 13.5186 28.2479 13.5186 26.3323C13.5186 24.4167 15.0714 22.8639 16.987 22.8639ZM54.2653 22.8639C56.1809 22.8639 57.7339 24.4167 57.7339 26.3323C57.7339 28.2479 56.1809 29.8009 54.2653 29.8009C52.3497 29.8009 50.7969 28.2479 50.7969 26.3323C50.7969 24.4167 52.3497 22.8639 54.2653 22.8639ZM35.6261 22.8639C37.5417 22.8639 39.0947 24.4167 39.0947 26.3323C39.0947 28.2479 37.5417 29.8009 35.6261 29.8009C33.7105 29.8009 32.1576 28.2479 32.1576 26.3323C32.1576 24.4167 33.7105 22.8639 35.6261 22.8639Z" fill="#F4F8F8"/>
<path fill-rule="evenodd" clip-rule="evenodd" d="M16.987 22.8639C17.1608 22.8639 17.3315 22.8768 17.4985 22.9016C15.8254 23.1488 14.5413 24.5906 14.5413 26.3325C14.5413 28.0742 15.8254 29.5162 17.4985 29.7634C17.3315 29.788 17.1608 29.8011 16.987 29.8011C15.0714 29.8011 13.5186 28.2481 13.5186 26.3325C13.5186 24.4169 15.0714 22.8639 16.987 22.8639ZM54.2653 22.8639C54.439 22.8639 54.6099 22.8768 54.7768 22.9016C53.1037 23.1488 51.8197 24.5906 51.8197 26.3325C51.8197 28.0742 53.1037 29.5162 54.7768 29.7634C54.6099 29.788 54.4392 29.8011 54.2653 29.8011C52.3497 29.8011 50.7969 28.2481 50.7969 26.3325C50.7969 24.4169 52.3497 22.8639 54.2653 22.8639V22.8639ZM35.6261 22.8639C35.7997 22.8639 35.9706 22.8768 36.1376 22.9016C34.4644 23.1488 33.1804 24.5906 33.1804 26.3325C33.1804 28.0742 34.4644 29.5162 36.1376 29.7634C35.9706 29.788 35.7999 29.8011 35.6261 29.8011C33.7105 29.8011 32.1576 28.2481 32.1576 26.3325C32.1576 24.4169 33.7105 22.8639 35.6261 22.8639Z" fill="#E5ECF1"/>
</svg>
