<svg width="81" height="80" viewBox="0 0 81 80" fill="none" xmlns="http://www.w3.org/2000/svg">
<path d="M80.2846 17.0882C80.2846 13.7397 77.396 11 73.8655 11H25.7199C22.1894 11 19.3008 13.7397 19.3008 17.0882V73.9118C19.3008 77.2603 22.1894 80 25.7199 80H62.0918L80.2794 63.7647L80.2846 17.0882Z" fill="#DADEE0"/>
<path d="M19.2297 17.2152C19.2297 13.8734 22.0087 11.1392 25.4053 11.1392H66.7904V6.07595C66.7904 2.73418 64.0114 0 60.6149 0H6.46024C3.06368 0 0.284668 2.73418 0.284668 6.07595V62.7848C0.284668 66.1266 3.06368 68.8607 6.46024 68.8607H19.2297V17.2152Z" fill="#7147E8"/>
<path d="M68.4466 64H80.2847L61.9895 80V70C61.9895 66.7 64.8952 64 68.4466 64Z" fill="#F2F2F2"/>
<path d="M35.1568 38H64.429C65.3279 38 66.0552 37.3279 66.0552 36.5C66.0552 35.6711 65.3277 35 64.429 35H35.1568C34.2581 35 33.5305 35.6711 33.5305 36.5C33.5305 37.3279 34.2579 38 35.1568 38Z" fill="#1F4254"/>
<path d="M35.1568 28H64.429C65.3279 28 66.0552 27.3279 66.0552 26.5C66.0552 25.6711 65.3277 25 64.429 25H35.1568C34.2581 25 33.5305 25.6711 33.5305 26.5C33.5305 27.3279 34.2579 28 35.1568 28Z" fill="#1F4254"/>
<path d="M35.1568 48H64.429C65.3279 48 66.0552 47.3279 66.0552 46.5C66.0552 45.6711 65.3277 45 64.429 45H35.1568C34.2581 45 33.5305 45.6711 33.5305 46.5C33.5305 47.3279 34.2579 48 35.1568 48Z" fill="#1F4254"/>
<path d="M35.1398 58H51.2328C52.1221 58 52.8421 57.3279 52.8421 56.5C52.8421 55.6709 52.1221 55 51.2328 55H35.1398C34.2505 55 33.5305 55.6709 33.5305 56.5C33.5305 57.3279 34.2503 58 35.1398 58Z" fill="#1F4254"/>
</svg>
