<svg width="82" height="80" viewBox="0 0 82 80" fill="none" xmlns="http://www.w3.org/2000/svg">
<path fill-rule="evenodd" clip-rule="evenodd" d="M34.5042 20.4385H75.4035C79.0316 20.4385 82 23.6016 82 27.4678V61.4652C82 65.3314 79.0316 68.4946 75.4035 68.4946H65.3352V79.1135C65.3352 79.4894 65.1269 79.8097 64.7967 79.9416C64.4664 80.0735 64.1119 79.978 63.88 79.6949L54.7121 68.4946H34.5042C30.8761 68.4946 27.9077 65.3314 27.9077 61.4652V27.4677C27.9077 23.6015 30.8761 20.4385 34.5042 20.4385V20.4385Z" fill="#FCDD2E"/>
<path fill-rule="evenodd" clip-rule="evenodd" d="M72.0839 20.4385H75.4035C79.0316 20.4385 82 23.6016 82 27.4678V61.4652C82 65.3314 79.0316 68.4946 75.4035 68.4946H72.0839C75.712 68.4946 78.6804 65.3314 78.6804 61.4652V27.4677C78.6804 23.6015 75.712 20.4385 72.0839 20.4385ZM65.3352 68.4944V79.1134C65.3352 79.4892 65.1269 79.8095 64.7966 79.9414C64.4663 80.0734 64.1118 79.9778 63.88 79.6947L62.0156 77.4171V68.4946H65.3352V68.4944Z" fill="#FBD307"/>
<path fill-rule="evenodd" clip-rule="evenodd" d="M7.22901 0H59.6357C63.6117 0 66.8647 3.46649 66.8647 7.70338V44.9614C66.8647 49.1983 63.6117 52.6648 59.6357 52.6648H25.0486L15.8875 64.1441C15.6578 64.4319 15.3017 64.5316 14.9691 64.4013C14.6363 64.2709 14.4257 63.9491 14.4257 63.5713V52.6649H7.22901C3.25302 52.6649 0 49.1985 0 44.9616V7.70338C0 3.46649 3.25302 0 7.22901 0V0Z" fill="#7147E8"/>
<path fill-rule="evenodd" clip-rule="evenodd" d="M15.9411 22.8639C17.7388 22.8639 19.1961 24.4167 19.1961 26.3323C19.1961 28.2479 17.7388 29.8009 15.9411 29.8009C14.1435 29.8009 12.6863 28.2479 12.6863 26.3323C12.6863 24.4167 14.1435 22.8639 15.9411 22.8639ZM50.9239 22.8639C52.7215 22.8639 54.1789 24.4167 54.1789 26.3323C54.1789 28.2479 52.7215 29.8009 50.9239 29.8009C49.1263 29.8009 47.6691 28.2479 47.6691 26.3323C47.6691 24.4167 49.1263 22.8639 50.9239 22.8639ZM33.4324 22.8639C35.2301 22.8639 36.6874 24.4167 36.6874 26.3323C36.6874 28.2479 35.2301 29.8009 33.4324 29.8009C31.6348 29.8009 30.1776 28.2479 30.1776 26.3323C30.1776 24.4167 31.6348 22.8639 33.4324 22.8639Z" fill="#F4F8F8"/>
<path fill-rule="evenodd" clip-rule="evenodd" d="M15.9411 22.8639C16.1043 22.8639 16.2644 22.8768 16.4211 22.9016C14.851 23.1488 13.6461 24.5906 13.6461 26.3325C13.6461 28.0742 14.851 29.5162 16.4211 29.7634C16.2644 29.788 16.1043 29.8011 15.9411 29.8011C14.1435 29.8011 12.6863 28.2481 12.6863 26.3325C12.6863 24.4169 14.1435 22.8639 15.9411 22.8639ZM50.9239 22.8639C51.0869 22.8639 51.2472 22.8768 51.4039 22.9016C49.8338 23.1488 48.6289 24.5906 48.6289 26.3325C48.6289 28.0742 49.8338 29.5162 51.4039 29.7634C51.2472 29.788 51.0871 29.8011 50.9239 29.8011C49.1263 29.8011 47.6691 28.2481 47.6691 26.3325C47.6691 24.4169 49.1263 22.8639 50.9239 22.8639V22.8639ZM33.4324 22.8639C33.5954 22.8639 33.7557 22.8768 33.9124 22.9016C32.3423 23.1488 31.1374 24.5906 31.1374 26.3325C31.1374 28.0742 32.3423 29.5162 33.9124 29.7634C33.7557 29.788 33.5956 29.8011 33.4324 29.8011C31.6348 29.8011 30.1776 28.2481 30.1776 26.3325C30.1776 24.4169 31.6348 22.8639 33.4324 22.8639Z" fill="#E5ECF1"/>
</svg>
