<?xml version="1.0" encoding="utf-8"?>
<!-- Generator: Adobe Illustrator 25.0.0, SVG Export Plug-In . SVG Version: 6.00 Build 0)  -->
<svg version="1.1" id="Layer_1" xmlns="http://www.w3.org/2000/svg" xmlns:xlink="http://www.w3.org/1999/xlink" x="0px" y="0px"
	 viewBox="0 0 453.8 353.4" style="enable-background:new 0 0 453.8 353.4;" xml:space="preserve">
<style type="text/css">
	.st0{opacity:0.3;}
	.st1{fill:#E0E0E0;}
	.st2{fill:#263238;}
	.st3{fill:#D4DAE3;}
	.st4{fill:#E0E5EC;}
	.st5{fill:#FFFFFF;}
	.st6{fill:#7147E8;}
	.st7{fill:#455A64;}
	.st8{fill:#FAFAFA;}
	.st9{fill:#FFBE9D;}
	.st10{opacity:0.6;}
	.st11{fill:#EB996E;}
</style>
<g id="freepik--background-complete--inject-5">
	<g class="st0">
		<path class="st1" d="M54.6,1c0,0.6-0.4,1-1,1s-1-0.4-1-1s0.4-1,1-1S54.6,0.4,54.6,1z"/>
	</g>
	<g class="st0">
		<circle class="st1" cx="57" cy="1" r="1"/>
	</g>
	<g class="st0">
		<path class="st1" d="M61.4,1c0,0.6-0.4,1-1,1s-1-0.4-1-1s0.4-1,1-1S61.4,0.4,61.4,1z"/>
	</g>
</g>
<g id="freepik--Floor--inject-5">
	<path class="st2" d="M453.8,325.9c0,0.1-99.8,0.3-222.8,0.3S8,326.1,8,325.9s99.8-0.3,222.9-0.3S453.8,325.8,453.8,325.9z"/>
</g>
<g id="freepik--Screens--inject-5">
	<rect x="275.9" y="16.3" class="st3" width="140.1" height="114.2"/>
	<rect x="266" y="23.5" class="st4" width="140.1" height="114.2"/>
	<rect x="252.2" y="31.5" class="st5" width="143.9" height="117.2"/>
	<path class="st2" d="M396.1,148.7c0,0,0-0.8,0-2.2s0-3.5,0-6.3c0-5.5,0-13.5,0-23.8c0-20.5-0.1-49.7-0.1-85l0.2,0.2H252.3l0,0
		l0.3-0.3c0,42.4,0,82.4,0,117.2l-0.2-0.2l104,0.1l29.4,0.1h7.8h2h0.7h-2.6h-7.8l-29.4,0.1l-104.1,0.1h-0.2v-0.2
		c0-34.8,0-74.8,0-117.2V31h0.3h143.8h0.2v0.2c0,35.4-0.1,64.7-0.1,85.2c0,10.2,0,18.2-0.1,23.7c0,2.7,0,4.8,0,6.2
		S396.1,148.7,396.1,148.7z"/>
	<path class="st6" d="M269.8,48.4l-1.5,0.6l1.5,0.6v0.6l-2.2-0.8v-0.6l2.2-0.8V48.4z"/>
	<path class="st6" d="M273.4,47.3v3.2h-0.8v-1.3h-1.5v1.3h-0.8v-3.2h0.8v1.3h1.5v-1.3H273.4z"/>
	<path class="st6" d="M274.9,47.9h-1v-0.6h2.8v0.6h-1v2.6h-0.8V47.9z"/>
	<path class="st6" d="M280,50.6v-2l-1,1.6h-0.3l-1-1.6v1.9H277v-3.2h0.6l1.2,2l1.2-2h0.6v3.2L280,50.6z"/>
	<path class="st6" d="M281.5,47.3h0.8v2.6h1.7v0.6h-2.4L281.5,47.3z"/>
	<path class="st6" d="M286.4,48.7v0.6l-2.2,0.8v-0.6l1.5-0.6l-1.5-0.6v-0.5L286.4,48.7z"/>
	<path class="st6" d="M268.5,137.3l-1.6,0.6l1.5,0.6v0.6l-2.2-0.8v-0.6l2.2-0.8L268.5,137.3z"/>
	<path class="st6" d="M270.1,135.6h0.6l-1.5,4.4h-0.6L270.1,135.6z"/>
	<path class="st6" d="M273.9,136.2v3.2h-0.8v-1.3h-1.4v1.3H271v-3.2h0.8v1.3h1.5v-1.3H273.9z"/>
	<path class="st6" d="M275.4,136.8h-1v-0.6h2.8v0.6h-1v2.6h-0.8V136.8z"/>
	<path class="st6" d="M280.5,139.5v-2l-1,1.6h-0.3l-1-1.6v1.9h-0.7v-3.2h0.6l1.2,2l1.2-2h0.6v3.2L280.5,139.5z"/>
	<path class="st6" d="M282,136.2h0.8v2.6h1.6v0.6H282V136.2z"/>
	<path class="st6" d="M286.9,137.5v0.6l-2.2,0.8v-0.6l1.5-0.6l-1.5-0.6v-0.6L286.9,137.5z"/>
	<path d="M280,57.3l-1.6,0.6l1.6,0.6v0.4l-2.1-0.8v-0.4l2.1-0.8V57.3z"/>
	<path d="M283.6,56.3v3.2h-0.5v-1.4h-1.9v1.4h-0.5v-3.2h0.5v1.4h1.9v-1.4H283.6z"/>
	<path d="M286.9,59.1v0.4h-2.4v-3.2h2.3v0.4H285v1h1.6v0.4H285v1L286.9,59.1z"/>
	<path d="M289.7,58.7H288l-0.4,0.8h-0.5l1.5-3.2h0.5l1.5,3.2h-0.5L289.7,58.7z M289.5,58.4l-0.7-1.6l-0.7,1.6H289.5z"/>
	<path d="M291,56.3h1.4c0.9-0.1,1.7,0.6,1.8,1.5c0.1,0.9-0.6,1.7-1.5,1.8c-0.1,0-0.2,0-0.3,0H291V56.3z M292.4,59.1
		c0.7,0,1.2-0.5,1.2-1.2s-0.5-1.2-1.2-1.2l0,0h-0.9v2.4H292.4z"/>
	<path d="M296.8,57.7v0.4l-2.1,0.8v-0.4l1.6-0.6l-1.6-0.6v-0.4L296.8,57.7z"/>
	<path d="M280,68.4l-1.6,0.6l1.6,0.6V70l-2.1-0.8v-0.4L280,68V68.4z"/>
	<path d="M281.4,67.8h-1.1v-0.4h2.7v0.4h-1.1v2.9h-0.5V67.8z"/>
	<path d="M283.5,67.4h0.5v3.2h-0.5V67.4z"/>
	<path d="M285.6,67.8h-1.1v-0.4h2.7v0.4H286v2.9h-0.5L285.6,67.8z"/>
	<path d="M287.6,67.4h0.5v2.8h1.8v0.4h-2.2L287.6,67.4z"/>
	<path d="M292.8,70.3v0.4h-2.4v-3.2h2.3v0.4h-1.8v1h1.6v0.4h-1.6v1L292.8,70.3z"/>
	<path d="M295.4,68.8v0.4l-2.1,0.8v-0.4l1.6-0.6l-1.6-0.6V68L295.4,68.8z"/>
	<path d="M297.4,67.4h0.5v2.8h1.8v0.4h-2.2L297.4,67.4L297.4,67.4z"/>
	<path d="M299.9,69.4c0-0.7,0.6-1.3,1.3-1.3c0.7,0,1.3,0.6,1.3,1.3s-0.6,1.3-1.3,1.3l0,0c-0.7,0-1.2-0.5-1.3-1.2
		C299.9,69.5,299.9,69.5,299.9,69.4z M302,69.4c0.1-0.5-0.3-0.9-0.7-0.9c-0.5-0.1-0.9,0.3-0.9,0.7c0,0.1,0,0.1,0,0.2
		c-0.1,0.5,0.3,0.9,0.7,0.9c0.5,0.1,0.9-0.3,0.9-0.7C302,69.6,302,69.5,302,69.4z"/>
	<path d="M304.4,68.2v0.4h-0.1c-0.4,0-0.8,0.3-0.8,0.7v0.1v1.2H303v-2.5h0.4v0.4C303.7,68.3,304,68.1,304.4,68.2z"/>
	<path d="M307.1,69.6h-2c0.1,0.4,0.4,0.8,0.9,0.7c0.3,0,0.5-0.1,0.7-0.3l0.2,0.3c-0.5,0.5-1.4,0.5-1.9,0c-0.2-0.2-0.4-0.5-0.4-0.9
		c0-0.7,0.5-1.2,1.2-1.2c0,0,0,0,0.1,0c0.7,0,1.2,0.5,1.2,1.1v0.1C307.1,69.5,307.1,69.5,307.1,69.6z M305.1,69.3h1.6
		c0-0.4-0.4-0.8-0.8-0.8C305.5,68.5,305.1,68.8,305.1,69.3z"/>
	<path d="M311.8,69.2v1.4h-0.5v-1.4c0-0.5-0.2-0.7-0.6-0.7s-0.7,0.3-0.7,0.7v0.1v1.3h-0.5v-1.4c0-0.5-0.2-0.7-0.6-0.7
		s-0.7,0.3-0.7,0.7v0.1v1.3h-0.4v-2.5h0.4v0.4c0.2-0.3,0.5-0.4,0.9-0.4c0.3,0,0.7,0.1,0.9,0.4c0.2-0.3,0.6-0.5,0.9-0.4
		c0.5,0,1,0.3,1,0.9C311.8,69.1,311.8,69.2,311.8,69.2z"/>
	<path d="M313.8,67.4c0-0.2,0.1-0.3,0.3-0.3l0,0c0.2,0,0.3,0.1,0.3,0.3l0,0c0,0.2-0.1,0.3-0.3,0.3l0,0
		C313.9,67.7,313.8,67.6,313.8,67.4L313.8,67.4z M313.9,68.2h0.5v2.5H314L313.9,68.2z"/>
	<path d="M317.7,69.4c0,0.7-0.5,1.2-1.1,1.3h-0.1c-0.3,0-0.7-0.1-0.9-0.4v1.3h-0.5v-3.4h0.4v0.4c0.2-0.3,0.5-0.4,0.9-0.4
		c0.7,0,1.2,0.5,1.2,1.1C317.7,69.4,317.7,69.4,317.7,69.4z M317.3,69.4c0-0.5-0.4-0.8-0.8-0.8c-0.5,0-0.8,0.4-0.8,0.8
		s0.4,0.8,0.8,0.8C316.9,70.3,317.3,69.9,317.3,69.4z"/>
	<path d="M318,70.4l0.2-0.4c0.3,0.2,0.6,0.2,0.9,0.2c0.4,0,0.6-0.1,0.6-0.3c0-0.6-1.6-0.1-1.6-1.1c0-0.4,0.4-0.7,1-0.7
		c0.3,0,0.6,0.1,0.9,0.2l-0.2,0.4c-0.2-0.1-0.5-0.2-0.7-0.2c-0.4,0-0.6,0.1-0.6,0.3c0,0.6,1.6,0.1,1.6,1.1c0,0.4-0.4,0.7-1.1,0.7
		C318.6,70.7,318.3,70.6,318,70.4z"/>
	<path d="M322.9,68.2v2.5h-0.4v-0.4c-0.2,0.3-0.5,0.4-0.8,0.4c-0.6,0-1-0.4-1.1-0.9v-0.1v-1.4h0.5v1.4c0,0.5,0.2,0.7,0.7,0.7
		c0.4,0,0.7-0.3,0.8-0.7v-0.1v-1.3L322.9,68.2z"/>
	<path d="M327.9,69.2v1.4h-0.4v-1.4c0-0.5-0.2-0.7-0.6-0.7s-0.7,0.3-0.7,0.7v0.1v1.3h-0.5v-1.4c0-0.5-0.2-0.7-0.6-0.7
		s-0.7,0.3-0.7,0.7v0.1v1.3h-0.5v-2.5h0.4v0.4c0.2-0.3,0.5-0.4,0.9-0.4c0.3,0,0.7,0.1,0.9,0.4c0.2-0.3,0.6-0.5,1-0.4
		c0.5,0,1,0.3,1,0.8C327.9,69.1,327.9,69.2,327.9,69.2z"/>
	<path d="M331.9,68.4l-1.6,0.6l1.6,0.6V70l-2.1-0.8v-0.4l2.1-0.8V68.4z"/>
	<path d="M333.6,66.8h0.4l-1.5,4.4h-0.4L333.6,66.8z"/>
	<path d="M335.1,67.8H334v-0.4h2.7v0.4h-1.1v2.9h-0.5V67.8z"/>
	<path d="M337.2,67.4h0.5v3.2h-0.5V67.4z"/>
	<path d="M339.3,67.8h-1.1v-0.4h2.7v0.4h-1.1v2.9h-0.5V67.8z"/>
	<path d="M341.3,67.4h0.5v2.8h1.8v0.4h-2.2L341.3,67.4L341.3,67.4z"/>
	<path d="M346.4,70.3v0.4H344v-3.2h2.3v0.4h-1.8v1h1.6v0.4h-1.6v1L346.4,70.3z"/>
	<path d="M349.1,68.8v0.4L347,70v-0.4l1.6-0.6l-1.6-0.6V68L349.1,68.8z"/>
	<path d="M280,79.5l-1.6,0.6l1.6,0.6v0.4l-2.1-0.8v-0.4l2.1-0.8V79.5z"/>
	<path d="M281.7,77.8h0.4l-1.5,4.4h-0.4L281.7,77.8z"/>
	<path d="M285.2,78.5v3.2h-0.5v-1.4h-1.8v1.4h-0.5v-3.2h0.5v1.4h1.9v-1.4H285.2z"/>
	<path d="M288.5,81.4v0.4h-2.4v-3.2h2.3V79h-1.8v1h1.6v0.4h-1.6v1L288.5,81.4z"/>
	<path d="M291.3,81h-1.7l-0.4,0.8h-0.5l1.5-3.2h0.5l1.5,3.2h-0.5L291.3,81z M291.2,80.6l-0.7-1.6l-0.7,1.6H291.2z"/>
	<path d="M292.7,78.5h1.4c0.9-0.1,1.7,0.6,1.8,1.5c0.1,0.9-0.6,1.7-1.5,1.8c-0.1,0-0.2,0-0.3,0h-1.4V78.5z M294,81.4
		c0.7,0.1,1.3-0.4,1.3-1.1s-0.4-1.3-1.1-1.3c-0.1,0-0.1,0-0.2,0h-0.9v2.4L294,81.4L294,81.4z"/>
	<path d="M298.4,80v0.4l-2.1,0.8v-0.3l1.6-0.6l-1.6-0.6v-0.4L298.4,80z"/>
	<path d="M271.4,89.2l-1.6,0.6l1.6,0.6v0.4l-2.1-0.8v-0.4l2.1-0.8V89.2z"/>
	<path d="M274.9,90.6c0,0.6-0.4,0.9-1.2,0.9h-1.5v-3.2h1.5c0.8,0,1.2,0.3,1.2,0.8c-0.4,0.2-0.6,0.7-0.3,1.1
		C274.5,90.3,274.7,90.5,274.9,90.6L274.9,90.6z M272.6,88.6v1h1c0.5,0,0.7-0.2,0.7-0.5s-0.3-0.5-0.7-0.5H272.6z M274.4,90.6
		c0-0.4-0.3-0.6-0.8-0.6h-1.1v1.1h1.1C274.2,91.1,274.5,90.9,274.4,90.6L274.4,90.6z"/>
	<path d="M275.4,89.8c0-1,0.7-1.8,1.7-1.8s1.8,0.7,1.8,1.7s-0.7,1.8-1.7,1.8c0,0,0,0-0.1,0C276.2,91.5,275.4,90.8,275.4,89.8
		C275.4,89.9,275.4,89.9,275.4,89.8z M278.4,89.8c0-0.7-0.5-1.3-1.2-1.3s-1.3,0.5-1.3,1.2s0.5,1.3,1.2,1.3l0,0
		C277.8,91.1,278.4,90.6,278.4,89.8C278.4,89.9,278.4,89.9,278.4,89.8L278.4,89.8z"/>
	<path d="M279.6,88.2h1.4c0.9-0.1,1.7,0.6,1.8,1.5c0.1,0.9-0.6,1.7-1.5,1.8c-0.1,0-0.2,0-0.3,0h-1.4V88.2z M280.9,91
		c0.7,0,1.2-0.5,1.2-1.2s-0.5-1.2-1.2-1.2H280V91H280.9z"/>
	<path d="M284.5,90.3v1.1H284v-1.1l-1.3-2.1h0.5l1,1.7l1-1.7h0.5L284.5,90.3z"/>
	<path d="M288.1,89.6V90l-2.1,0.8v-0.4l1.6-0.6l-1.6-0.6v-0.3L288.1,89.6z"/>
	<path d="M271.4,100.3l-1.6,0.6l1.6,0.6v0.4l-2.1-0.8v-0.4l2.1-0.8V100.3z"/>
	<path d="M274.9,99.3v3.2h-0.5v-1.4h-1.9v1.4H272v-3.2h0.5v1.4h1.9v-1.4H274.9z"/>
	<path d="M276.7,99.3v3.2h-0.5v-2.8h-0.7v-0.4H276.7z"/>
	<path d="M279.5,100.7v0.4l-2.1,0.8v-0.3l1.6-0.6l-1.6-0.6V100L279.5,100.7z"/>
	<path d="M281.6,99.3h0.3v2.9h1.8v0.3h-2.2v-3.2H281.6z"/>
	<path d="M284,101.3c0-0.7,0.6-1.2,1.2-1.2s1.2,0.6,1.2,1.2c0,0.7-0.6,1.2-1.2,1.2C284.6,102.6,284,102.1,284,101.3
		C284,101.4,284,101.4,284,101.3z M286.1,101.3c0-0.5-0.4-0.9-0.9-0.9s-0.9,0.4-0.9,0.9s0.4,0.9,0.9,0.9
		C285.7,102.3,286.1,101.9,286.1,101.3C286.1,101.4,286.1,101.4,286.1,101.3z"/>
	<path d="M288.4,100.1v0.3h-0.1c-0.4,0-0.8,0.3-0.8,0.8v0.1v1.2h-0.3v-2.4h0.3v0.5C287.6,100.3,288,100.1,288.4,100.1z"/>
	<path d="M291.1,101.4h-2c0,0.5,0.5,0.9,1,0.9l0,0c0.3,0,0.6-0.1,0.8-0.3l0.2,0.2c-0.2,0.3-0.6,0.4-0.9,0.4c-0.7,0-1.2-0.5-1.3-1.1
		v-0.1c0-0.7,0.5-1.2,1.1-1.2c0,0,0,0,0.1,0c0.6,0,1.2,0.5,1.2,1.1v0.1L291.1,101.4z M289.1,101.2h1.7c-0.1-0.5-0.5-0.8-1-0.8
		C289.4,100.5,289.1,100.8,289.1,101.2z"/>
	<path d="M295.8,101.1v1.4h-0.3v-1.4c0-0.5-0.3-0.8-0.7-0.8c-0.4,0-0.8,0.3-0.8,0.7v0.1v1.3h-0.3V101c0-0.5-0.3-0.8-0.7-0.8
		c-0.4,0-0.8,0.3-0.8,0.8v0.1v1.3h-0.3V100h0.3v0.4c0.2-0.3,0.5-0.5,0.9-0.5s0.7,0.2,0.9,0.5c0.2-0.3,0.6-0.6,1-0.5
		c0.5,0,0.9,0.4,1,0.9C295.8,101,295.8,101.1,295.8,101.1z"/>
	<path d="M297.8,99.3c0-0.1,0.1-0.2,0.2-0.2s0.2,0.1,0.2,0.2l0,0c0,0.1-0.1,0.2-0.2,0.2S297.8,99.5,297.8,99.3z M297.9,100.1h0.3
		v2.4h-0.3V100.1z"/>
	<path d="M301.6,101.3c0,0.7-0.5,1.2-1.1,1.2h-0.1c-0.4,0-0.7-0.2-0.9-0.5v1.4h-0.3v-3.3h0.3v0.5c0.2-0.3,0.6-0.5,0.9-0.5
		C301,100.1,301.6,100.6,301.6,101.3L301.6,101.3z M301.3,101.3c0-0.5-0.4-0.9-0.9-0.9s-0.9,0.4-0.9,0.9s0.4,0.9,0.9,0.9
		S301.3,101.8,301.3,101.3L301.3,101.3z"/>
	<path d="M301.9,102.3l0.1-0.3c0.3,0.2,0.6,0.3,0.9,0.3c0.5,0,0.6-0.2,0.6-0.4c0-0.6-1.6-0.1-1.6-1.1c0-0.4,0.4-0.7,1-0.7
		c0.3,0,0.6,0.1,0.9,0.2l-0.1,0.3c-0.2-0.1-0.5-0.2-0.7-0.2c-0.4,0-0.6,0.2-0.6,0.4c0,0.7,1.6,0.2,1.6,1.1c0,0.4-0.4,0.7-1,0.7
		C302.6,102.6,302.2,102.5,301.9,102.3z"/>
	<path d="M306.7,100.1v2.4h-0.3v-0.4c-0.2,0.3-0.5,0.5-0.9,0.5c-0.5,0-1-0.4-1-0.9c0-0.1,0-0.1,0-0.2v-1.4h0.3v1.4
		c0,0.5,0.3,0.8,0.7,0.8c0.4,0,0.8-0.3,0.8-0.7v-0.1v-1.3h0.4V100.1z"/>
	<path d="M311.7,101.1v1.4h-0.3v-1.4c0-0.5-0.3-0.8-0.7-0.8c-0.4,0-0.8,0.3-0.8,0.7v0.1v1.3h-0.3V101c0-0.5-0.3-0.8-0.7-0.8
		c-0.4,0-0.8,0.3-0.8,0.8v0.1v1.3h-0.3V100h0.3v0.4c0.2-0.3,0.5-0.5,0.9-0.5s0.7,0.2,0.9,0.5c0.2-0.4,0.6-0.6,1-0.5
		c0.5,0,0.9,0.4,0.9,0.9C311.7,101,311.7,101.1,311.7,101.1z"/>
	<path d="M316,99.1v3.4h-0.3V102c-0.2,0.3-0.6,0.5-0.9,0.5c-0.7-0.1-1.2-0.7-1.1-1.4c0.1-0.6,0.5-1.1,1.1-1.1c0.4,0,0.7,0.2,0.9,0.5
		V99h0.3V99.1z M315.7,101.3c0-0.5-0.4-0.9-0.9-0.9s-0.9,0.4-0.9,0.9s0.4,0.9,0.9,0.9C315.3,102.3,315.7,101.9,315.7,101.3
		C315.7,101.4,315.7,101.4,315.7,101.3z"/>
	<path d="M316.7,101.3c0-0.7,0.6-1.2,1.2-1.2s1.2,0.6,1.2,1.2s-0.6,1.2-1.2,1.2C317.3,102.6,316.7,102.1,316.7,101.3
		C316.7,101.4,316.7,101.4,316.7,101.3z M318.8,101.3c0-0.5-0.4-0.9-0.9-0.9s-0.9,0.4-0.9,0.9s0.4,0.9,0.9,0.9
		C318.4,102.3,318.8,101.9,318.8,101.3C318.8,101.4,318.8,101.4,318.8,101.3z"/>
	<path d="M319.8,99.1h0.3v3.4h-0.3V99.1z"/>
	<path d="M320.8,101.3c0-0.7,0.6-1.2,1.2-1.2s1.2,0.6,1.2,1.2c0,0.7-0.6,1.2-1.2,1.2C321.4,102.6,320.9,102.1,320.8,101.3
		C320.8,101.4,320.8,101.4,320.8,101.3z M323,101.3c0-0.5-0.4-0.9-0.9-0.9s-0.9,0.4-0.9,0.9s0.4,0.9,0.9,0.9
		C322.6,102.3,323,101.9,323,101.3C323,101.4,323,101.4,323,101.3L323,101.3z"/>
	<path d="M325.2,100.1v0.3h-0.1c-0.4,0-0.8,0.3-0.8,0.8v0.1v1.2H324v-2.4h0.3v0.5C324.5,100.3,324.8,100.1,325.2,100.1z"/>
	<path d="M326.7,102.3l0.1-0.3c0.3,0.2,0.6,0.3,0.9,0.3c0.5,0,0.6-0.2,0.6-0.4c0-0.6-1.6-0.1-1.6-1.1c0-0.4,0.3-0.7,1-0.7
		c0.3,0,0.6,0.1,0.9,0.2l-0.1,0.3c-0.2-0.1-0.5-0.2-0.7-0.2c-0.4,0-0.6,0.2-0.6,0.4c0,0.7,1.6,0.2,1.6,1.1c0,0.4-0.4,0.7-1,0.7
		C327.4,102.6,327,102.5,326.7,102.3z"/>
	<path d="M329.2,99.3c0-0.1,0.1-0.2,0.2-0.2s0.2,0.1,0.2,0.2l0,0c0,0.1-0.1,0.2-0.2,0.2S329.2,99.5,329.2,99.3z M329.3,100.1h0.3
		v2.4h-0.3V100.1z"/>
	<path d="M331.8,102.4c-0.1,0.1-0.3,0.2-0.5,0.2c-0.4,0-0.7-0.2-0.7-0.6v-0.1v-1.5h-0.4v-0.3h0.4v-0.5h0.3v0.5h0.7v0.3h-0.7v1.5
		c0,0.2,0.1,0.4,0.3,0.4h0.1c0.1,0,0.3,0,0.4-0.1L331.8,102.4z"/>
	<path d="M335.5,101v1.5h-0.3v-0.4c-0.2,0.3-0.5,0.4-0.8,0.4c-0.5,0-0.9-0.3-0.9-0.7s0.2-0.7,0.9-0.7h0.8V101c0-0.3-0.2-0.6-0.5-0.7
		h-0.1c-0.3,0-0.6,0.1-0.8,0.3l-0.1-0.2c0.3-0.2,0.6-0.3,1-0.3c0.5-0.1,0.9,0.3,1,0.7C335.5,100.9,335.5,101,335.5,101z
		 M335.2,101.8v-0.4h-0.8c-0.5,0-0.6,0.2-0.6,0.4s0.2,0.5,0.6,0.5C334.7,102.3,335,102.2,335.2,101.8L335.2,101.8z"/>
	<path d="M340.4,101.1v1.4h-0.3v-1.4c0-0.5-0.3-0.8-0.7-0.8c-0.4,0-0.8,0.3-0.8,0.8v0.1v1.3h-0.3v-1.4c0-0.5-0.3-0.8-0.7-0.8
		c-0.4,0-0.8,0.3-0.8,0.8v0.1v1.3h-0.3v-2.4h0.3v0.4c0.2-0.3,0.5-0.5,0.9-0.5s0.7,0.2,0.9,0.5c0.2-0.4,0.6-0.6,1-0.5
		c0.5,0,0.9,0.4,1,0.9C340.4,101,340.4,101.1,340.4,101.1z"/>
	<path d="M343.4,101.4h-2c0,0.5,0.5,0.9,1,0.9l0,0c0.3,0,0.6-0.1,0.8-0.3l0.2,0.2c-0.2,0.3-0.6,0.4-0.9,0.4c-0.7,0-1.2-0.5-1.3-1.1
		v-0.1c0-0.7,0.5-1.2,1.2-1.2s1.2,0.5,1.2,1.2C343.5,101.3,343.4,101.4,343.4,101.4z M341.4,101.2h1.7c-0.1-0.5-0.5-0.8-1-0.8
		C341.8,100.5,341.5,100.8,341.4,101.2z"/>
	<path d="M345.4,102.4c-0.1,0.1-0.3,0.2-0.5,0.2c-0.4,0-0.7-0.2-0.7-0.6v-0.1v-1.5h-0.4v-0.3h0.4v-0.5h0.3v0.5h0.7v0.3h-0.7v1.5
		c0,0.2,0.1,0.4,0.3,0.4h0.1c0.1,0,0.3,0,0.4-0.1L345.4,102.4z"/>
	<path d="M346.3,102.3c0,0.1,0,0.2-0.1,0.3l-0.2,0.6h-0.2l0.2-0.7c-0.1,0-0.2-0.1-0.2-0.2c0-0.1,0.1-0.2,0.2-0.2
		C346.2,102.1,346.3,102.2,346.3,102.3L346.3,102.3z"/>
	<path d="M348,101.3c0-0.7,0.5-1.2,1.2-1.2h0.1c0.4,0,0.8,0.2,1,0.5l-0.2,0.2c-0.2-0.2-0.4-0.4-0.7-0.4c-0.5,0.2-0.8,0.7-0.6,1.3
		c0.1,0.3,0.3,0.5,0.6,0.6c0.3,0,0.5-0.1,0.7-0.4l0.2,0.2c-0.2,0.3-0.6,0.5-1,0.5C348.6,102.6,348,102.1,348,101.3
		C348,101.4,348,101.4,348,101.3z"/>
	<path d="M350.6,101.3c0-0.7,0.6-1.2,1.2-1.2s1.2,0.6,1.2,1.2c0,0.7-0.6,1.2-1.2,1.2C351.1,102.6,350.6,102.1,350.6,101.3
		C350.6,101.4,350.6,101.4,350.6,101.3z M352.7,101.3c0.1-0.5-0.3-0.9-0.8-1h-0.1c-0.5,0.2-0.8,0.7-0.6,1.3c0.1,0.3,0.3,0.5,0.6,0.6
		C352.3,102.2,352.7,101.8,352.7,101.3L352.7,101.3z"/>
	<path d="M356,101.1v1.4h-0.3v-1.4c0.1-0.4-0.2-0.7-0.6-0.8c-0.1,0-0.1,0-0.2,0c-0.4,0-0.8,0.3-0.9,0.7v0.1v1.3h-0.3V100h0.3v0.4
		c0.2-0.3,0.6-0.5,0.9-0.5c0.5,0,1,0.4,1,0.9C356,101,356,101.1,356,101.1z"/>
	<path d="M356.5,102.3l0.1-0.3c0.3,0.2,0.6,0.3,0.9,0.3c0.5,0,0.6-0.2,0.6-0.4c0-0.6-1.6-0.1-1.6-1.1c0-0.4,0.3-0.7,1-0.7
		c0.3,0,0.6,0.1,0.9,0.2l-0.1,0.3c-0.2-0.1-0.5-0.2-0.7-0.2c-0.4,0-0.6,0.2-0.6,0.4c0,0.7,1.6,0.2,1.6,1.1c0,0.4-0.4,0.7-1,0.7
		C357.2,102.6,356.8,102.5,356.5,102.3z"/>
	<path d="M361.2,101.4h-2c0,0.5,0.5,0.9,1,0.9l0,0c0.3,0,0.6-0.1,0.8-0.3l0.2,0.2c-0.2,0.3-0.6,0.4-0.9,0.4c-0.7,0-1.2-0.5-1.3-1.1
		v-0.1c0-0.7,0.5-1.2,1.1-1.2c0,0,0,0,0.1,0c0.6,0,1.2,0.5,1.2,1.1v0.1L361.2,101.4z M359.2,101.2h1.7c-0.1-0.5-0.5-0.8-1-0.8
		C359.5,100.5,359.2,100.8,359.2,101.2L359.2,101.2z"/>
	<path d="M361.7,101.3c0-0.7,0.5-1.2,1.2-1.2h0.1c0.4,0,0.8,0.2,1,0.5l-0.2,0.2c-0.2-0.2-0.4-0.4-0.7-0.4c-0.5,0.2-0.8,0.7-0.6,1.3
		c0.1,0.3,0.3,0.5,0.6,0.6c0.3,0,0.5-0.1,0.7-0.4l0.2,0.2c-0.2,0.3-0.6,0.5-1,0.5C362.3,102.6,361.7,102.1,361.7,101.3
		C361.7,101.4,361.7,101.4,361.7,101.3z"/>
	<path d="M365.8,102.4c-0.1,0.1-0.3,0.2-0.5,0.2c-0.4,0-0.7-0.2-0.7-0.6v-0.1v-1.5h-0.4v-0.3h0.4v-0.5h0.3v0.5h0.7v0.3h-0.7v1.5
		c0,0.2,0.1,0.4,0.3,0.4h0.1c0.1,0,0.3,0,0.4-0.1L365.8,102.4z"/>
	<path d="M368.5,101.4h-2c0,0.5,0.5,0.9,1,0.9l0,0c0.3,0,0.6-0.1,0.8-0.3l0.2,0.2c-0.2,0.3-0.6,0.4-0.9,0.4c-0.7,0-1.2-0.5-1.3-1.1
		v-0.1c0-0.7,0.5-1.2,1.2-1.2s1.2,0.5,1.2,1.2C368.6,101.3,368.5,101.4,368.5,101.4z M366.5,101.2h1.7c-0.1-0.5-0.5-0.8-1-0.8
		C366.8,100.5,366.5,100.8,366.5,101.2z"/>
	<path d="M370.4,102.4c-0.1,0.1-0.3,0.2-0.5,0.2c-0.4,0-0.7-0.2-0.7-0.6v-0.1v-1.5h-0.4v-0.3h0.4v-0.5h0.3v0.5h0.7v0.3h-0.7v1.5
		c0,0.2,0.1,0.4,0.3,0.4h0.1c0.1,0,0.3,0,0.4-0.1L370.4,102.4z"/>
	<path d="M373.2,100.1v2.4h-0.3v-0.4c-0.2,0.3-0.5,0.5-0.9,0.5c-0.6,0-1-0.4-1-1c0,0,0,0,0-0.1v-1.4h0.3v1.4c0,0.5,0.3,0.8,0.7,0.8
		c0.4,0,0.8-0.3,0.8-0.7v-0.1v-1.3L373.2,100.1L373.2,100.1z"/>
	<path d="M376.3,101.4h-2c0,0.5,0.4,0.9,0.9,0.9c0,0,0,0,0.1,0c0.3,0,0.6-0.1,0.7-0.3l0.2,0.2c-0.5,0.5-1.3,0.5-1.8,0
		c-0.2-0.2-0.4-0.6-0.4-0.9c0-0.6,0.5-1.2,1.1-1.2h0.1c0.6,0,1.2,0.5,1.2,1.1v0.1L376.3,101.4z M374.3,101.2h1.7
		c-0.1-0.5-0.5-0.8-1-0.8C374.6,100.5,374.3,100.8,374.3,101.2z"/>
	<path d="M378.2,100.1v0.3h-0.1c-0.4,0-0.8,0.3-0.8,0.8v0.1v1.2h-0.4v-2.4h0.3v0.5C377.4,100.2,377.8,100,378.2,100.1z"/>
	<path d="M271.3,106.6v1.5H271v-0.4c-0.2,0.3-0.5,0.4-0.8,0.4c-0.5,0-0.9-0.3-0.9-0.7s0.2-0.7,0.9-0.7h0.7v-0.1
		c0-0.4-0.2-0.6-0.7-0.6c-0.3,0-0.6,0.1-0.8,0.3l-0.1-0.2c0.3-0.2,0.6-0.3,1-0.3c0.5-0.1,0.9,0.2,1,0.7
		C271.3,106.4,271.3,106.5,271.3,106.6z M270.9,107.4V107h-0.8c-0.5,0-0.6,0.2-0.6,0.4s0.2,0.5,0.6,0.5S270.8,107.7,270.9,107.4
		L270.9,107.4z"/>
	<path d="M274.4,104.7v3.4h-0.3v-0.5c-0.2,0.3-0.6,0.5-1,0.5c-0.7-0.1-1.2-0.7-1.1-1.4c0.1-0.6,0.5-1.1,1.1-1.1
		c0.4,0,0.7,0.2,0.9,0.5v-1.5h0.4V104.7z M274.1,106.9c0-0.5-0.4-0.9-0.9-0.9s-0.9,0.4-0.9,0.9s0.4,0.9,0.9,0.9
		C273.7,107.9,274.1,107.5,274.1,106.9L274.1,106.9L274.1,106.9z"/>
	<path d="M275.2,104.9c0-0.1,0.1-0.2,0.2-0.2s0.2,0.1,0.2,0.2l0,0c0,0.1-0.2,0.2-0.3,0.2C275.3,105.1,275.3,105,275.2,104.9z
		 M275.3,105.7h0.3v2.4h-0.3V105.7z"/>
	<path d="M279,106.9c0,0.7-0.5,1.2-1.1,1.2h-0.1c-0.4,0-0.7-0.2-0.9-0.5v1.4h-0.3v-3.3h0.3v0.5c0.2-0.3,0.6-0.5,0.9-0.5
		C278.5,105.6,279,106.2,279,106.9L279,106.9z M278.7,106.9c0-0.5-0.4-0.9-0.9-0.9s-0.9,0.4-0.9,0.9s0.4,0.9,0.9,0.9
		S278.7,107.4,278.7,106.9z"/>
	<path d="M279.6,104.9c0-0.1,0.1-0.2,0.2-0.2s0.2,0.1,0.2,0.2l0,0c0,0.1-0.1,0.2-0.2,0.2S279.6,105,279.6,104.9z M279.7,105.7h0.3
		v2.4h-0.3V105.7z"/>
	<path d="M280.6,107.8l0.1-0.3c0.3,0.2,0.6,0.3,0.9,0.3c0.5,0,0.6-0.2,0.6-0.4c0-0.6-1.6-0.1-1.6-1.1c0-0.4,0.3-0.7,1-0.7
		c0.3,0,0.6,0.1,0.9,0.2l-0.1,0.3c-0.2-0.1-0.5-0.2-0.7-0.2c-0.4,0-0.6,0.2-0.6,0.4c0,0.7,1.6,0.2,1.6,1.1c0,0.4-0.4,0.7-1,0.7
		C281.3,108.2,280.9,108.1,280.6,107.8z"/>
	<path d="M283,106.9c0-0.7,0.5-1.2,1.2-1.2h0.1c0.4,0,0.8,0.2,1,0.5l-0.2,0.2c-0.2-0.2-0.4-0.4-0.7-0.4c-0.5,0.2-0.8,0.7-0.6,1.3
		c0.1,0.3,0.3,0.5,0.6,0.6c0.3,0,0.5-0.1,0.7-0.4l0.2,0.2c-0.2,0.3-0.6,0.5-1,0.5C283.6,108.2,283,107.6,283,106.9
		C283,107,283,106.9,283,106.9z"/>
	<path d="M285.7,104.9c0-0.1,0.1-0.2,0.2-0.2s0.2,0.1,0.2,0.2l0,0c0,0.1-0.1,0.2-0.2,0.2S285.7,105,285.7,104.9z M285.8,105.7h0.3
		v2.4h-0.3V105.7z"/>
	<path d="M289.3,106.7v1.4H289v-1.4c0.1-0.4-0.2-0.7-0.6-0.8c-0.1,0-0.1,0-0.2,0c-0.4,0-0.8,0.3-0.9,0.7v0.1v1.3H287v-2.4h0.3v0.4
		c0.2-0.3,0.6-0.5,0.9-0.5c0.5,0,1,0.4,1,0.9C289.3,106.6,289.3,106.6,289.3,106.7z"/>
	<path d="M292.5,105.7v2.2c0.1,0.6-0.3,1.1-0.9,1.2c-0.1,0-0.2,0-0.3,0c-0.4,0-0.8-0.1-1.1-0.4l0.2-0.2c0.3,0.2,0.6,0.4,1,0.3
		c0.6,0,0.9-0.3,0.9-0.9v-0.3c-0.2,0.3-0.6,0.5-1,0.5c-0.7,0.1-1.2-0.4-1.3-1.1c-0.1-0.7,0.4-1.2,1.1-1.3c0.1,0,0.1,0,0.2,0
		c0.4,0,0.8,0.2,1,0.5v-0.5L292.5,105.7z M292.2,106.8c0-0.5-0.4-0.9-0.9-1s-0.9,0.4-1,0.9s0.4,0.9,0.9,1l0,0
		C291.7,107.8,292.1,107.4,292.2,106.8C292.2,106.9,292.2,106.9,292.2,106.8L292.2,106.8z"/>
	<path d="M296.7,107h-2c0,0.5,0.4,0.9,0.9,0.8c0,0,0,0,0.1,0c0.3,0,0.6-0.1,0.7-0.3l0.2,0.2c-0.5,0.5-1.3,0.5-1.8,0
		c-0.2-0.2-0.4-0.6-0.4-0.9c0-0.6,0.5-1.2,1.1-1.2h0.1c0.6,0,1.2,0.5,1.2,1.1v0.1L296.7,107z M294.7,106.8h1.7
		c-0.1-0.5-0.5-0.8-1-0.8C295.1,106,294.8,106.3,294.7,106.8z"/>
	<path d="M297.4,104.7h0.3v3.4h-0.3V104.7z"/>
	<path d="M298.6,104.9c0-0.1,0.1-0.2,0.2-0.2s0.2,0.1,0.2,0.2l0,0c0,0.1-0.2,0.2-0.3,0.2C298.7,105.1,298.6,105,298.6,104.9z
		 M298.7,105.7h0.3v2.4h-0.3V105.7z"/>
	<path d="M301.2,108c-0.1,0.1-0.3,0.2-0.5,0.2c-0.4,0-0.7-0.2-0.7-0.6v-0.1V106h-0.4v-0.3h0.4v-0.5h0.3v0.5h0.7v0.3h-0.7v1.5
		c0,0.2,0.1,0.4,0.3,0.4h0.1c0.1,0,0.3,0,0.4-0.1L301.2,108z"/>
	<path d="M302.1,107.8c0,0.1,0,0.2-0.1,0.3l-0.2,0.6h-0.2l0.2-0.7c-0.1,0-0.2-0.1-0.2-0.2c0-0.1,0.1-0.2,0.2-0.2
		C302,107.6,302.1,107.7,302.1,107.8L302.1,107.8z"/>
	<path d="M303.7,107.8l0.1-0.3c0.3,0.2,0.6,0.3,0.9,0.3c0.5,0,0.6-0.2,0.6-0.4c0-0.6-1.6-0.1-1.6-1.1c0-0.4,0.3-0.7,1-0.7
		c0.3,0,0.6,0.1,0.9,0.2l-0.1,0.3c-0.2-0.1-0.5-0.2-0.7-0.2c-0.4,0-0.6,0.2-0.6,0.4c0,0.7,1.6,0.2,1.6,1.1c0,0.4-0.4,0.7-1,0.7
		C304.4,108.2,304,108.1,303.7,107.8z"/>
	<path d="M308.4,107h-2c0,0.5,0.5,0.9,1,0.8l0,0c0.3,0,0.6-0.1,0.8-0.3l0.2,0.2c-0.5,0.5-1.3,0.5-1.8,0c-0.2-0.2-0.4-0.6-0.4-0.9
		c0-0.6,0.5-1.2,1.1-1.2h0.1c0.6,0,1.2,0.5,1.2,1.1v0.1L308.4,107z M306.4,106.8h1.7c-0.1-0.5-0.5-0.8-1-0.8
		C306.8,106,306.5,106.3,306.4,106.8z"/>
	<path d="M311.3,104.7v3.4H311v-0.5c-0.2,0.3-0.6,0.5-0.9,0.5c-0.7-0.1-1.2-0.7-1.1-1.4c0.1-0.6,0.5-1.1,1.1-1.1
		c0.4,0,0.7,0.2,0.9,0.5v-1.5h0.3V104.7z M311,106.9c0-0.5-0.4-0.9-0.9-0.9s-0.9,0.4-0.9,0.9s0.4,0.9,0.9,0.9
		C310.6,107.9,311,107.5,311,106.9L311,106.9z"/>
	<path d="M315.7,104.7v3.4h-0.3v-0.5c-0.2,0.3-0.6,0.5-0.9,0.5c-0.7-0.1-1.2-0.7-1.1-1.4c0.1-0.6,0.5-1.1,1.1-1.1
		c0.4,0,0.7,0.2,0.9,0.5v-1.5h0.3V104.7z M315.3,106.9c0-0.5-0.4-0.9-0.9-0.9s-0.9,0.4-0.9,0.9s0.4,0.9,0.9,0.9
		S315.3,107.5,315.3,106.9C315.4,106.9,315.4,106.9,315.3,106.9z"/>
	<path d="M316.5,104.9c0-0.1,0.1-0.2,0.2-0.2s0.2,0.1,0.2,0.2c0,0.1-0.1,0.2-0.2,0.2l0,0C316.6,105.1,316.5,105,316.5,104.9
		L316.5,104.9z M316.6,105.7h0.3v2.4h-0.3V105.7z"/>
	<path d="M319.7,106.6v1.5h-0.3v-0.4c-0.2,0.3-0.5,0.4-0.8,0.4c-0.5,0-0.9-0.3-0.9-0.7s0.2-0.7,0.9-0.7h0.8v-0.1
		c0-0.3-0.2-0.6-0.5-0.7h-0.1c-0.3,0-0.6,0.1-0.8,0.3l-0.1-0.2c0.3-0.2,0.6-0.3,1-0.3c0.5-0.1,0.9,0.3,1,0.7
		C319.7,106.5,319.7,106.5,319.7,106.6z M319.3,107.4V107h-0.8c-0.5,0-0.6,0.2-0.6,0.4s0.2,0.5,0.6,0.5S319.2,107.7,319.3,107.4z"/>
	<path d="M324.6,106.7v1.4h-0.3v-1.4c0-0.5-0.3-0.8-0.7-0.8c-0.4,0-0.8,0.3-0.8,0.8v0.1v1.3h-0.3v-1.4c0-0.5-0.3-0.8-0.7-0.8
		c-0.4,0-0.8,0.3-0.8,0.8v0.1v1.3h-0.3v-2.4h0.3v0.4c0.2-0.3,0.5-0.5,0.9-0.5s0.7,0.2,0.9,0.5c0.2-0.4,0.6-0.6,1-0.5
		c0.5,0,0.9,0.4,0.9,0.9C324.6,106.6,324.6,106.7,324.6,106.7z"/>
	<path d="M327.4,105.8l-1.6,0.6l1.6,0.6v0.4l-2.1-0.8v-0.4l2.1-0.8V105.8z"/>
	<path d="M329.1,104.2h0.4l-1.5,4.4h-0.4L329.1,104.2z"/>
	<path d="M332.6,104.8v3.2h-0.5v-1.4h-1.9v1.4h-0.5v-3.2h0.5v1.4h1.9v-1.4H332.6z"/>
	<path d="M334.3,104.8v3.2h-0.4v-2.8h-0.7v-0.4H334.3z"/>
	<path d="M337.2,106.3v0.4l-2.1,0.8v-0.4l1.7-0.6l-1.7-0.6v-0.4L337.2,106.3z"/>
	<path d="M271.4,117l-1.6,0.6l1.6,0.6v0.4l-2.1-0.8v-0.4l2.1-0.8V117z"/>
	<path d="M274.8,117.1c0,0.7-0.5,1.1-1.4,1.1h-0.8v1h-0.5V116h1.3C274.3,116,274.8,116.4,274.8,117.1z M274.3,117.1
		c0-0.5-0.3-0.7-0.9-0.7h-0.8v1.4h0.8C274,117.8,274.3,117.6,274.3,117.1z"/>
	<path d="M277.4,117.4v0.4l-2.1,0.8v-0.4l1.6-0.6l-1.6-0.6v-0.4L277.4,117.4z"/>
	<path d="M281.3,117l-1.6,0.6l1.6,0.6v0.4l-2.1-0.8v-0.4l2.1-0.8V117z"/>
	<path d="M282.1,116h0.5v3.2h-0.5V116z"/>
	<path d="M286.6,119.2v-2.4l-1.2,2h-0.2l-1.2-2v2.4h-0.4V116h0.4l1.4,2.3l1.3-2.3h0.4v3.2H286.6z"/>
	<path d="M290.2,117.6h0.5v1.2c-0.4,0.3-0.8,0.4-1.2,0.4c-0.9,0-1.6-0.8-1.6-1.7s0.8-1.6,1.7-1.6c0.4,0,0.8,0.2,1.1,0.5l-0.3,0.3
		c-0.2-0.3-0.6-0.4-0.9-0.4c-0.7,0-1.2,0.6-1.2,1.2s0.6,1.2,1.2,1.2c0.3,0,0.5-0.1,0.8-0.2L290.2,117.6z"/>
	<path d="M292.5,118.8l0.2-0.4c0.3,0.2,0.7,0.4,1.1,0.4c0.6,0,0.8-0.2,0.8-0.5c0-0.8-2-0.3-2-1.5c0-0.5,0.4-0.9,1.2-0.9
		c0.4,0,0.7,0.1,1,0.3l-0.2,0.4c-0.3-0.2-0.6-0.3-0.9-0.3c-0.5,0-0.8,0.2-0.8,0.5c0,0.8,2,0.3,2,1.5c0,0.5-0.4,0.9-1.3,0.9
		C293.3,119.3,292.9,119.1,292.5,118.8z"/>
	<path d="M297.9,119.2l-0.7-1h-1v1h-0.5V116h1.3c0.9,0,1.4,0.4,1.4,1.1c0,0.5-0.3,0.9-0.7,1l0.8,1.1L297.9,119.2z M297.9,117.1
		c0-0.5-0.3-0.7-0.9-0.7h-0.8v1.4h0.8C297.5,117.8,297.9,117.6,297.9,117.1z"/>
	<path d="M298.8,117.6c0-0.9,0.7-1.6,1.6-1.7h0.1c0.5,0,0.9,0.2,1.2,0.5l-0.3,0.3c-0.2-0.3-0.6-0.4-0.9-0.4c-0.7,0-1.2,0.6-1.2,1.2
		s0.6,1.2,1.2,1.2c0.3,0,0.7-0.1,0.9-0.4l0.3,0.3c-0.3,0.3-0.8,0.5-1.2,0.5C299.6,119.1,298.8,118.4,298.8,117.6
		C298.8,117.7,298.8,117.6,298.8,117.6z"/>
	<path d="M302.2,116.8h2.1v0.4h-2.1V116.8z M302.2,117.9h2.1v0.4h-2.1V117.9z"/>
	<path d="M306.2,116h0.4v1.2h-0.3L306.2,116z M307,116h0.4v1.2h-0.3L307,116z"/>
	<path d="M308.2,116h0.5v2.9h1.8v0.4h-2.2L308.2,116L308.2,116z"/>
	<path d="M310.6,118c0-0.7,0.6-1.3,1.3-1.3c0.7,0,1.3,0.6,1.3,1.3s-0.6,1.3-1.3,1.3l0,0c-0.7,0-1.2-0.5-1.3-1.2V118z M312.7,118
		c0.1-0.5-0.3-0.9-0.7-0.9c-0.5-0.1-0.9,0.3-0.9,0.7c0,0.1,0,0.1,0,0.2c-0.1,0.5,0.3,0.9,0.7,0.9c0.5,0.1,0.9-0.3,0.9-0.7
		C312.7,118.1,312.7,118.1,312.7,118z"/>
	<path d="M315.1,116.8v0.4H315c-0.4,0-0.8,0.3-0.8,0.7v0.1v1.2h-0.4v-2.4h0.4v0.4C314.4,116.9,314.7,116.7,315.1,116.8z"/>
	<path d="M317.8,118.2h-2c0.1,0.4,0.4,0.8,0.9,0.7c0.3,0,0.5-0.1,0.7-0.3l0.2,0.3c-0.5,0.5-1.4,0.5-1.9,0c-0.2-0.2-0.4-0.5-0.4-0.9
		c0-0.7,0.5-1.2,1.2-1.2c0,0,0,0,0.1,0c0.7,0,1.2,0.5,1.2,1.1v0.1L317.8,118.2L317.8,118.2z M315.8,117.8h1.6
		c-0.1-0.4-0.5-0.7-0.9-0.7C316.2,117.2,315.9,117.5,315.8,117.8z"/>
	<path d="M322.5,117.8v1.4h-0.4v-1.4c0-0.5-0.2-0.7-0.6-0.7s-0.7,0.3-0.7,0.8v1.3h-0.4v-1.4c0-0.5-0.2-0.7-0.6-0.7s-0.7,0.3-0.7,0.7
		v0.1v1.3h-0.4v-2.4h0.5v0.4c0.2-0.3,0.5-0.4,0.8-0.4c0.4,0,0.7,0.2,0.9,0.5c0.2-0.3,0.6-0.5,0.9-0.5c0.6,0,1,0.5,1,1
		C322.5,117.8,322.5,117.8,322.5,117.8z"/>
	<path d="M324.5,116c0-0.2,0.1-0.3,0.3-0.3l0,0c0.2,0,0.3,0.1,0.3,0.3s-0.1,0.3-0.3,0.3C324.7,116.3,324.5,116.2,324.5,116
		L324.5,116z M324.6,116.8h0.5v2.4h-0.5V116.8z"/>
	<path d="M328.4,118c0,0.7-0.5,1.2-1.1,1.3h-0.1c-0.3,0-0.7-0.1-0.9-0.4v1.3h-0.4v-3.4h0.4v0.4c0.2-0.3,0.5-0.4,0.9-0.4
		C327.9,116.8,328.4,117.3,328.4,118C328.4,117.9,328.4,118,328.4,118z M328,118c0-0.5-0.4-0.8-0.9-0.8s-0.8,0.4-0.8,0.9
		c0,0.4,0.4,0.8,0.8,0.8C327.6,118.9,328,118.5,328,118C328,118.1,328,118,328,118z"/>
	<path d="M328.7,119l0.2-0.4c0.3,0.2,0.6,0.3,0.9,0.3c0.4,0,0.6-0.1,0.6-0.3c0-0.6-1.6-0.1-1.6-1c0-0.4,0.4-0.7,1-0.7
		c0.3,0,0.6,0.1,0.9,0.2l-0.2,0.4c-0.2-0.1-0.5-0.2-0.7-0.2c-0.4,0-0.6,0.1-0.6,0.3c0,0.6,1.5,0.1,1.5,1.1c0,0.4-0.4,0.7-1.1,0.7
		C329.4,119.3,329,119.2,328.7,119z"/>
	<path d="M333.7,116.8v2.4h-0.4v-0.4c-0.2,0.3-0.5,0.4-0.8,0.4c-0.6,0-1-0.4-1.1-0.9v-0.1v-1.4h0.5v1.4c0,0.5,0.2,0.7,0.7,0.7
		c0.4,0,0.7-0.3,0.8-0.7c0-0.1,0-0.1,0-0.2v-1.3L333.7,116.8z"/>
	<path d="M338.6,117.8v1.4h-0.5v-1.4c0-0.5-0.2-0.7-0.6-0.7s-0.7,0.3-0.7,0.8v1.3h-0.5v-1.4c0-0.5-0.2-0.7-0.6-0.7s-0.7,0.3-0.7,0.8
		v1.3h-0.4v-2.4h0.4v0.4c0.2-0.3,0.5-0.4,0.9-0.4c0.3,0,0.7,0.2,0.9,0.5c0.2-0.3,0.6-0.5,1-0.5c0.6,0,1,0.4,1,1
		C338.6,117.7,338.6,117.8,338.6,117.8z"/>
	<path d="M339.3,116h0.4v1.2h-0.3L339.3,116z M340.1,116h0.4v1.2h-0.3L340.1,116z"/>
	<path d="M343.2,117.4v0.4l-2.1,0.8v-0.4l1.6-0.6l-1.6-0.6v-0.4L343.2,117.4z"/>
	<path d="M345.9,117l-1.6,0.6l1.6,0.6v0.4l-2.1-0.8v-0.4l2.1-0.8V117z"/>
	<path d="M347.6,115.3h0.4l-1.5,4.4h-0.4L347.6,115.3z"/>
	<path d="M350.9,117.1c0,0.7-0.5,1.1-1.4,1.1h-0.8v1h-0.5V116h1.3C350.4,116,350.9,116.4,350.9,117.1z M350.4,117.1
		c0-0.5-0.3-0.7-0.9-0.7h-0.8v1.4h0.8C350.2,117.8,350.5,117.6,350.4,117.1L350.4,117.1z"/>
	<path d="M353.6,117.4v0.4l-2.1,0.8v-0.4l1.7-0.6l-1.7-0.6v-0.4L353.6,117.4z"/>
	<path d="M271.4,128.1l-1.6,0.6l1.6,0.6v0.4l-2.1-0.8v-0.4l2.1-0.8V128.1z"/>
	<path d="M273.1,126.5h0.4l-1.6,4.4h-0.4L273.1,126.5z"/>
	<path d="M276.6,129.5c0,0.6-0.4,0.9-1.2,0.9h-1.5v-3.2h1.5c0.8,0,1.2,0.3,1.2,0.8c0,0.3-0.2,0.6-0.4,0.7
		C276.3,128.8,276.6,129.1,276.6,129.5z M274.2,127.5v1h1c0.5,0,0.8-0.2,0.8-0.5c0-0.3-0.3-0.5-0.8-0.5H274.2z M276.1,129.5
		c0-0.4-0.3-0.5-0.8-0.5h-1.1v1.1h1.1C275.8,130,276.1,129.8,276.1,129.5L276.1,129.5z"/>
	<path d="M277,128.7c0-1,0.7-1.8,1.7-1.8s1.8,0.7,1.8,1.7c0,1-0.7,1.8-1.7,1.8c0,0,0,0-0.1,0C277.8,130.4,277.1,129.7,277,128.7
		C277,128.8,277,128.8,277,128.7z M280,128.7c0-0.7-0.6-1.3-1.2-1.3s-1.3,0.6-1.3,1.2c0,0.7,0.6,1.3,1.2,1.3l0,0
		C279.4,130,280,129.5,280,128.7C280,128.8,280,128.8,280,128.7L280,128.7z"/>
	<path d="M281.2,127.1h1.4c0.9-0.1,1.7,0.6,1.8,1.5c0.1,0.9-0.6,1.7-1.5,1.8c-0.1,0-0.2,0-0.3,0h-1.4V127.1z M282.5,130
		c0.7,0,1.2-0.5,1.2-1.2c0-0.7-0.5-1.2-1.2-1.2h-0.9v2.4H282.5z"/>
	<path d="M286.1,129.2v1.1h-0.5v-1.1l-1.3-2.1h0.5l1,1.7l1-1.7h0.5L286.1,129.2z"/>
	<path d="M289.8,128.5v0.4l-2.1,0.8v-0.4l1.6-0.6l-1.6-0.6v-0.4L289.8,128.5z"/>
	<path class="st2" d="M396.1,41.2c0,0.1-32.1,0.3-71.7,0.3s-71.7-0.1-71.7-0.3s32.1-0.3,71.7-0.3S396.1,41.1,396.1,41.2z"/>
	<path class="st2" d="M257.1,36.1c0,0.5-0.4,0.9-0.9,0.9c-0.5,0-0.9-0.4-0.9-0.9s0.4-0.9,0.9-0.9C256.6,35.2,257.1,35.6,257.1,36.1z
		"/>
	<circle class="st2" cx="259.7" cy="36.1" r="0.9"/>
	<path class="st2" d="M264.1,36.1c0,0.5-0.4,0.9-0.9,0.9s-0.9-0.4-0.9-0.9s0.4-0.9,0.9-0.9l0,0C263.7,35.2,264.1,35.6,264.1,36.1z"
		/>
	<path class="st1" d="M261.9,149.6c-0.1,0-0.3-24.3-0.3-54.3s0.1-54.3,0.3-54.3s0.3,24.3,0.3,54.3S262,149.6,261.9,149.6z"/>
	<rect x="383.3" y="97.1" class="st6" width="53.6" height="38.2"/>
	<path class="st5" d="M401.4,114.8v7.6h-1.8v-3.1h-3.4v3.1h-1.8v-7.6h1.8v3h3.4v-3H401.4z"/>
	<path class="st5" d="M404.7,116.3h-2.4v-1.5h6.6v1.4h-2.4v6.1h-1.8L404.7,116.3L404.7,116.3z"/>
	<path class="st5" d="M419,114.8h1.8v6.1h3.8v1.4H419V114.8z"/>
	<path class="st5" d="M416.5,122.5V118l-2.2,3.7h-0.8l-2.2-3.6v4.4h-1.6v-7.6h1.5l2.8,4.7l2.8-4.7h1.4v7.6L416.5,122.5z"/>
	<path class="st5" d="M437.3,102.8c0,0.1-12.1,0.2-27,0.2s-27-0.1-27-0.2s12.1-0.2,27-0.2S437.3,102.7,437.3,102.8z"/>
	<path class="st5" d="M387.7,100c-0.1,0.4-0.4,0.7-0.8,0.6c-0.3-0.1-0.5-0.3-0.6-0.6c0.1-0.4,0.4-0.7,0.8-0.6
		C387.4,99.5,387.6,99.7,387.7,100z"/>
	<path class="st5" d="M390.3,100c-0.1,0.4-0.4,0.7-0.8,0.6c-0.3-0.1-0.5-0.3-0.6-0.6c0.1-0.4,0.4-0.7,0.8-0.6
		C390,99.5,390.2,99.7,390.3,100z"/>
	<path class="st5" d="M392.9,100c0.1,0.4-0.2,0.8-0.6,0.8c-0.4,0.1-0.8-0.2-0.8-0.6c-0.1-0.4,0.2-0.8,0.6-0.8h0.1
		C392.6,99.4,392.9,99.6,392.9,100z"/>
	<rect x="32.7" y="96.6" class="st6" width="39.5" height="28.1"/>
	<path class="st5" d="M72.5,100.8c0,0.1-8.9,0.1-19.9,0.1s-19.9-0.1-19.9-0.1s8.9-0.1,19.9-0.1S72.5,100.7,72.5,100.8z"/>
	<path class="st5" d="M35.9,98.7c0,0.3-0.3,0.5-0.5,0.5c-0.3,0-0.5-0.2-0.5-0.4l0,0c0-0.3,0.3-0.5,0.5-0.5l0,0
		C35.7,98.2,35.9,98.4,35.9,98.7L35.9,98.7z"/>
	<path class="st5" d="M37.8,98.7c0,0.3-0.3,0.5-0.6,0.5c-0.2,0-0.4-0.2-0.5-0.5c0-0.3,0.3-0.5,0.6-0.5
		C37.6,98.3,37.8,98.5,37.8,98.7z"/>
	<path class="st5" d="M39.8,98.7c0,0.3-0.2,0.6-0.5,0.6s-0.6-0.2-0.6-0.5s0.2-0.6,0.5-0.6c0,0,0,0,0.1,0
		C39.5,98.2,39.8,98.4,39.8,98.7z"/>
	<path class="st6" d="M69,59c-0.1-4.1,3.2-7.5,7.3-7.5c0.1,0,0.3,0,0.4,0c2-0.1,3.9,0.6,5.3,2l-0.7,0.7c-1.2-1.2-2.9-1.8-4.5-1.8
		c-3.6-0.2-6.7,2.5-6.9,6.1c-0.2,3.6,2.5,6.7,6.1,6.9c0.2,0,0.5,0,0.7,0c1.7,0.1,3.3-0.6,4.5-1.8l0.7,0.7c-1.4,1.4-3.3,2.1-5.3,2.1
		c-4.1,0.2-7.5-3-7.7-7.1C69,59.2,69,59.1,69,59z"/>
	<path class="st6" d="M83.9,64.6l0.5-0.8c1.3,1.2,3.1,1.9,4.9,1.9c3,0,4.3-1.3,4.3-2.9c0-4.4-9.2-1.8-9.2-7.2c0-2.1,1.6-3.9,5.2-3.9
		c1.6,0,3.1,0.5,4.5,1.3l-0.4,0.9c-1.2-0.8-2.6-1.2-4.1-1.2c-2.9,0-4.2,1.3-4.2,3c0,4.4,9.2,1.8,9.2,7.2c0,2.1-1.7,3.9-5.3,3.9
		C87.3,66.6,85.4,65.9,83.9,64.6z"/>
	<path class="st6" d="M96.8,64.6l0.5-0.8c1.3,1.2,3.1,1.9,4.9,1.9c3,0,4.3-1.3,4.3-2.9c0-4.4-9.2-1.8-9.2-7.2c0-2.1,1.6-3.9,5.2-3.9
		c1.6,0,3.1,0.5,4.5,1.3l-0.4,0.9c-1.2-0.8-2.6-1.2-4.1-1.2c-2.9,0-4.2,1.3-4.2,3c0,4.4,9.2,1.8,9.2,7.2c0,2.1-1.7,3.9-5.3,3.9
		C100.2,66.6,98.2,65.9,96.8,64.6z"/>
	<path class="st6" d="M120.1,78.4c0,0,0-0.3,0-0.8s0-1.3,0-2.3c0-2,0-4.9-0.1-8.6c0-7.4-0.1-18-0.1-31l0.2,0.2H54.2l0,0l0.3-0.3
		c0,15.1,0,29.5,0,42.6l-0.2-0.2l47.4,0.1l13.6,0.1h3.6h0.9l0,0h-0.9h-3.6l-13.5,0.1l-47.6,0.1H54v-0.2c0-13,0-27.4,0-42.6v-0.1h0.3
		l65.9,0.1h0.2v0.2c0,13-0.1,23.7-0.1,31.1c0,3.7,0,6.5,0,8.5c0,1,0,1.7,0,2.2C120.2,78.1,120.1,78.4,120.1,78.4z"/>
	<path class="st6" d="M120.1,42c0,0.1-14.8,0.3-33,0.3s-33-0.1-33-0.3s14.8-0.3,33-0.3S120.1,42,120.1,42z"/>
	<path class="st6" d="M59.1,39c0.1,0.4-0.2,0.9-0.7,0.9c-0.4,0.1-0.9-0.2-0.9-0.7c-0.1-0.4,0.2-0.9,0.7-0.9h0.1
		C58.7,38.2,59.1,38.5,59.1,39L59.1,39z"/>
	<path class="st6" d="M62,39c0.1,0.4-0.2,0.9-0.7,0.9c-0.4,0.1-0.9-0.2-0.9-0.7c-0.1-0.4,0.2-0.9,0.7-0.9h0.1
		C61.6,38.2,62,38.5,62,39L62,39z"/>
	<path class="st6" d="M64.9,39c0.1,0.4-0.2,0.9-0.7,0.9c-0.4,0.1-0.9-0.2-0.9-0.7c-0.1-0.4,0.2-0.9,0.7-0.9h0.1
		C64.5,38.2,64.9,38.5,64.9,39L64.9,39z"/>
</g>
<g id="freepik--Character--inject-5">
	<path class="st7" d="M128.8,152.8l26.1,88.1c1.2,3.9,4.8,6.6,8.8,6.6l106,0.3c5.4,0,9.8-4.4,9.8-9.8c0-0.2,0-0.4,0-0.5l0,0
		c-0.3-5.2-4.6-9.3-9.8-9.3h-40.5l-32.5-90.4H140c-6.4,0-11.7,5.2-11.7,11.7C128.3,150.6,128.5,151.8,128.8,152.8z"/>
	<path class="st2" d="M218.5,235.5c0,0.2-10.8,0.4-24.1,0.4s-24.1-0.2-24.1-0.4s10.8-0.4,24.1-0.4S218.5,235.3,218.5,235.5z"/>
	<path class="st2" d="M136.6,140.6c0.2-0.1,7.4,21,16.1,47.2s15.6,47.3,15.4,47.4s-7.4-21-16.1-47.2S136.4,140.7,136.6,140.6z"/>
	<polygon class="st7" points="214.1,325.9 207.6,325.8 207.6,247.6 214.1,247.6 	"/>
	<polygon class="st7" points="180.8,325.6 240.9,325.6 213.7,316.1 207.2,316.1 	"/>
	<path class="st6" d="M165.6,117.6l9.9,49.7l-1.8,37.2l66.9-11.1l-2.6-32.6l-0.1-27l16.4,31.8l12.8-24.7l-23.4-42.3l0,0
		c-4.3-4.4-9.5-7.8-15.3-9.9c-3.1-1.1-6.3-1.7-9.6-1.8l0,0c-7.5,2.4-15.6,2.4-23.1,0c-0.9,0.1-2.2,0.2-3.9,0.4h-0.3
		c-14.2,1.8-25.1,13.5-25.8,27.8L165.6,117.6z"/>
	<path class="st6" d="M191.8,87.3c0,0-27.5,0.2-30.9,29.2l-0.5,21.3l23.7-0.2L191.8,87.3z"/>
	<path class="st8" d="M257.4,124.6c0,0.2-21.6,0.4-48.3,0.4s-48.2-0.2-48.2-0.4s21.6-0.4,48.3-0.4S257.4,124.4,257.4,124.6z"/>
	<path class="st8" d="M257.4,129.3c0,0.2-21.6,0.4-48.3,0.4s-48.3-0.2-48.3-0.4c0-0.2,21.6-0.4,48.3-0.4S257.4,129,257.4,129.3z"/>
	<path class="st8" d="M255.9,120.8c0,0.2-21.3,0.4-47.5,0.4s-47.5-0.2-47.5-0.4s21.3-0.4,47.5-0.4S255.9,120.6,255.9,120.8z"/>
	<path class="st2" d="M237.6,165.6c-0.2,0-0.1-11.8,0.2-26.3s0.8-26.3,1-26.3s0.1,11.8-0.2,26.3S237.8,165.6,237.6,165.6z"/>
	<path class="st9" d="M228.2,146.5c0,0,13,0.9,15.3,4.4s5.9,13.2,4.6,13.3c-0.8,0-1.7-0.2-2.3-0.7l-3.6-6.3c0,0,0.6,6.1-1.6,6.2
		c-2.2,0.1-12.7,2.2-12.7,2.2L228.2,146.5z"/>
	<path class="st6" d="M160.5,132.2l-0.1,33.5c0.4,7,6.4,12.4,13.4,12c0.7,0,1.4-0.1,2-0.3l52.4-10.8l-0.1-21.5l-45.2,8.7l-0.6-22.8
		L160.5,132.2z"/>
	<path class="st2" d="M190.4,174.7c0.2-0.1,0.5-0.1,0.7-0.2l2-0.5l7.7-1.6l27.3-5.6l-0.3,0.3c0-6.7,0-14.2,0-22.1l0.4,0.4l-9.2,1.8
		l-36,6.9l-0.4,0.1v-0.3c0.3-10,0.6-18.3,0.8-24.2c0.1-2.9,0.2-5.1,0.3-6.8c0-0.7,0.1-1.3,0.1-1.8c0-0.2,0-0.4,0.1-0.6
		c0,0.2,0,0.4,0,0.6c0,0.5,0,1,0,1.8c0,1.6-0.1,3.9-0.1,6.8c-0.1,5.9-0.3,14.2-0.6,24.2l-0.4-0.3l36-7l9.2-1.8l0.4-0.1v0.5
		c0,7.9,0,15.3,0,22.1v0.3h-0.3l-27.4,5.3l-7.7,1.5l-2.1,0.4C190.9,174.7,190.6,174.7,190.4,174.7z"/>
	<path class="st2" d="M220.4,87.3c0,0,0.1,0.2,0.2,0.5c0.2,0.5,0.3,1,0.4,1.5c0.4,1.9,0.3,3.8-0.2,5.6c-0.8,2.7-2.4,5.1-4.5,7
		c-2.6,2.3-6,3.6-9.5,3.6c-3.5,0.1-6.9-1.3-9.4-3.8c-2-2.1-3.2-4.7-3.5-7.6c-0.2-1.9,0-3.8,0.7-5.6c0.2-0.5,0.4-0.9,0.7-1.4
		c0.2-0.3,0.3-0.4,0.3-0.4s-0.3,0.7-0.7,1.9c-0.5,1.8-0.7,3.6-0.4,5.4c0.4,2.7,1.6,5.2,3.5,7.2c2.4,2.3,5.6,3.6,8.9,3.6
		c3.3,0,6.6-1.2,9.1-3.4c2.1-1.8,3.7-4.1,4.5-6.7c0.5-1.8,0.7-3.6,0.5-5.4C220.6,88,220.3,87.3,220.4,87.3z"/>
	<path class="st8" d="M223,168.4c-0.1-1.1-0.1-2.2,0-3.3c0.1-2,0.2-4.8,0.2-7.9c0-3.1,0-5.9-0.1-8c-0.1-1.1-0.1-2.2,0-3.3
		c0.3,1.1,0.5,2.2,0.5,3.3c0.2,2,0.3,4.9,0.3,8s-0.2,5.9-0.4,8C223.4,166.3,223.3,167.3,223,168.4z"/>
	<path class="st8" d="M220.2,168.9c-0.1-1.1-0.2-2.2-0.1-3.3c0-2.3,0.1-5,0.1-7.9v-7.9c-0.1-1.1,0-2.2,0.1-3.3
		c0.3,1.1,0.4,2.2,0.4,3.3c0.1,2,0.2,4.8,0.2,7.9c0,3.1-0.1,5.9-0.3,7.9C220.7,166.8,220.5,167.9,220.2,168.9z"/>
	<path class="st6" d="M272.7,302.1l9.9,27.3l14.1,19.3c1,1.3,0.6,3.2-0.7,4.2l-0.1,0.1l0,0c-0.8,0.5-1.8,0.6-2.7,0.2
		c-5.7-2.4-26.5-11.1-27.1-13.1c-0.7-2.4-14.1-31.7-14.1-31.7L272.7,302.1z"/>
	<g class="st10">
		<path class="st5" d="M295.9,352.9l-30.5-14.7l0.5,1.1c0.4,1,1.1,1.8,2,2.3c2.5,1.4,9.5,4.9,25.2,11.5
			C294,353.6,295,353.5,295.9,352.9L295.9,352.9z"/>
	</g>
	<g class="st10">
		<path class="st5" d="M267.5,327.3c0.9,0.2,1.4,1.1,1.3,2c-0.2,0.9-1.1,1.5-2,1.3s-1.5-1.2-1.4-2.1c0.3-0.9,1.3-1.4,2.2-1.1"/>
	</g>
	<path class="st2" d="M285.1,343.5c0.3-1.1,0.9-2.1,1.6-3c1.3-1.4,2.9-1.6,2.9-1.8s-0.4-0.1-1.1,0c-1.8,0.5-3.1,1.9-3.4,3.7
		C284.9,343.1,285,343.5,285.1,343.5z"/>
	<path class="st2" d="M288.4,346.4c0.2,0.1,0.7-1.1,1.9-2.1c0.8-0.5,1.6-1,2.5-1.4c0-0.2-1.5-0.2-2.9,0.9S288.3,346.4,288.4,346.4z"
		/>
	<path class="st2" d="M279.7,340.3c0.2,0.1,1-1.8,2.8-3.4s3.7-2.3,3.6-2.5s-2.2,0.2-4.1,2S279.5,340.3,279.7,340.3z"/>
	<path class="st2" d="M276,332.2c0.1,0.1,1.4-1.1,3.3-1.9s3.6-1,3.6-1.1s-1.8-0.3-3.9,0.6S275.9,332.2,276,332.2z"/>
	<path class="st2" d="M272.9,324.3c0.1,0.1,1.3-1.4,3.4-2.1s3.9-0.3,3.9-0.5s-0.4-0.3-1.2-0.4c-2-0.3-4.1,0.4-5.5,1.9
		C273,323.8,272.8,324.3,272.9,324.3z"/>
	<path class="st2" d="M275.6,320.8c-0.1-0.4-0.2-0.7-0.4-1c-0.5-0.9-1.1-1.7-1.9-2.4c-0.5-0.5-1.2-0.9-1.9-1c-0.5,0-1,0.3-1.2,0.7
		c-0.2,0.4-0.2,0.9,0,1.4c0.8,1.9,2.9,2.8,4.9,2.3c1.9-0.5,3.3-2.1,3.5-4.1c0.1-0.5-0.1-1-0.4-1.3c-0.4-0.3-0.9-0.4-1.4-0.1
		c-0.6,0.4-1.1,1-1.4,1.6c-0.5,0.9-0.8,1.8-1,2.8c-0.1,0.4-0.1,0.7,0,1.1c0.3-1.3,0.8-2.5,1.5-3.7c0.3-0.6,0.7-1,1.3-1.4
		c0.2-0.1,0.5-0.1,0.8,0.1c0.2,0.3,0.3,0.6,0.2,0.9c-0.3,1.7-1.5,3.1-3.1,3.5c-1.7,0.4-3.4-0.4-4.1-1.9c-0.2-0.3-0.2-0.7-0.1-1
		s0.4-0.4,0.6-0.4c0.6,0.1,1.2,0.4,1.6,0.8C274.2,318.6,275,319.6,275.6,320.8z"/>
	<path class="st6" d="M314.5,294.9l-0.9,22.2c0,0,22.2,8.3,22.5,12.4l-43-0.1l-0.1-34.6L314.5,294.9z"/>
	<g class="st10">
		<path class="st5" d="M300.4,315.2c-0.9,0.3-1.4,1.1-1.2,2c0.2,0.9,1.1,1.4,2,1.2c0.9-0.3,1.5-1.2,1.3-2.1c-0.3-0.9-1.3-1.3-2.2-1"
			/>
	</g>
	<g class="st10">
		<path class="st5" d="M293.1,329.4v-3.5l41.4,1.4c0,0,1.9,0.8,1.7,2.2L293.1,329.4z"/>
	</g>
	<path class="st2" d="M314.4,316.9c0,0.2-1,0.3-2.1,1s-1.6,1.6-1.8,1.5s0.1-1.3,1.4-2.1S314.4,316.7,314.4,316.9z"/>
	<path class="st2" d="M318.9,318.8c0,0.2-0.9,0.6-1.6,1.5s-0.9,1.8-1.1,1.8s-0.3-1.2,0.6-2.3S318.9,318.6,318.9,318.8z"/>
	<path class="st2" d="M321.4,324.2c-0.2,0-0.5-1,0.1-2.1s1.5-1.6,1.6-1.4s-0.5,0.8-1,1.7S321.7,324.2,321.4,324.2z"/>
	<path class="st2" d="M314,311.8c-0.1,0.2-1-0.1-2.2,0s-2.1,0.5-2.2,0.3s0.8-0.9,2.2-1S314.1,311.7,314,311.8z"/>
	<g class="st0">
		<polygon points="314.4,299.3 314.2,303.3 293.1,303 293.1,299.5 		"/>
	</g>
	<path class="st2" d="M314.1,307.4c-0.7,0.2-1.5,0.2-2.2,0c-0.8-0.1-1.5-0.4-2.2-0.7c-0.4-0.2-0.8-0.4-1.2-0.7
		c-0.2-0.1-0.5-0.3-0.6-0.5c-0.3-0.3-0.3-0.8-0.1-1.1c0.2-0.3,0.6-0.5,0.9-0.5s0.5,0,0.8,0.1c0.5,0.1,0.9,0.3,1.3,0.5
		c0.7,0.3,1.4,0.8,2,1.3c1,0.9,1.3,1.7,1.3,1.8s-0.6-0.6-1.6-1.4c-0.6-0.4-1.2-0.8-1.9-1.1c-0.4-0.2-0.8-0.3-1.2-0.4
		c-0.5-0.1-0.9-0.1-1,0.1s0,0.1,0,0.2c0.1,0.1,0.3,0.3,0.5,0.4c0.4,0.2,0.7,0.5,1.1,0.6c0.7,0.3,1.4,0.6,2.1,0.8
		C312.7,307,313.4,307.1,314.1,307.4z"/>
	<path class="st2" d="M313.8,307.7c-0.4-0.6-0.6-1.4-0.6-2.1c0-0.8,0.1-1.6,0.3-2.4c0.1-0.4,0.3-0.9,0.5-1.3c0.2-0.6,0.8-1,1.4-1.1
		c0.4,0,0.7,0.2,0.9,0.6c0.1,0.3,0.2,0.5,0.2,0.8c0.1,0.5,0.1,1,0,1.5c-0.1,0.8-0.4,1.6-0.9,2.2c-0.8,1.1-1.7,1.4-1.7,1.3
		s0.7-0.5,1.3-1.6c0.4-0.6,0.6-1.3,0.7-2c0.1-0.4,0.1-0.8,0-1.2c-0.1-0.5-0.2-0.8-0.4-0.8s-0.6,0.3-0.8,0.7
		c-0.2,0.4-0.4,0.8-0.5,1.2c-0.2,0.7-0.4,1.4-0.4,2.1C313.7,306.8,314,307.6,313.8,307.7z"/>
	<path class="st2" d="M293.1,188.7c-25.4,2.6-59.1,6.1-59.1,6.1l4.6,41.4c0,0,49.5-13.1,49.2-12s2.3,88.1,2.3,88.1h29.8l0.6-98.5
		c0.2-13.7-10.7-24.9-24.4-25.1C295,188.5,294.1,188.6,293.1,188.7z"/>
	<path class="st2" d="M173.1,205.4v12.8c0,8.7,9.9,18,18.7,18h6.8c5.3,0,13.7-3.9,18-7l2.6-1.9l31.1,96.2c0,0,35.5-6.4,35.5-7.5
		s-24.1-78.8-35.2-114.9c-4.5-14.7-20.3-23.3-34.9-18.3c-0.5,0.2-1,0.4-1.5,0.6C198.2,189.8,173.1,205.4,173.1,205.4z"/>
	<path class="st7" d="M285.7,316c-0.1-0.1-0.1-0.2-0.1-0.3c-0.1-0.3-0.2-0.6-0.4-1c-0.3-0.9-0.8-2.2-1.4-4
		c-1.2-3.5-2.8-8.5-4.8-14.8c-4-12.5-9.3-29.9-15.1-49.1c-2.9-9.6-5.6-18.8-8.1-27.1c-1.2-4.2-2.4-8.1-3.5-11.8
		c-0.6-1.9-1.1-3.6-1.6-5.4c-0.5-1.7-1-3.3-1.6-4.9c-1.1-2.7-2.8-5.1-5-7.1c-1.6-1.5-3.4-2.9-5.3-4.1c-1.5-1-2.7-1.8-3.6-2.3
		l-0.9-0.6c-0.1-0.1-0.2-0.1-0.3-0.2c0.1,0,0.2,0.1,0.3,0.2l1,0.5c0.9,0.5,2.1,1.2,3.6,2.2c1.9,1.2,3.7,2.5,5.4,4
		c2.3,2,4,4.4,5.2,7.2c0.6,1.6,1.2,3.2,1.7,4.9c0.5,1.7,1.1,3.5,1.6,5.4l3.6,11.8c2.5,8.3,5.3,17.5,8.2,27.1
		c5.8,19.2,11,36.5,14.8,49.2l4.6,14.8l1.3,4c0.1,0.4,0.2,0.8,0.3,1S285.7,316,285.7,316z"/>
	<path class="st7" d="M293.2,211.7c0.2,0.1-1.5,2.7-2.9,6.1s-2,6.4-2.3,6.4s0.1-3.1,1.6-6.7S293,211.6,293.2,211.7z"/>
	<path class="st7" d="M298.9,215.7c0.1,0.2-2.5,1.3-5.1,3.4s-4.4,4.3-4.6,4.2s1.3-2.6,4.1-4.8S298.8,215.5,298.9,215.7z"/>
	<path class="st7" d="M250.5,323.5c-0.2,0.1-8.6-25.7-18.7-57.5s-18.2-57.7-18-57.7s8.6,25.7,18.7,57.5S250.7,323.5,250.5,323.5z"/>
	<polygon class="st7" points="212.4,173.4 314,174.4 333,120.8 259,121.3 241.9,169.5 212.4,170 	"/>
	<path class="st5" d="M289.4,152.2c-2.3-0.3-3.8-2.4-3.5-4.7c0.3-2.3,2.4-3.8,4.7-3.5c2.3,0.3,3.8,2.4,3.5,4.7l0,0
		C293.8,151,291.7,152.6,289.4,152.2z"/>
	<path class="st2" d="M204.1,28.4c1-3.6,3.6-5.3,7.1-6.5c3.6-1.2,7.5-0.6,10.5,1.7c2,1.5,3.5,3.7,5.8,4.5c3.8,1.3,8.3-1.5,12,0.2
		c2.6,1.2,3.8,4.3,2.6,6.9c-0.9,2-2.9,3.2-5.1,3.1c2.5,0.9,3.3,4.5,1.8,6.7s-4.5,3.1-7.1,2.6c-2.6-0.6-5-2-6.9-3.9
		c-2-1.8-3.8-3.8-5.9-5.4c-2.1-1.7-4.7-2.7-7.4-2.7c-3.6,0.2-6.7,2.9-8.3,6.1s-2,6.9-2.2,10.5s-0.3,7.3-1.3,10.7
		c-0.1,0.4-0.3,0.9-0.7,1c-0.6,0.2-1.1-0.4-1.4-1c-3.3-6.1-5.3-12.8-6.1-19.7c-0.4-4-0.3-7.8,1.9-11.1S201.3,26.3,204.1,28.4"/>
	<path class="st9" d="M197.1,45.1l-1.9,40.5c-0.3,6.9,0.6,17.1,11.5,17.1l0,0c9.5-0.7,12.2-9.6,12.5-16c0.1-3,0.2-5.6,0.3-5.9
		c0,0,10.3-0.5,11.6-10.7c0.6-4.9,1-15.1,1.2-24.4c0.2-9.9-7.1-18.4-17-19.4l-1-0.1C203.7,25.7,197.3,34.5,197.1,45.1z"/>
	<path class="st11" d="M219.7,80.6c-4.7-0.4-9.2-2.2-12.9-5.2c0,0,2.4,7.6,12.6,7.8L219.7,80.6z"/>
	<path class="st2" d="M228.7,52.3c-0.1,0.8-0.8,1.4-1.6,1.3c-0.8,0-1.4-0.7-1.4-1.4l0,0c0.1-0.8,0.8-1.4,1.6-1.3
		C228.1,50.8,228.7,51.4,228.7,52.3C228.7,52.2,228.7,52.2,228.7,52.3z"/>
	<path class="st2" d="M229.7,50.5c-0.2,0.2-1.2-0.8-2.8-0.9s-2.8,0.5-2.9,0.3s0.1-0.4,0.7-0.7c0.7-0.4,1.6-0.6,2.4-0.5
		c0.8,0.1,1.6,0.4,2.2,1C229.6,50.1,229.8,50.5,229.7,50.5z"/>
	<path class="st2" d="M213.3,51.2c-0.1,0.8-0.8,1.4-1.6,1.3c-0.8,0-1.4-0.7-1.4-1.5l0,0c0.1-0.8,0.8-1.4,1.6-1.3
		C212.7,49.7,213.3,50.4,213.3,51.2C213.3,51.1,213.3,51.1,213.3,51.2z"/>
	<path class="st2" d="M214.3,49.2c-0.2,0.2-1.2-0.8-2.8-0.9s-2.8,0.5-2.9,0.3s0.1-0.4,0.7-0.7c0.7-0.4,1.6-0.6,2.4-0.5
		c0.8,0.1,1.6,0.4,2.2,1C214.2,48.7,214.4,49.1,214.3,49.2z"/>
	<path class="st2" d="M218.7,61.4c0.9-0.2,1.7-0.2,2.6-0.2c0.4,0,0.8,0,0.9-0.3c0.1-0.4,0-0.8-0.1-1.2c-0.3-1-0.6-2.1-0.9-3.2
		c-1.2-4.5-2-8.2-1.8-8.2s1.3,3.6,2.5,8.1c0.3,1.1,0.6,2.2,0.8,3.2c0.2,0.5,0.2,1.1,0,1.6c-0.1,0.3-0.4,0.5-0.7,0.5
		c-0.2,0-0.5,0-0.7,0C220.4,61.6,219.5,61.6,218.7,61.4z"/>
	<path class="st2" d="M214,62c0.2,0,0.1,1.7,1.4,3.1s3.1,1.4,3.1,1.6s-0.4,0.3-1.2,0.2c-1-0.1-1.9-0.5-2.6-1.2
		c-0.7-0.7-1.1-1.6-1.1-2.6C213.6,62.4,213.9,62,214,62z"/>
	<path class="st2" d="M215.3,43.1c-0.2,0.4-1.7,0-3.6,0.1s-3.4,0.4-3.6,0c-0.1-0.2,0.2-0.6,0.9-0.9c1.7-0.9,3.8-0.9,5.5,0
		C215.1,42.5,215.4,42.9,215.3,43.1z"/>
	<path class="st2" d="M229.6,45.9c-0.3,0.3-1.4-0.2-2.6-0.3s-2.4,0-2.6-0.4c-0.1-0.2,0.1-0.5,0.6-0.8c0.7-0.3,1.5-0.5,2.2-0.4
		s1.4,0.4,2,0.9C229.6,45.4,229.7,45.8,229.6,45.9z"/>
	<path class="st9" d="M197.1,52.8c-0.2-0.1-6.8-2.8-7.3,4.2s6.6,6.1,6.6,5.9S197.1,52.8,197.1,52.8z"/>
	<path class="st11" d="M194.5,60c0,0-0.1,0.1-0.3,0.2c-0.3,0.1-0.6,0.1-0.9-0.1c-0.9-0.7-1.3-1.7-1.2-2.8c0-0.6,0.2-1.2,0.5-1.7
		c0.2-0.4,0.5-0.8,1-0.9c0.3,0,0.6,0.1,0.7,0.4c0.1,0.2,0,0.3,0.1,0.4s0.2-0.1,0.1-0.4c0-0.2-0.1-0.3-0.2-0.4
		c-0.2-0.2-0.4-0.2-0.7-0.2c-0.6,0.1-1.1,0.5-1.4,1c-0.3,0.6-0.5,1.2-0.6,1.9c-0.1,1.4,0.6,2.8,1.6,3.1c0.4,0.1,0.8,0.1,1.1-0.1
		C194.5,60.2,194.6,60,194.5,60z"/>
	<path class="st2" d="M234.8,43.8c-4.7,0.7-9.4-0.9-12.7-4.3c-2.2-2.4-3.8-5.6-6.8-6.9c-2.1-0.8-4.4-0.7-6.4,0.2
		c-2,0.9-3.8,2.3-5.3,3.9c1.4,5.4-0.5,11-2.4,16.2c-0.2,0.6-0.5,1.1-1,1.5c-0.9,0.6-2.1-0.1-2.7-0.9c-0.9-1.4-1.4-3.1-1.4-4.7
		c-0.3-3.8,0.1-7.6,1.3-11.3c1.2-3.6,3.4-6.9,6.4-9.3c3.9-2.9,8.7-4.1,13.5-3.5c4.7,0.6,9.2,2.8,12.6,6.1c1.7,1.5,3,3.3,3.8,5.4"/>
</g>
<g id="freepik--Plant--inject-5">
	<path class="st6" d="M39.2,258.9c3.6-1.7,7.7-2.2,11.7-1.4c2.1,0.4,4.3,1,5.8,2.6s1.7,4.4,0.1,5.8c-1.1,0.7-2.4,1-3.7,0.9
		c-3.1,0-6.5-0.6-9,1.3c-1.4,1.1-2.4,2.8-4,3.4c-1.7,0.4-3.5-0.4-4.4-2c-0.8-1.5-1-3.3-0.5-5C35.6,262.1,37.1,260,39.2,258.9z"/>
	<path class="st6" d="M31.1,243.1c2.2,3.1,6.4,2.1,8.4,0.2s2.8-4.6,3.5-7.3c1.7-6,3.5-12.3,2.2-18.4c-0.3-1.9-1.1-3.6-2.4-5
		c-1.3-1.4-3.2-2.1-5.1-1.7c-2.1,0.6-3.5,2.7-4.4,4.6c-2.8,5.9-4.3,12.3-4.3,18.8C29,237.4,29.3,240.6,31.1,243.1"/>
	<path class="st6" d="M25.1,247.6c2.3-3,2.9-6.9,1.8-10.4c-1.2-3.5-3.3-6.6-6.2-9c-3.2-2.9-6.9-5.1-11-6.5c-1.6-0.6-3.3-0.9-5-0.8
		s-3.3,1-4.2,2.5c-1.2,2.2,0,4.9,1.2,7.1c2.1,3.9,4.6,7.6,7.3,11.1c2.2,2.8,4.7,5.6,8,6.8s6.8,1.1,8.5-1.2"/>
	<path class="st2" d="M30.9,290.1c0.1-0.5,0.2-0.9,0.2-1.4c0.1-1,0.2-2.3,0.4-3.9c0.2-1.9,0.5-3.8,0.9-5.7c0.5-2.3,1.2-4.5,2.1-6.7
		c0.9-2.2,2-4.2,3.4-6c1.1-1.5,2.6-2.8,4.3-3.6c1.1-0.6,2.4-1,3.6-1.1c0.5,0,0.9-0.1,1.4-0.2c-0.5,0-1,0-1.4,0
		c-1.3,0.1-2.6,0.4-3.8,1c-1.8,0.8-3.3,2.1-4.5,3.6c-1.5,1.9-2.6,3.9-3.5,6.2c-0.9,2.2-1.5,4.5-2,6.8c-0.4,1.9-0.6,3.8-0.8,5.7
		c-0.1,1.6-0.2,3-0.2,3.9C30.9,289.2,30.9,289.6,30.9,290.1z"/>
	<path class="st2" d="M31.2,287.1c0-0.2,0-0.4,0-0.6c0-0.5,0-1.1,0-1.9c0-1.6,0-4,0.1-6.9c0.1-5.8,0.6-12.1,1.6-20.9
		c0.9-8.3,2.2-18,3.5-24.3c0.3-1.4,0.5-2.7,0.8-3.8s0.5-2.1,0.7-2.9s0.3-1.4,0.4-1.8c0.1-0.2,0.1-0.4,0.1-0.6
		c-0.1,0.2-0.2,0.4-0.2,0.6c-0.2,0.5-0.3,1.1-0.5,1.8s-0.5,1.8-0.8,2.9s-0.6,2.4-0.9,3.8c-1.6,7.4-2.8,14.9-3.6,22.5
		c-0.9,8.9-1.4,16.9-1.4,22.8c0,2.9,0,5.3,0.1,6.9c0,0.8,0.1,1.4,0.1,1.9C31.1,286.7,31.1,286.9,31.2,287.1z"/>
	<path class="st2" d="M31.2,271.6c0.1-0.7,0.1-1.3,0-2c-0.1-1.8-0.3-3.6-0.6-5.3c-0.4-2.6-1-5.2-1.7-7.7c-0.8-3.1-1.9-6.2-3.2-9.2
		c-2.2-5.5-5.5-10.5-9.5-14.8c-0.7-0.7-1.5-1.4-2.2-2.1c-0.3-0.3-0.7-0.6-1-0.8l-0.9-0.6c-0.5-0.4-1.1-0.8-1.6-1.1
		c1.9,1.5,3.7,3.1,5.4,4.8c3.9,4.4,7,9.3,9.3,14.8c1.3,2.9,2.4,6,3.3,9.1c0.8,2.9,1.4,5.5,1.8,7.7s0.6,4,0.8,5.3
		C31,270.3,31.1,271,31.2,271.6z"/>
	<polygon class="st2" points="16.2,299 17.7,320.4 45.2,320.4 46.7,299 	"/>
	<rect x="13.5" y="290.6" class="st2" width="36.5" height="8.4"/>
	<polygon class="st7" points="13.5,319.5 13.5,321.9 15.2,321.9 49.4,321.9 49.4,319.5 	"/>
	<polygon class="st7" points="16.9,326 15.2,321.9 48.1,321.9 46.1,326 	"/>
	<path class="st1" d="M46.2,306c0,0.1-0.1,0.1-0.1,0.2l-0.4,0.5l-1.6,2l-0.1,0.1l-0.1-0.1l-3.9-5.4h0.2l-3.9,5.5l-0.1,0.2l-0.1-0.2
		c-1.4-1.7-3-3.5-4.6-5.5h0.3c-0.1,0.1-0.2,0.2-0.2,0.3l-4.1,5.1l-0.1,0.2l-0.1-0.2l-3.9-5.5h0.2l-4.8,5.5l-0.1,0.1l-0.1-0.1
		c-0.6-1-1.1-1.9-1.5-2.5l-0.4-0.7l-0.1-0.2c0,0,0.1,0.1,0.2,0.2l0.4,0.6l1.6,2.5h-0.2l4.7-5.5l0.1-0.1l0.1,0.1l3.9,5.4h-0.3
		l4.1-5.1l0.2-0.3l0.1-0.2l0.1,0.2l4.6,5.5h-0.3l3.9-5.4l0.1-0.2l0.1,0.2l3.8,5.5h-0.2l1.7-2l0.4-0.5C46.1,306,46.2,306,46.2,306z"
		/>
	<path class="st7" d="M47.1,298.8c0,0.1-6.9,0.2-15.3,0.2s-15.3-0.1-15.3-0.2s6.9-0.2,15.3-0.2S47.1,298.8,47.1,298.8z"/>
	<path class="st2" d="M48.5,322.1c0,0.1-7.5,0.2-16.7,0.2s-16.7-0.1-16.7-0.2s7.5-0.2,16.7-0.2S48.5,322,48.5,322.1z"/>
</g>
<g id="freepik--Devices--inject-5">
	<polygon class="st2" points="372.6,76.4 353.6,156.1 358.9,156.1 377.7,76.4 	"/>
	<path class="st2" d="M365.3,128.8c-0.3,1.5,8.6,44.9,8.6,44.9h-4.3l-6.8-34.4L365.3,128.8z"/>
	<rect x="339.5" y="231.2" class="st6" width="89.2" height="94.6"/>
	<rect x="428.7" y="245" class="st2" width="4.4" height="4.4"/>
	<rect x="428.7" y="258.9" class="st2" width="4.4" height="4.4"/>
	<rect x="428.7" y="272.8" class="st2" width="4.4" height="4.4"/>
	<rect x="428.7" y="286.7" class="st2" width="4.4" height="4.4"/>
	<path class="st2" d="M433.3,274.1c0.4-0.1,0.9-0.2,1.3-0.3c1.2-0.2,2.5-0.4,3.8-0.4c1.9,0,3.8,0.5,5.4,1.4c2.1,1.3,3.2,3.6,3,6
		c-0.1,1.2-0.5,2.4-1.1,3.4s-1.4,1.8-2.3,2.4c-1.5,1.1-3.3,1.8-5.2,2.1c-1.2,0.2-2.5,0.2-3.8,0.1c-0.5,0-0.9-0.1-1.4-0.2
		c0.5,0,0.9,0,1.4,0c1.2,0,2.5-0.1,3.7-0.3c1.8-0.3,3.5-1,5-2.1c1.8-1.3,3-3.3,3.2-5.5s-0.8-4.4-2.8-5.6c-1.6-1-3.3-1.5-5.2-1.5
		c-1.2,0-2.5,0-3.7,0.2C434.2,274.1,433.7,274.1,433.3,274.1z"/>
	<path class="st2" d="M432.2,260.3c0.1-0.1,0.3-0.2,0.4-0.2c0.4-0.2,0.9-0.4,1.3-0.5c1.7-0.5,3.4-0.6,5.1-0.3
		c0.6,0.1,1.1,0.3,1.6,0.6c0.6,0.4,1,0.9,1.1,1.6c0.5,2.2-0.7,4.5-2.9,5.4c-0.8,0.3-1.7,0.3-2.4-0.1c-0.8-0.4-1.3-1.2-1.4-2.1
		c0-0.9,0.6-1.8,1.4-2.2c0.8-0.4,1.7-0.5,2.5-0.3s1.6,0.5,2.2,1.1c1.2,1,2,2.4,2.2,4c0.1,1.4-0.3,2.9-1.1,4c-0.7,1-1.7,1.8-2.7,2.3
		c-1.6,0.8-3.3,1.2-5,1.3c-0.6,0-1.1,0.1-1.4,0.1c-0.2,0-0.3,0-0.5,0c0,0,0.7-0.1,1.9-0.2c1.7-0.2,3.3-0.7,4.8-1.4
		c1-0.6,1.9-1.3,2.6-2.2c0.8-1,1.1-2.4,1-3.6c-0.2-1.4-0.9-2.7-2.1-3.6c-0.6-0.5-1.3-0.8-2-1s-1.5-0.1-2.2,0.2
		c-0.7,0.3-1.1,1-1.1,1.7c0.1,0.7,0.5,1.3,1.1,1.6c0.6,0.3,1.3,0.4,2,0.1c0.6-0.2,1.2-0.7,1.6-1.2c0.9-1,1.3-2.3,1-3.6
		c-0.4-1.1-1.3-1.9-2.5-2c-1.7-0.4-3.4-0.3-5,0.1C432.8,260,432.2,260.3,432.2,260.3z"/>
	<path class="st2" d="M432.2,246.7c0.3-0.1,0.7-0.2,1-0.2c0.9-0.1,1.8,0,2.7,0.3c1.3,0.4,2.4,1.2,3.3,2.2c1.1,1.3,1.7,2.9,1.7,4.6
		c0.1,1.7-0.4,3.3-1.4,4.7c-0.8,1.1-1.9,1.9-3.2,2.4c-0.8,0.4-1.7,0.5-2.6,0.5c-0.3,0-0.7,0-1-0.1c1.2,0,2.4-0.3,3.5-0.8
		c1.2-0.5,2.2-1.4,3-2.4c1.8-2.6,1.7-6.2-0.3-8.7c-0.8-1-1.9-1.7-3.1-2.2C434.6,246.8,433.4,246.6,432.2,246.7z"/>
	<path class="st2" d="M366,180.9c0.3,0.6,0.6,1.2,0.8,1.8c0.5,1.8,0.9,3.6,1.2,5.4c0.4,2.4,0.7,5.3,1,8.6s0.6,7.2,1.1,11.5
		c0.1,1,0.3,2.1,0.5,3.2s0.5,2.2,1,3.2c0.6,1,1.3,1.9,2.2,2.7c2.7,2.6,6.3,4.3,10.1,4.7c2.7,0.3,5.4-0.2,7.9-1.4
		c2.6-1.3,4.4-3.6,5.1-6.4c0.3-1.4,0.2-2.9-0.3-4.2c-0.6-1.4-1.5-2.5-2.8-3.4c-1.3-0.8-2.7-1.3-4.2-1.4s-3,0.4-4.3,1.2
		c-0.6,0.4-1.1,1-1.5,1.7c-0.3,0.7-0.4,1.4-0.3,2.2c0.4,1.5,1.4,2.8,2.8,3.5s3,1.1,4.6,1.3c1.6,0.2,3.2,0.3,4.7,0.3
		c3.1,0,6.2-0.2,9.3-0.5c6.1-0.7,12-1.7,17.6-1.7s11.1,0.7,15.7,3c2.2,1.1,4.2,2.5,5.8,4.4c1.5,1.7,2.5,3.8,3,6
		c0.8,3.8,0.2,7.8-1.8,11.2c-1.5,2.5-3.5,4.7-5.9,6.3c-1.5,1-3.2,1.9-4.9,2.5c-0.6,0.2-1.2,0.4-1.8,0.5l0.5-0.2
		c0.3-0.1,0.8-0.3,1.3-0.5c1.7-0.7,3.3-1.5,4.8-2.6c2.4-1.6,4.4-3.8,5.8-6.3c1.8-3.4,2.4-7.3,1.6-11c-0.5-2.2-1.5-4.2-3-5.8
		c-1.6-1.8-3.6-3.2-5.7-4.2c-4.5-2.2-9.9-3-15.5-2.9s-11.5,1-17.6,1.7c-3.1,0.4-6.2,0.6-9.4,0.5c-1.6,0-3.2-0.1-4.8-0.3
		c-1.6-0.1-3.3-0.6-4.7-1.3c-1.5-0.8-2.6-2.2-3-3.9c-0.2-0.8,0-1.7,0.3-2.5c0.4-0.8,0.9-1.4,1.6-1.9c1.3-1,3-1.4,4.6-1.4
		c1.6,0.1,3.2,0.6,4.5,1.5s2.3,2.1,3,3.6c0.6,1.5,0.7,3,0.3,4.5c-0.7,2.9-2.7,5.4-5.4,6.7c-2.5,1.2-5.4,1.7-8.1,1.4
		c-2.6-0.3-5.1-1.1-7.4-2.5c-1.1-0.7-2.1-1.4-3-2.3c-0.9-0.8-1.7-1.8-2.3-2.8c-0.5-1.1-0.8-2.2-1-3.3c-0.2-1.1-0.4-2.2-0.5-3.2
		c-0.5-4.2-0.8-8.1-1.1-11.5s-0.6-6.3-0.9-8.6c-0.2-1.8-0.6-3.6-1.1-5.4c-0.1-0.5-0.3-0.9-0.5-1.4C366.1,181.3,366,181.1,366,180.9z
		"/>
	<path class="st2" d="M423.7,321.8c0,0,0-0.1,0-0.4s0-0.7,0-1.2c0-1.1,0-2.6,0-4.7c0-4.1,0-10.1-0.1-17.7c0-15.2-0.1-36.9-0.1-62.9
		l0.2,0.2h-80.6l0,0l0.3-0.3c0,32,0,61.8,0,86.9l-0.2-0.2l58.4,0.1l16.4,0.1h4.3h1.5h-1.5l-4.4,0.1l-16.3,0.1L343,322h-0.2v-0.2
		c0-25.1,0-55,0-86.9v-0.3h0.3h80.6h0.2v0.2c0,26-0.1,47.8-0.1,63c0,7.6,0,13.6-0.1,17.7c0,2,0,3.6,0,4.6c0,0.5,0,0.9,0,1.2
		S423.7,321.8,423.7,321.8z"/>
	<path class="st2" d="M400.9,245.6c0,0.2-0.2,0.4-0.4,0.4l0,0c-0.2,0-0.4-0.1-0.5-0.4s0.1-0.4,0.4-0.5h0.1
		C400.7,245.2,400.9,245.3,400.9,245.6z"/>
	<path class="st2" d="M403.2,245.6c0,0.2-0.2,0.4-0.4,0.4l0,0c-0.2,0-0.4-0.1-0.5-0.4s0.1-0.4,0.4-0.5h0.1
		C403,245.2,403.2,245.3,403.2,245.6z"/>
	<path class="st2" d="M405.5,245.6c0,0.2-0.2,0.4-0.4,0.4l0,0c-0.2,0-0.4-0.1-0.5-0.4s0.1-0.4,0.4-0.5h0.1
		C405.3,245.2,405.5,245.3,405.5,245.6z"/>
	<path class="st2" d="M407.8,245.6c0,0.2-0.2,0.4-0.4,0.4s-0.4-0.2-0.4-0.4s0.2-0.4,0.4-0.4l0,0
		C407.6,245.2,407.8,245.3,407.8,245.6z"/>
	<path class="st2" d="M410.1,245.6c0,0.2-0.2,0.4-0.4,0.4l0,0c-0.2,0-0.4-0.3-0.4-0.5s0.2-0.3,0.4-0.4
		C409.9,245.2,410.1,245.3,410.1,245.6z"/>
	<path class="st2" d="M412.3,245.6c0,0.2-0.2,0.4-0.4,0.4l0,0c-0.2,0-0.4-0.3-0.4-0.5s0.2-0.3,0.4-0.4
		C412.1,245.2,412.3,245.3,412.3,245.6z"/>
	<path class="st2" d="M414.6,245.6c0,0.2-0.2,0.4-0.4,0.4l0,0c-0.2,0-0.4-0.3-0.4-0.5s0.2-0.3,0.4-0.4
		C414.4,245.2,414.6,245.3,414.6,245.6z"/>
	<circle class="st2" cx="413.1" cy="247.1" r="0.4"/>
	<circle class="st2" cx="410.8" cy="247.1" r="0.4"/>
	<path class="st2" d="M408.9,247.1c0,0.2-0.2,0.4-0.4,0.4l0,0c-0.2,0-0.4-0.2-0.4-0.4l0,0c0-0.2,0.2-0.4,0.4-0.4l0,0
		C408.7,246.7,408.9,246.9,408.9,247.1L408.9,247.1z"/>
	<circle class="st2" cx="406.2" cy="247.1" r="0.4"/>
	<circle class="st2" cx="403.8" cy="247.1" r="0.4"/>
	<path class="st2" d="M401.9,247.1c0,0.2-0.2,0.4-0.4,0.4l0,0c-0.2,0-0.4-0.2-0.4-0.4l0,0c0-0.2,0.2-0.4,0.4-0.4l0,0
		C401.7,246.7,401.9,246.9,401.9,247.1L401.9,247.1z"/>
	<path class="st2" d="M400.9,248.8c0,0.2-0.2,0.4-0.4,0.4l0,0c-0.2,0-0.4-0.2-0.4-0.4l0,0c0-0.2,0.2-0.4,0.4-0.4l0,0
		C400.7,248.4,400.9,248.6,400.9,248.8L400.9,248.8z"/>
	<path class="st2" d="M403.2,248.8c0,0.2-0.2,0.4-0.4,0.4l0,0c-0.2,0-0.4-0.2-0.4-0.4l0,0c0-0.2,0.2-0.4,0.4-0.4l0,0
		C403,248.4,403.2,248.6,403.2,248.8L403.2,248.8z"/>
	<path class="st2" d="M405.5,248.8c0,0.2-0.2,0.4-0.4,0.4l0,0c-0.2,0-0.4-0.2-0.4-0.4l0,0c0-0.2,0.2-0.4,0.4-0.4l0,0
		C405.3,248.4,405.5,248.6,405.5,248.8L405.5,248.8z"/>
	<path class="st2" d="M407.8,248.8c0,0.2-0.3,0.4-0.5,0.4s-0.3-0.2-0.4-0.4c0-0.2,0.1-0.4,0.4-0.5s0.4,0.1,0.5,0.4
		C407.8,248.8,407.8,248.8,407.8,248.8z"/>
	<path class="st2" d="M410.1,248.8c0,0.2-0.2,0.4-0.4,0.4l0,0c-0.2,0-0.4-0.2-0.4-0.4l0,0c0-0.2,0.2-0.4,0.4-0.4l0,0
		C409.9,248.4,410.1,248.6,410.1,248.8L410.1,248.8z"/>
	<path class="st2" d="M412.3,248.8c0,0.2-0.2,0.4-0.4,0.4l0,0c-0.2,0-0.4-0.2-0.4-0.4l0,0c0-0.2,0.2-0.4,0.4-0.4l0,0
		C412.2,248.4,412.3,248.6,412.3,248.8L412.3,248.8z"/>
	<path class="st2" d="M414.6,248.8c0,0.2-0.2,0.4-0.4,0.4l0,0c-0.2,0-0.4-0.2-0.4-0.4l0,0c0-0.2,0.2-0.4,0.4-0.4l0,0
		C414.4,248.4,414.6,248.6,414.6,248.8L414.6,248.8z"/>
	<path class="st2" d="M413.6,250.4c0,0.2-0.2,0.4-0.4,0.4l0,0c-0.2,0-0.4-0.2-0.4-0.4l0,0c0-0.2,0.2-0.4,0.4-0.4l0,0
		C413.4,250,413.6,250.1,413.6,250.4L413.6,250.4z"/>
	<path class="st2" d="M411.2,250.4c0,0.2-0.2,0.4-0.4,0.4l0,0c-0.2,0-0.4-0.2-0.4-0.4l0,0c0-0.2,0.2-0.4,0.4-0.4l0,0
		C411,250,411.2,250.1,411.2,250.4L411.2,250.4z"/>
	<path class="st2" d="M408.9,250.4c0,0.2-0.2,0.4-0.4,0.4l0,0c-0.2,0-0.4-0.2-0.4-0.4l0,0c0-0.2,0.2-0.4,0.4-0.4l0,0
		C408.7,250,408.9,250.1,408.9,250.4L408.9,250.4z"/>
	<path class="st2" d="M406.6,250.4c0,0.2-0.2,0.4-0.4,0.4l0,0c-0.2,0-0.4-0.2-0.4-0.4l0,0c0-0.2,0.2-0.4,0.4-0.4l0,0
		C406.4,250,406.6,250.1,406.6,250.4L406.6,250.4z"/>
	<path class="st2" d="M404.2,250.4c0,0.2-0.1,0.4-0.4,0.5s-0.4-0.1-0.5-0.4v-0.1c0-0.2,0.3-0.4,0.5-0.4
		C404.1,250,404.2,250.2,404.2,250.4z"/>
	<path class="st2" d="M401.9,250.4c0,0.2-0.2,0.4-0.4,0.4l0,0c-0.2,0-0.4-0.2-0.4-0.4l0,0c0-0.2,0.2-0.4,0.4-0.4l0,0
		C401.7,250,401.9,250.1,401.9,250.4L401.9,250.4z"/>
	<path class="st2" d="M400.9,252.1c0,0.2-0.2,0.4-0.4,0.4l0,0c-0.2,0-0.4-0.2-0.4-0.4l0,0c0-0.2,0.2-0.4,0.4-0.4l0,0
		C400.7,251.7,400.9,251.9,400.9,252.1L400.9,252.1z"/>
	<path class="st2" d="M403.2,252.1c0,0.2-0.2,0.4-0.4,0.4l0,0c-0.2,0-0.4-0.2-0.4-0.4l0,0c0-0.2,0.2-0.4,0.4-0.4l0,0
		C403,251.7,403.2,251.9,403.2,252.1L403.2,252.1z"/>
	<path class="st2" d="M405.5,252.1c0,0.2-0.2,0.4-0.4,0.4l0,0c-0.2,0-0.4-0.2-0.4-0.4l0,0c0-0.2,0.2-0.4,0.4-0.4l0,0
		C405.3,251.7,405.5,251.9,405.5,252.1L405.5,252.1z"/>
	<path class="st2" d="M407.8,252.1c0,0.2-0.1,0.4-0.4,0.5s-0.4-0.1-0.5-0.4v-0.1c0-0.2,0.3-0.4,0.5-0.4
		C407.6,251.8,407.8,251.9,407.8,252.1z"/>
	<path class="st2" d="M410.1,252.1c0,0.2-0.2,0.4-0.4,0.4l0,0c-0.2,0-0.4-0.2-0.4-0.4l0,0c0-0.2,0.2-0.4,0.4-0.4l0,0
		C409.9,251.7,410.1,251.9,410.1,252.1L410.1,252.1z"/>
	<path class="st2" d="M412.3,252.1c0,0.2-0.2,0.4-0.4,0.4l0,0c-0.2,0-0.4-0.2-0.4-0.4l0,0c0-0.2,0.2-0.4,0.4-0.4l0,0
		C412.1,251.7,412.3,251.9,412.3,252.1L412.3,252.1z"/>
	<path class="st2" d="M414.6,252.1c0,0.2-0.2,0.4-0.4,0.4l0,0c-0.2,0-0.4-0.2-0.4-0.4l0,0c0-0.2,0.2-0.4,0.4-0.4l0,0
		C414.4,251.7,414.6,251.9,414.6,252.1L414.6,252.1z"/>
	<circle class="st2" cx="413.1" cy="253.6" r="0.4"/>
	<circle class="st2" cx="410.8" cy="253.6" r="0.4"/>
	<path class="st2" d="M408.9,253.6c0,0.2-0.2,0.4-0.4,0.4l0,0c-0.2,0-0.4-0.1-0.5-0.4s0.1-0.4,0.4-0.5h0.1
		C408.7,253.2,408.9,253.4,408.9,253.6L408.9,253.6z"/>
	<circle class="st2" cx="406.2" cy="253.6" r="0.4"/>
	<circle class="st2" cx="403.8" cy="253.6" r="0.4"/>
	<path class="st2" d="M401.9,253.6c0,0.2-0.2,0.4-0.4,0.4c-0.2,0-0.4-0.3-0.4-0.5s0.2-0.3,0.4-0.4
		C401.7,253.2,401.9,253.4,401.9,253.6z"/>
	<path class="st1" d="M369.4,152.1c0.6,0,1.1,0.1,1.6,0.3c1.5,0.5,2.9,1.4,3.9,2.6c1.6,1.9,2.8,4.2,3.5,6.6c1,3.2,1.7,6.4,2.2,9.7
		c1.1,8.5,1.3,17.2,0.6,25.8c-0.1,2.5-0.9,5-2.2,7.1c-0.7,1.1-1.7,2-2.8,2.7c-1.2,0.7-2.5,1.1-3.9,0.9c-1.4-0.1-2.7-0.7-3.7-1.7
		c-0.5-0.5-0.9-1.1-1.1-1.8c-0.2-0.7-0.2-1.4,0-2.1c0.4-1.4,1.4-2.6,2.8-3.1c0.7-0.3,1.5-0.3,2.2,0s1.3,0.7,1.8,1.3
		c0.9,1.2,1.2,2.7,1,4.1s-0.7,2.7-1.5,3.9c-4.1,7.2-13.2,9.9-20.5,5.9c-2.1-1.2-3.9-2.7-5.4-4.6c-1.4-1.8-2.5-3.7-3.3-5.8
		c-1.3-3.8-2.1-7.8-2.2-11.8c-0.2-3.7,0-7-0.4-9.9c-0.2-1.3-0.5-2.6-0.9-3.9c-0.4-1.1-1-2-1.7-2.9c-1-1.2-2.2-2.2-3.7-2.8
		c-0.5-0.2-1.1-0.3-1.6-0.4c0.6,0,1.1,0.1,1.6,0.3c1.5,0.5,2.8,1.5,3.8,2.7c0.7,0.9,1.3,1.9,1.8,3c0.5,1.3,0.8,2.6,1,4
		c0.4,2.9,0.2,6.2,0.4,9.9c0.1,4,0.9,7.9,2.2,11.7c0.8,2.1,1.9,4,3.2,5.7c1.4,1.8,3.2,3.4,5.3,4.5c7.1,3.8,15.9,1.2,19.8-5.8
		c0.7-1.2,1.2-2.4,1.4-3.8c0.2-1.3-0.1-2.7-0.9-3.8c-0.4-0.5-0.9-0.9-1.5-1.2c-0.6-0.2-1.3-0.2-1.9,0c-1.2,0.5-2.1,1.5-2.5,2.8
		c-0.3,1.3,0.1,2.6,1,3.5s2.1,1.5,3.4,1.6s2.5-0.2,3.6-0.9c1.1-0.7,2-1.5,2.7-2.6c1.3-2.1,2-4.5,2.2-6.9c0.7-8.5,0.5-17.1-0.5-25.6
		c-0.5-3.3-1.2-6.5-2.1-9.6c-0.6-2.4-1.8-4.6-3.4-6.5c-1-1.2-2.3-2.1-3.8-2.6C370.5,152.4,370,152.3,369.4,152.1z"/>
	<rect x="328.3" y="166.6" class="st1" width="33.2" height="6.3"/>
	<rect x="78.4" y="232" class="st2" width="43.3" height="93.3"/>
	<path class="st7" d="M118,315.5c0,0,0-0.1,0-0.4s0-0.7,0-1.2c0-1,0-2.5,0-4.5c0-3.9,0-9.5-0.1-16.7c0-14.2-0.1-34.2-0.1-57.5
		l0.2,0.2H81.8l0,0l0.3-0.3c0,31.2,0,59.5-0.1,80.2l-0.2-0.2l26.5,0.1h7.2h1.9C117.9,315.4,118.1,315.4,118,315.5l-0.5-0.1h-1.9
		h-7.2l-26.6,0.1h-0.2v-0.2c0-20.8,0-49.1-0.1-80.2v-0.3h36.8v0.2c0,23.4-0.1,43.4-0.1,57.7c0,7.1,0,12.7-0.1,16.6
		c0,1.9,0,3.4,0,4.4c0,0.5,0,0.9,0,1.1S118,315.5,118,315.5z"/>
	<path class="st7" d="M115.8,242.1c0,0,0-0.4,0-1s0-1.6-0.1-2.7l0.1,0.1c-5.6,0.1-17.6,0.1-31.5,0.1l0,0l0.3-0.3l0,0v1.9
		c0,0.6,0,1.2,0,1.8l-0.2-0.3c8.8,0,16.7,0.1,22.3,0.1l6.7,0.1h1.8c0.2,0,0.4,0,0.7,0c-0.2,0-0.4,0-0.6,0h-1.8l-6.6,0.1
		c-5.7,0.1-13.6,0.1-22.5,0.1h-0.3v-3.9l0,0l0.3-0.3l0,0c13.9,0,25.9,0.1,31.5,0.1l0,0v0.1c0,1.2,0,2.1-0.1,2.8
		C115.9,241.3,115.8,241.7,115.8,242.1z"/>
	<path class="st7" d="M87.4,244.7c0,0.1-0.7,0.3-1.4,0.3s-1.5-0.1-1.5-0.3s0.7-0.3,1.5-0.3S87.4,244.5,87.4,244.7z"/>
	<path class="st7" d="M115,249.5c0,0.1-6.7,0.3-15,0.3s-15-0.1-15-0.3s6.7-0.3,15-0.3S115,249.4,115,249.5z"/>
	<path class="st7" d="M115.1,255.3c0,0.1-6.6,0.3-14.7,0.3s-14.7-0.1-14.7-0.3s6.6-0.3,14.7-0.3S115.1,255.2,115.1,255.3z"/>
	<circle class="st6" cx="100" cy="268.9" r="2.4"/>
	<path class="st7" d="M93.2,268.8c-1,0.3-2.1,0.3-3.2,0.3c-1.1,0.1-2.1,0-3.1-0.3c1-0.3,2.1-0.3,3.2-0.3
		C91.2,268.5,92.2,268.6,93.2,268.8z"/>
	<path class="st7" d="M112.6,268.2c-1,0.3-2,0.3-3,0.3c-1,0.1-2,0-3-0.3c1-0.3,2-0.3,3-0.3C110.6,267.8,111.6,267.9,112.6,268.2z"/>
	<path class="st2" d="M79.9,278.8c-0.5-0.1-1.1-0.2-1.6-0.3c-1.5-0.4-3-1.1-4.3-2c-2.1-1.4-3.8-3.3-5.2-5.4c-1.7-2.8-3-5.9-3.8-9.2
		c-1-3.9-1.4-7.9-1.2-11.9c0.3-4.7,1.8-9.1,4.6-12.9c1.5-2,3.3-3.8,5.4-5.2c1.1-0.7,2.3-1.3,3.5-1.7c1.3-0.4,2.5-0.7,3.9-0.9
		c2.6-0.4,5.3-0.3,8-0.5c2.7-0.1,5.4-0.7,7.9-1.8c2.5-1.1,4.3-3.4,4.9-6c1-4.5-1.8-9.1-6.3-10.1c-0.7-0.2-1.4-0.2-2.1-0.2
		c-1.2,0.1-2.4,0.5-3.3,1.2s-1.4,1.8-1.4,3c0.3,2.3,2.1,4.1,4.5,4.3c2.2,0,4.3-0.9,5.7-2.6c1.3-1.6,2.3-3.4,2.8-5.4
		c0.5-1.8,0.9-3.7,1.2-5.6c0.7-5.7,0.9-11.5,0.5-17.3c-0.1-2-0.2-3.6-0.2-4.7c0-0.5,0-0.9-0.1-1.2c0-0.1,0-0.3,0-0.4
		c0,0.1,0.1,0.3,0.1,0.4c0,0.3,0.1,0.7,0.1,1.2c0.1,1.1,0.2,2.7,0.3,4.7c0.4,5.8,0.3,11.6-0.4,17.4c-0.3,1.9-0.6,3.8-1.1,5.7
		c-0.5,2.1-1.5,4-2.8,5.6c-1.5,1.8-3.7,2.8-6.1,2.7c-2.6-0.2-4.6-2.2-4.9-4.7c-0.1-1.3,0.5-2.6,1.6-3.4c1-0.8,2.3-1.3,3.6-1.4
		c5-0.1,9,3.9,9.1,8.9c0,2.1-0.7,4.1-2,5.8c-0.9,1.1-2.1,2-3.3,2.6c-2.5,1.2-5.3,1.8-8.1,1.9c-2.7,0.2-5.4,0.1-8,0.5
		c-1.3,0.2-2.5,0.5-3.8,0.9c-1.2,0.4-2.3,1-3.4,1.7c-2.1,1.3-3.9,3-5.3,5c-2.7,3.7-4.2,8.1-4.5,12.7c-0.3,4,0.1,8,1.1,11.8
		c0.7,3.2,2,6.3,3.7,9.1c1.3,2.1,3,3.9,5,5.4c1.3,0.9,2.7,1.6,4.2,2.1c0.5,0.1,0.9,0.2,1.2,0.3C79.6,278.7,79.8,278.8,79.9,278.8z"
		/>
	<rect x="65.2" y="87.4" class="st2" width="102.6" height="70.5"/>
	<rect x="108.5" y="148.2" class="st2" width="14" height="26.6"/>
</g>
<g id="freepik--Desk--inject-5">
	<polygon class="st2" points="75.4,173.8 75.4,183.3 128.3,183.3 128.3,325.8 133.2,325.8 133.2,183.3 354.3,184.4 354.3,325.8 
		359,325.8 359,184.1 393.2,184.4 393.2,172.9 	"/>
	<polygon class="st2" points="109.2,181.5 130.1,196.5 128.3,198.2 107.3,182.4 	"/>
	<polygon class="st2" points="378.7,182.9 354.5,200.1 356.3,201.8 380.7,183.8 	"/>
	<rect x="152.3" y="170.2" class="st2" width="54.7" height="4"/>
</g>
</svg>
