<svg width="173" height="42" viewBox="0 0 173 42" fill="none" xmlns="http://www.w3.org/2000/svg">
<path d="M171.523 30.9092C171.25 30.7741 170.977 30.639 170.841 30.639C170.568 30.3687 170.296 30.0984 170.159 29.9633C170.023 29.8281 170.023 29.5578 170.023 29.2876V22.936C170.023 19.2872 169.205 16.5845 167.705 14.9628C166.341 13.4762 164.159 12.6654 161.159 12.5303H160.204C158.022 12.5303 156.386 12.8006 155.022 13.4762C153.659 14.0168 153.113 14.8276 153.113 15.6385C153.113 15.9088 153.249 16.3142 153.522 16.4493C153.795 16.7196 154.068 16.7196 154.477 16.7196C154.75 16.7196 155.568 16.4493 156.795 15.7736C157.886 15.0979 158.977 14.8276 160.068 14.8276H161.295C162.523 14.9628 163.614 15.3682 164.432 16.0439C165.523 16.8547 166.205 18.071 166.341 19.5575H165.386C163.886 19.5575 162.523 19.6927 161.295 19.8278C158.977 20.0981 156.931 20.7738 155.431 21.7198C153.113 23.0711 152.022 25.0982 152.022 27.5307C152.022 29.4227 152.704 30.9092 153.931 31.9903C155.159 33.0715 156.795 33.612 158.977 33.612C159.795 33.612 160.613 33.612 161.432 33.3417C162.25 33.2066 163.068 32.9363 163.75 32.5309C165.114 31.8552 166.205 30.9092 167.159 29.5578V31.7201C167.159 32.2606 167.295 32.666 167.432 32.8012C167.568 33.0715 167.977 33.0715 168.523 33.0715C170.296 33.0715 171.523 33.0715 171.932 32.8012C172.341 32.666 172.614 32.3958 172.614 31.9903C172.477 31.4498 172.205 31.1795 171.523 30.9092ZM166.75 24.828C166.75 26.1794 166.477 27.1253 166.068 27.9362C165.659 28.6119 164.977 29.4227 163.886 29.9633C163.341 30.2335 162.795 30.5038 162.113 30.639C161.841 30.7741 161.568 30.7741 161.295 30.7741C160.886 30.7741 160.477 30.9092 160.068 30.9092C158.841 30.9092 157.75 30.639 157.068 29.8281C156.25 29.1524 155.84 28.2064 155.84 26.9902C155.84 25.0982 156.795 23.7468 158.568 22.6657C159.386 22.2603 160.204 21.8549 161.295 21.5846C162.659 21.3143 164.295 21.0441 166.205 21.0441H166.75V24.828Z" fill="#231F20"/>
<path d="M143.976 17.6595C143.976 17.1189 143.976 16.8486 143.839 16.5784C143.703 16.3081 143.566 16.1729 143.157 15.9027C143.021 15.9027 142.885 15.7675 142.612 15.6324C142.066 15.3621 141.93 15.0918 141.93 14.8216C141.93 14.5513 141.93 14.4161 142.203 14.281C142.339 14.1459 142.612 13.8756 143.021 13.7404L143.294 13.6053C144.93 12.6593 146.157 12.2539 146.703 12.2539C146.976 12.2539 147.248 12.389 147.385 12.6593C147.521 12.9296 147.521 13.4702 147.521 14.5513V29.2815C147.521 29.6869 147.521 29.9572 147.657 30.2274C147.794 30.4977 147.93 30.6329 148.067 30.6329C148.203 30.768 148.476 30.768 148.748 30.9031C149.43 31.1734 149.839 31.5788 149.839 31.9843C149.839 32.2545 149.703 32.5248 149.43 32.66C149.158 32.7951 148.748 32.7951 148.067 32.7951H143.566C142.885 32.7951 142.612 32.7951 142.339 32.66C142.066 32.5248 142.066 32.3897 142.066 32.1194C142.066 31.8491 142.066 31.714 142.203 31.5788C142.339 31.4437 142.475 31.3086 142.885 31.1734C143.021 31.1734 143.157 31.0383 143.294 30.9031C143.839 30.6329 144.112 30.2274 144.112 29.4166L143.976 17.6595Z" fill="#231F20"/>
<path d="M142.745 6.1786C142.745 5.36777 143.018 4.82721 143.427 4.42179C143.836 4.01637 144.518 3.74609 145.2 3.74609C145.881 3.74609 146.563 4.01637 146.972 4.42179C147.381 4.82721 147.654 5.36777 147.654 6.1786C147.654 6.8543 147.381 7.53 146.972 7.93542C146.563 8.34083 145.881 8.61111 145.2 8.61111C144.381 8.61111 143.836 8.34083 143.427 7.93542C143.018 7.53 142.745 6.98944 142.745 6.1786Z" fill="#2AA9E0"/>
<path d="M138.664 30.9092C138.391 30.7741 138.254 30.639 137.982 30.639C137.709 30.3687 137.436 30.0984 137.3 29.9633C137.3 29.8281 137.164 29.5578 137.164 29.2876V22.936C137.164 19.2872 136.345 16.5845 134.845 14.9628C133.482 13.4762 131.3 12.6654 128.3 12.5303H127.345C125.163 12.5303 123.527 12.8006 122.163 13.4762C120.799 14.0168 120.254 14.8276 120.254 15.6385C120.254 15.9088 120.39 16.3142 120.663 16.4493C120.936 16.7196 121.208 16.7196 121.617 16.7196C121.89 16.7196 122.708 16.4493 123.799 15.7736C125.027 15.0979 126.118 14.8276 127.072 14.8276H128.3C129.527 14.9628 130.618 15.3682 131.436 16.0439C132.527 16.8547 133.209 18.071 133.345 19.5575H132.391C130.891 19.5575 129.527 19.6927 128.3 19.8278C125.981 20.0981 124.072 20.7738 122.436 21.7198C120.117 23.0711 119.026 25.0982 119.026 27.5307C119.026 29.4227 119.708 30.9092 120.936 31.9903C122.163 33.0715 123.799 33.612 125.981 33.612C126.799 33.612 127.618 33.612 128.3 33.3417C129.118 33.2066 129.936 32.9363 130.618 32.5309C131.981 31.8552 133.072 30.9092 134.027 29.5578V31.7201C134.027 32.2606 134.163 32.666 134.3 32.8012C134.436 33.0715 134.845 33.0715 135.391 33.0715C137.164 33.0715 138.391 33.0715 138.8 32.8012C139.209 32.666 139.482 32.3958 139.482 31.9903C139.618 31.4498 139.345 31.1795 138.664 30.9092ZM133.891 24.828C133.891 26.1794 133.754 27.1253 133.345 27.9362C132.936 28.6119 132.254 29.4227 131.163 29.9633C130.618 30.2335 130.072 30.5038 129.39 30.639C129.118 30.7741 128.845 30.7741 128.572 30.7741C128.163 30.7741 127.754 30.9092 127.345 30.9092C126.118 30.9092 125.027 30.639 124.345 29.8281C123.527 29.1524 123.118 28.2064 123.118 26.9902C123.118 25.0982 124.072 23.7468 125.845 22.6657C126.663 22.2603 127.481 21.8549 128.572 21.5846C129.936 21.3143 131.572 21.0441 133.482 21.0441H133.891V24.828Z" fill="#231F20"/>
<path d="M117.108 13.0647C116.699 12.7945 116.154 12.7945 115.472 12.7945H113.563H112.335C111.79 12.7945 110.972 12.6593 109.744 12.5242C108.517 12.389 107.563 12.2539 106.744 12.2539C104.017 12.2539 101.699 13.1999 100.062 14.9567C98.2895 16.7135 97.4713 19.146 97.4713 21.9839C97.4713 24.8219 98.2895 27.2544 100.062 29.0112C101.699 30.768 103.881 31.714 106.608 31.714H106.881C107.153 31.714 107.563 31.714 107.972 31.5788C108.517 31.4437 109.199 31.3086 110.154 31.1734C111.381 31.714 112.335 32.2545 112.881 32.7951C113.426 33.3357 113.699 34.0113 113.699 34.8222C113.699 35.9033 113.017 36.8493 111.79 37.3898C110.563 37.9304 108.926 38.3358 106.881 38.3358H106.608C104.699 38.3358 103.335 38.2007 102.244 37.7953C101.29 37.525 100.744 36.9844 100.744 36.3087C100.744 36.3087 100.744 36.1736 100.88 35.9033C100.88 35.633 101.017 35.4979 101.017 35.3627C101.017 35.0925 101.017 34.9573 100.88 34.8222C100.744 34.687 100.608 34.5519 100.335 34.5519C99.7896 34.5519 99.2441 34.8222 98.6986 35.3627C98.1531 35.9033 98.0168 36.4439 98.0168 37.2547C98.0168 38.4709 98.835 39.4169 100.335 40.0926C101.835 40.7683 104.017 41.0386 106.744 41.0386H107.017C110.154 41.0386 112.608 40.3629 114.381 39.2818C116.29 38.2007 117.245 36.579 117.245 34.687C117.245 33.6059 116.836 32.5248 116.154 31.714C115.336 30.9031 114.245 30.2274 112.745 29.6869C113.972 28.7409 114.926 27.5247 115.472 26.1733C116.154 24.8219 116.427 23.3353 116.427 21.7137C116.427 20.3623 116.154 19.146 115.745 18.0649C115.336 16.8486 114.654 15.9027 113.836 15.0918H114.926H115.199C116.29 15.0918 116.972 14.9567 117.381 14.8216C117.79 14.5513 118.063 14.281 118.063 13.8756C117.654 13.6053 117.517 13.335 117.108 13.0647ZM110.972 27.6598C110.017 29.0112 108.517 29.6869 106.744 29.6869C104.972 29.6869 103.472 29.0112 102.517 27.6598C101.562 26.3084 101.017 24.4165 101.017 21.9839C101.017 19.6866 101.562 17.7946 102.517 16.4432C103.472 15.0918 104.972 14.5513 106.744 14.5513C108.517 14.5513 110.017 15.227 110.972 16.5784C111.926 17.9298 112.472 19.6866 112.472 21.9839C112.472 24.4165 112.063 26.3084 110.972 27.6598Z" fill="#231F20"/>
<path d="M89.5595 17.6595C89.5595 17.1189 89.5595 16.8486 89.4231 16.5784C89.2867 16.3081 89.1504 16.1729 88.7413 15.9027C88.6049 15.9027 88.4685 15.7675 88.1958 15.6324C87.6503 15.3621 87.5139 15.0918 87.5139 14.8216C87.5139 14.5513 87.5139 14.4161 87.7867 14.281C87.9231 14.1459 88.1958 13.8756 88.6049 13.7404L88.8776 13.6053C90.5141 12.6593 91.7414 12.2539 92.2869 12.2539C92.5596 12.2539 92.8323 12.389 92.9687 12.6593C93.1051 12.9296 93.1051 13.4702 93.1051 14.5513V29.2815C93.1051 29.6869 93.1051 29.9572 93.2414 30.2274C93.3778 30.4977 93.5142 30.6329 93.6505 30.6329C93.7869 30.768 94.0597 30.768 94.3324 30.9031C95.0142 31.1734 95.4233 31.5788 95.4233 31.9843C95.4233 32.2545 95.287 32.5248 95.0142 32.66C94.7415 32.7951 94.3324 32.7951 93.6505 32.7951H89.1504C88.4685 32.7951 88.1958 32.7951 87.923 32.66C87.6503 32.5248 87.6503 32.3897 87.6503 32.1194C87.6503 31.8491 87.6503 31.714 87.7867 31.5788C87.9231 31.4437 88.0594 31.3086 88.4685 31.1734C88.6049 31.1734 88.7413 31.0383 88.8776 30.9031C89.4231 30.6329 89.6958 30.2274 89.6958 29.4166L89.5595 17.6595Z" fill="#231F20"/>
<path d="M88.4734 6.1786C88.4734 5.36777 88.7462 4.82721 89.1553 4.42179C89.5644 4.01637 90.2462 3.74609 90.9281 3.74609C91.6099 3.74609 92.1554 4.01637 92.7009 4.42179C93.11 4.96235 93.3827 5.50291 93.3827 6.1786C93.3827 6.8543 93.11 7.53 92.7009 7.93542C92.2918 8.34083 91.7463 8.61111 90.9281 8.61111C90.1099 8.61111 89.5644 8.34083 89.1553 7.93542C88.6098 7.53 88.4734 6.98944 88.4734 6.1786Z" fill="#05A550"/>
<path d="M79.3364 6.3134C79.3364 5.77285 79.3364 5.50257 79.2 5.23229C79.0637 5.09715 78.9273 4.82687 78.5182 4.69173C78.3818 4.55659 78.2454 4.55659 77.9727 4.42145C77.4272 4.15117 77.2909 3.8809 77.2909 3.61062C77.2909 3.34034 77.2909 3.2052 77.5636 2.93492C77.7 2.79978 77.9727 2.5295 78.3818 2.39436H78.5182C80.291 1.44839 81.5183 1.04297 82.0638 1.04297C82.3365 1.04297 82.6092 1.17811 82.7456 1.44839C82.882 1.71867 82.882 2.25922 82.882 3.2052V29.4222C82.882 29.8277 82.882 30.0979 83.0184 30.3682C83.1547 30.6385 83.2911 30.7736 83.4275 30.7736C83.5638 30.7736 83.7002 30.9088 84.1093 31.0439C84.9275 31.3142 85.3366 31.7196 85.3366 32.125C85.3366 32.3953 85.2003 32.6656 84.9275 32.8007C84.6548 32.9359 84.2457 32.9359 83.5638 32.9359H78.9273C78.3818 32.9359 77.9727 32.9359 77.7 32.8007C77.4272 32.6656 77.2909 32.5304 77.2909 32.2602C77.2909 31.9899 77.2909 31.8547 77.4272 31.7196C77.5636 31.5845 77.8363 31.4493 78.1091 31.3142C78.2454 31.3142 78.3818 31.179 78.5182 31.0439C79.0637 30.7736 79.3364 30.3682 79.3364 29.5574V6.3134Z" fill="#231F20"/>
<path d="M69.6532 6.31183C69.6532 5.77127 69.6532 5.50099 69.5168 5.23071C69.3804 5.09557 69.2441 4.82529 68.9713 4.69015C68.835 4.55501 68.6986 4.55501 68.4259 4.41987C67.744 4.01446 67.4713 3.74418 67.4713 3.4739C67.4713 3.20362 67.6077 3.06848 67.744 2.7982C67.8804 2.66306 68.1531 2.39278 68.5622 2.25764H68.6986C70.4714 1.31167 71.6987 0.90625 72.2442 0.90625C72.5169 0.90625 72.7897 1.04139 72.926 1.31167V3.06848V29.2855C72.926 29.6909 72.926 29.9612 73.0624 30.2315C73.1988 30.5018 73.3351 30.6369 73.4715 30.6369C73.6079 30.6369 73.8806 30.7721 74.1534 30.9072C74.9716 31.1775 75.3807 31.5829 75.3807 31.9883C75.3807 32.2586 75.2443 32.5289 74.9716 32.664C74.6988 32.7991 74.2897 32.7991 73.6079 32.7991H68.9713C68.2895 32.7991 68.0168 32.7991 67.744 32.664C67.4713 32.5289 67.4713 32.3937 67.4713 32.1234C67.4713 31.8532 67.4713 31.718 67.6077 31.5829C67.744 31.4477 68.0168 31.3126 68.2895 31.1775C68.4259 31.1775 68.5622 31.0423 68.6986 30.9072C69.2441 30.6369 69.5168 30.2315 69.5168 29.4207L69.6532 6.31183Z" fill="#231F20"/>
<path d="M64.6067 27.9301C64.4704 27.7949 64.334 27.6598 64.0613 27.6598C63.7885 27.6598 63.3794 27.9301 62.6976 28.4706C62.1521 28.8761 61.743 29.1463 61.3339 29.4166C60.652 29.822 59.8338 30.2274 59.0156 30.3626C58.3338 30.6329 57.3792 30.6329 56.561 30.6329C56.1519 30.6329 55.7428 30.6329 55.47 30.4977C54.3791 30.3626 53.2881 29.822 52.4699 29.1463C51.2426 28.2004 50.5607 26.849 50.1516 25.2273C52.0608 24.957 53.8336 24.8219 55.47 24.4165C57.7883 24.011 59.6975 23.3353 61.0611 22.6596C63.3794 21.4434 64.6067 19.8217 64.6067 17.7946C64.6067 16.0378 63.9249 14.6864 62.6976 13.7404C61.4703 12.7945 59.6975 12.2539 57.2428 12.2539C56.561 12.2539 56.0155 12.2539 55.47 12.389C53.1518 12.6593 51.2426 13.7404 49.4698 15.4973C47.2879 17.6595 46.3333 20.3623 46.3333 23.6056C46.3333 26.5787 47.2879 28.8761 49.0607 30.6329C50.6971 32.2545 52.879 33.2005 55.47 33.3357H56.1519C57.1064 33.3357 58.061 33.2005 59.0156 32.9302C59.9702 32.66 60.7884 32.3897 61.6066 31.8491C62.5612 31.3086 63.3794 30.6329 63.9249 30.0923C64.4704 29.4166 64.8795 29.0112 64.8795 28.4706C64.8795 28.3355 64.7431 28.2004 64.6067 27.9301ZM49.8789 22.9299C49.8789 20.3623 50.5607 18.3352 51.9244 16.7135C52.879 15.4973 54.1063 14.8216 55.47 14.4161C55.8791 14.281 56.4246 14.281 56.9701 14.281C58.1974 14.281 59.2883 14.5513 59.9702 15.227C60.652 15.7675 61.0611 16.5784 61.0611 17.6595C61.0611 19.2812 60.1066 20.4974 58.3338 21.3082C57.5156 21.7137 56.561 21.9839 55.47 22.3894C53.97 22.7948 52.0608 23.0651 49.8789 23.3353V22.9299Z" fill="#231F20"/>
<path d="M36.9218 30.0976V15.3674H35.5581C34.8763 15.3674 34.3308 15.2323 34.0581 15.0971C33.7854 14.962 33.649 14.5566 33.649 14.1512C33.649 13.8809 33.7854 13.6106 33.9217 13.3403C34.0581 13.2052 34.3308 13.07 34.6036 12.9349H35.149C36.1036 12.7998 36.6491 12.6646 36.9218 12.3944C37.1946 12.1241 37.4673 10.9078 37.74 8.88073C37.74 8.34017 37.8764 7.93475 37.8764 7.52933V6.85364C38.0128 5.50224 38.5583 4.69141 39.2401 4.69141C39.5128 4.69141 39.7856 4.82655 39.922 4.96168C40.1947 5.3671 40.1947 5.90766 40.1947 6.98878V12.7998H43.1948C43.8766 12.7998 44.4221 12.9349 44.6949 13.07C44.9676 13.2052 45.104 13.6106 45.104 14.016C45.104 14.4214 44.9676 14.6917 44.6949 14.962C44.4221 15.0971 43.8766 15.2323 43.1948 15.2323H40.1947V27.6651C40.1947 28.4759 40.1947 29.1516 40.3311 29.4219C40.4674 29.8273 40.7402 30.0976 41.0129 30.0976C41.422 30.2328 42.2402 30.3679 43.3312 30.3679C44.4221 30.3679 45.104 30.7733 45.104 31.3139C45.104 31.7193 44.9676 32.1247 44.6949 32.2598C44.4221 32.395 43.7403 32.5301 42.6493 32.5301H38.5583C37.74 32.5301 37.3309 32.395 37.0582 32.1247C37.0582 32.1247 36.9218 31.3139 36.9218 30.0976Z" fill="#231F20"/>
<path d="M12.926 29.1463V19.5514C12.926 18.2 12.926 17.2541 12.7896 16.9838C12.6532 16.5784 12.5169 16.3081 12.2441 16.0378C12.1078 15.9027 11.6986 15.7675 11.2895 15.4973C10.8804 15.3621 10.6077 15.0918 10.6077 14.6864C10.6077 14.281 11.0168 13.8756 11.835 13.1999C12.6532 12.5242 13.4714 12.2539 14.0169 12.2539C14.426 12.2539 14.6988 12.5242 15.1079 13.1999C15.3806 13.7404 15.6533 14.6864 15.9261 15.7675C16.8807 14.5513 17.8352 13.7404 19.0626 13.1999C20.2899 12.6593 21.5172 12.2539 22.8809 12.2539C25.1992 12.2539 27.1083 13.0647 28.1993 14.5513C29.4266 16.0378 29.9721 18.4703 29.9721 21.5785V29.1463C29.9721 29.5517 29.9721 29.9572 30.1084 30.0923C30.1084 30.3626 30.2448 30.3626 30.3812 30.4977C30.5175 30.6329 30.6539 30.768 30.9267 30.768C31.4721 31.0383 31.7449 31.4437 31.7449 31.714C31.7449 31.9843 31.6085 32.1194 31.4721 32.2545C31.1994 32.3897 30.7903 32.3897 30.3812 32.3897H26.0174C25.4719 32.3897 25.0628 32.3897 24.9264 32.2545C24.6537 32.1194 24.6537 31.9843 24.6537 31.714C24.6537 31.3086 24.9264 31.0383 25.3355 30.9031C25.4719 30.9031 25.6083 30.768 25.6083 30.768C26.1537 30.4977 26.4265 30.3626 26.5628 30.0923C26.6992 29.9572 26.6992 29.5517 26.6992 28.876V21.7137C26.6992 19.4163 26.2901 17.6595 25.4719 16.5784C24.6537 15.4973 23.4264 14.9567 21.6536 14.9567C20.0171 14.9567 18.6535 15.4973 17.6989 16.3081C16.7443 17.2541 16.1988 18.4703 16.1988 20.092V29.6869V30.3626C16.1988 30.4977 16.3352 30.6329 16.4716 30.6329C16.6079 30.768 16.7443 30.9031 17.1534 30.9031C17.6989 31.1734 17.9716 31.4437 17.9716 31.8491C17.9716 32.1194 17.8352 32.3897 17.6989 32.5248C17.4261 32.66 17.017 32.66 16.4716 32.66H12.5169C11.9714 32.66 11.5623 32.66 11.4259 32.5248C11.2895 32.3897 11.1532 32.2545 11.1532 31.9843C11.1532 31.714 11.1532 31.5788 11.2895 31.4437C11.4259 31.3086 11.5623 31.1734 11.9714 30.9031C11.9714 30.9031 12.1078 30.9031 12.2441 30.768C12.6532 30.6329 12.926 30.0923 12.926 29.1463Z" fill="#231F20"/>
<path d="M2.42517 17.66C2.42517 17.1194 2.42517 16.8491 2.2888 16.5789C2.15243 16.3086 2.01606 16.1734 1.60696 15.9032C1.47059 15.9032 1.33422 15.768 1.06148 15.6329C0.516007 15.3626 0.379639 15.0923 0.379639 14.822C0.379639 14.5518 0.379639 14.4166 0.652376 14.2815C0.788745 14.1463 1.06148 13.8761 1.47059 13.7409L1.60696 13.6058C3.24338 12.6598 4.4707 12.2544 5.01618 12.2544C5.28892 12.2544 5.56165 12.3895 5.69802 12.6598C5.83439 12.9301 5.83439 13.4706 5.83439 14.5518V29.282C5.83439 29.6874 5.83439 29.9577 5.97076 30.2279C6.10713 30.4982 6.2435 30.6334 6.37987 30.6334C6.6526 30.7685 6.78897 30.7685 7.06171 30.9036C7.74355 31.1739 8.15266 31.5793 8.15266 31.9847C8.15266 32.255 8.01629 32.5253 7.74355 32.6604C7.47082 32.7956 7.06171 32.7956 6.37987 32.7956H1.8797C1.19785 32.7956 0.925114 32.7956 0.652376 32.6604C0.379639 32.5253 0.379639 32.3902 0.379639 32.1199C0.379639 31.8496 0.379639 31.7145 0.516007 31.5793C0.652376 31.309 0.788745 31.1739 1.06148 31.0388C1.19785 31.0388 1.33422 30.9036 1.47059 30.7685C2.01606 30.4982 2.2888 30.0928 2.2888 29.282L2.42517 17.66Z" fill="#231F20"/>
<path d="M1.33392 6.17836C1.33392 5.36752 1.60666 4.82696 2.01577 4.42155C2.42487 4.01613 3.10672 3.74585 3.78856 3.74585C4.47041 3.74585 5.15225 4.01613 5.56136 4.42155C5.97046 4.9621 6.2432 5.50266 6.2432 6.17836C6.2432 6.85406 5.97046 7.52975 5.56136 7.93517C5.15225 8.34059 4.47041 8.61087 3.78856 8.61087C2.97035 8.61087 2.42487 8.34059 2.01577 7.93517C1.47029 7.52975 1.33392 6.9892 1.33392 6.17836Z" fill="#EA2227"/>
</svg>
