<svg xmlns="http://www.w3.org/2000/svg" width="176" height="34" fill="none" xmlns:v="https://vecta.io/nano"><path d="M18.42.958V14.5c0 .535-.447.96-.983.96h-1.966c-.547 0-.983-.436-.983-.96V5.3c0-.687-.715-1.157-1.363-.895L.614 9.425c-.37.153-.614.502-.614.895v22.13c0 .535.447.96.983.96h12.51c.547 0 .983-.437.983-.96v-8.457c0-.535.447-.96.983-.96h1.966c.547 0 .983.437.983.96v8.457c0 .535.447.96.983.96h12.51c.547 0 .983-.437.983-.96V5.988c0-.393-.246-.742-.614-.895L19.76.074c-.625-.262-1.34.207-1.34.884z" fill="#3ecfaf"/><path d="M66.88 29.198v3.394c0 .426-.357.775-.793.775H50.783c-.436 0-.793-.35-.793-.775V8.858c0-.426.358-.775.793-.775h3.888c.436 0 .793.35.793.775v19.554h10.624c.436.01.793.35.793.786zm21.184.23v3.252c0 .382-.313.688-.704.688h-1.888c-2.078 0-3.206-.676-3.54-2.248a.19.19 0 0 0-.335-.065c-1.005 1.648-3.083 2.706-5.92 2.706-4.144 0-6.77-2.237-6.77-5.707 0-3.535 2.737-5.707 7.987-5.707h4.3V21.8c0-2.02-1.04-2.957-3.217-2.957a6.73 6.73 0 0 0-4.368 1.593c-.3.24-.726.25-.994-.022l-2.1-2.15c-.257-.262-.268-.687-.01-.938 1.843-1.8 4.67-2.88 7.875-2.88 5.072 0 7.876 2.673 7.876 7.147v7.038c0 .6.2.797.704.797h1.106zm-6.88-3.252v-.578H77.42c-2.335 0-3.33.72-3.33 2.17 0 1.408.96 2.204 2.85 2.204 2.58 0 4.245-1.517 4.245-3.797zm32.202-17.317V32.6c0 .426-.357.775-.793.775h-3.854c-.436 0-.793-.35-.793-.775v-9.7H97.278c-.436 0-.793.35-.793.775v8.926c0 .426-.358.775-.793.775h-3.888c-.436 0-.793-.35-.793-.775V8.858c0-.426.358-.775.793-.775h3.888c.436 0 .793.35.793.775v9.122h10.67c.435 0 .793-.35.793-.775V8.858c0-.426.357-.775.793-.775h3.854a.78.78 0 0 1 .793.775zm42.704 6.787v17.023a.71.71 0 0 1-.714.698h-3.7c-.4 0-.715-.316-.715-.698V30.66c-1.04 1.953-3.296 3.22-6.066 3.22-3.955 0-6.178-2.488-6.178-6.864v-11.37c0-.382.324-.698.715-.698h3.82c.4 0 .715.316.715.698v10.028c0 2.38.782 3.536 2.96 3.536 2.402 0 3.92-1.375 3.92-3.863v-9.7c0-.382.324-.698.715-.698h3.82c.402 0 .714.316.714.698zm3.4 14.425l1.664-2.193c.257-.338.75-.415 1.084-.153 1.497 1.157 3.575 1.888 5.63 1.888 1.854 0 2.85-.6 2.85-1.55 0-.797-.67-1.3-2.257-1.66l-3.14-.72c-3.954-.938-5.507-2.75-5.507-5.27 0-3.503 2.96-5.958 7.954-5.958 2.993 0 5.63.884 7.372 2.324.313.262.38.7.134 1.037l-1.698 2.26c-.245.327-.715.393-1.06.164-1.608-1.037-3.24-1.484-4.814-1.484-1.8 0-2.66.578-2.66 1.484 0 .655.558 1.124 2.223 1.484l3.25.753c4.032.938 5.473 2.75 5.473 5.314 0 3.72-2.993 6.1-8.132 6.1-3.418 0-6.4-1.047-8.278-2.826a.72.72 0 0 1-.09-.993zm-23.482-.643v3.252c0 .382-.313.688-.704.688h-1.888c-2.078 0-3.206-.676-3.54-2.248a.19.19 0 0 0-.335-.065c-1.006 1.648-3.084 2.706-5.92 2.706-4.144 0-6.77-2.237-6.77-5.707 0-3.535 2.737-5.707 7.988-5.707h4.3V21.8c0-2.02-1.04-2.957-3.217-2.957a6.73 6.73 0 0 0-4.368 1.593c-.3.24-.726.25-.994-.022l-2.1-2.15c-.257-.262-.268-.687-.01-.938 1.843-1.8 4.67-2.88 7.875-2.88 5.072 0 7.876 2.673 7.876 7.147v7.038c0 .6.2.797.704.797h1.106zm-6.882-3.252v-.578h-3.776c-2.334 0-3.328.72-3.328 2.17 0 1.408.96 2.204 2.848 2.204 2.592 0 4.256-1.517 4.256-3.797z" fill="#012d26"/></svg>