<svg xmlns="http://www.w3.org/2000/svg" width="31.071" height="34.46" viewBox="0 0 31.071 34.46">
  <path id="Контур_108" data-name="Контур 108" d="M157.375,313.663l-10.95-6.322a4.589,4.589,0,0,0-4.587,0l-10.949,6.322a4.585,4.585,0,0,0-2.293,3.971v12.645a4.585,4.585,0,0,0,2.293,3.971l10.949,6.322a4.589,4.589,0,0,0,4.587,0l10.95-6.322a4.584,4.584,0,0,0,2.292-3.971V317.634A4.584,4.584,0,0,0,157.375,313.663Zm-23.693,18.02a1.983,1.983,0,0,1-1.5-3.283l10.449-12.065a1.984,1.984,0,0,1,3,2.6L135.184,331A1.976,1.976,0,0,1,133.682,331.683Zm22.195-.477a1.986,1.986,0,0,1-2.8-.216l-5-5.845-5,5.845a1.984,1.984,0,0,1-3.015-2.581l6.469-7.556c.016-.02.035-.04.052-.06a1.884,1.884,0,0,1,.131-.137l.024-.023c.05-.046.1-.089.154-.129l.007-.005c.027-.02.056-.04.085-.059s.061-.039.091-.058l.009-.006a2.093,2.093,0,0,1,.279-.132c.032-.012.065-.024.1-.035l.073-.023c.043-.012.086-.022.13-.032s.068-.014.1-.019.06-.01.09-.012l.027,0,.051,0a.383.383,0,0,1,.057,0,1.688,1.688,0,0,1,.174,0,.361.361,0,0,1,.056,0l.052,0a.127.127,0,0,1,.027,0c.03,0,.06.007.09.012s.069.012.1.019a.774.774,0,0,1,.1.023.3.3,0,0,1,.043.012l.065.02c.03.009.06.019.088.03l.023.009c.029.011.058.024.087.037a1.9,1.9,0,0,1,.381.226l.074.059c.027.023.055.048.082.073s.053.051.079.078.051.055.075.083a.144.144,0,0,1,.023.027l6.486,7.578A1.982,1.982,0,0,1,155.877,331.206Z" transform="translate(-128.596 -306.727)" fill="#19e57f"/>
</svg>
