<svg width="415" height="112" viewBox="0 0 415 112" fill="none" xmlns="http://www.w3.org/2000/svg">
<path d="M29.6 64.4026H0.0400391C0.0400391 64.5426 0.0400395 64.6926 0.0600395 64.8326C0.0700395 65.1126 0.0900388 65.3926 0.110039 65.6626C0.110039 65.7826 0.120039 65.9026 0.130039 66.0226C0.150039 66.3426 0.180041 66.6626 0.210041 66.9826C0.210041 67.0526 0.220038 67.1226 0.230038 67.2026C0.260038 67.5626 0.30004 67.9126 0.35004 68.2726C0.35004 68.3126 0.350039 68.3426 0.360039 68.3726C0.410039 68.7526 0.46004 69.1326 0.51004 69.5126C0.51004 69.5126 0.51004 69.5126 0.51004 69.5226C0.85004 71.8826 1.36004 74.2126 2.04004 76.5026C2.04004 76.5026 2.04004 76.5226 2.04004 76.5326C2.15004 76.8926 2.26004 77.2526 2.37004 77.6126C2.37004 77.6326 2.38004 77.6526 2.39004 77.6726C2.40004 77.6926 2.40004 77.7126 2.41004 77.7326C2.51004 78.0526 2.62004 78.3726 2.74004 78.7026C2.77004 78.7826 2.80004 78.8626 2.83004 78.9426C2.93004 79.2226 3.03004 79.5026 3.13004 79.7826C3.18004 79.9126 3.23004 80.0326 3.27004 80.1626C3.36004 80.3926 3.45004 80.6226 3.54004 80.8526C3.61004 81.0226 3.68004 81.2026 3.75004 81.3726C3.82004 81.5526 3.90004 81.7326 3.98004 81.9126C4.07004 82.1326 4.17004 82.3526 4.27004 82.5726C4.33004 82.7026 4.39004 82.8326 4.45004 82.9626C4.57004 83.2226 4.69004 83.4926 4.82004 83.7526C4.86004 83.8326 4.90004 83.9226 4.94004 84.0026C5.08004 84.3026 5.23004 84.6026 5.38004 84.9026C5.41004 84.9526 5.43004 84.9926 5.45004 85.0426C5.62004 85.3726 5.79004 85.7026 5.97004 86.0226C5.97004 86.0326 5.99004 86.0526 5.99004 86.0626C6.03004 86.1326 6.07004 86.1926 6.11004 86.2626L31.35 71.0526L31.44 70.9926C30.44 68.8926 29.82 66.6626 29.59 64.3926L29.6 64.4026Z" fill="#93D500"/>
<path d="M36.86 77.9729L36.79 78.0429L15.97 98.8629C16.08 98.9629 16.18 99.0629 16.29 99.1629C16.48 99.3429 16.68 99.5129 16.88 99.6829C16.98 99.7729 17.08 99.8629 17.18 99.9529C17.42 100.153 17.65 100.353 17.89 100.553C17.95 100.603 18.02 100.663 18.08 100.713C18.35 100.933 18.62 101.153 18.89 101.363C18.92 101.393 18.96 101.423 18.99 101.443C19.29 101.673 19.58 101.903 19.88 102.133C19.89 102.133 19.9 102.153 19.91 102.153C21.16 103.093 22.46 103.973 23.8 104.783C23.85 104.813 23.89 104.843 23.94 104.863C24.19 105.013 24.45 105.163 24.71 105.313C24.87 105.403 25.02 105.493 25.18 105.583C25.33 105.673 25.48 105.753 25.63 105.833C25.9 105.983 26.17 106.133 26.44 106.273C26.48 106.293 26.51 106.313 26.55 106.333C27.31 106.733 28.08 107.093 28.85 107.453L29.59 105.663L40.06 80.2329L40.1 80.1429C38.96 79.5329 37.86 78.8129 36.83 77.9629L36.86 77.9729Z" fill="#4D5A31"/>
<path d="M34.7 75.8927C34.48 75.6427 34.26 75.3827 34.05 75.1227C33.86 74.8927 33.68 74.6627 33.51 74.4227C33.31 74.1527 33.12 73.8827 32.93 73.6027C32.74 73.3227 32.56 73.0427 32.39 72.7627L7.12 87.9927C7.51 88.6327 7.90999 89.2627 8.32999 89.8827C8.33999 89.9027 8.36 89.9227 8.37 89.9527C8.37 89.9527 8.36999 89.9727 8.37999 89.9727C8.38999 89.9927 8.40999 90.0127 8.41999 90.0327C8.44999 90.0827 8.48999 90.1327 8.51999 90.1827C8.95999 90.8327 9.41 91.4727 9.87 92.0927C9.88 92.1027 9.88999 92.1227 9.89999 92.1327C9.89999 92.1427 9.91999 92.1627 9.92999 92.1727C10.13 92.4427 10.33 92.7127 10.54 92.9727C10.57 93.0027 10.59 93.0427 10.62 93.0727C10.83 93.3427 11.05 93.6127 11.27 93.8827C11.32 93.9427 11.38 94.0127 11.43 94.0727C11.63 94.3127 11.83 94.5527 12.03 94.7827C12.12 94.8827 12.21 94.9827 12.3 95.0827C12.47 95.2827 12.65 95.4727 12.82 95.6727C12.92 95.7827 13.02 95.8827 13.12 95.9927C13.17 96.0427 13.21 96.0927 13.25 96.1427C13.38 96.2827 13.51 96.4227 13.64 96.5627C13.69 96.6227 13.75 96.6727 13.8 96.7227C14.03 96.9627 14.26 97.2027 14.5 97.4427L35.35 76.5927C35.11 76.3527 34.89 76.1127 34.67 75.8627L34.7 75.8927Z" fill="#6BA43A"/>
<path d="M62.33 77.9629C62.1 78.1529 61.87 78.3329 61.63 78.5029L61.68 78.5929L76.88 103.823C77.58 103.363 78.28 102.893 78.96 102.393C80.43 101.313 81.86 100.133 83.23 98.8629L62.41 78.0429L62.33 77.9629Z" fill="#4D5A31"/>
<path d="M74.68 104.033L74.16 103.173L59.97 79.6128C59.68 79.7828 59.39 79.9428 59.1 80.1028C58.8 80.2628 58.51 80.4128 58.2 80.5528C55.47 81.8428 52.52 82.5028 49.57 82.5028C47.63 82.5028 45.7 82.2228 43.83 81.6628C43.51 81.5628 43.2 81.4428 42.89 81.3328C42.58 81.2228 42.26 81.1228 41.95 81.0028L31.49 106.413L31.08 107.413L30.73 108.263C30.73 108.263 30.78 108.283 30.81 108.303C30.84 108.313 30.87 108.323 30.9 108.333C30.9 108.333 30.91 108.333 30.92 108.333C31.17 108.433 31.42 108.523 31.66 108.613C31.97 108.733 32.28 108.853 32.59 108.973C32.75 109.033 32.91 109.103 33.07 109.153C36.35 110.313 39.74 111.123 43.19 111.573C43.32 111.593 43.46 111.613 43.59 111.623C43.73 111.643 43.87 111.653 44.01 111.673C44.28 111.703 44.54 111.733 44.81 111.763C44.88 111.763 44.94 111.773 45.01 111.783C45.34 111.813 45.66 111.843 45.99 111.863C46.1 111.863 46.21 111.873 46.32 111.883C46.61 111.903 46.89 111.923 47.18 111.933C47.36 111.933 47.53 111.943 47.71 111.953C47.94 111.953 48.16 111.973 48.39 111.973C48.72 111.973 49.05 111.983 49.38 111.983C49.46 111.983 49.54 111.983 49.61 111.983C52.37 111.983 55.12 111.753 57.84 111.293C57.84 111.293 57.93 111.283 57.98 111.273C58.27 111.223 58.56 111.173 58.84 111.113C59 111.083 59.17 111.053 59.33 111.023C59.5 110.993 59.67 110.953 59.84 110.913C60.12 110.853 60.4 110.793 60.68 110.733C60.73 110.723 60.78 110.713 60.83 110.703C64.97 109.733 68.97 108.243 72.73 106.263C72.98 106.133 73.22 105.983 73.46 105.853C73.75 105.693 74.04 105.533 74.33 105.363C74.53 105.243 74.73 105.143 74.93 105.023C74.93 105.023 74.95 105.003 74.96 105.003C75.03 104.963 75.09 104.923 75.16 104.883L74.64 104.023L74.68 104.033Z" fill="#93D500"/>
<path d="M36.88 46.8424C37.11 46.6524 37.34 46.4724 37.58 46.3024L37.53 46.2124L22.33 20.9824C21.62 21.4424 20.93 21.9224 20.24 22.4224C18.77 23.5024 17.35 24.6824 15.98 25.9424L36.8 46.7624L36.88 46.8424Z" fill="#93D500"/>
<path d="M14.53 27.3325C14.29 27.5725 14.07 27.8125 13.84 28.0525C13.61 28.2925 13.37 28.5325 13.15 28.7725C11.61 30.4425 10.21 32.1825 8.94 33.9925C8.88 34.0825 8.82 34.1625 8.76 34.2525C8.62 34.4625 8.48 34.6725 8.34 34.8725C8.19 35.0925 8.05 35.3125 7.91 35.5325C7.86 35.6125 7.8 35.6925 7.75 35.7725C2.96 43.2825 0.390003 51.8025 0.0500031 60.4025C0.0400031 60.7325 0.0300005 61.0725 0.0200005 61.4025C0.0200005 61.7325 0 62.0725 0 62.4025H29.49C29.49 62.0725 29.52 61.7325 29.54 61.4025C29.56 61.0725 29.56 60.7325 29.59 60.4025C29.97 56.5625 31.45 52.8125 34.04 49.6625C34.25 49.4025 34.49 49.1625 34.71 48.9225C34.93 48.6725 35.14 48.4225 35.38 48.1825L14.53 27.3325Z" fill="#4D5A31"/>
<path d="M75.37 20.0125C75.37 20.0125 75.29 19.9625 75.25 19.9425C74.99 19.7825 74.73 19.6325 74.47 19.4725C74.32 19.3825 74.17 19.3025 74.01 19.2125C73.86 19.1225 73.7 19.0425 73.55 18.9525C73.28 18.8025 73.02 18.6625 72.75 18.5225C72.71 18.5025 72.67 18.4825 72.62 18.4525C70.89 17.5525 69.12 16.7525 67.3 16.0625C67.25 16.0425 67.21 16.0225 67.16 16.0125C66.77 15.8625 66.37 15.7225 65.97 15.5825C62.75 14.4625 59.42 13.6725 56.03 13.2225C55.89 13.2025 55.75 13.1825 55.62 13.1625C55.48 13.1425 55.34 13.1325 55.21 13.1125C54.94 13.0825 54.68 13.0525 54.41 13.0225C54.34 13.0225 54.26 13.0125 54.19 13.0025C53.87 12.9725 53.55 12.9425 53.24 12.9225C53.12 12.9225 52.99 12.9025 52.87 12.9025C52.6 12.8825 52.32 12.8625 52.05 12.8525C51.9 12.8525 51.76 12.8425 51.62 12.8325V42.2725V42.3925C53.14 42.5525 54.64 42.8725 56.1 43.3625L77.85 21.6125C77.04 21.0525 76.23 20.5125 75.39 20.0025L75.37 20.0125Z" fill="#4D5A31"/>
<path d="M48.61 12.8225C48.28 12.8225 47.94 12.8225 47.61 12.8425C45.52 12.9225 43.44 13.1425 41.38 13.4825C41.33 13.4825 41.29 13.4925 41.24 13.5025C40.95 13.5525 40.66 13.6025 40.38 13.6625C40.22 13.6925 40.05 13.7225 39.89 13.7525C39.72 13.7825 39.55 13.8225 39.38 13.8625C39.1 13.9225 38.82 13.9825 38.54 14.0425C38.49 14.0525 38.44 14.0625 38.39 14.0725C34.25 15.0425 30.25 16.5325 26.49 18.5125C26.24 18.6425 26.01 18.7925 25.76 18.9225C25.47 19.0825 25.18 19.2525 24.89 19.4125C24.67 19.5325 24.46 19.6525 24.24 19.7825C24.23 19.7825 24.21 19.8025 24.19 19.8125C24.13 19.8425 24.08 19.8725 24.02 19.9125L24.54 20.7725L39.25 45.1825C39.54 45.0125 39.83 44.8525 40.12 44.6925C40.42 44.5325 40.71 44.3825 41.02 44.2425C43.12 43.2425 45.35 42.6225 47.62 42.3925C47.95 42.3625 48.29 42.3325 48.62 42.3125C48.95 42.2925 49.29 42.2825 49.62 42.2825V12.7925C49.29 12.7925 48.95 12.8025 48.62 12.8125L48.61 12.8225Z" fill="#6BA43A"/>
<path d="M99.15 59.9626C99.14 59.7026 99.12 59.4326 99.1 59.1726C99.1 59.0426 99.08 58.9126 99.07 58.7726C99.05 58.4626 99.02 58.1526 98.99 57.8426C98.99 57.7626 98.98 57.6826 98.97 57.6026C98.94 57.2526 98.9 56.9026 98.86 56.5626C98.86 56.5326 98.86 56.5026 98.85 56.4826C98.85 56.4726 98.85 56.4526 98.85 56.4426C98.8 56.0626 98.75 55.6926 98.7 55.3226C98.7 55.3126 98.7 55.3026 98.7 55.2926C98.36 52.9426 97.85 50.6126 97.18 48.3226C97.18 48.3026 97.18 48.2926 97.17 48.2826C97.06 47.9226 96.95 47.5726 96.84 47.2226C96.82 47.1726 96.81 47.1326 96.8 47.0826C96.7 46.7626 96.59 46.4426 96.48 46.1326C96.45 46.0426 96.42 45.9626 96.39 45.8726C96.29 45.6026 96.19 45.3226 96.09 45.0526C96.04 44.9226 95.99 44.7926 95.94 44.6626C95.85 44.4326 95.76 44.2126 95.67 43.9826C95.6 43.8026 95.53 43.6226 95.45 43.4526C95.38 43.2726 95.3 43.1026 95.23 42.9226C95.13 42.7026 95.03 42.4726 94.94 42.2526C94.88 42.1226 94.83 42.0026 94.77 41.8726C94.65 41.6026 94.52 41.3426 94.4 41.0726C94.36 40.9926 94.32 40.9126 94.28 40.8326C94.13 40.5326 93.98 40.2226 93.83 39.9226C93.81 39.8826 93.79 39.8426 93.76 39.7926C93.59 39.4626 93.42 39.1326 93.24 38.8026C93.24 38.7926 93.23 38.7826 93.22 38.7626C92.36 37.1826 91.42 35.6526 90.4 34.1826L68.64 55.9426C69.14 57.4026 69.46 58.9026 69.61 60.4226H99.17C99.17 60.2726 99.17 60.1326 99.15 59.9826V59.9626Z" fill="#4D5A31"/>
<path d="M69.72 62.4026C69.72 62.7326 69.69 63.0726 69.67 63.4026C69.65 63.7326 69.65 64.0726 69.62 64.4026C69.24 68.2426 67.76 71.9926 65.17 75.1426C64.96 75.4026 64.72 75.6426 64.5 75.8826C64.28 76.1326 64.07 76.3826 63.83 76.6226L84.68 97.4726C84.92 97.2326 85.14 96.9926 85.37 96.7526C85.6 96.5126 85.84 96.2726 86.06 96.0326C87.6 94.3626 89.01 92.6126 90.28 90.7926C90.33 90.7226 90.38 90.6526 90.43 90.5826C90.59 90.3626 90.74 90.1326 90.89 89.9126C91.02 89.7126 91.16 89.5126 91.29 89.3026C91.35 89.2026 91.4199 89.1026 91.4799 89.0026C96.26 81.4926 98.82 72.9826 99.16 64.3926C99.17 64.0626 99.18 63.7226 99.19 63.3926C99.19 63.0626 99.21 62.7226 99.21 62.3926H69.72V62.4026Z" fill="#6BA43A"/>
<path d="M107.97 4.0425C102.58 -1.3475 93.83 -1.3475 88.43 4.0425C84.13 8.3425 83.2699 14.7825 85.8299 19.9425L55.7399 50.0325C50.5699 47.4725 44.14 48.3325 39.84 52.6325C34.44 58.0225 34.45 66.7725 39.84 72.1725C45.24 77.5725 53.98 77.5625 59.38 72.1725C63.68 67.8725 64.54 61.4325 61.98 56.2725L92.07 26.1825C97.24 28.7425 103.67 27.8825 107.97 23.5825C113.36 18.1925 113.36 9.4425 107.97 4.0425Z" fill="#424143"/>
<path d="M114.38 62.0028C114.38 47.2228 125.19 36.6328 140.05 36.6328C154.91 36.6328 165.64 47.2228 165.64 62.0028C165.64 76.7828 154.83 87.3728 140.05 87.3728C125.27 87.3728 114.38 76.7828 114.38 62.0028ZM154.9 62.0028C154.9 52.8128 149.09 45.8928 140.04 45.8928C130.99 45.8928 125.11 52.8028 125.11 62.0028C125.11 71.2028 130.92 78.1128 140.04 78.1128C149.16 78.1128 154.9 71.1228 154.9 62.0028Z" fill="#424143"/>
<path d="M171.15 86.4926V37.4326H194.1C204.76 37.4326 210.57 44.6426 210.57 53.2426C210.57 61.8426 204.69 68.9826 194.1 68.9826H181.6V86.4826H171.16L171.15 86.4926ZM199.91 53.2526C199.91 49.1326 196.75 46.6326 192.63 46.6326H181.6V59.7926H192.63C196.75 59.7926 199.91 57.2926 199.91 53.2426V53.2526Z" fill="#424143"/>
<path d="M215.28 86.4926V37.4326H250V46.6226H225.73V56.9226H249.49V66.1126H225.73V77.2926H250V86.4826H215.28V86.4926Z" fill="#424143"/>
<path d="M290.15 86.4926L266.76 54.5026V86.4926H256.31V37.4326H267.05L289.78 68.2526V37.4326H300.22V86.4926H290.14H290.15Z" fill="#424143"/>
<path d="M344.92 86.4926L341.83 78.1826H320.8L317.71 86.4926H305.87L324.77 37.4326H337.86L356.76 86.4926H344.92ZM331.31 47.8826L323.66 68.9926H338.96L331.31 47.8826Z" fill="#424143"/>
<path d="M359.48 86.4926V37.4326H382.43C393.09 37.4326 398.9 44.6426 398.9 53.2426C398.9 61.8426 393.01 68.9826 382.43 68.9826H369.93V86.4826H359.49L359.48 86.4926ZM388.24 53.2526C388.24 49.1326 385.08 46.6326 380.96 46.6326H369.93V59.7926H380.96C385.08 59.7926 388.24 57.2926 388.24 53.2426V53.2526Z" fill="#424143"/>
<path d="M403.61 86.4926V37.4326H414.05V86.4926H403.61Z" fill="#424143"/>
</svg>
