<svg width="41" height="40" viewBox="0 0 41 40" fill="none" xmlns="http://www.w3.org/2000/svg">
<path d="M35.5179 3.33862L32.0539 6.80262C29.7046 5.29929 26.5492 5.58062 24.4952 7.63529L20.1992 11.9446L28.8052 20.5506L33.1146 16.2546C35.1686 14.2006 35.4506 11.0453 33.9472 8.69596L37.4112 5.23196L35.5179 3.33862Z" fill="#4B2F9B"/>
<path d="M5.98318 36.6614L11.5012 31.1434C12.4678 31.7607 13.5818 32.0834 14.7638 32.0834C16.3885 32.0834 17.9192 31.452 19.0598 30.298L23.3692 25.988L22.0265 24.6454L24.7118 21.96L22.8185 20.0674L20.1332 22.7527L17.9985 20.618L20.6838 17.9327L18.7905 16.04L16.1052 18.7254L14.7625 17.3827L10.4532 21.6927C9.29851 22.834 8.66784 24.3647 8.66784 25.9887C8.66784 27.17 8.98984 28.2847 9.60784 29.2514L4.08984 34.7694L5.98318 36.6614Z" fill="#4B2F9B"/>
</svg>
