<svg width="36" height="36" viewBox="0 0 36 36" fill="none" xmlns="http://www.w3.org/2000/svg">
<path d="M19.3516 30.0325L20.9528 34.9988C21.1153 35.5238 21.7653 35.6863 22.1528 35.2988C24.5653 32.8863 28.5653 28.8238 28.8403 26.5988C28.9703 25.6463 28.6228 24.3788 28.2341 23.2588C25.8966 25.635 22.9853 27.9425 19.3516 30.0325Z" fill="#4B2F9B"/>
<path d="M12.9921 8.01756C11.8733 7.62881 10.6046 7.28131 9.65208 7.41131C7.42708 7.68631 3.36458 11.6863 0.952078 14.0988C0.564578 14.4863 0.727078 15.1363 1.25208 15.2988L6.21833 16.8988C8.30833 13.2663 10.6158 10.3551 12.9921 8.01756Z" fill="#4B2F9B"/>
<path d="M9.82656 31.9651C6.36906 33.9476 2.33906 33.9613 2.28906 33.9613C2.28906 33.9101 2.30156 29.8813 4.28531 26.4238L9.82656 31.9651Z" fill="#4B2F9B"/>
<path d="M25.0728 8.70752C24.4128 8.70752 23.7928 8.96502 23.3266 9.43127C22.8591 9.89877 22.6016 10.5188 22.6016 11.1788C22.6016 11.8388 22.8591 12.46 23.3266 12.9263C24.2578 13.8613 25.8866 13.8613 26.8203 12.9263C27.7841 11.9625 27.7841 10.395 26.8203 9.43127C26.3528 8.96502 25.7316 8.70752 25.0728 8.70752Z" fill="#4B2F9B"/>
<path d="M34.1785 0.487577C29.4785 0.576327 15.1335 2.43633 6.18854 20.9626C5.90104 21.5576 6.02604 22.2738 6.49354 22.7401L13.5098 29.7563C13.9773 30.2238 14.6923 30.3488 15.2873 30.0613C33.8148 21.1176 35.6748 6.77258 35.7635 2.07258C35.7798 1.18508 35.066 0.471327 34.1785 0.487577ZM28.411 14.5176C27.5185 15.4088 26.3335 15.9001 25.0723 15.9001C23.811 15.9001 22.6248 15.4088 21.7335 14.5176C20.8423 13.6263 20.351 12.4401 20.351 11.1788C20.351 9.91758 20.8435 8.73133 21.7335 7.84008C23.516 6.05758 26.626 6.05758 28.411 7.84008C30.251 9.68133 30.251 12.6763 28.411 14.5176Z" fill="#4B2F9B"/>
</svg>
