<svg xmlns="http://www.w3.org/2000/svg" width="36" height="36" viewBox="0 0 36 36" fill="none">
  <g clip-path="url(#clip0_1244_712)">
    <path d="M4.49902 13.4988H1.49902V29.9988C1.49902 31.6638 2.83402 32.9988 4.49902 32.9988H25.499C27.164 32.9988 28.499 31.6638 28.499 29.9988H4.49902V13.4988ZM26.999 7.49878V4.49878C26.999 2.83378 25.664 1.49878 23.999 1.49878H17.999C16.334 1.49878 14.999 2.83378 14.999 4.49878V7.49878H7.49902V23.9988C7.49902 25.6638 8.83402 26.9988 10.499 26.9988H31.499C33.164 26.9988 34.499 25.6638 34.499 23.9988V7.49878H26.999ZM17.999 4.49878H23.999V7.49878H17.999V4.49878ZM17.999 22.4988V11.9988L26.249 16.4988L17.999 22.4988Z" fill="#8E52F0"/>
  </g>
  <defs>
    <clipPath id="clip0_1244_712">
      <rect width="36" height="36" fill="white"/>
    </clipPath>
  </defs>
</svg>