<svg width="34" height="32" viewBox="0 0 34 32" fill="none" xmlns="http://www.w3.org/2000/svg">
<path d="M3.74805 12.4988H0.748047V28.9988C0.748047 30.6638 2.08305 31.9988 3.74805 31.9988H24.748C26.413 31.9988 27.748 30.6638 27.748 28.9988H3.74805V12.4988ZM26.248 6.49878V3.49878C26.248 1.83378 24.913 0.498779 23.248 0.498779H17.248C15.583 0.498779 14.248 1.83378 14.248 3.49878V6.49878H6.74805V22.9988C6.74805 24.6638 8.08305 25.9988 9.74804 25.9988H30.748C32.413 25.9988 33.748 24.6638 33.748 22.9988V6.49878H26.248ZM17.248 3.49878H23.248V6.49878H17.248V3.49878ZM17.248 21.4988V10.9988L25.498 15.4988L17.248 21.4988Z" fill="#4B2F9B"/>
</svg>
