<svg xmlns="http://www.w3.org/2000/svg" width="39" height="27" viewBox="0 0 39 27" fill="none">
  <path d="M27.7917 13.4167C30.4367 13.4167 32.5642 11.27 32.5642 8.625C32.5642 5.98 30.4367 3.83333 27.7917 3.83333C25.1467 3.83333 23 5.98 23 8.625C23 11.27 25.1467 13.4167 27.7917 13.4167ZM13.4167 11.5C16.5983 11.5 19.1475 8.93167 19.1475 5.75C19.1475 2.56833 16.5983 0 13.4167 0C10.235 0 7.66667 2.56833 7.66667 5.75C7.66667 8.93167 10.235 11.5 13.4167 11.5ZM27.7917 17.25C24.2842 17.25 17.25 19.0133 17.25 22.5208V26.8333H38.3333V22.5208C38.3333 19.0133 31.2992 17.25 27.7917 17.25ZM13.4167 15.3333C8.95083 15.3333 0 17.5758 0 22.0417V26.8333H13.4167V22.5208C13.4167 20.8917 14.0492 18.0358 17.9592 15.87C16.2917 15.525 14.6817 15.3333 13.4167 15.3333Z" fill="#8E52F0"/>
</svg>