<svg width="34" height="32" viewBox="0 0 39 28" fill="none" xmlns="http://www.w3.org/2000/svg">
<path d="M28.3756 13.9999C31.0206 13.9999 33.1481 11.8533 33.1481 9.20825C33.1481 6.56325 31.0206 4.41659 28.3756 4.41659C25.7306 4.41659 23.584 6.56325 23.584 9.20825C23.584 11.8533 25.7306 13.9999 28.3756 13.9999ZM14.0006 12.0833C17.1823 12.0833 19.7315 9.51492 19.7315 6.33325C19.7315 3.15159 17.1823 0.583252 14.0006 0.583252C10.819 0.583252 8.25065 3.15159 8.25065 6.33325C8.25065 9.51492 10.819 12.0833 14.0006 12.0833ZM28.3756 17.8333C24.8681 17.8333 17.834 19.5966 17.834 23.1041V27.4166H38.9173V23.1041C38.9173 19.5966 31.8831 17.8333 28.3756 17.8333ZM14.0006 15.9166C9.53482 15.9166 0.583984 18.1591 0.583984 22.6249V27.4166H14.0006V23.1041C14.0006 21.4749 14.6331 18.6191 18.5431 16.4533C16.8756 16.1083 15.2656 15.9166 14.0006 15.9166Z" fill="#4B2F9B"/>
</svg>
