<svg width="60" height="43" viewBox="0 0 60 43" fill="none" xmlns="http://www.w3.org/2000/svg">
<path d="M14.5404 0L21.5599 5.33333C16.7131 10.3333 13.7047 15.6667 12.3677 20.8333C18.3844 20.8333 23.2312 25.8333 23.2312 32C23.2312 37.8333 18.3844 43 12.0334 43C4.67967 43 0 36.3333 0 27.1667C0 19.3333 3.84401 12.1667 14.5404 0ZM51.3092 0L58.3287 5.33333C53.4819 10.3333 50.4735 15.6667 49.1365 20.8333C55.1532 20.8333 60 25.8333 60 32C60 37.8333 55.1532 43 48.8022 43C41.4485 43 36.7688 36.3333 36.7688 27.1667C36.7688 19.3333 40.6128 12.1667 51.3092 0Z" fill="#8D6AF1"/>
</svg>
