<svg width="66" height="20" viewBox="0 0 66 20" fill="none" xmlns="http://www.w3.org/2000/svg">
<g clip-path="url(#clip0_1902_4017)">
<path d="M52.5781 15.7696H13.064L16.2123 18.8149L52.5781 15.7696ZM16.7251 3.44536V3.89486C16.054 3.43322 15.2522 3.18311 14.429 3.17862C11.6608 3.17862 9.55859 5.62372 9.55859 8.62452C9.55859 11.6253 11.6608 14.0704 14.429 14.0704C15.2522 14.0659 16.054 13.8158 16.7251 13.3542V13.8136H19.159V3.44042L16.7251 3.44536ZM14.429 11.5784C13.064 11.5784 12.0639 10.2793 12.0639 8.6344C12.0639 6.98951 13.064 5.6904 14.429 5.6904C15.7939 5.6904 16.7583 6.99198 16.7583 8.6344C16.7583 10.2768 15.799 11.5784 14.4315 11.5784H14.429ZM36.2194 3.44536V9.54081C36.2194 10.6868 35.4055 11.6525 34.2243 11.6525C33.043 11.6525 32.2317 10.6868 32.2317 9.54081V3.44536H29.7953V9.54081C29.7953 12.0427 31.5633 14.0803 34.1477 14.0803C34.8879 14.0695 35.6081 13.846 36.2168 13.4382V13.8234H38.6482V3.4503L36.2194 3.44536ZM58.8925 13.8234V7.72551C58.8925 6.582 59.7038 5.61631 60.8876 5.61631C62.0714 5.61631 62.8801 6.582 62.8801 7.72551V13.8234H65.314V7.72551C65.314 5.22361 63.546 3.1885 60.9616 3.1885C60.2214 3.19934 59.5012 3.42285 58.8925 3.83065V3.44536H56.4586V13.8185L58.8925 13.8234Z" fill="#252B37"/>
<path d="M2.54617 13.8234V9.80262H4.33206L7.46246 13.8234H10.6592L6.88077 8.97277C7.67963 8.42387 8.27747 7.64325 8.58787 6.74376C8.89826 5.84428 8.90512 4.87255 8.60746 3.96904C8.3098 3.06553 7.72304 2.27707 6.93201 1.71765C6.14098 1.15823 5.18667 0.856824 4.20704 0.857019H0V13.8234H2.54617ZM2.54617 3.31941H4.20704C4.75783 3.31941 5.28605 3.53122 5.67552 3.90824C6.06498 4.28527 6.28378 4.79662 6.28378 5.32982C6.28378 5.86301 6.06498 6.37437 5.67552 6.7514C5.28605 7.12842 4.75783 7.34023 4.20704 7.34023H2.54617V3.31941ZM45.2085 11.3685C44.9689 11.5278 44.6854 11.6139 44.3946 11.6154C43.9966 11.6154 43.2491 11.3215 43.2491 10.3435V5.89787H45.3284V3.42808H43.2491V0.857019H40.8152V3.44536H39.5396V5.91516H40.8152V10.3929C40.8152 12.712 42.6164 14.0976 44.4329 14.0976C45.2701 14.0754 46.0882 13.8513 46.8133 13.4456L45.2085 11.3685ZM25.2065 8.30839L29.3804 3.44289H25.9694L23.0507 7.06115V0H20.5428V13.8234H23.0507V9.56058L26.6378 13.8234H30.0489L25.2065 8.30839Z" fill="#252B37"/>
<path d="M50.8277 3.1811C48.0214 3.1811 45.9805 5.5768 45.9805 8.63441C45.9805 11.8451 48.5163 14.0877 51.0598 14.0877C52.3354 14.0877 53.9886 13.6629 55.3688 11.7636L53.2309 10.5633C51.5675 12.9343 48.797 11.7315 48.4781 9.36053H55.4887C56.0882 5.62373 53.5982 3.1811 50.8277 3.1811ZM52.9528 7.29331H48.5699C49.0827 4.86303 52.4783 4.72473 52.9528 7.29331Z" fill="#252B37"/>
</g>
<defs>
<clipPath id="clip0_1902_4017">
<rect width="65.3125" height="19.0174" fill="white"/>
</clipPath>
</defs>
</svg>
