<svg width="58" height="13" viewBox="0 0 58 13" fill="none" xmlns="http://www.w3.org/2000/svg">
<path d="M43.0988 10.897C43.3281 10.7212 43.6146 10.4869 43.8439 10.3111C46.1364 8.49495 48.5435 6.6202 48.5435 3.92525C48.5435 1.75758 47.0534 0.29293 44.8755 0.29293C42.9842 0.29293 40.9209 1.58182 40.9209 4.45253V4.86263L42.4684 4.27677C42.4684 2.69495 43.6146 1.87475 44.7609 1.87475C45.8498 1.87475 46.996 2.57778 46.996 4.1596C46.996 6.2101 44.9328 7.8505 42.0672 10.0768C41.666 10.3697 41.2648 10.7212 40.8063 11.0727V12.596H48.8874V10.9556L43.0988 10.897ZM4.47036 5.56566L4.35573 5.50707C3.09486 4.9798 2.17787 4.51111 2.17787 3.33939C2.17787 2.16768 3.09486 1.58182 3.95455 1.58182C4.64229 1.58182 5.55929 1.99192 5.90316 2.81212L7.39328 2.22626V2.16768C6.82016 0.644445 5.27273 0 3.95455 0C2.29249 0 0.458498 1.11313 0.458498 3.45657C0.458498 5.8 2.17787 6.50303 3.61067 7.08889L3.78261 7.14747C5.21542 7.73333 6.13241 8.26061 6.13241 9.43232C6.13241 10.6626 5.10079 11.2485 4.12648 11.2485C3.15217 11.2485 1.94862 10.7212 1.60474 9.19798V9.13939L0 9.78384C0.458498 11.6586 2.06324 12.8889 4.06917 12.8889C5.10079 12.8889 6.01779 12.596 6.70553 12.0101C7.5079 11.3657 7.90909 10.4283 7.90909 9.31515C7.90909 6.97172 6.0751 6.2101 4.47036 5.56566ZM21.3775 3.39798C18.913 3.39798 17.0791 5.3899 17.0791 8.08485C17.0791 10.7798 18.8557 12.7717 21.3775 12.7717C23.8992 12.7717 25.6759 10.7798 25.6759 8.08485C25.6759 5.3899 23.8419 3.39798 21.3775 3.39798ZM24.0711 8.08485C24.0711 10.1354 22.6957 11.2485 21.3775 11.2485C20.002 11.2485 18.6265 10.1354 18.6265 8.08485C18.6265 6.26869 19.7727 4.92121 21.3775 4.92121C22.9249 4.92121 24.0711 6.26869 24.0711 8.08485ZM32.2095 8.78788C32.2095 10.4283 31.0059 11.3071 29.917 11.3071C29.0573 11.3071 28.1403 10.7798 28.1403 9.37374V3.69091H26.5929V9.37374C26.5929 11.8929 28.1976 12.8303 29.5731 12.8303C30.6621 12.8303 31.6364 12.303 32.1522 11.4242L32.4387 12.6545H33.6996V3.63232H32.1522L32.2095 8.78788ZM37.7688 1.11313L36.2213 1.69899V3.63232H34.7885V5.03838H36.2213V9.90101C36.2213 12.3616 37.5968 12.7131 38.3992 12.7131C38.8004 12.7131 39.1443 12.6545 39.5455 12.5374H39.6028V10.9556L39.4881 11.0141C39.2589 11.1899 39.0296 11.2485 38.7431 11.2485C38.1126 11.2485 37.7688 10.7798 37.7688 10.0182V5.03838H39.6028V3.63232H37.7688V1.11313ZM55.9368 7.96768V4.33535L54.3893 4.92121V7.96768H50.836L55.1344 0.468687H53.415L48.8874 8.37778V9.54949H54.3893V12.5374H55.9368V9.54949H58V7.96768H55.9368ZM15.2451 9.84242C14.7866 10.6626 13.9269 11.2485 13.0099 11.2485C11.6917 11.2485 10.3735 10.2525 10.3735 8.08485C10.3735 6.56162 11.1759 4.9798 12.8953 4.9798C13.7549 4.9798 14.5573 5.44848 14.9585 6.2101L16.4486 5.62424L16.3913 5.56566C15.7609 4.21818 14.4427 3.39798 12.8953 3.39798C11.8636 3.39798 10.832 3.80808 10.087 4.5697C9.28458 5.3899 8.82609 6.6202 8.82609 8.08485C8.82609 11.3071 10.9466 12.7717 12.9526 12.7717C14.5 12.7717 15.8755 11.8929 16.6206 10.4869L16.6779 10.4283L15.2451 9.84242Z" fill="#333333"/>
</svg>
