<svg width="50" height="20" viewBox="0 0 50 20" fill="none" xmlns="http://www.w3.org/2000/svg">
<g clip-path="url(#clip0_1902_4028)">
<path d="M39.7529 11.6504L40.5548 11.4576C40.5716 11.4535 40.5995 11.4469 40.6335 11.4355C40.8547 11.3735 41.0444 11.2246 41.1624 11.0201C41.2804 10.8156 41.3176 10.5714 41.2662 10.339C41.2651 10.3339 41.264 10.329 41.2629 10.324C41.2365 10.2126 41.1904 10.1073 41.1268 10.0137C41.037 9.89502 40.9258 9.79578 40.7994 9.72146C40.6507 9.63319 40.4951 9.55815 40.3342 9.49727L39.455 9.16328C38.9616 8.97238 38.4683 8.7863 37.9702 8.60484C37.6473 8.48524 37.3736 8.38035 37.1359 8.30378C37.091 8.28936 37.0415 8.275 37.0013 8.26054C36.7138 8.16888 36.5118 8.13088 36.3409 8.12965C36.2268 8.12529 36.1131 8.14683 36.0077 8.19284C35.8979 8.24213 35.7992 8.31501 35.7183 8.40661C35.678 8.45426 35.6401 8.50406 35.6048 8.55581C35.5717 8.60854 35.5413 8.66311 35.5138 8.71922C35.4835 8.77943 35.4575 8.84185 35.4359 8.90596C35.2727 9.40788 35.1915 9.93472 35.1955 10.4645C35.1984 10.9435 35.2107 11.5582 35.4637 11.975C35.5247 12.0819 35.6065 12.1743 35.7039 12.2463C35.8841 12.3758 36.0663 12.3929 36.2558 12.4071C36.5389 12.4282 36.8133 12.3558 37.0867 12.2901L39.7507 11.6496L39.7529 11.6504Z" fill="#252B37"/>
<path d="M48.6977 7.22044C48.4788 6.74232 48.1844 6.30585 47.827 5.92908C47.7807 5.88128 47.7312 5.83701 47.6787 5.7967C47.6303 5.7589 47.58 5.72377 47.5281 5.6914C47.4746 5.66094 47.4197 5.63345 47.3634 5.60908C47.2522 5.56364 47.1331 5.54318 47.0137 5.54897C46.8996 5.55574 46.7882 5.58826 46.6873 5.64432C46.5344 5.72346 46.369 5.85055 46.1489 6.06345C46.1185 6.09489 46.0803 6.13034 46.046 6.16378C45.8644 6.34144 45.6624 6.56045 45.422 6.81546C45.0507 7.20597 44.685 7.59859 44.3216 7.99547L43.6713 8.69715C43.5523 8.82538 43.4438 8.96386 43.3472 9.11116C43.2649 9.23564 43.2067 9.37561 43.1758 9.52327C43.1579 9.63652 43.1605 9.75222 43.1835 9.86445C43.1847 9.86952 43.1857 9.87434 43.1868 9.87942C43.2382 10.1119 43.3742 10.3144 43.5661 10.4444C43.7581 10.5744 43.9911 10.6217 44.216 10.5764C44.2517 10.571 44.2793 10.5646 44.2961 10.5603L47.7631 9.72678C48.0363 9.66108 48.3136 9.60087 48.5591 9.45259C48.7237 9.35325 48.8803 9.25477 48.9877 9.05613C49.0451 8.94698 49.0799 8.82651 49.0897 8.70249C49.1429 8.21083 48.8962 7.65245 48.6977 7.22044Z" fill="#252B37"/>
<path d="M42.4923 8.73752C42.7435 8.40912 42.7429 7.91956 42.7654 7.51935C42.841 6.18219 42.9206 4.84487 42.9837 3.50698C43.0079 3.00022 43.0603 2.50033 43.0314 1.98973C43.0075 1.5685 43.0045 1.08487 42.749 0.739187C42.2978 0.1296 41.3358 0.179701 40.6794 0.274258C40.4783 0.303301 40.2769 0.342348 40.0771 0.392261C39.8773 0.442174 39.6795 0.496688 39.4861 0.561167C38.8562 0.775848 37.9708 1.16992 37.8208 1.9251C37.7363 2.35202 37.9366 2.78873 38.092 3.17834C38.2803 3.65063 38.5376 4.07606 38.7721 4.52063C39.3919 5.69433 40.0233 6.8607 40.6529 8.02829C40.841 8.37685 41.0459 8.8183 41.4097 8.99889C41.4337 9.00981 41.4583 9.01951 41.4833 9.02787C41.6464 9.09213 41.8242 9.1045 41.9942 9.06341C42.0044 9.06095 42.0145 9.05854 42.0245 9.05613C42.1814 9.01171 42.3235 8.92293 42.435 8.79958C42.4551 8.77994 42.4743 8.75927 42.4923 8.73752Z" fill="#252B37"/>
<path d="M42.1907 12.3174C42.0926 12.1738 41.9534 12.0662 41.7931 12.01C41.6327 11.9537 41.4594 11.9518 41.2977 12.0043C41.2598 12.0174 41.2228 12.0334 41.1871 12.0521C41.1318 12.0814 41.0791 12.1156 41.0295 12.1543C40.885 12.2657 40.7633 12.4105 40.6525 12.5556C40.6244 12.5926 40.5988 12.6419 40.5653 12.6736L40.0077 13.4718C39.6916 13.919 39.3799 14.3673 39.0708 14.8227C38.8691 15.1167 38.6946 15.365 38.5569 15.5847C38.5307 15.6261 38.5036 15.6723 38.4788 15.7091C38.3136 15.975 38.2201 16.169 38.1721 16.3419C38.136 16.4567 38.1246 16.5784 38.1386 16.6984C38.154 16.8233 38.1944 16.9434 38.2573 17.0509C38.2907 17.1049 38.3267 17.1571 38.3652 17.2073C38.4052 17.2555 38.4477 17.3015 38.4924 17.345C38.5402 17.3924 38.5914 17.4361 38.6454 17.4757C39.0303 17.7544 39.4517 17.9546 39.8949 18.1093C40.2638 18.2367 40.6472 18.313 41.0352 18.3361C41.1012 18.3396 41.1674 18.3381 41.2332 18.3316C41.2942 18.3261 41.3549 18.3173 41.415 18.3051C41.4751 18.2905 41.5343 18.2726 41.5926 18.2514C41.7059 18.2073 41.8091 18.1389 41.8955 18.0508C41.9772 17.9655 42.0402 17.8628 42.0799 17.7496C42.1443 17.5824 42.1867 17.3702 42.2146 17.055C42.217 17.0102 42.2232 16.9564 42.2275 16.9072C42.2495 16.6456 42.2596 16.3385 42.2757 15.9774C42.303 15.4219 42.3244 14.8689 42.3413 14.3143C42.3413 14.3143 42.3772 13.3288 42.3771 13.3283C42.3853 13.1012 42.3786 12.8495 42.3181 12.6233C42.2915 12.515 42.2485 12.4117 42.1907 12.3174Z" fill="#252B37"/>
<path d="M48.4871 13.8604C48.3707 13.7276 48.2058 13.5952 47.9456 13.4315C47.9081 13.4097 47.8641 13.3806 47.8235 13.3553C47.6069 13.2197 47.346 13.0772 47.0413 12.9049C46.5731 12.6375 46.1047 12.3767 45.6318 12.1181L44.7962 11.657C44.7529 11.6439 44.7088 11.6113 44.668 11.5908C44.5075 11.5109 44.3373 11.4364 44.1607 11.4022C44.0998 11.39 44.0381 11.3833 43.9761 11.3823C43.9361 11.3817 43.8962 11.3843 43.8565 11.3898C43.6894 11.4167 43.5348 11.4979 43.4146 11.6217C43.2944 11.7455 43.2147 11.9057 43.187 12.0793C43.1743 12.1897 43.1782 12.3016 43.1985 12.4108C43.2394 12.6421 43.3386 12.871 43.4414 13.0715L43.8876 13.9416C44.1359 14.4325 44.3871 14.9204 44.6447 15.4068C44.8109 15.7241 44.9492 15.9957 45.0787 16.2207C45.1033 16.263 45.1311 16.3086 45.1521 16.3478C45.3098 16.6184 45.4364 16.7886 45.5649 16.9108C45.6481 16.9944 45.7478 17.0581 45.8571 17.0974C45.972 17.137 46.0935 17.151 46.214 17.1386C46.2752 17.131 46.336 17.1201 46.3962 17.1058C46.4554 17.0892 46.5138 17.0695 46.571 17.0466C46.6328 17.0224 46.6928 16.9935 46.7506 16.9602C47.0899 16.7623 47.4025 16.5187 47.6806 16.2357C48.0141 15.8942 48.3089 15.5218 48.5382 15.0955C48.5701 15.0352 48.5977 14.9725 48.6209 14.9081C48.6425 14.8484 48.6612 14.7876 48.6769 14.7261C48.6905 14.6634 48.7009 14.6001 48.7081 14.5363C48.7195 14.4111 48.7055 14.2848 48.667 14.1656C48.6292 14.0513 48.5678 13.9472 48.4871 13.8604Z" fill="#252B37"/>
<path fill-rule="evenodd" clip-rule="evenodd" d="M19.7172 5.3951C19.7172 4.67802 20.2786 4.09224 20.9561 4.09224C21.624 4.09224 22.166 4.67802 22.1951 5.40521V15.5756C22.1951 16.2927 21.6337 16.8784 20.9561 16.8784C20.2592 16.8784 19.7172 16.2927 19.7172 15.5756V5.3951ZM18.5651 11.6771C18.5555 11.8791 18.5071 12.2528 18.2554 12.5255C17.9843 12.8183 17.6165 12.8891 17.4036 12.8891C16.5179 12.8941 15.6323 12.8966 14.7467 12.8992C13.861 12.9017 12.9753 12.9042 12.0896 12.9093C12.167 13.1618 12.3219 13.5455 12.6704 13.899C12.8833 14.1111 13.0866 14.2323 13.1737 14.2828C13.2802 14.3535 13.648 14.5555 14.1029 14.5555C14.5869 14.5555 15.0128 14.3939 15.429 14.1717L15.4638 14.153C15.753 13.997 16.0515 13.8361 16.3679 13.7778C16.6776 13.7273 17.0067 13.7879 17.2487 14.0101C17.5391 14.2727 17.6552 14.6565 17.5488 15.0504C17.4229 15.4948 17.0648 15.8786 16.6873 16.1109C16.4744 16.2422 16.2421 16.3532 16.0098 16.4441C15.7097 16.5553 15.4 16.6361 15.0902 16.6865C14.7804 16.737 14.4611 16.7572 14.1416 16.7471C13.9867 16.7471 13.8222 16.7471 13.6576 16.7269C13.4835 16.7067 13.3092 16.6664 13.1446 16.6259C12.8736 16.5653 12.622 16.4744 12.3703 16.3532C12.1283 16.2422 11.8863 16.1007 11.6637 15.9392C11.4411 15.7776 11.2378 15.5857 11.0442 15.3837C10.8603 15.1817 10.6861 14.9595 10.5312 14.7171C10.0085 13.889 9.76651 12.8689 9.81491 11.8791C9.85365 10.9095 10.1634 9.93994 10.7248 9.15219C10.7856 9.05351 10.8558 8.96955 10.9223 8.8901C10.9511 8.85569 10.9792 8.82214 11.0055 8.7886C11.6988 7.90663 12.625 7.62752 13.0071 7.51237L13.0285 7.50591C14.1223 7.18274 15.0321 7.39482 15.4 7.50591C15.5839 7.55643 16.6196 7.88971 17.4229 8.7886C17.4617 8.82897 17.5681 8.96027 17.7036 9.15219C18.2126 9.87357 18.3881 10.5453 18.4476 10.7729L18.449 10.7782C18.5071 11.0004 18.5651 11.3034 18.5651 11.6771ZM12.8833 10.0106C12.3219 10.4853 12.167 11.0913 12.1283 11.2832H16.3485C16.3098 11.1014 16.1453 10.4853 15.5839 10.0106C15.0128 9.53594 14.4127 9.50568 14.2288 9.50568C14.0449 9.50568 13.4447 9.53594 12.8833 10.0106ZM28.9318 7.33424C27.8283 7.33424 26.8216 7.84929 26.1054 8.68761V8.6573C26.0763 7.98059 25.5343 7.43523 24.8761 7.43523C24.1888 7.43523 23.6371 8.0109 23.6371 8.72798V18.4338C23.6371 19.1509 24.1888 19.7266 24.8761 19.7266C25.5633 19.7266 26.115 19.1509 26.115 18.4338V18.0601V15.4039C26.8313 16.2321 27.8283 16.7572 28.9414 16.7572C31.158 16.7572 32.9584 14.6666 32.9584 12.0609C32.9487 9.45516 31.1484 7.33424 28.9318 7.33424ZM28.3897 14.6464C27.1314 14.6464 26.1054 13.5052 26.1054 12.0811C26.1054 10.6469 27.1217 9.50568 28.3897 9.50568C29.648 9.50568 30.674 10.6469 30.674 12.0811C30.6644 13.5052 29.648 14.6464 28.3897 14.6464ZM7.95651 12.7376L7.54997 13.6667C7.36607 14.0707 7.18217 14.4848 7.00794 14.8989C6.95234 15.026 6.89635 15.1556 6.83957 15.2871C6.06592 17.0783 5.14776 19.2042 3.14584 19.6559C2.1779 19.878 0.716305 19.5751 0.174257 18.6257C-0.367791 17.6662 0.435602 16.5653 1.4713 16.8178C1.63466 16.8557 1.79528 16.9391 1.95728 17.0231C2.22723 17.1632 2.50096 17.3052 2.79738 17.242C3.07809 17.1915 3.25232 16.9794 3.47494 16.7067C3.78469 16.333 3.9202 15.9392 3.97827 15.7069C3.97343 15.6968 3.96859 15.6842 3.96375 15.6715C3.95891 15.6589 3.95407 15.6463 3.94923 15.6362C3.69727 15.147 3.47722 14.7097 3.2934 14.3444C3.17357 14.1063 3.06914 13.8987 2.98129 13.7273C2.80104 13.3718 2.66488 13.103 2.559 12.894C2.2498 12.2836 2.19874 12.1828 2.06175 11.9195C1.76168 11.3236 1.44226 10.7479 1.11316 10.1722C0.755022 9.54604 0.387204 8.84917 0.687269 8.11189C0.929254 7.51601 1.54874 7.213 2.13918 7.40492C2.76218 7.60167 3.03807 8.21852 3.29609 8.79542C3.34273 8.89969 3.3888 9.00268 3.43623 9.10167C3.85244 9.96015 4.25898 10.8186 4.66551 11.6771C4.7013 11.7625 4.756 11.8788 4.82246 12.0202C4.88183 12.1465 4.95061 12.2928 5.02365 12.4548C5.06185 12.5389 5.09818 12.6172 5.13105 12.688C5.1731 12.7786 5.20942 12.857 5.23658 12.9193C5.42536 12.4295 5.6165 11.9422 5.8077 11.4549C5.99884 10.9676 6.19003 10.4803 6.37876 9.99046C6.38403 9.96307 6.42908 9.8586 6.49696 9.70109C6.55433 9.56794 6.62807 9.39694 6.70786 9.20266C6.73487 9.13629 6.76203 9.06741 6.78983 8.99699C7.04126 8.35987 7.3435 7.59387 8.01462 7.38471C8.49859 7.2332 9.04062 7.43523 9.32133 7.85939C9.46653 8.07148 9.52459 8.31387 9.53425 8.55626C9.54204 9.09228 9.29323 9.66754 9.07966 10.1612C9.02766 10.2814 8.97773 10.3967 8.93416 10.5055C8.93214 10.5097 8.92371 10.5295 8.90848 10.565C8.84943 10.703 8.6886 11.0787 8.41145 11.6973C8.31144 11.919 8.21547 12.1408 8.11827 12.3653C8.06499 12.4884 8.01137 12.6124 7.95651 12.7376Z" fill="#252B37"/>
<path d="M33.8964 15.9075H33.9862C34.0305 15.9075 34.0659 15.8957 34.0925 15.8721C34.1196 15.8479 34.1332 15.8173 34.1332 15.7805C34.1332 15.7372 34.1213 15.7064 34.0975 15.688C34.0737 15.669 34.036 15.6594 33.9845 15.6594H33.8964V15.9075ZM34.257 15.777C34.257 15.8231 34.2451 15.864 34.2213 15.8998C34.198 15.9349 34.1651 15.9611 34.1224 15.9784L34.3201 16.3199H34.1805L34.0086 16.0138H33.8964V16.3199H33.7735V15.5497H33.9903C34.0823 15.5497 34.1495 15.5684 34.1922 15.6058C34.2354 15.6433 34.257 15.7003 34.257 15.777ZM33.3789 15.9343C33.3789 15.8191 33.4066 15.711 33.462 15.6102C33.5174 15.5093 33.5935 15.4298 33.6905 15.3716C33.7874 15.3134 33.8918 15.2843 34.0036 15.2843C34.1144 15.2843 34.2182 15.3131 34.3152 15.3707C34.4121 15.4284 34.4885 15.5076 34.5444 15.6084C34.6003 15.7093 34.6283 15.8179 34.6283 15.9343C34.6283 16.0478 34.6015 16.1545 34.5477 16.2542C34.494 16.3539 34.4187 16.4337 34.3218 16.4936C34.2249 16.5535 34.1188 16.5835 34.0036 16.5835C33.889 16.5835 33.7832 16.5538 33.6863 16.4945C33.5894 16.4345 33.5138 16.3547 33.4595 16.255C33.4058 16.1553 33.3789 16.0484 33.3789 15.9343ZM33.4661 15.9343C33.4661 16.034 33.4902 16.1274 33.5384 16.2144C33.5866 16.3008 33.6522 16.3691 33.7353 16.4193C33.8189 16.4688 33.9084 16.4936 34.0036 16.4936C34.1 16.4936 34.1894 16.4686 34.2719 16.4184C34.3544 16.3683 34.4198 16.3005 34.468 16.2152C34.5167 16.1294 34.5411 16.0357 34.5411 15.9343C34.5411 15.8341 34.517 15.741 34.4688 15.6551C34.4206 15.5692 34.3553 15.5012 34.2728 15.4511C34.1908 15.4004 34.1011 15.375 34.0036 15.375C33.9072 15.375 33.8178 15.4001 33.7353 15.4503C33.6528 15.5004 33.5872 15.5684 33.5384 15.6542C33.4902 15.7395 33.4661 15.8329 33.4661 15.9343Z" fill="#252B37"/>
</g>
<defs>
<clipPath id="clip0_1902_4028">
<rect width="49.2892" height="19.7463" fill="white"/>
</clipPath>
</defs>
</svg>
